<svg width="1149" height="800" viewBox="0 0 1149 800" fill="none" xmlns="http://www.w3.org/2000/svg">
<path fill-rule="evenodd" clip-rule="evenodd" d="M1148.98 38.0058V761.063C1148.98 763.034 1147.44 764.582 1145.46 764.582C1128.42 764.582 1114.48 778.517 1114.48 795.548C1114.48 797.519 1112.93 799.067 1110.95 799.067H38.9059C36.9339 799.067 35.3845 797.519 35.3845 795.548C35.3845 778.517 21.4398 764.582 4.39638 764.582C2.42441 764.582 0.875 763.034 0.875 761.063V38.0058C0.875 36.0352 2.42441 34.4869 4.39638 34.4869C21.4398 34.4869 35.3845 20.6929 35.3845 3.52082C35.3845 1.69101 36.9339 0.00195312 38.9059 0.00195312H1110.95C1112.93 0.00195312 1114.48 1.69101 1114.48 3.52082C1114.48 20.6929 1128.42 34.4869 1145.46 34.4869C1147.44 34.4869 1148.98 36.0352 1148.98 38.0058ZM1141.94 41.3839C1123.77 39.6948 1109.26 25.1971 1107.57 7.03969H42.1455C40.5961 25.1971 26.0881 39.6948 7.91776 41.3839V757.685C26.0881 759.374 40.5961 773.872 42.1455 792.029H1107.57C1109.26 773.872 1123.77 759.374 1141.94 757.685V41.3839Z" fill="#1D4ED8"/>
</svg>
