<svg width="1149" height="800" viewBox="0 0 1149 800" fill="none" xmlns="http://www.w3.org/2000/svg">
<path fill-rule="evenodd" clip-rule="evenodd" d="M1148.11 38.0038V761.061C1148.11 763.032 1146.56 764.58 1144.59 764.58C1127.55 764.58 1113.6 778.515 1113.6 795.546C1113.6 797.517 1112.05 799.065 1110.08 799.065H38.0309C36.0589 799.065 34.5095 797.517 34.5095 795.546C34.5095 778.515 20.5648 764.58 3.52138 764.58C1.54941 764.58 0 763.032 0 761.061V38.0038C0 36.0332 1.54941 34.4849 3.52138 34.4849C20.5648 34.4849 34.5095 20.691 34.5095 3.51887C34.5095 1.68906 36.0589 0 38.0309 0H1110.08C1112.05 0 1113.6 1.68906 1113.6 3.51887C1113.6 20.691 1127.55 34.4849 1144.59 34.4849C1146.56 34.4849 1148.11 36.0332 1148.11 38.0038ZM1141.07 41.3819C1122.9 39.6929 1108.39 25.1951 1106.7 7.03774H41.2705C39.7211 25.1951 25.2131 39.6929 7.04276 41.3819V757.683C25.2131 759.372 39.7211 773.87 41.2705 792.027H1106.7C1108.39 773.87 1122.9 759.372 1141.07 757.683V41.3819Z" fill="#1D4ED8"/>
<path fill-rule="evenodd" clip-rule="evenodd" d="M1096.7 780.907H51.41C50.7057 780.907 50.2832 780.626 50.0015 780.063C45.2124 765.424 33.5214 753.883 19.0133 749.097C18.4499 748.815 18.0273 748.252 18.0273 747.689V51.3754C18.0273 50.8123 18.4499 50.2493 19.0133 50.1086C33.5214 45.1821 45.2124 33.6403 50.0015 19.1425C50.2832 18.5795 50.7057 18.1572 51.41 18.1572H1096.7C1097.4 18.1572 1097.82 18.5795 1098.1 19.1425C1102.89 33.6403 1114.58 45.1821 1129.09 50.1086C1129.66 50.2493 1130.08 50.8123 1130.08 51.3754V747.689C1130.08 748.252 1129.66 748.815 1129.09 749.097C1114.58 753.883 1102.89 765.424 1098.1 780.063C1097.82 780.626 1097.4 780.907 1096.7 780.907ZM52.396 778.092H1095.71C1100.92 763.595 1112.61 751.912 1127.26 746.704V52.3606C1112.61 47.1527 1100.92 35.6108 1095.71 20.9723H52.396C47.1843 35.6108 35.4934 47.1527 20.8444 52.3606V746.704C35.4934 751.912 47.1843 763.595 52.396 778.092Z" fill="#1D4ED8"/>
<path d="M1051.2 723.761C1048.81 720.665 1046.13 717.85 1043.03 715.598C1041.34 714.19 1039.37 713.064 1037.26 712.219C1029.65 707.715 1020.78 705.322 1012.18 708.841C1000.91 713.345 997.534 726.576 1001.76 737.133C1006.13 747.69 1017.54 756.276 1029.37 753.461C1039.09 751.208 1045.71 740.511 1040.21 731.503C1039.93 731.081 1039.09 731.362 1039.37 731.784C1043.88 742.622 1035.85 752.757 1024.3 752.616C1013.45 752.475 1004.3 742.904 1001.9 732.91C999.084 720.805 1006.97 709.264 1019.65 708.419C1023.59 708.137 1027.25 708.841 1030.92 710.108C1028.76 709.827 1026.64 709.78 1024.58 709.967C1013.31 711.375 1004.3 723.339 1011.48 733.614C1013.59 736.852 1018.24 739.807 1022.32 738.4C1025.42 737.274 1027.68 732.629 1024.02 730.518C1021.62 729.251 1018.1 731.362 1019.23 734.177C1019.51 735.022 1020.21 735.585 1020.92 735.725C1017.54 738.118 1014.01 735.303 1012.18 732.347C1011.06 730.518 1010.35 727.984 1010.21 725.732C1010.21 721.228 1012.75 717.287 1016.27 714.612C1024.86 708.278 1036.13 711.375 1043.73 717.568C1049.37 722.072 1052.19 728.266 1056.55 733.614C1058.95 736.57 1062.47 738.681 1065.99 736.007C1066.13 735.866 1065.99 735.585 1065.71 735.725C1058.81 739.385 1054.3 727.702 1051.2 723.761Z" fill="#1D4ED8"/>
<path d="M999.506 742.763C999.929 746.001 1002.18 749.238 1004.72 751.49C1006.97 753.461 1010.77 755.994 1014.01 755.009C1014.44 754.868 1014.58 754.305 1014.3 754.024C1012.18 752.194 1009.08 751.631 1006.83 750.083C1003.87 747.971 1001.9 745.438 999.788 742.622C999.647 742.622 999.506 742.622 999.506 742.763Z" fill="#1D4ED8"/>
<path d="M1009.93 771.055C1007.82 768.944 1004.86 767.536 1002.75 765.284C1000.21 762.75 998.098 759.513 997.112 756.135H996.971C997.253 759.935 998.38 763.313 1000.77 766.41C1002.75 769.084 1005.99 772.04 1009.51 772.181C1010.07 772.181 1010.35 771.477 1009.93 771.055Z" fill="#1D4ED8"/>
<path d="M1065.29 729.11C1066.98 733.473 1069.79 737.696 1069.79 742.482C1069.79 745.297 1069.23 748.393 1067.26 750.364C1065.99 751.772 1064.3 752.475 1062.61 752.757C1061.86 752.944 1061.15 752.944 1060.5 752.757C1059.18 752.663 1058.24 752.053 1057.68 750.927C1060.78 751.631 1062.89 747.408 1059.79 745.438C1055 742.341 1053.17 750.223 1056.41 753.179C1060.92 757.12 1067.82 754.024 1070.22 749.379C1073.74 742.622 1070.07 734.318 1065.71 728.969C1065.57 728.688 1065.14 728.969 1065.29 729.11Z" fill="#1D4ED8"/>
<path fill-rule="evenodd" clip-rule="evenodd" d="M1067.12 730.236C1069.93 732.629 1073.03 735.444 1075.29 738.681C1075.15 738.54 1075.29 738.4 1075.43 738.4C1079.09 740.933 1082.33 743.889 1085.57 746.704C1089.23 749.942 1093.03 753.038 1096.56 756.416C1096.84 756.698 1096.41 757.402 1095.99 757.12C1095.8 757.026 1095.66 756.885 1095.57 756.698C1095.57 756.698 1095.52 756.698 1095.43 756.698C1094.02 756.276 1092.75 755.29 1091.2 754.868C1089.51 754.446 1087.68 754.305 1085.99 754.446C1085.43 754.586 1085.29 754.164 1085.43 753.742C1084.02 751.208 1083.17 748.675 1081.48 746.282C1080.36 744.593 1078.67 743.326 1077.12 741.919C1077.96 743.608 1078.53 745.437 1078.67 747.267C1079.23 751.912 1077.54 757.965 1072.33 759.231C1071.62 759.372 1071.2 758.528 1071.62 757.965C1075.71 752.757 1077.96 749.238 1075.43 742.341C1073.6 737.696 1070.07 734.177 1066.84 730.377C1066.84 730.236 1066.98 730.095 1067.12 730.236ZM1085.85 752.616C1085.94 752.804 1085.99 752.991 1085.99 753.179C1086.18 753.179 1086.41 753.132 1086.7 753.038C1086.51 752.944 1086.32 752.804 1086.13 752.616C1086.04 752.616 1085.94 752.616 1085.85 752.616ZM1089.65 753.32C1089.47 753.132 1089.28 752.944 1089.09 752.757C1089 752.944 1088.86 753.085 1088.67 753.179C1088.95 753.179 1089.28 753.226 1089.65 753.32ZM1075.29 738.681C1075.47 738.963 1075.66 739.244 1075.85 739.526C1075.94 739.526 1076.04 739.573 1076.13 739.667C1075.85 739.385 1075.57 739.057 1075.29 738.681Z" fill="#1D4ED8"/>
<path d="M1008.1 757.824C1007.96 757.824 1007.82 757.965 1007.96 757.965C1011.9 763.173 1022.32 768.662 1028.38 764.017C1028.8 763.736 1028.66 763.032 1028.1 762.891C1024.86 762.328 1021.48 763.032 1018.1 762.469C1014.3 761.906 1011.06 760.076 1008.1 757.824Z" fill="#1D4ED8"/>
<path d="M991.055 759.513C993.731 755.431 994.436 750.646 993.027 746.141C992.886 745.719 992.182 745.719 992.182 746.141C992.464 750.646 991.759 755.009 988.801 758.669C987.534 760.217 986.125 761.484 984.435 762.61C983.167 763.313 982.745 763.454 982.04 764.721C981.899 765.003 982.04 765.284 982.322 765.284C985.703 766.269 989.365 762.047 991.055 759.513Z" fill="#1D4ED8"/>
<path d="M995.14 739.244C995.422 745.86 997.393 752.335 1000.91 757.965C1007.11 767.818 1020.07 774.715 1031.76 770.633C1032.33 770.492 1032.04 769.788 1031.48 769.788C1009.51 773.166 995.985 754.446 996.548 735.162C996.736 734.318 996.924 733.473 997.112 732.629C997.253 732.347 996.971 732.207 996.689 732.207C997.112 727.984 998.239 723.761 1000.21 719.82C1005.7 708.56 1016.69 702.789 1029.37 705.041C1041.9 707.293 1050.92 716.301 1060.21 724.043C1060.5 724.324 1060.78 724.043 1060.64 723.761C1051.48 713.627 1039.09 703.633 1024.86 703.07C1012.61 702.648 1002.89 709.967 998.239 720.665C996.267 725.45 995.14 730.658 994.999 735.866C991.618 743.748 987.815 752.335 978.942 755.431C972.603 757.683 964.293 755.713 962.039 748.675C961.053 745.719 961.475 742.059 963.87 739.667C965.56 738.071 967.532 737.274 969.786 737.274C973.073 737.274 974.951 738.822 975.42 741.919C971.335 737.555 966.828 748.253 973.73 747.549C977.956 747.127 978.096 742.059 976.124 739.385C973.73 736.148 968.941 735.726 965.419 737.133C954.433 741.919 961.898 756.416 971.194 757.824C983.167 759.513 991.055 749.379 995.14 739.244Z" fill="#1D4ED8"/>
<path d="M908.937 755.431C910.627 755.853 954.714 748.956 954.714 748.956L957.391 755.853L908.937 755.431Z" fill="#1D4ED8"/>
<path d="M1063.03 712.219C1060.07 709.827 1057.12 707.293 1054.86 704.196C1053.45 702.413 1052.28 700.49 1051.34 698.425C1046.83 690.965 1044.44 682.239 1047.96 673.653C1052.61 662.533 1065.99 659.155 1076.55 663.377C1087.26 667.6 1095.99 678.86 1093.18 690.684C1090.92 700.255 1080.08 706.73 1070.92 701.241C1070.5 700.959 1070.78 700.255 1071.2 700.396C1082.19 705.041 1092.47 697.018 1092.33 685.617C1092.19 674.919 1082.47 665.77 1072.33 663.518C1060.21 660.703 1048.52 668.445 1047.54 680.972C1047.4 684.913 1048.1 688.573 1049.37 692.091C1048.99 690.027 1048.95 687.963 1049.23 685.898C1050.64 674.779 1062.75 665.911 1073.17 672.949C1076.27 675.06 1079.37 679.564 1077.96 683.646C1076.84 686.743 1072.05 688.854 1069.93 685.335C1068.67 683.083 1070.78 679.424 1073.6 680.55C1074.58 680.972 1075 681.535 1075.15 682.379C1077.68 679.001 1074.72 675.482 1071.77 673.653C1069.93 672.527 1067.4 671.823 1065.14 671.682C1060.5 671.682 1056.55 674.075 1053.88 677.734C1047.54 686.18 1050.5 697.299 1056.83 704.759C1061.48 710.39 1067.68 713.064 1073.17 717.427C1076.13 719.82 1078.1 723.339 1075.57 726.717C1075.43 726.999 1075 726.858 1075.15 726.576C1078.81 719.679 1067.12 715.175 1063.03 712.219Z" fill="#1D4ED8"/>
<path d="M1082.33 661.125C1085.71 661.548 1088.95 663.8 1091.2 666.193C1093.17 668.445 1095.71 672.245 1094.72 675.482C1094.58 675.764 1094.02 676.045 1093.74 675.623C1091.91 673.653 1091.34 670.697 1089.65 668.304C1087.68 665.348 1085.15 663.518 1082.19 661.407C1082.19 661.266 1082.19 661.125 1082.33 661.125Z" fill="#1D4ED8"/>
<path d="M1111.06 671.401C1108.81 669.289 1107.4 666.474 1105.15 664.222C1102.61 661.829 1099.37 659.718 1095.85 658.733C1095.85 658.733 1095.85 658.592 1095.99 658.592C1099.8 658.873 1103.18 659.999 1106.27 662.392C1108.95 664.363 1112.05 667.459 1112.05 670.978C1112.05 671.541 1111.35 671.823 1111.06 671.401Z" fill="#1D4ED8"/>
<path d="M1068.53 726.154C1073.03 727.843 1077.12 730.517 1082.05 730.658C1084.86 730.658 1087.96 729.955 1090.08 727.984C1091.34 726.858 1092.19 725.169 1092.47 723.48C1092.66 722.729 1092.66 722.025 1092.47 721.368C1092.38 720.055 1091.77 719.116 1090.64 718.553C1091.34 721.65 1086.98 723.761 1085.01 720.665C1081.91 715.879 1089.94 714.19 1092.89 717.427C1096.84 721.791 1093.74 728.688 1089.09 730.94C1082.19 734.459 1073.74 730.799 1068.38 726.436C1068.1 726.295 1068.38 726.013 1068.53 726.154Z" fill="#1D4ED8"/>
<path fill-rule="evenodd" clip-rule="evenodd" d="M1069.79 727.702C1073.6 730.799 1077.26 734.318 1081.91 736.007C1088.95 738.681 1092.47 736.429 1097.82 732.347C1098.39 731.925 1099.09 732.347 1098.95 733.051C1097.82 738.118 1091.63 739.807 1086.98 739.385C1085.01 739.104 1083.17 738.541 1081.48 737.837C1082.89 739.385 1084.16 740.933 1085.99 742.2C1088.25 743.748 1090.92 744.734 1093.46 746.001C1093.88 745.86 1094.3 746.001 1094.16 746.564C1094.02 748.253 1094.16 749.942 1094.58 751.631C1095.01 753.179 1095.99 754.446 1096.41 755.994C1096.51 755.994 1096.51 755.994 1096.41 755.994C1096.6 756.088 1096.74 756.229 1096.84 756.417C1097.12 756.839 1096.56 757.261 1096.13 756.979C1092.61 753.601 1089.65 749.801 1086.41 746.141C1083.46 742.904 1080.36 739.807 1077.96 736.148C1077.82 736.007 1078.1 735.866 1078.24 736.007C1074.86 733.755 1072.05 730.799 1069.65 727.843C1069.51 727.702 1069.65 727.562 1069.79 727.702ZM1092.33 746.704C1092.52 746.892 1092.66 747.08 1092.75 747.267C1092.75 746.986 1092.8 746.751 1092.89 746.564C1092.71 746.564 1092.47 746.517 1092.19 746.423C1092.28 746.517 1092.33 746.611 1092.33 746.704ZM1092.89 749.238C1092.8 749.426 1092.66 749.566 1092.47 749.66C1092.66 749.848 1092.85 749.989 1093.03 750.083C1092.94 749.801 1092.89 749.519 1092.89 749.238ZM1079.23 736.852C1079.14 736.758 1079.09 736.617 1079.09 736.429C1078.81 736.335 1078.53 736.195 1078.24 736.007C1078.62 736.289 1078.95 736.57 1079.23 736.852Z" fill="#1D4ED8"/>
<path d="M1097.54 669.571C1097.54 669.43 1097.68 669.289 1097.82 669.43C1103.03 673.371 1108.53 683.646 1103.74 689.699C1103.46 689.98 1102.89 689.839 1102.75 689.417C1102.19 686.18 1102.89 682.802 1102.33 679.424C1101.63 675.764 1099.94 672.527 1097.54 669.571Z" fill="#1D4ED8"/>
<path d="M1099.23 652.821C1095.29 655.354 1090.22 656.058 1085.71 654.651C1085.29 654.51 1085.29 653.947 1085.85 653.947C1090.36 654.088 1094.72 653.384 1098.39 650.569C1100.08 649.302 1101.34 647.894 1102.33 646.205C1103.18 644.939 1103.32 644.516 1104.58 643.813C1104.87 643.672 1105.15 643.813 1105.15 644.094C1106.13 647.472 1101.77 651.132 1099.23 652.821Z" fill="#1D4ED8"/>
<path d="M1078.81 656.762C1085.43 657.044 1092.05 659.014 1097.68 662.392C1107.68 668.585 1114.73 681.394 1110.64 692.936C1110.36 693.499 1109.66 693.218 1109.8 692.795C1113.04 670.978 1094.16 657.607 1074.72 658.17C1073.78 658.357 1072.89 658.592 1072.05 658.873C1071.77 658.873 1071.62 658.592 1071.62 658.31C1067.4 658.733 1063.03 659.859 1059.09 661.829C1047.68 667.178 1041.9 678.157 1044.16 690.543C1046.41 703.07 1055.57 711.938 1063.45 721.087C1063.6 721.369 1063.31 721.65 1063.03 721.509C1052.89 712.36 1042.75 700.255 1042.19 686.039C1041.62 674.075 1049.09 664.504 1060.07 659.859C1064.72 657.888 1070.07 656.762 1075.29 656.621C1083.46 653.243 1092.05 649.584 1095.15 640.716C1097.4 634.523 1095.43 626.218 1088.39 623.966C1085.29 623.122 1081.62 623.544 1079.23 625.796C1077.63 627.485 1076.84 629.456 1076.84 631.708C1076.84 634.992 1078.39 636.869 1081.48 637.338C1077.12 633.256 1087.96 628.752 1087.26 635.649C1086.84 639.731 1081.62 640.012 1078.95 638.042C1075.71 635.649 1075.15 631.004 1076.69 627.485C1081.48 616.506 1096.13 623.966 1097.54 633.256C1099.37 644.939 1089.09 652.68 1078.81 656.762Z" fill="#1D4ED8"/>
<path d="M1095.15 571.605C1095.71 573.294 1088.53 616.788 1088.53 616.788L1095.71 619.462L1095.15 571.605Z" fill="#1D4ED8"/>
<path d="M1093.32 746.564C1093.03 746.001 1092.47 746.001 1091.91 746.001C1091.48 746.141 1091.34 746.704 1091.63 746.986C1091.91 747.174 1092.14 747.361 1092.33 747.549C1092.33 747.267 1092.38 746.986 1092.47 746.704C1091.91 746.986 1091.2 747.127 1091.2 747.69C1091.2 747.83 1091.2 747.971 1091.34 747.971C1091.91 748.393 1092.47 747.83 1093.03 747.69C1093.32 747.549 1093.46 746.986 1093.18 746.845C1092.89 746.564 1092.66 746.329 1092.47 746.141C1092.38 746.517 1092.28 746.845 1092.19 747.127C1092.33 747.127 1092.61 747.127 1092.75 747.127C1093.18 747.408 1093.6 746.986 1093.32 746.564Z" fill="#1D4ED8"/>
<path d="M1092.47 750.223C1092.66 750.317 1092.85 750.458 1093.03 750.645C1093.32 750.927 1094.02 750.505 1093.74 750.083C1093.32 749.52 1092.89 748.956 1092.47 748.393C1092.05 747.971 1091.34 748.393 1091.48 748.956C1091.63 749.379 1091.77 749.801 1092.33 749.942C1092.42 750.036 1092.52 749.989 1092.61 749.801C1092.89 749.519 1092.75 749.097 1092.61 748.675C1092.24 748.863 1091.91 749.05 1091.63 749.238C1092.05 749.66 1092.47 750.223 1093.03 750.645C1093.22 750.364 1093.41 750.129 1093.6 749.942C1093.41 749.754 1093.22 749.613 1093.03 749.519C1092.61 749.238 1092.19 749.801 1092.47 750.223Z" fill="#1D4ED8"/>
<path d="M1090.36 753.038C1089.42 752.757 1088.43 752.569 1087.4 752.475C1087.4 752.851 1087.4 753.179 1087.4 753.461C1087.78 753.554 1088.15 753.601 1088.53 753.601C1088.53 753.226 1088.53 752.898 1088.53 752.616C1087.78 752.616 1087.02 752.616 1086.27 752.616C1086.37 752.804 1086.51 752.944 1086.7 753.038C1086.7 752.757 1086.55 752.616 1086.41 752.475C1086.41 752.194 1085.99 752.194 1085.85 752.335C1085.43 752.475 1085.71 752.757 1085.85 753.179C1085.85 753.32 1085.99 753.461 1086.27 753.461C1087.02 753.461 1087.78 753.508 1088.53 753.601C1089.23 753.601 1089.23 752.616 1088.53 752.616C1088.15 752.522 1087.78 752.475 1087.4 752.475C1086.84 752.475 1086.84 753.461 1087.4 753.461C1088.34 753.554 1089.28 753.554 1090.22 753.461C1090.5 753.461 1090.64 753.038 1090.36 753.038Z" fill="#1D4ED8"/>
<path d="M1077.4 735.022C1077.68 735.866 1078.39 736.57 1078.95 737.414C1079.51 738.118 1080.08 738.822 1080.78 739.244C1081.06 739.385 1081.34 739.244 1081.2 738.963C1081.06 738.118 1080.36 737.414 1079.79 736.711C1079.23 736.007 1078.67 735.162 1077.82 734.74C1077.68 734.599 1077.4 734.74 1077.4 735.022Z" fill="#1D4ED8"/>
<path d="M1068.67 727.139C1070.92 730.517 1074.16 733.473 1077.12 736.429C1079.93 739.385 1082.75 742.622 1086.13 745.015C1086.41 745.156 1086.7 744.874 1086.55 744.593C1084.3 741.215 1080.92 738.4 1078.1 735.444C1075.15 732.488 1072.33 729.251 1068.95 726.858C1068.81 726.717 1068.53 726.999 1068.67 727.139Z" fill="#1D4ED8"/>
<path d="M1065.57 729.11C1068.24 733.051 1071.91 736.429 1075.29 739.807C1078.95 743.748 1082.47 747.83 1086.7 751.068C1086.98 751.349 1087.4 751.068 1087.12 750.786C1084.16 746.704 1080.36 743.045 1076.84 739.526C1073.31 735.866 1069.93 731.784 1065.85 728.828C1065.71 728.688 1065.43 728.969 1065.57 729.11Z" fill="#1D4ED8"/>
<path d="M1068.53 726.436C1068.53 726.529 1068.53 726.576 1068.53 726.576C1068.38 726.576 1068.38 726.717 1068.53 726.717C1068.81 726.858 1068.81 726.436 1068.53 726.436Z" fill="#1D4ED8"/>
<path d="M1068.38 726.717C1069.51 728.969 1071.91 730.94 1073.74 732.77C1075.57 734.74 1077.26 736.992 1079.51 738.4C1079.79 738.541 1079.93 738.259 1079.79 738.118C1078.53 735.866 1076.27 734.036 1074.44 732.066C1072.61 730.236 1070.78 727.843 1068.53 726.576C1068.38 726.436 1068.24 726.576 1068.38 726.717Z" fill="#1D4ED8"/>
<path d="M99.8648 723.761C102.259 720.665 104.936 717.85 108.034 715.598C109.866 714.19 111.837 713.064 113.809 712.219C121.416 707.715 130.29 705.322 138.882 708.841C150.15 713.345 153.671 726.576 149.305 737.133C145.079 747.69 133.67 756.276 121.697 753.461C111.978 751.208 105.358 740.511 110.992 731.503C111.274 731.081 111.978 731.362 111.837 731.784C107.189 742.622 115.359 752.757 126.768 752.616C137.614 752.475 146.91 742.904 149.164 732.91C151.981 720.805 144.234 709.264 131.557 708.419C127.613 708.137 123.81 708.841 120.289 710.108C122.355 709.827 124.468 709.78 126.627 709.967C137.755 711.375 146.77 723.339 139.727 733.614C137.473 736.852 132.966 739.807 128.881 738.4C125.782 737.274 123.528 732.629 127.191 730.518C129.444 729.251 133.107 731.362 131.98 734.177C131.557 735.022 130.853 735.585 130.149 735.725C133.529 738.118 137.051 735.303 138.882 732.347C140.149 730.518 140.854 727.984 140.854 725.732C140.994 721.228 138.459 717.287 134.797 714.612C126.346 708.278 115.077 711.375 107.33 717.568C101.837 722.072 99.0197 728.266 94.5123 733.614C92.1178 736.57 88.5964 738.681 85.2159 736.007C84.9342 735.866 85.075 735.585 85.3567 735.725C92.2586 739.385 96.9068 727.702 99.8648 723.761Z" fill="#1D4ED8"/>
<path d="M151.559 742.763C151.136 746.001 148.882 749.238 146.488 751.49C144.093 753.461 140.29 755.994 137.191 755.009C136.769 754.868 136.487 754.305 136.91 754.024C138.882 752.194 141.98 751.631 144.375 750.083C147.333 747.971 149.305 745.438 151.418 742.622C151.418 742.622 151.559 742.622 151.559 742.763Z" fill="#1D4ED8"/>
<path d="M141.135 771.055C143.389 768.944 146.206 767.536 148.46 765.284C150.854 762.75 152.967 759.513 154.094 756.135H154.235C153.812 759.935 152.826 763.313 150.432 766.41C148.319 769.084 145.22 772.04 141.558 772.181C140.995 772.181 140.854 771.477 141.135 771.055Z" fill="#1D4ED8"/>
<path d="M85.9201 729.11C84.089 733.473 81.4128 737.696 81.2719 742.482C81.2719 745.297 81.9762 748.393 83.9482 750.364C85.075 751.772 86.7653 752.475 88.5964 752.757C89.2537 752.944 89.958 752.944 90.7092 752.757C91.93 752.663 92.869 752.053 93.5263 750.927C90.4275 751.631 88.1738 747.408 91.2726 745.438C96.2026 742.341 97.8928 750.223 94.6532 753.179C90.2866 757.12 83.2439 754.024 80.8494 749.379C77.4688 742.622 81.1311 734.318 85.4976 728.969C85.6384 728.688 85.9201 728.969 85.9201 729.11Z" fill="#1D4ED8"/>
<path fill-rule="evenodd" clip-rule="evenodd" d="M84.2299 730.377C81.1311 734.177 77.6097 737.696 75.7786 742.341C73.1023 749.238 75.356 752.757 79.4408 757.965C79.8634 758.528 79.5817 759.372 78.7365 759.231C73.6658 757.965 71.9755 751.912 72.3981 747.267C72.6798 745.437 73.2432 743.608 73.9475 741.919C72.5389 743.326 70.8486 744.593 69.5809 746.282C67.8907 748.675 67.0456 751.208 65.7779 753.742C65.9187 754.164 65.637 754.586 65.0736 754.446C63.3833 754.305 61.6931 754.446 60.0028 754.868C58.4534 755.29 57.1857 756.276 55.6363 756.698C55.4485 756.885 55.3076 757.026 55.2137 757.12C54.7912 757.402 54.3686 756.698 54.6503 756.416C58.0308 753.038 61.9748 749.942 65.637 746.704C68.8767 743.889 71.9755 740.933 75.6377 738.4C75.7786 738.4 75.9194 738.54 75.9194 738.681C78.1731 735.444 81.1311 732.629 84.089 730.236C84.2299 730.095 84.3707 730.236 84.2299 730.377ZM65.0736 752.616C64.8858 752.804 64.698 752.944 64.5102 753.038C64.698 753.132 64.8858 753.179 65.0736 753.179C65.1675 752.991 65.2144 752.804 65.2144 752.616C65.1205 752.616 65.0736 752.616 65.0736 752.616ZM62.3973 753.179C62.2095 753.085 62.0687 752.944 61.9748 752.757C61.8809 752.944 61.74 753.132 61.5522 753.32C61.8339 753.226 62.1156 753.179 62.3973 753.179ZM74.9334 739.667C75.1212 739.573 75.2621 739.526 75.356 739.526C75.5438 739.244 75.6847 738.963 75.7786 738.681C75.4969 739.057 75.2152 739.385 74.9334 739.667Z" fill="#1D4ED8"/>
<path d="M143.107 757.824L143.248 757.965C139.304 763.173 128.881 768.662 122.683 764.017C122.402 763.736 122.542 763.032 122.965 762.891C126.205 762.328 129.726 763.032 133.107 762.469C136.769 761.906 140.009 760.076 143.107 757.824Z" fill="#1D4ED8"/>
<path d="M160.01 759.513C157.475 755.431 156.77 750.646 158.179 746.141C158.32 745.719 158.883 745.719 158.883 746.141C158.742 750.646 159.447 755.009 162.264 758.669C163.531 760.217 165.081 761.484 166.771 762.61C167.898 763.313 168.461 763.454 169.166 764.721C169.306 765.003 169.166 765.284 168.884 765.284C165.362 766.269 161.7 762.047 160.01 759.513Z" fill="#1D4ED8"/>
<path d="M156.066 739.244C155.643 745.86 153.812 752.335 150.291 757.965C143.952 767.818 131.135 774.715 119.444 770.633C118.88 770.492 119.021 769.788 119.585 769.788C141.558 773.166 155.221 754.446 154.657 735.162C154.376 734.318 154.141 733.473 153.953 732.629C153.953 732.347 154.235 732.207 154.517 732.207C153.953 727.984 152.826 723.761 150.995 719.82C145.502 708.56 134.374 702.789 121.838 705.041C109.161 707.293 100.287 716.301 90.8501 724.043C90.7092 724.324 90.2866 724.043 90.5684 723.761C99.7239 713.627 111.978 703.633 126.346 703.07C138.459 702.648 148.178 709.967 152.826 720.665C154.939 725.45 155.925 730.658 156.066 735.866C159.587 743.748 163.39 752.335 172.264 755.431C178.603 757.683 186.913 755.713 189.167 748.675C190.153 745.719 189.73 742.059 187.336 739.667C185.646 738.071 183.674 737.274 181.42 737.274C178.133 737.274 176.255 738.822 175.786 741.919C179.87 737.555 184.378 748.253 177.476 747.549C173.25 747.127 172.969 742.059 174.941 739.385C177.335 736.148 182.124 735.726 185.646 737.133C196.773 741.919 189.308 756.416 179.87 757.824C167.898 759.513 160.151 749.379 156.066 739.244Z" fill="#1D4ED8"/>
<path d="M242.269 755.431C240.438 755.853 196.491 748.956 196.491 748.956L193.815 755.853L242.269 755.431Z" fill="#1D4ED8"/>
<path d="M88.033 712.219C91.1318 709.827 93.9489 707.293 96.3434 704.196C97.6111 702.367 98.8788 700.537 99.7239 698.425C104.231 690.965 106.767 682.239 103.245 673.653C98.5971 662.533 85.2159 659.155 74.5109 663.377C63.8059 667.6 55.0729 678.86 57.89 690.684C60.2845 700.255 71.1304 706.73 80.2859 701.241C80.7085 700.959 80.4268 700.255 79.8634 700.396C69.0175 705.041 58.7351 697.018 58.876 685.617C59.0168 674.919 68.7358 665.77 78.7365 663.518C90.9909 660.703 102.682 668.445 103.527 680.972C103.809 684.913 103.104 688.573 101.837 692.091C102.212 690.027 102.259 687.963 101.978 685.898C100.569 674.779 88.4555 665.911 78.0323 672.949C74.7926 675.06 71.8346 679.564 73.2432 683.646C74.37 686.743 79.0182 688.854 81.1311 685.335C82.5396 683.083 80.2859 679.424 77.4688 680.55C76.6237 680.972 76.0603 681.535 75.9194 682.379C73.384 679.001 76.342 675.482 79.2999 673.653C81.2719 672.527 83.6665 671.823 85.9201 671.682C90.5684 671.682 94.6532 674.075 97.3294 677.734C103.668 686.18 100.569 697.299 94.3715 704.759C89.7232 710.39 83.5256 713.064 78.0323 717.427C74.9335 719.82 72.9615 723.339 75.6377 726.717C75.7786 726.999 76.0603 726.858 75.9194 726.576C72.2572 719.679 84.089 715.175 88.033 712.219Z" fill="#1D4ED8"/>
<path d="M68.8767 661.125C65.4962 661.548 62.2565 663.8 60.0028 666.193C57.89 668.445 55.3546 672.245 56.3406 675.482C56.4814 675.764 57.0448 676.045 57.3266 675.623C59.2985 673.653 59.862 670.697 61.4114 668.304C63.5242 665.348 66.0596 663.518 68.8767 661.407C69.0175 661.266 69.0175 661.125 68.8767 661.125Z" fill="#1D4ED8"/>
<path d="M40.1422 671.401C42.3959 669.289 43.6636 666.474 45.9173 664.222C48.5935 661.829 51.8332 659.718 55.2137 658.733C55.3546 658.733 55.3546 658.592 55.2137 658.592C51.4106 658.873 48.0301 659.999 44.7905 662.392C42.1142 664.363 39.1562 667.459 39.1562 670.978C39.1562 671.541 39.7197 671.823 40.1422 671.401Z" fill="#1D4ED8"/>
<path d="M82.5396 726.154C78.1731 727.843 73.9475 730.517 69.0175 730.658C66.3413 730.658 63.2425 729.955 61.1296 727.984C59.7211 726.858 58.876 725.169 58.7351 723.48C58.5473 722.729 58.5473 722.025 58.7351 721.368C58.7351 720.055 59.3455 719.116 60.5662 718.553C59.862 721.65 64.0876 723.761 66.0596 720.665C69.1584 715.879 61.2705 714.19 58.3125 717.427C54.2277 721.791 57.3266 728.688 62.1156 730.94C68.8767 734.459 77.328 730.799 82.8213 726.436C82.9622 726.295 82.8213 726.013 82.5396 726.154Z" fill="#1D4ED8"/>
<path fill-rule="evenodd" clip-rule="evenodd" d="M81.5536 727.843C79.0183 730.799 76.2011 733.755 72.9615 736.007C73.1023 735.866 73.2432 736.007 73.1023 736.148C70.7078 739.807 67.609 742.904 64.7919 746.141C61.5522 749.801 58.4534 753.601 54.932 756.979C54.6503 757.261 53.946 756.839 54.3686 756.417C54.4625 756.229 54.5564 756.088 54.6503 755.994C55.0729 754.446 56.0589 753.179 56.4814 751.631C57.0449 749.942 57.0448 748.253 56.904 746.564C56.904 746.001 57.3266 745.86 57.7491 746.001C60.2845 744.734 62.8199 743.748 65.2144 742.2C66.9047 740.933 68.1724 739.385 69.581 737.837C67.8907 738.541 66.0596 739.104 64.2285 739.385C59.4394 739.807 53.3826 738.118 52.1149 733.051C51.9741 732.347 52.8192 731.925 53.3826 732.347C58.5943 736.429 62.2565 738.681 69.1584 736.007C73.9475 734.318 77.4688 730.799 81.2719 727.702C81.4128 727.562 81.6945 727.702 81.5536 727.843ZM58.876 746.423C58.6882 746.517 58.5004 746.564 58.3125 746.564C58.3125 746.751 58.3125 746.986 58.3125 747.267C58.5004 747.08 58.6412 746.892 58.7351 746.704C58.829 746.611 58.876 746.517 58.876 746.423ZM58.1717 750.083C58.3595 749.989 58.5004 749.848 58.5943 749.66C58.4065 749.566 58.3125 749.426 58.3125 749.238C58.2186 749.519 58.1717 749.801 58.1717 750.083ZM72.8206 736.007C72.6328 736.195 72.3981 736.335 72.1163 736.429C72.0224 736.617 71.9755 736.758 71.9755 736.852C72.2572 736.57 72.5389 736.289 72.8206 736.007Z" fill="#1D4ED8"/>
<path d="M53.5235 669.571C53.6643 669.43 53.5235 669.289 53.3826 669.43C48.0301 673.371 42.5368 683.646 47.3258 689.699C47.6076 689.98 48.3118 689.839 48.4527 689.417C49.0161 686.18 48.3118 682.802 48.8752 679.424C49.4387 675.764 51.2698 672.527 53.5235 669.571Z" fill="#1D4ED8"/>
<path d="M51.8332 652.821C55.918 655.354 60.8479 656.058 65.4962 654.651C65.7779 654.51 65.7779 653.947 65.3553 653.947C60.8479 654.088 56.3406 653.384 52.6783 650.569C51.1289 649.302 49.8612 647.894 48.7344 646.205C48.0301 644.939 47.8893 644.516 46.6216 643.813C46.3399 643.672 46.0581 643.813 45.9173 644.094C44.9313 647.472 49.2978 651.132 51.8332 652.821Z" fill="#1D4ED8"/>
<path d="M72.3981 656.762C65.637 657.044 59.0168 659.014 53.5235 662.392C43.5228 668.585 36.48 681.394 40.5648 692.936C40.7057 693.499 41.4099 693.218 41.4099 692.795C38.0294 670.978 57.0448 657.607 76.4828 658.17C77.328 658.357 78.1731 658.592 79.0182 658.873C79.3 658.873 79.5817 658.592 79.4408 658.31C83.8073 658.733 88.033 659.859 91.9769 661.829C103.527 667.178 109.302 678.157 107.048 690.543C104.795 703.07 95.6391 711.938 87.7513 721.087C87.4695 721.369 87.7513 721.65 88.033 721.509C98.3154 712.36 108.316 700.255 108.88 686.039C109.443 674.075 101.978 664.504 91.1318 659.859C86.3427 657.888 81.1311 656.762 75.7786 656.621C67.7498 653.243 59.1577 649.584 55.918 640.716C53.8052 634.523 55.6363 626.218 62.8199 623.966C65.9187 623.122 69.581 623.544 71.9755 625.796C73.5718 627.485 74.3231 629.456 74.2292 631.708C74.3231 634.992 72.8206 636.869 69.7218 637.338C74.0883 633.256 63.2425 628.752 63.9467 635.649C64.3693 639.731 69.4401 640.012 72.2572 638.042C75.4969 635.649 75.9194 631.004 74.37 627.485C69.5809 616.506 55.0729 623.966 53.6643 633.256C51.8332 644.939 62.1156 652.68 72.3981 656.762Z" fill="#1D4ED8"/>
<path d="M55.918 571.605C55.4954 573.294 62.5382 616.788 62.5382 616.788L55.4954 619.462L55.918 571.605Z" fill="#1D4ED8"/>
<path d="M57.7491 746.564C58.1717 746.001 58.5943 746.001 59.2985 746.001C59.5802 746.141 59.7211 746.704 59.4394 746.986C59.2516 747.174 59.0638 747.361 58.876 747.549C58.7821 747.267 58.7351 746.986 58.7351 746.704C59.1577 746.986 59.862 747.127 60.0028 747.69C60.0028 747.877 59.9559 747.971 59.862 747.971C59.2985 748.393 58.5943 747.83 58.1717 747.69C57.7491 747.549 57.7491 746.986 58.0308 746.845C58.2186 746.564 58.4534 746.329 58.7351 746.141C58.829 746.517 58.9229 746.845 59.0168 747.127C58.7351 747.127 58.5943 747.127 58.3125 747.127C58.0308 747.408 57.6083 746.986 57.7491 746.564Z" fill="#1D4ED8"/>
<path d="M58.5943 750.223C58.5004 750.317 58.3595 750.458 58.1717 750.645C57.7491 750.927 57.1857 750.505 57.4674 750.083C57.7491 749.52 58.3125 748.956 58.7351 748.393C59.0168 747.971 59.862 748.393 59.5802 748.956C59.4394 749.379 59.2985 749.801 58.876 749.942C58.6882 750.036 58.5473 749.989 58.4534 749.801C58.1717 749.519 58.4534 749.097 58.5943 748.675C58.876 748.863 59.1577 749.05 59.4394 749.238C59.0168 749.66 58.5943 750.223 58.1717 750.645C57.9839 750.364 57.7961 750.129 57.6083 749.942C57.7961 749.754 57.9839 749.613 58.1717 749.519C58.4534 749.238 59.0168 749.801 58.5943 750.223Z" fill="#1D4ED8"/>
<path d="M60.8479 753.038C61.787 752.757 62.726 752.569 63.665 752.475C63.665 752.851 63.665 753.179 63.665 753.461C63.2894 753.554 62.9138 753.601 62.5382 753.601C62.5382 753.226 62.5382 752.898 62.5382 752.616C63.3833 752.616 64.1815 752.616 64.9327 752.616C64.7449 752.804 64.6041 752.944 64.5102 753.038C64.5102 752.757 64.5102 752.616 64.651 752.475C64.7919 752.194 65.0736 752.194 65.2144 752.335C65.637 752.475 65.3553 752.757 65.3553 753.179C65.3553 753.32 65.0736 753.461 64.9327 753.461C64.1815 753.461 63.3833 753.508 62.5382 753.601C61.8339 753.601 61.8339 752.616 62.5382 752.616C62.9138 752.522 63.2894 752.475 63.665 752.475C64.3693 752.475 64.3693 753.461 63.665 753.461C62.726 753.554 61.787 753.554 60.8479 753.461C60.5662 753.461 60.5662 753.038 60.8479 753.038Z" fill="#1D4ED8"/>
<path d="M73.6657 735.022C73.384 735.866 72.8206 736.57 72.1163 737.414C71.6938 738.118 71.1304 738.822 70.2852 739.244C70.0035 739.385 69.8627 739.244 69.8627 738.963C70.0035 738.118 70.7078 737.414 71.2712 736.711C71.9755 736.007 72.5389 735.162 73.384 734.74C73.5249 734.599 73.8066 734.74 73.6657 735.022Z" fill="#1D4ED8"/>
<path d="M82.3988 727.139C80.1451 730.517 76.9054 733.473 74.0883 736.429C71.1304 739.385 68.4541 742.622 65.0736 745.015C64.7919 745.156 64.5102 744.874 64.651 744.593C66.9047 741.215 70.1444 738.4 73.1023 735.444C75.9194 732.488 78.8774 729.251 82.1171 726.858C82.3988 726.717 82.5396 726.999 82.3988 727.139Z" fill="#1D4ED8"/>
<path d="M85.4976 729.11C82.8213 733.051 79.1591 736.429 75.9194 739.807C72.2572 743.748 68.595 747.83 64.5102 751.068C64.2285 751.349 63.8059 751.068 63.9467 750.786C66.9047 746.704 70.7078 743.045 74.2292 739.526C77.7505 735.866 81.1311 731.784 85.2159 728.828C85.4976 728.688 85.6384 728.969 85.4976 729.11Z" fill="#1D4ED8"/>
<path d="M82.5396 726.436C82.5396 726.529 82.5866 726.576 82.6805 726.576V726.717C82.5866 726.717 82.5396 726.717 82.5396 726.717C82.3988 726.858 82.3988 726.436 82.5396 726.436Z" fill="#1D4ED8"/>
<path d="M82.8213 726.717C81.5536 728.969 79.3 730.94 77.4688 732.77C75.6377 734.74 73.8066 736.992 71.5529 738.4C71.4121 738.541 71.2712 738.259 71.2712 738.118C72.6798 735.866 74.9334 734.036 76.7646 732.066C78.4548 730.236 80.2859 727.843 82.5396 726.576C82.6805 726.436 82.8213 726.576 82.8213 726.717Z" fill="#1D4ED8"/>
<path d="M99.8648 82.0602C102.259 85.1568 104.936 87.9718 108.034 90.3647C109.866 91.6315 111.837 92.7575 113.809 93.7428C121.416 98.1062 130.29 100.499 138.882 97.1209C150.15 92.476 153.671 79.3858 149.305 68.8292C145.079 58.2726 133.67 49.5458 121.697 52.3609C111.978 54.613 105.358 65.3103 110.992 74.4594C111.274 74.8817 111.978 74.6001 111.837 74.0371C107.189 63.3398 115.359 53.2054 126.768 53.2054C137.614 53.3462 146.91 63.0582 149.164 73.0518C151.981 85.016 144.234 96.5579 131.557 97.4024C127.613 97.6839 123.81 96.9801 120.289 95.7134C122.355 96.0887 124.468 96.1356 126.627 95.8541C137.755 94.4466 146.77 82.4824 139.727 72.2073C137.473 69.1107 132.966 66.0141 128.881 67.4216C125.782 68.5477 123.528 73.1926 127.191 75.3039C129.444 76.7115 133.107 74.4594 131.98 71.6443C131.557 70.7998 130.853 70.3775 130.149 70.2367C133.529 67.7032 137.051 70.659 138.882 73.4741C140.149 75.4447 140.854 77.8375 140.854 80.0896C140.994 84.5937 138.459 88.6756 134.797 91.2092C126.346 97.5432 115.077 94.5873 107.33 88.2533C101.837 83.7492 99.0197 77.556 94.5123 72.2073C92.1178 69.2515 88.5964 67.2809 85.2159 69.8145C84.9342 69.9552 85.075 70.3775 85.3567 70.2367C92.2586 66.5771 96.9068 78.119 99.8648 82.0602Z" fill="#1D4ED8"/>
<path d="M151.559 63.199C151.136 59.8209 148.882 56.5835 146.488 54.4722C144.093 52.3609 140.29 49.8273 137.191 50.8126C136.769 50.9533 136.487 51.5164 136.91 51.7979C138.882 53.6277 141.98 54.1907 144.375 55.8798C147.333 57.8503 149.305 60.3839 151.418 63.199H151.559Z" fill="#1D4ED8"/>
<path d="M141.135 34.7665C143.389 37.0186 146.206 38.2854 148.46 40.5375C150.854 43.0711 152.967 46.3084 154.094 49.6865C154.094 49.8273 154.235 49.8273 154.235 49.6865C153.812 45.8862 152.826 42.508 150.432 39.4114C148.319 36.7371 145.22 33.7812 141.558 33.7812C140.995 33.7812 140.854 34.485 141.135 34.7665Z" fill="#1D4ED8"/>
<path d="M85.9201 76.7115C84.089 72.3481 81.4128 68.2662 81.2719 63.3398C81.2719 60.6654 81.9762 57.5688 83.9482 55.4575C85.075 54.1907 86.7653 53.3462 88.5964 53.0647C89.2537 52.877 89.958 52.9239 90.7092 53.2054C91.93 53.2054 92.869 53.7684 93.5263 54.8945C90.4275 54.1907 88.1738 58.5541 91.2726 60.3839C96.2026 63.4805 97.8928 55.5982 94.6532 52.7831C90.2866 48.842 83.2439 51.7979 80.8494 56.4428C77.4688 63.199 81.1311 71.5035 85.4976 76.993C85.6384 77.1337 85.9201 76.993 85.9201 76.7115Z" fill="#1D4ED8"/>
<path fill-rule="evenodd" clip-rule="evenodd" d="M84.089 75.7262C81.1311 73.1926 78.1731 70.3775 75.9194 67.1401C75.9194 67.2809 75.7786 67.5624 75.6377 67.4216C71.9755 65.0288 68.8767 61.9322 65.637 59.1171C61.9748 55.8798 58.0308 52.9239 54.6503 49.405C54.3686 49.1235 54.7912 48.4197 55.2137 48.842C55.3076 48.9358 55.4485 49.0297 55.6363 49.1235C57.1857 49.5458 58.4534 50.5311 60.0028 50.9533C61.6931 51.3756 63.3833 51.5164 65.0736 51.3756C65.637 51.3756 65.9187 51.7979 65.7779 52.2201C67.0456 54.613 67.8907 57.2873 69.5809 59.5394C70.8486 61.2284 72.5389 62.4952 73.9475 63.9028C73.2432 62.2137 72.6798 60.3839 72.3981 58.5541C71.9755 53.9092 73.6658 47.8567 78.7365 46.7307C79.5817 46.4492 79.8634 47.2937 79.4408 47.8567C75.356 53.0647 73.1023 56.5835 75.7786 63.4805C77.6097 68.1254 81.1311 71.6443 84.2299 75.4447C84.3707 75.5854 84.2299 75.7262 84.089 75.7262ZM65.2144 53.3462C65.2144 53.1585 65.1675 52.9708 65.0736 52.7831C64.8858 52.7831 64.698 52.7831 64.5102 52.7831C64.698 52.877 64.8858 53.0177 65.0736 53.2054C65.0736 53.2054 65.1205 53.2523 65.2144 53.3462ZM61.5522 52.6424C61.74 52.7362 61.8809 52.877 61.9748 53.0647C62.0687 52.877 62.2095 52.7362 62.3973 52.6424C62.1156 52.6424 61.8339 52.6424 61.5522 52.6424ZM75.7786 67.1401C75.6847 66.8586 75.5438 66.5771 75.356 66.2956C75.2621 66.2956 75.1212 66.2487 74.9334 66.1549C75.2152 66.5302 75.4969 66.8586 75.7786 67.1401Z" fill="#1D4ED8"/>
<path d="M143.107 47.9975C143.107 48.1382 143.248 47.9975 143.248 47.8567C139.304 42.6488 128.881 37.1594 122.683 41.945C122.402 42.2265 122.542 42.9303 122.965 42.9303C126.205 43.4933 129.726 42.7896 133.107 43.3526C136.769 44.0564 140.009 45.7454 143.107 47.9975Z" fill="#1D4ED8"/>
<path d="M160.01 46.4492C157.475 50.3903 156.77 55.3167 158.179 59.8209C158.32 60.2432 158.883 60.1024 158.883 59.6801C158.742 55.176 159.447 50.8126 162.264 47.153C163.531 45.6047 165.081 44.3379 166.771 43.3526C167.898 42.508 168.461 42.3673 169.166 41.1005C169.306 40.9597 169.166 40.5375 168.884 40.5375C165.362 39.5522 161.7 43.9156 160.01 46.4492Z" fill="#1D4ED8"/>
<path d="M156.066 66.5771C155.643 59.9616 153.812 53.4869 150.291 47.9975C143.952 38.1446 131.135 31.1069 119.444 35.1888C118.88 35.3296 119.021 36.0333 119.585 36.0333C141.558 32.6552 155.221 51.5164 154.657 70.659C154.376 71.5035 154.141 72.3481 153.953 73.1926C153.953 73.4741 154.235 73.7556 154.517 73.6149C153.953 77.8375 152.826 82.0601 150.995 86.0013C145.502 97.4024 134.374 103.173 121.838 100.921C109.161 98.6692 100.287 89.6609 90.8501 81.7786C90.7092 81.4971 90.2866 81.9194 90.5684 82.2009C99.7239 92.1945 111.978 102.188 126.346 102.751C138.459 103.314 148.178 95.9949 152.826 85.1567C154.939 80.5118 155.925 75.3039 156.066 70.096C159.587 62.073 163.39 53.4869 172.264 50.3903C178.603 48.279 186.913 50.1088 189.167 57.1465C190.153 60.2431 189.73 63.9028 187.336 66.2956C185.646 67.797 183.674 68.5477 181.42 68.5477C178.133 68.5477 176.255 66.9994 175.786 63.9028C179.87 68.2662 184.378 57.5688 177.476 58.2726C173.25 58.6948 172.969 63.762 174.941 66.4364C177.335 69.6737 182.124 70.2367 185.646 68.6884C196.773 63.9028 189.308 49.5458 179.87 48.1382C167.898 46.3084 160.151 56.4428 156.066 66.5771Z" fill="#1D4ED8"/>
<path d="M242.269 50.3903C240.438 49.9681 196.491 56.865 196.491 56.865L193.815 49.9681L242.269 50.3903Z" fill="#1D4ED8"/>
<path d="M88.033 93.602C91.1318 95.9949 93.9489 98.6692 96.3434 101.766C97.6111 103.455 98.8788 105.425 99.7239 107.396C104.231 114.997 106.767 123.724 103.245 132.169C98.5971 143.288 85.2159 146.667 74.5109 142.444C63.8059 138.221 55.0729 126.961 57.89 115.278C60.2845 105.566 71.1304 99.0915 80.2859 104.581C80.7085 104.862 80.4268 105.566 79.8634 105.425C69.0175 100.921 58.7351 108.944 58.876 120.205C59.0168 130.902 68.7358 140.051 78.7365 142.444C90.9909 145.118 102.682 137.377 103.527 124.85C103.809 121.049 103.104 117.249 101.837 113.73C102.212 115.794 102.259 117.906 101.978 120.064C100.569 131.043 88.4555 140.051 78.0323 133.013C74.7926 130.761 71.8346 126.257 73.2432 122.316C74.37 119.219 79.0182 116.967 81.1311 120.486C82.5396 122.879 80.2859 126.398 77.4688 125.272C76.6237 124.99 76.0603 124.287 75.9194 123.583C73.384 126.961 76.342 130.48 79.2999 132.169C81.2719 133.436 83.6665 134.139 85.9201 134.139C90.5684 134.28 94.6532 131.747 97.3294 128.228C103.668 119.782 100.569 108.663 94.3715 101.062C89.7232 95.5726 83.5256 92.7575 78.0323 88.3941C74.9335 86.0013 72.9615 82.4824 75.6377 79.1043C75.7786 78.9635 76.0603 79.1043 75.9194 79.2451C72.2572 86.142 84.089 90.6462 88.033 93.602Z" fill="#1D4ED8"/>
<path d="M68.8767 144.696C65.4962 144.274 62.2565 142.022 60.0028 139.629C57.89 137.377 55.3546 133.576 56.3406 130.48C56.4814 130.058 57.0448 129.917 57.3266 130.198C59.2985 132.169 59.862 135.265 61.4114 137.518C63.5242 140.473 66.0596 142.444 68.8767 144.555C69.0175 144.555 69.0175 144.696 68.8767 144.696Z" fill="#1D4ED8"/>
<path d="M40.1422 134.421C42.3959 136.532 43.6636 139.488 45.9173 141.599C48.5935 143.992 51.8332 146.104 55.2137 147.089C55.3546 147.23 55.3546 147.37 55.2137 147.37C51.4106 146.948 48.0301 145.963 44.7905 143.57C42.1142 141.459 39.1562 138.362 39.1562 134.843C39.1562 134.28 39.7197 133.999 40.1422 134.421Z" fill="#1D4ED8"/>
<path d="M82.5396 79.8081C78.1731 77.9783 73.9475 75.3039 69.0175 75.3039C66.3413 75.3039 63.2425 76.0077 61.1296 77.8375C59.7211 79.1043 58.876 80.6526 58.7351 82.4824C58.5473 83.1393 58.5473 83.7961 58.7351 84.453C58.7351 85.7667 59.3455 86.752 60.5662 87.4088C59.862 84.3122 64.0876 82.0601 66.0596 85.1568C69.1584 89.9424 61.2705 91.6315 58.3125 88.5349C54.2277 84.1715 57.3266 77.2745 62.1156 74.8816C68.8767 71.5035 77.328 75.0224 82.8213 79.3858C82.9622 79.5266 82.8213 79.8081 82.5396 79.8081Z" fill="#1D4ED8"/>
<path fill-rule="evenodd" clip-rule="evenodd" d="M81.2719 78.2598C77.4688 75.0224 73.9475 71.6443 69.1584 69.8145C62.2565 67.1401 58.5943 69.3922 53.3826 73.4741C52.8192 73.8964 51.9741 73.4741 52.1149 72.7703C53.3826 67.7032 59.4394 66.0141 64.2285 66.5771C66.0596 66.7179 67.8907 67.2809 69.581 68.1254C68.1724 66.5771 66.9047 64.8881 65.2144 63.762C62.8199 62.073 60.2845 61.2284 57.7491 59.9616C57.3266 59.9616 56.904 59.8209 56.904 59.2579C57.0448 57.5688 57.0449 55.8798 56.4814 54.1907C56.0589 52.6424 55.0729 51.3756 54.6503 49.9681C54.6503 49.9681 54.6503 49.9211 54.6503 49.8273C54.5564 49.7335 54.4625 49.5927 54.3686 49.405C53.946 49.1235 54.6503 48.5605 54.932 48.9828C58.4534 52.3609 61.5522 56.1613 64.7919 59.6801C67.609 62.9175 70.7078 66.1549 73.1023 69.6737C73.2432 69.8145 73.1023 69.9552 72.9615 69.9552C76.2011 72.0666 79.0183 75.1632 81.5536 77.9783C81.6945 78.119 81.4128 78.2598 81.2719 78.2598ZM58.7351 59.2579C58.6412 59.0702 58.5004 58.8825 58.3125 58.6949C58.3125 58.8825 58.3125 59.0702 58.3125 59.2579C58.5004 59.3517 58.6882 59.3986 58.876 59.3986C58.876 59.3048 58.829 59.2579 58.7351 59.2579ZM58.3125 56.5835C58.3125 56.3959 58.4065 56.2551 58.5943 56.1613C58.5004 56.0674 58.3595 55.9267 58.1717 55.739C58.1717 56.0205 58.2186 56.302 58.3125 56.5835ZM71.9755 68.97C71.9755 69.1576 72.0224 69.2984 72.1163 69.3922C72.3981 69.5799 72.6328 69.7676 72.8206 69.9552C72.5389 69.5799 72.2572 69.2515 71.9755 68.97Z" fill="#1D4ED8"/>
<path d="M53.5235 136.251C53.6643 136.392 53.5235 136.532 53.3826 136.391C48.0301 132.591 42.5368 122.316 47.3258 116.123C47.6076 115.841 48.3118 115.982 48.4527 116.404C49.0161 119.642 48.3118 123.02 48.8752 126.398C49.4387 130.198 51.2698 133.295 53.5235 136.251Z" fill="#1D4ED8"/>
<path d="M51.8332 153.141C55.918 150.467 60.8479 149.763 65.4962 151.171C65.7779 151.312 65.7779 152.015 65.3553 152.015C60.8479 151.734 56.3406 152.438 52.6783 155.253C51.1289 156.519 49.8612 158.068 48.7344 159.757C48.0301 160.883 47.8893 161.446 46.6216 162.009C46.3399 162.15 46.0581 162.009 45.9173 161.727C44.9313 158.349 49.2978 154.69 51.8332 153.141Z" fill="#1D4ED8"/>
<path d="M72.3981 149.2C65.637 148.778 59.0168 146.948 53.5235 143.429C43.5228 137.236 36.48 124.427 40.5648 112.885C40.7057 112.322 41.4099 112.604 41.4099 113.167C38.0294 134.843 57.0448 148.215 76.4828 147.793C77.328 147.511 78.1731 147.277 79.0182 147.089C79.3 146.948 79.5817 147.37 79.4408 147.511C83.8073 147.089 88.033 145.963 91.9769 144.133C103.527 138.644 109.302 127.665 107.048 115.278C104.795 102.751 95.6391 94.0243 87.7513 84.7345C87.4695 84.453 87.7513 84.1715 88.033 84.453C98.3154 93.4613 108.316 105.566 108.88 119.782C109.443 131.747 101.978 141.459 91.1318 145.963C86.3427 148.074 81.1311 149.059 75.7786 149.2C67.7498 152.578 59.1577 156.379 55.918 165.105C53.8052 171.439 55.6363 179.603 62.8199 181.855C65.9187 182.841 69.581 182.418 71.9755 180.025C73.5718 178.336 74.3231 176.366 74.2292 174.114C74.3231 170.923 72.8206 169.094 69.7218 168.624C74.0883 172.706 63.2425 177.07 63.9467 170.313C64.3693 166.091 69.4401 165.809 72.2572 167.78C75.4969 170.173 75.9194 174.958 74.37 178.336C69.5809 189.315 55.0729 181.996 53.6643 172.706C51.8332 160.883 62.1156 153.141 72.3981 149.2Z" fill="#1D4ED8"/>
<path d="M55.918 234.216C55.4954 232.527 62.5382 189.034 62.5382 189.034L55.4954 186.5L55.918 234.216Z" fill="#1D4ED8"/>
<path d="M57.7491 59.2579C58.1717 59.8209 58.5943 59.9616 59.2985 59.8209C59.5802 59.6801 59.7211 59.1171 59.4394 58.9764C59.2516 58.6949 59.0638 58.4603 58.876 58.2726C58.7821 58.5541 58.7351 58.8356 58.7351 59.1171C59.1577 58.9764 59.862 58.8356 60.0028 58.1318C60.0028 58.038 59.9559 57.9442 59.862 57.8503C59.2985 57.4281 58.5943 57.9911 58.1717 58.2726C57.7491 58.4133 57.7491 58.8356 58.0308 59.1171C58.2186 59.3048 58.4534 59.4925 58.7351 59.6801C58.829 59.3986 58.9229 59.1171 59.0168 58.8356C58.7351 58.8356 58.5943 58.6949 58.3125 58.6949C58.0308 58.5541 57.6083 58.8356 57.7491 59.2579Z" fill="#1D4ED8"/>
<path d="M58.5943 55.739C58.5004 55.5513 58.3595 55.4106 58.1717 55.3167C57.7491 54.8945 57.1857 55.3167 57.4674 55.739C57.7491 56.4428 58.3125 57.0058 58.7351 57.4281C59.0168 57.8503 59.862 57.4281 59.5802 57.0058C59.4394 56.4428 59.2985 56.0205 58.876 55.8798C58.6882 55.8798 58.5473 55.9267 58.4534 56.0205C58.1717 56.4428 58.4534 56.865 58.5943 57.2873C58.876 57.0996 59.1577 56.912 59.4394 56.7243C59.0168 56.1613 58.5943 55.5982 58.1717 55.3167C57.9839 55.5044 57.7961 55.739 57.6083 56.0205C57.7961 56.1143 57.9839 56.2082 58.1717 56.302C58.4534 56.5835 59.0168 56.0205 58.5943 55.739Z" fill="#1D4ED8"/>
<path d="M60.8479 52.9239C61.787 53.1116 62.726 53.2523 63.665 53.3462C63.665 53.0647 63.665 52.7362 63.665 52.3609C63.2894 52.3609 62.9138 52.3609 62.5382 52.3609C62.5382 52.6424 62.5382 52.9708 62.5382 53.3462C63.3833 53.3462 64.1815 53.2993 64.9327 53.2054C64.7449 53.1116 64.6041 52.9708 64.5102 52.7831C64.5102 53.0647 64.5102 53.2054 64.651 53.4869C64.7919 53.6277 65.0736 53.7684 65.2144 53.6277C65.637 53.3462 65.3553 53.0647 65.3553 52.7832C65.3553 52.5016 65.0736 52.3609 64.9327 52.3609C64.1815 52.3609 63.3833 52.3609 62.5382 52.3609C61.8339 52.3609 61.8339 53.3462 62.5382 53.3462C62.9138 53.3462 63.2894 53.3462 63.665 53.3462C64.3693 53.3462 64.3693 52.3609 63.665 52.3609C62.726 52.2671 61.787 52.2671 60.8479 52.3609C60.5662 52.3609 60.5662 52.7831 60.8479 52.9239Z" fill="#1D4ED8"/>
<path d="M73.6657 70.9405C73.384 69.9552 72.8206 69.2515 72.1163 68.5477C71.6938 67.8439 71.1304 66.9994 70.2852 66.5771C70.0035 66.4364 69.8627 66.7179 69.8627 66.9994C70.0035 67.8439 70.7078 68.5477 71.2712 69.1107C71.9755 69.9552 72.5389 70.659 73.384 71.222C73.5249 71.222 73.8066 71.0813 73.6657 70.9405Z" fill="#1D4ED8"/>
<path d="M82.3988 78.682C80.1451 75.3039 76.9054 72.4888 74.0883 69.533C71.1304 66.5771 68.4541 63.199 65.0736 60.8062C64.7919 60.6654 64.5102 60.9469 64.651 61.2284C66.9047 64.7473 70.1444 67.5624 73.1023 70.5183C75.9194 73.3334 78.8774 76.7115 82.1171 78.9635C82.3988 79.1043 82.5396 78.9635 82.3988 78.682Z" fill="#1D4ED8"/>
<path d="M85.4976 76.7115C82.8213 72.7703 79.1591 69.3922 75.9194 66.0141C72.2572 62.2137 68.595 57.9911 64.5102 54.7537C64.2285 54.613 63.8059 54.7537 63.9467 55.176C66.9047 59.2579 70.7078 62.7767 74.2292 66.4364C77.7505 69.9552 81.1311 74.0371 85.2159 76.993C85.4976 77.1337 85.6384 76.8522 85.4976 76.7115Z" fill="#1D4ED8"/>
<path d="M82.5396 79.3858C82.5396 79.3858 82.5866 79.3858 82.6805 79.3858C82.6805 79.2451 82.6805 79.2451 82.6805 79.2451C82.5866 79.1512 82.5396 79.1043 82.5396 79.1043C82.3988 79.1043 82.3988 79.3858 82.5396 79.3858Z" fill="#1D4ED8"/>
<path d="M82.8213 79.1043C81.5536 76.8522 79.3 74.8817 77.4688 73.0518C75.6377 71.222 73.8066 68.9699 71.5529 67.4216C71.4121 67.4216 71.2712 67.5624 71.2712 67.7031C72.6798 70.096 74.9334 71.9258 76.7646 73.7556C78.4548 75.5854 80.2859 78.119 82.5396 79.3858C82.6805 79.3858 82.8213 79.245 82.8213 79.1043Z" fill="#1D4ED8"/>
<path d="M1060.07 82.2009C1057.68 85.2975 1055 88.1126 1051.9 90.3647C1050.07 91.7722 1048.1 92.8983 1046.13 93.7428C1038.52 98.247 1029.65 100.64 1021.06 97.1209C1009.79 92.6168 1006.27 79.3858 1010.63 68.8292C1014.86 58.2726 1026.27 49.6865 1038.24 52.5016C1047.96 54.7537 1054.58 65.4511 1048.95 74.4594C1048.66 74.8817 1047.96 74.6001 1048.1 74.1779C1052.75 63.3398 1044.58 53.2054 1033.17 53.3462C1022.32 53.4869 1013.03 63.0583 1010.63 73.0518C1007.82 85.1568 1015.7 96.6987 1028.38 97.5432C1032.33 97.8247 1036.13 97.1209 1039.65 95.7134C1037.58 96.0887 1035.47 96.1825 1033.31 95.9949C1022.18 94.5873 1013.17 82.6232 1020.21 72.3481C1022.47 69.1107 1026.97 66.1549 1031.06 67.5624C1034.16 68.6884 1036.41 73.3333 1032.75 75.4447C1030.49 76.7115 1026.83 74.6001 1027.96 71.785C1028.38 70.9405 1029.09 70.3775 1029.79 70.2367C1026.41 67.8439 1022.75 70.659 1021.06 73.6149C1019.79 75.4447 1019.09 77.8375 1019.09 80.2303C1018.94 84.7345 1021.48 88.6756 1025 91.35C1033.59 97.6839 1044.86 94.5873 1052.47 88.3941C1058.1 83.7492 1060.92 77.6968 1065.29 72.3481C1067.82 69.2515 1071.34 67.2809 1074.72 69.9552C1075 70.096 1074.72 70.3775 1074.58 70.2367C1067.68 66.5771 1063.03 78.2598 1060.07 82.2009Z" fill="#1D4ED8"/>
<path d="M1008.38 63.199C1008.8 59.9616 1011.06 56.5835 1013.45 54.4722C1015.85 52.5016 1019.65 49.9681 1022.75 50.9533C1023.17 51.0941 1023.45 51.5164 1023.03 51.9386C1020.92 53.7684 1017.96 54.3315 1015.56 55.8798C1012.61 57.9911 1010.63 60.5247 1008.52 63.199C1008.52 63.3398 1008.38 63.3398 1008.38 63.199Z" fill="#1D4ED8"/>
<path d="M1018.8 34.9073C1016.55 37.0186 1013.73 38.4262 1011.48 40.6782C1009.08 43.2118 1006.97 46.4492 1005.84 49.8273C1005.84 49.8273 1005.7 49.8273 1005.7 49.6865C1006.13 45.8862 1007.11 42.6488 1009.51 39.5522C1011.62 36.8779 1014.72 33.922 1018.38 33.7812C1018.8 33.7812 1019.09 34.485 1018.8 34.9073Z" fill="#1D4ED8"/>
<path d="M1074.02 76.8522C1075.85 72.4888 1078.53 68.2662 1078.67 63.4805C1078.67 60.6654 1077.96 57.5688 1075.99 55.5982C1074.86 54.1907 1073.17 53.3462 1071.34 53.2054C1070.69 53.0177 1069.98 53.0177 1069.23 53.2054C1068.01 53.2054 1067.07 53.8153 1066.41 55.0352C1069.51 54.3314 1071.62 58.5541 1068.67 60.5247C1063.74 63.4805 1062.05 55.739 1065.29 52.7831C1069.65 48.842 1076.69 51.9386 1079.09 56.5835C1082.47 63.3398 1078.81 71.6443 1074.44 76.993C1074.3 77.2745 1074.02 76.993 1074.02 76.8522Z" fill="#1D4ED8"/>
<path fill-rule="evenodd" clip-rule="evenodd" d="M1075.71 75.5854C1078.81 71.785 1082.33 68.2662 1084.16 63.6213C1086.84 56.7243 1084.58 53.0647 1080.5 47.8567C1080.08 47.4345 1080.36 46.5899 1081.2 46.7307C1086.27 47.8567 1087.96 54.0499 1087.4 58.6949C1087.26 60.5247 1086.7 62.3545 1085.99 63.9028C1087.4 62.636 1089.09 61.3692 1090.36 59.6801C1092.05 57.2873 1092.89 54.7537 1094.16 52.2201C1094.02 51.7979 1094.3 51.3756 1094.72 51.3756C1096.56 51.6571 1098.25 51.5164 1099.94 51.0941C1101.49 50.6718 1102.75 49.6865 1104.3 49.2643C1104.49 49.0766 1104.63 48.9359 1104.73 48.842C1105.15 48.5605 1105.57 49.1235 1105.29 49.5458C1101.91 52.9239 1097.96 56.0205 1094.3 59.2579C1091.06 62.073 1087.82 65.0288 1084.3 67.5624C1084.16 67.5624 1083.88 67.4217 1084.02 67.2809C1081.77 70.5183 1078.81 73.3334 1075.85 75.7262C1075.71 75.8669 1075.57 75.7262 1075.71 75.5854ZM1094.87 53.2054C1095.05 53.1116 1095.24 52.9708 1095.43 52.7831C1095.24 52.7831 1095.01 52.7831 1094.72 52.7831C1094.72 52.9708 1094.72 53.1585 1094.72 53.3462C1094.72 53.3462 1094.77 53.2993 1094.87 53.2054ZM1097.54 52.7831C1097.73 52.877 1097.87 53.0177 1097.96 53.2054C1098.06 53.0177 1098.2 52.8301 1098.39 52.6424C1098.11 52.7362 1097.82 52.7831 1097.54 52.7831ZM1085.01 66.2956C1084.82 66.2956 1084.68 66.3425 1084.58 66.4364C1084.4 66.7179 1084.21 66.9525 1084.02 67.1401C1084.3 66.8586 1084.63 66.5771 1085.01 66.2956Z" fill="#1D4ED8"/>
<path d="M1016.83 48.1382L1016.69 47.9975C1020.63 42.6488 1031.06 37.3001 1037.26 41.945C1037.54 42.2265 1037.4 42.9303 1036.97 43.0711C1033.59 43.6341 1030.21 42.9303 1026.83 43.4933C1023.03 44.0564 1019.93 45.8862 1016.83 48.1382Z" fill="#1D4ED8"/>
<path d="M999.929 46.4492C1002.46 50.3903 1003.17 55.3167 1001.76 59.8209C1001.62 60.2432 1000.91 60.2432 1001.06 59.8209C1001.2 55.3167 1000.49 50.9533 997.675 47.2937C996.408 45.7454 994.858 44.4786 993.168 43.3526C992.041 42.6488 991.478 42.508 990.773 41.2413C990.632 40.9597 990.773 40.6782 991.055 40.5375C994.576 39.5522 998.239 43.9156 999.929 46.4492Z" fill="#1D4ED8"/>
<path d="M1003.87 66.7179C1004.15 60.1024 1006.13 53.4869 1009.65 47.9975C1015.99 38.1446 1028.8 31.2477 1040.5 35.3296C1041.06 35.4703 1040.92 36.1741 1040.35 36.0333C1018.24 32.796 1004.72 51.5164 1005.28 70.7998C1005.56 71.6443 1005.8 72.4888 1005.99 73.3334C1005.99 73.6149 1005.7 73.7556 1005.42 73.7556C1005.84 77.9783 1007.11 82.2009 1008.94 86.142C1014.44 97.4024 1025.56 103.173 1038.1 100.921C1050.78 98.6692 1059.65 89.6609 1069.09 81.9194C1069.23 81.6379 1069.65 81.9194 1069.37 82.2009C1060.21 92.3353 1047.96 102.188 1033.59 102.892C1021.48 103.314 1011.62 95.9949 1006.97 85.2975C1005 80.5118 1003.87 75.3039 1003.87 70.096C1000.35 62.073 996.548 53.6277 987.674 50.5311C981.336 48.279 973.025 50.2496 970.772 57.2873C969.786 60.2432 970.208 63.9028 972.603 66.2956C974.293 67.8908 976.265 68.6415 978.519 68.5477C981.805 68.6415 983.683 67.1401 984.153 64.0435C980.068 68.4069 975.561 57.7096 982.463 58.2726C986.688 58.6949 986.97 63.762 984.998 66.5771C982.604 69.8145 977.815 70.2367 974.293 68.6884C963.166 63.9028 970.631 49.5458 980.068 48.1382C991.9 46.4492 999.788 56.5835 1003.87 66.7179Z" fill="#1D4ED8"/>
<path d="M917.67 50.5311C919.501 50.1088 963.447 57.0058 963.447 57.0058L966.124 49.9681L917.67 50.5311Z" fill="#1D4ED8"/>
<path d="M1071.91 93.7428C1068.81 96.1356 1065.99 98.6692 1063.6 101.766C1062.33 103.596 1061.06 105.425 1060.21 107.537C1055.71 114.997 1053.17 123.724 1056.69 132.31C1061.34 143.429 1074.72 146.807 1085.43 142.585C1096.13 138.362 1104.87 127.102 1102.05 115.278C1099.65 105.707 1088.81 99.2322 1079.65 104.722C1079.23 104.862 1079.51 105.707 1080.08 105.566C1090.92 100.921 1101.2 108.944 1101.06 120.345C1100.92 131.043 1091.2 140.192 1081.06 142.444C1068.95 145.259 1057.26 137.518 1056.41 124.99C1056.13 121.049 1056.83 117.39 1058.1 113.871C1057.73 115.935 1057.68 118 1057.96 120.064C1059.37 131.184 1071.48 140.051 1081.91 133.013C1085.15 130.902 1088.1 126.398 1086.7 122.316C1085.57 119.219 1080.92 117.108 1078.81 120.627C1077.4 122.879 1079.65 126.539 1082.47 125.413C1083.32 124.99 1083.88 124.427 1084.02 123.583C1086.41 126.961 1083.46 130.48 1080.64 132.31C1078.67 133.436 1076.27 134.139 1073.88 134.28C1069.37 134.28 1065.29 131.887 1062.61 128.228C1056.27 119.782 1059.23 108.663 1065.57 101.062C1070.22 95.5726 1076.41 92.8983 1081.91 88.5349C1084.86 86.142 1086.98 82.6232 1084.3 79.2451C1084.16 78.9636 1083.88 79.1043 1084.02 79.3858C1087.68 86.2828 1075.85 90.7869 1071.91 93.7428Z" fill="#1D4ED8"/>
<path d="M1091.06 144.837C1094.44 144.415 1097.68 142.162 1099.94 139.77C1101.91 137.377 1104.58 133.717 1103.6 130.48C1103.46 130.058 1102.89 129.917 1102.61 130.198C1100.64 132.31 1100.08 135.265 1098.53 137.658C1096.41 140.614 1093.88 142.444 1091.06 144.555C1090.92 144.696 1090.92 144.837 1091.06 144.837Z" fill="#1D4ED8"/>
<path d="M1119.8 134.562C1117.54 136.673 1116.28 139.488 1113.88 141.74C1111.35 144.133 1108.11 146.104 1104.73 147.23C1104.58 147.23 1104.58 147.37 1104.73 147.37C1108.53 147.089 1111.91 145.963 1115.01 143.57C1117.82 141.599 1120.78 138.503 1120.78 134.984C1120.78 134.421 1120.22 134.139 1119.8 134.562Z" fill="#1D4ED8"/>
<path d="M1077.4 79.8081C1081.77 78.119 1085.99 75.4447 1090.92 75.3039C1093.6 75.3039 1096.7 76.0077 1098.81 77.9783C1100.22 79.1043 1101.06 80.7933 1101.2 82.4824C1101.39 83.2331 1101.39 83.9369 1101.2 84.5937C1101.2 85.9074 1100.59 86.8458 1099.37 87.4088C1100.08 84.3122 1095.71 82.2009 1093.88 85.2975C1090.78 90.0832 1098.67 91.7722 1101.63 88.5349C1105.57 84.1715 1102.61 77.2745 1097.82 74.8816C1091.06 71.5035 1082.61 75.1632 1077.12 79.5266C1076.98 79.6673 1077.12 79.9488 1077.4 79.8081Z" fill="#1D4ED8"/>
<path fill-rule="evenodd" clip-rule="evenodd" d="M1078.39 78.119C1080.92 75.1632 1083.74 72.2073 1086.98 69.9552C1086.84 70.096 1086.7 69.9552 1086.7 69.8145C1089.23 66.1549 1092.33 63.0582 1095.15 59.8209C1098.39 56.1613 1101.49 52.3609 1105.01 48.9828C1105.29 48.7013 1105.85 49.1235 1105.57 49.5458C1105.48 49.6396 1105.38 49.7804 1105.29 49.9681C1104.87 51.5164 1103.88 52.7831 1103.46 54.3314C1102.89 55.8798 1102.89 57.7096 1103.03 59.3986C1103.03 59.9616 1102.61 60.1024 1102.19 59.9616C1099.65 61.2284 1097.12 62.073 1094.72 63.762C1093.03 65.0288 1091.77 66.5771 1090.36 68.1254C1092.05 67.4216 1093.88 66.8586 1095.71 66.5771C1100.36 66.1549 1106.56 67.7032 1107.82 72.9111C1107.96 73.6149 1107.12 73.8964 1106.56 73.4741C1101.34 69.533 1097.68 67.2809 1090.78 69.8145C1085.99 71.6443 1082.47 75.1632 1078.53 78.2598C1078.53 78.4005 1078.24 78.2598 1078.39 78.119ZM1101.06 59.5394C1101.25 59.4455 1101.44 59.3986 1101.63 59.3986C1101.63 59.211 1101.63 58.9764 1101.63 58.6949C1101.44 58.8825 1101.3 59.0702 1101.2 59.2579C1101.11 59.3517 1101.06 59.4455 1101.06 59.5394ZM1101.77 55.8798C1101.58 55.9736 1101.39 56.1143 1101.2 56.302C1101.39 56.3959 1101.53 56.5366 1101.63 56.7243C1101.63 56.4428 1101.67 56.1613 1101.77 55.8798ZM1087.12 69.9552C1087.31 69.7676 1087.54 69.6268 1087.82 69.533C1087.92 69.3453 1087.96 69.2045 1087.96 69.1107C1087.68 69.3922 1087.4 69.6737 1087.12 69.9552Z" fill="#1D4ED8"/>
<path d="M1106.42 136.392C1106.27 136.392 1106.42 136.532 1106.56 136.532C1111.91 132.591 1117.4 122.316 1112.61 116.264C1112.33 115.841 1111.63 116.123 1111.49 116.545C1110.92 119.782 1111.63 123.161 1111.06 126.539C1110.36 130.198 1108.67 133.436 1106.42 136.392Z" fill="#1D4ED8"/>
<path d="M1107.96 153.141C1104.02 150.608 1099.09 149.904 1094.44 151.312C1094.02 151.452 1094.16 152.015 1094.58 152.015C1099.09 151.875 1103.6 152.578 1107.26 155.393C1108.81 156.66 1110.08 158.068 1111.2 159.757C1111.91 160.883 1112.05 161.446 1113.32 162.15C1113.6 162.29 1113.88 162.15 1114.02 161.868C1115.01 158.49 1110.64 154.83 1107.96 153.141Z" fill="#1D4ED8"/>
<path d="M1087.54 149.2C1094.3 148.919 1100.92 146.948 1106.42 143.429C1116.42 137.236 1123.46 124.568 1119.37 113.026C1119.23 112.463 1118.39 112.604 1118.53 113.167C1121.91 134.984 1102.89 148.356 1083.46 147.793C1082.61 147.605 1081.77 147.37 1080.92 147.089C1080.64 147.089 1080.36 147.37 1080.5 147.652C1076.13 147.23 1071.91 146.104 1067.82 144.133C1056.41 138.784 1050.64 127.805 1052.89 115.419C1055.14 102.892 1064.3 94.0243 1072.19 84.8753C1072.47 84.5937 1072.05 84.3122 1071.91 84.453C1061.62 93.602 1051.62 105.707 1050.92 119.923C1050.5 131.887 1057.82 141.459 1068.81 146.104C1073.6 148.074 1078.81 149.2 1084.16 149.341C1092.19 152.719 1100.78 156.379 1104.02 165.246C1106.13 171.439 1104.16 179.744 1097.12 181.855C1094.02 182.841 1090.36 182.418 1087.96 180.166C1086.37 178.477 1085.57 176.507 1085.57 174.255C1085.57 170.97 1087.12 169.094 1090.22 168.624C1085.85 172.706 1096.7 177.21 1095.99 170.313C1095.57 166.232 1090.5 165.95 1087.68 167.921C1084.44 170.313 1084.02 174.958 1085.43 178.477C1090.36 189.456 1104.87 181.996 1106.27 172.706C1108.11 161.024 1097.82 153.141 1087.54 149.2Z" fill="#1D4ED8"/>
<path d="M1104.02 234.357C1104.44 232.668 1097.4 189.034 1097.4 189.034L1104.44 186.5L1104.02 234.357Z" fill="#1D4ED8"/>
<path d="M1102.05 59.2579C1101.77 59.8209 1101.34 59.9616 1100.64 59.9616C1100.22 59.8209 1100.22 59.2579 1100.5 58.9764C1100.69 58.7887 1100.88 58.601 1101.06 58.4133C1101.16 58.6949 1101.2 58.9764 1101.2 59.2579C1100.64 58.9764 1099.94 58.8356 1099.94 58.1318C1099.94 58.038 1099.98 57.9442 1100.08 57.8503C1100.64 57.5688 1101.34 57.9911 1101.77 58.2726C1102.05 58.4133 1102.19 58.9764 1101.91 59.1171C1101.72 59.3048 1101.49 59.5394 1101.2 59.8209C1101.11 59.4455 1101.02 59.1171 1100.92 58.8356C1101.2 58.8356 1101.34 58.8356 1101.49 58.6949C1101.91 58.5541 1102.33 58.9764 1102.05 59.2579Z" fill="#1D4ED8"/>
<path d="M1101.34 55.739C1101.44 55.6452 1101.58 55.5044 1101.77 55.3167C1102.19 54.8945 1102.75 55.4575 1102.47 55.8798C1102.19 56.4428 1101.63 57.0058 1101.2 57.5688C1100.92 57.9911 1100.08 57.5688 1100.22 57.0058C1100.36 56.5835 1100.64 56.0205 1101.06 55.8798C1101.25 55.8798 1101.39 55.9267 1101.49 56.0205C1101.63 56.4428 1101.49 56.865 1101.34 57.2873C1101.06 57.0996 1100.73 56.912 1100.36 56.7243C1100.92 56.302 1101.2 55.739 1101.77 55.3167C1101.95 55.5982 1102.14 55.8328 1102.33 56.0205C1102.14 56.2082 1101.95 56.3489 1101.77 56.4428C1101.34 56.7243 1100.92 56.1613 1101.34 55.739Z" fill="#1D4ED8"/>
<path d="M1099.09 52.9239C1098.15 53.2054 1097.21 53.3931 1096.27 53.4869C1096.27 53.1116 1096.27 52.7362 1096.27 52.3609C1096.65 52.3609 1097.03 52.3609 1097.4 52.3609C1097.4 52.7362 1097.4 53.0647 1097.4 53.3462C1096.56 53.3462 1095.76 53.3462 1095.01 53.3462C1095.1 53.1585 1095.24 53.0177 1095.43 52.9239C1095.43 53.2054 1095.43 53.3462 1095.29 53.4869C1095.15 53.7684 1094.87 53.7684 1094.58 53.6277C1094.3 53.4869 1094.58 53.2054 1094.58 52.7831C1094.58 52.6424 1094.87 52.5016 1095.01 52.5016C1095.76 52.5016 1096.56 52.4547 1097.4 52.3609C1097.96 52.3609 1097.96 53.3462 1097.4 53.3462C1097.03 53.44 1096.65 53.4869 1096.27 53.4869C1095.57 53.4869 1095.57 52.5016 1096.27 52.3609C1097.21 52.3609 1098.15 52.3609 1099.09 52.3609C1099.37 52.5016 1099.37 52.9239 1099.09 52.9239Z" fill="#1D4ED8"/>
<path d="M1086.27 70.9405C1086.55 70.096 1087.12 69.3922 1087.68 68.5477C1088.24 67.8439 1088.81 66.9994 1089.65 66.7179C1089.79 66.5771 1090.08 66.7179 1090.08 66.9994C1089.79 67.8439 1089.09 68.5477 1088.53 69.2515C1087.96 69.9552 1087.4 70.7998 1086.55 71.222C1086.41 71.3628 1086.13 71.222 1086.27 70.9405Z" fill="#1D4ED8"/>
<path d="M1077.54 78.8228C1079.79 75.4447 1083.03 72.4888 1085.85 69.533C1088.67 66.5771 1091.48 63.3398 1094.87 60.9469C1095.15 60.8062 1095.43 61.0877 1095.29 61.3692C1093.03 64.7473 1089.79 67.5624 1086.84 70.5182C1084.02 73.4741 1081.06 76.7115 1077.82 79.1043C1077.54 79.245 1077.4 78.9635 1077.54 78.8228Z" fill="#1D4ED8"/>
<path d="M1074.44 76.8522C1077.12 72.9111 1080.78 69.533 1084.02 66.0141C1087.68 62.2137 1091.2 58.1318 1095.43 54.8945C1095.71 54.613 1096.13 54.8945 1095.99 55.176C1093.03 59.2579 1089.09 62.7767 1085.57 66.4364C1082.19 70.096 1078.81 74.0371 1074.72 77.1337C1074.44 77.2745 1074.3 76.993 1074.44 76.8522Z" fill="#1D4ED8"/>
<path d="M1077.12 79.2451C1078.39 76.8522 1080.64 75.0224 1082.47 73.1926C1084.3 71.222 1086.13 68.97 1088.39 67.5624C1088.53 67.4217 1088.67 67.7032 1088.67 67.8439C1087.26 70.096 1085.01 71.9258 1083.17 73.8964C1081.48 75.7262 1079.65 78.119 1077.26 79.3858C1077.26 79.5266 1077.12 79.3858 1077.12 79.2451Z" fill="#1D4ED8"/>
</svg>
