<svg width="468" height="354" viewBox="0 0 468 354" fill="none" xmlns="http://www.w3.org/2000/svg">
<path fill-rule="evenodd" clip-rule="evenodd" d="M106.365 25.3564C83.6676 39.5812 68.103 61.6424 66.0457 97.4953C65.166 112.843 67.2096 130.953 83.0585 137.706C106.27 147.6 137.819 115.902 151.976 131.061C168.989 149.265 148.457 181.544 157.525 200.087C161.247 207.666 166.729 221.431 177.989 216.964C204.436 206.448 194.583 156.059 200.267 134.201C207.86 104.926 254.608 85.9233 238.042 51.2073C233.779 42.2881 227.214 35.7509 217.51 33.45C200.511 29.3897 177.326 40.8805 162.019 32.0966C143.003 21.0254 127.601 12.052 106.365 25.3564Z" fill="#DAF3FF"/>
<path fill-rule="evenodd" clip-rule="evenodd" d="M95.9564 119.015C97.1384 116.879 98.6607 114.95 100.463 113.303C104.524 109.338 110.317 111.652 113.078 116.01C114.238 118.325 115.119 120.769 115.703 123.292C116.491 126.401 117.584 129.425 118.965 132.319C119.944 134.437 121.669 136.118 123.81 137.043C125.413 137.567 127.146 137.529 128.723 136.935L128.006 134.783C126.902 135.21 125.686 135.253 124.555 134.904C122.946 134.169 121.667 132.862 120.968 131.237C119.436 127.919 118.23 124.461 117.368 120.91C116.832 118.798 116.037 116.762 114.999 114.846C111.48 109.243 103.969 106.631 98.8663 111.679C96.9417 113.437 95.3185 115.499 94.0615 117.783L95.9564 119.015Z" fill="#279FF2"/>
<path fill-rule="evenodd" clip-rule="evenodd" d="M128.439 122.832C124.514 119.786 123.932 116.295 123.729 112.505C123.731 109.53 123.482 106.56 122.984 103.626L120.765 104.086C121.563 107.862 121.252 111.422 121.631 114.724C121.756 116.671 122.306 118.566 123.241 120.277C124.176 121.989 125.474 123.475 127.045 124.632L128.439 122.832Z" fill="#279FF2"/>
<path fill-rule="evenodd" clip-rule="evenodd" d="M223.613 173.248C226.78 172.49 229.988 173.491 233.168 174.994C236.579 176.604 239.935 178.81 243.143 180.407C247.867 182.708 252.252 183.547 255.974 179.974L254.404 178.323C253.646 179.084 252.704 179.633 251.669 179.918C250.634 180.203 249.543 180.213 248.503 179.947C245.832 179.243 243.285 178.134 240.951 176.658C238.183 174.989 235.313 173.497 232.356 172.192C229.462 170.848 226.216 170.454 223.085 171.069L223.613 173.248Z" fill="#279FF2"/>
<path fill-rule="evenodd" clip-rule="evenodd" d="M229.569 162.799C235.172 162.298 239.923 161.635 244.457 158.224L243.103 156.397C238.894 159.551 234.509 160.079 229.339 160.539L229.569 162.799Z" fill="#279FF2"/>
<path fill-rule="evenodd" clip-rule="evenodd" d="M198.577 40.163C196.844 34.2349 200.255 30.9325 204.721 28.3339C209.729 25.4239 216.036 23.3125 219.284 20.0913L217.687 18.4807C214.547 21.5936 208.416 23.5562 203.571 26.3713C198.157 29.5249 194.286 33.6393 196.398 40.7991L198.577 40.163Z" fill="#279FF2"/>
<path fill-rule="evenodd" clip-rule="evenodd" d="M202.878 45.9018C203.676 43.3979 206.166 41.5031 208.806 39.6488C211.756 37.551 214.923 35.5885 216.71 33.0305L214.869 31.677C213.204 33.9779 210.227 35.8186 207.493 37.7675C204.421 39.933 201.646 42.261 200.726 45.1979L202.878 45.9018Z" fill="#A14DF6"/>
<path fill-rule="evenodd" clip-rule="evenodd" d="M166.77 210.278C162.425 210.914 158.202 211.889 155.428 215.624C153.836 217.951 152.676 220.546 152.003 223.285C151.692 224.626 150.956 225.832 149.906 226.722C148.687 227.67 146.766 228.252 143.585 228.495L143.747 230.756C147.564 230.472 149.824 229.659 151.3 228.536C152.71 227.367 153.71 225.779 154.155 224.002C154.756 221.497 155.806 219.121 157.255 216.991C159.65 213.77 163.359 213.08 167.108 212.525L166.77 210.278Z" fill="#A14DF6"/>
<path fill-rule="evenodd" clip-rule="evenodd" d="M228.136 166.426C235.201 171.015 241.359 174.006 249.615 170.554L248.735 168.47C241.278 171.583 235.756 168.66 229.367 164.518L228.136 166.426Z" fill="#A14DF6"/>
<path fill-rule="evenodd" clip-rule="evenodd" d="M110.155 31.3521C113.586 32.1122 116.748 33.7865 119.305 36.1975C122.35 39.3645 123.446 43.6955 124.854 49.6101L127.073 49.0822C125.53 42.694 124.245 38.0516 120.942 34.6274C118.723 32.2995 115.528 30.5671 110.778 29.2136L110.155 31.3521Z" fill="#A14DF6"/>
<path fill-rule="evenodd" clip-rule="evenodd" d="M229.814 95.8711C226.024 100.96 222.343 105.995 218.878 111.3L220.786 112.546C224.21 107.281 227.865 102.286 231.614 97.2381L229.814 95.8711Z" fill="#F56C2C"/>
<path fill-rule="evenodd" clip-rule="evenodd" d="M218.972 100.73C223.112 102.607 227.079 104.844 230.828 107.416L232.032 105.48C228.179 102.843 224.103 100.547 219.851 98.6184L218.972 100.73Z" fill="#F56C2C"/>
<path fill-rule="evenodd" clip-rule="evenodd" d="M224.671 94.5987C224.831 100.311 225.283 106.012 226.024 111.679L228.271 111.354C227.535 105.764 227.083 100.14 226.918 94.5039L224.671 94.5987Z" fill="#F56C2C"/>
<path fill-rule="evenodd" clip-rule="evenodd" d="M103.06 166.237C101.707 169.972 100.231 173.627 99.0811 177.403L101.26 178.066C102.397 174.317 103.967 170.69 105.199 166.981L103.06 166.237Z" fill="#F56C2C"/>
<path fill-rule="evenodd" clip-rule="evenodd" d="M97.3115 170.189C101.142 172.53 104.891 175.007 108.653 177.457L109.899 175.549C106.109 173.085 102.346 170.609 98.5026 168.24L97.3115 170.189Z" fill="#F56C2C"/>
<path fill-rule="evenodd" clip-rule="evenodd" d="M174.605 127.027C174.788 126.643 175.075 126.318 175.434 126.091C175.794 125.864 176.21 125.743 176.636 125.743C177.061 125.743 177.477 125.864 177.837 126.091C178.196 126.318 178.484 126.643 178.666 127.027L190.292 151.037L216.725 154.678C217.142 154.737 217.534 154.912 217.857 155.183C218.18 155.454 218.42 155.81 218.549 156.211C218.679 156.612 218.694 157.041 218.591 157.45C218.489 157.858 218.274 158.23 217.97 158.522L198.724 177.01L203.42 203.24C203.5 203.656 203.46 204.086 203.305 204.479C203.15 204.873 202.886 205.215 202.544 205.465C202.202 205.714 201.797 205.862 201.374 205.89C200.952 205.917 200.53 205.825 200.158 205.622L176.636 193.022L153.113 205.622C152.74 205.82 152.319 205.91 151.898 205.881C151.477 205.852 151.073 205.706 150.73 205.46C150.386 205.213 150.12 204.873 149.962 204.48C149.803 204.087 149.76 203.657 149.837 203.24L154.547 176.983L135.301 158.576C134.998 158.284 134.782 157.912 134.68 157.504C134.577 157.095 134.592 156.666 134.722 156.265C134.852 155.864 135.091 155.508 135.414 155.237C135.737 154.966 136.129 154.791 136.546 154.732L162.979 151.092L174.605 127.027Z" fill="#FFBA16"/>
<path fill-rule="evenodd" clip-rule="evenodd" d="M171.397 131.507C169.8 134.877 168.068 138.166 166.484 141.55C165.131 144.257 164.021 147.613 162.14 150.05L163.94 151.403C165.929 148.831 167.188 145.38 168.541 142.47C170.111 139.087 171.857 135.798 173.454 132.428L171.397 131.507Z" fill="black"/>
<path fill-rule="evenodd" clip-rule="evenodd" d="M153.531 177.525C153.437 177.836 153.18 178.607 153.125 178.77C152.646 180.309 152.267 181.878 151.989 183.466C151.068 189.814 150.026 196.121 148.97 202.414L151.217 202.78C152.273 196.446 153.315 190.125 154.235 183.764C154.497 182.272 154.854 180.798 155.304 179.352C155.519 178.816 155.691 178.263 155.819 177.7C155.878 177.401 155.849 177.091 155.738 176.807C155.275 175.912 154.635 175.12 153.856 174.479C152.841 173.545 151.61 172.679 150.933 171.908C146.372 166.805 141.58 161.513 135.95 157.575L134.597 159.442C140.092 163.273 144.761 168.456 149.2 173.424C150.013 174.235 150.871 174.999 151.772 175.711C152.449 176.22 153.043 176.832 153.531 177.525Z" fill="black"/>
<path fill-rule="evenodd" clip-rule="evenodd" d="M176.569 193.766C184.352 197.718 191.796 202.252 199.7 205.947L200.674 203.89C192.784 200.168 185.367 195.634 177.666 191.709L176.569 193.766Z" fill="black"/>
<path d="M176.39 125.092C179.978 125.092 182.887 122.183 182.887 118.595C182.887 115.007 179.978 112.099 176.39 112.099C172.802 112.099 169.894 115.007 169.894 118.595C169.894 122.183 172.802 125.092 176.39 125.092Z" stroke="#FFBA16" stroke-width="0.34" stroke-linecap="round" stroke-linejoin="round"/>
<path fill-rule="evenodd" clip-rule="evenodd" d="M176.177 111.449C178.68 108.174 180.448 104.398 181.361 100.378C184.609 88.5894 184.068 73.9045 178.018 62.9822C174.35 56.3232 167.894 51.329 164.7 44.4535C161.33 37.2125 162.832 28.7805 160.017 21.3365C157.167 14.5574 152.04 8.98568 145.521 5.58244C141.772 3.60641 138.849 5.31175 135.465 8.79011C130.051 14.3934 130.782 21.9321 132.352 28.8888C135.059 40.745 142.422 50.8959 141.826 63.5777C141.028 79.0341 131.594 93.9897 137.279 109.703C140.798 119.448 150.258 123.779 160.139 123.86C163.427 123.86 169.491 123.86 169.951 120.287C170.668 114.562 167.434 114.143 164.158 113.52C163.143 113.331 162.128 113.155 161.14 112.911C159.895 112.618 158.694 112.163 157.567 111.557C152.695 108.851 150.055 104.344 148.512 99.1869C147.174 95.1988 146.631 90.9866 146.915 86.7894C147.376 82.4042 149.284 78.2897 150.488 74.0805C152.384 68.0191 153.137 61.6581 152.708 55.3217C152.072 48.5544 151.07 42.1662 147.998 35.9403C144.466 28.7941 138.673 20.9847 138.145 12.7693C137.766 6.82761 145.102 0.588225 150.556 1.02133C155.591 1.4815 163.847 5.29821 166.96 11.1586C169.789 16.6984 171.778 22.6283 172.861 28.7535C173.781 33.8966 174.079 39.5811 176.502 44.2505C179.574 50.2327 184.947 53.9411 189.265 58.9083C192.091 61.9822 194.224 65.6272 195.52 69.5967C196.816 73.5661 197.244 77.7676 196.776 81.9169C196.559 84.4928 196.032 87.0331 195.206 89.4827C194.543 91.4046 193.731 93.2724 192.892 95.1266C192.188 96.6695 191.403 98.1853 190.591 99.6606C188.344 103.721 184.081 116.389 177.774 112.234L176.177 111.449Z" fill="#808080" stroke="#808080" stroke-width="0.26" stroke-linejoin="round"/>
<path fill-rule="evenodd" clip-rule="evenodd" d="M176.745 110.772C180.508 104.899 182.849 95.9793 183.35 86.9924C183.851 78.0055 182.525 68.9239 179.046 62.8198C176.464 58.743 173.616 54.841 170.52 51.1395C167.572 47.5972 165.466 43.4323 164.361 38.9585C162.115 28.2933 161.384 17.4928 152.843 9.69693C151.702 8.57452 150.491 7.52573 149.216 6.55692C147.792 5.45942 146.047 4.86023 144.249 4.85156L144.33 7.12535C145.631 7.14753 146.887 7.59966 147.903 8.41114C149.103 9.32472 150.242 10.3148 151.314 11.3752C159.435 18.8327 159.99 29.2407 162.142 39.4322C163.304 44.2446 165.554 48.7266 168.719 52.5336C171.508 56.2421 174.661 59.7339 177.07 63.9838C180.359 69.763 181.564 78.3574 181.131 86.8976C180.697 95.4379 178.424 103.978 174.878 109.581L176.745 110.772Z" fill="black"/>
<path fill-rule="evenodd" clip-rule="evenodd" d="M134.72 89.4556C133.204 96.7236 132.716 106.807 136.235 113.52C138.655 117.949 142.68 121.281 147.483 122.832C154.577 125.105 162.205 125.105 169.3 122.832L168.61 120.666C163.091 122.392 157.227 122.703 151.556 121.573C145.98 120.382 140.945 117.513 138.252 112.41C134.95 106.117 135.545 96.683 136.899 89.8751L134.72 89.4556Z" fill="black"/>
<path fill-rule="evenodd" clip-rule="evenodd" d="M178.952 114.86C180.17 117.12 180.698 119.502 178.315 121.072L179.561 122.967C183.107 120.639 182.755 117.147 180.914 113.791L178.952 114.86Z" fill="black"/>
<path fill-rule="evenodd" clip-rule="evenodd" d="M321.479 117.43C311.239 127.87 300.199 139.13 295.179 160.74C293.329 168.74 291.829 180.03 298.179 186.61C306.309 195.09 320.459 176.74 325.179 172.36C326.559 171.09 327.959 169.83 329.419 168.65C332.126 166.481 334.998 164.525 338.009 162.8C341.269 160.97 352.169 155.06 355.009 160.71C358.179 166.98 353.319 175.71 350.509 181.23C347.849 186.45 344.839 191.5 342.039 196.65C339.239 201.8 337.429 205.13 334.939 210.49C330.549 219.9 325.539 231.36 327.109 242.12C328.449 251.27 337.109 256.21 345.409 251.59C352.999 247.36 358.529 239.34 364.119 232.98C372.619 223.32 381.639 213.75 391.749 205.75C397.249 201.41 403.109 196.93 409.749 194.38C417.359 191.43 425.609 191 432.749 186.77C441.749 181.44 448.749 172.12 454.489 163.65C460.659 154.5 465.669 144.76 466.959 133.65C467.509 128.97 466.959 122.2 462.569 119.28C456.739 115.39 448.569 119.65 443.249 122.55C433.809 127.72 425.109 134.2 415.389 138.89C411.309 140.89 405.549 143.35 400.949 141.64C395.499 139.64 395.509 132.52 395.829 127.73C396.109 123.56 397.389 119.37 398.329 115.31C401.159 103.08 402.769 78.47 382.489 82.91C378.121 83.9388 373.817 85.2209 369.599 86.75C363.649 88.82 357.969 91.51 352.209 94.04C344.049 97.62 332.689 105.95 321.479 117.43Z" fill="#E5EAFF"/>
<path fill-rule="evenodd" clip-rule="evenodd" d="M418.809 114.68L351.089 85.26V109.9L418.809 139.32V114.68Z" fill="#C2C6D1"/>
<path fill-rule="evenodd" clip-rule="evenodd" d="M430.692 111.42L362.972 81.99V106.63L430.692 136.07V111.42Z" fill="#D6D9E1"/>
<path d="M426 141.13C434.406 141.13 441.22 134.316 441.22 125.91C441.22 117.504 434.406 110.69 426 110.69C417.595 110.69 410.78 117.504 410.78 125.91C410.78 134.316 417.595 141.13 426 141.13Z" fill="#A3A7B1"/>
<path d="M356.961 111.14C365.367 111.14 372.181 104.326 372.181 95.92C372.181 87.5142 365.367 80.7 356.961 80.7C348.555 80.7 341.741 87.5142 341.741 95.92C341.741 104.326 348.555 111.14 356.961 111.14Z" fill="#D6D9E1"/>
<path d="M327.801 213.16C336.207 213.16 343.021 206.346 343.021 197.94C343.021 189.534 336.207 182.72 327.801 182.72C319.395 182.72 312.581 189.534 312.581 197.94C312.581 206.346 319.395 213.16 327.801 213.16Z" fill="#D6D9E1"/>
<path fill-rule="evenodd" clip-rule="evenodd" d="M410.78 125.14L341.78 95.9199V183.25L410.78 212.47V125.14Z" fill="#D6D9E1"/>
<path fill-rule="evenodd" clip-rule="evenodd" d="M410.78 212.24L341.78 182.24V197.46L410.78 227.46V212.24Z" fill="#C1C5CE"/>
<path fill-rule="evenodd" clip-rule="evenodd" d="M400.69 213.16L332.97 183.74L321.69 211.95L389.41 241.38L400.69 213.16Z" fill="#D6D9E1"/>
<path d="M395.559 242.68C403.965 242.68 410.779 235.866 410.779 227.46C410.779 219.054 403.965 212.24 395.559 212.24C387.153 212.24 380.339 219.054 380.339 227.46C380.339 235.866 387.153 242.68 395.559 242.68Z" fill="#A3A7B1"/>
<path fill-rule="evenodd" clip-rule="evenodd" d="M438.688 120.36C439.172 122.7 439.104 125.121 438.492 127.431C437.879 129.741 436.738 131.877 435.158 133.67C431.238 137.77 423.988 138.34 420.208 133.85C418.498 131.85 417.208 128.33 417.808 125.69C418.584 123.244 420.19 121.147 422.348 119.76C424.548 118.24 427.168 117.36 429.418 118.01C430.286 118.304 431.071 118.802 431.708 119.461C432.345 120.12 432.814 120.922 433.078 121.8C433.501 122.836 433.636 123.967 433.47 125.073C433.304 126.18 432.842 127.221 432.134 128.087C431.425 128.953 430.496 129.612 429.445 129.995C428.393 130.377 427.258 130.469 426.158 130.26C425.776 130.208 425.41 130.07 425.088 129.857C424.766 129.644 424.496 129.362 424.298 129.03C423.905 128.399 423.672 127.682 423.618 126.94C423.522 126.427 423.574 125.897 423.767 125.412C423.96 124.927 424.286 124.507 424.708 124.2C425.189 123.863 425.767 123.692 426.354 123.713C426.94 123.735 427.504 123.948 427.958 124.32C428.233 124.639 428.409 125.031 428.464 125.449C428.52 125.866 428.451 126.291 428.268 126.67L429.858 127.2C430.16 126.523 430.251 125.77 430.119 125.041C429.987 124.311 429.638 123.638 429.118 123.11C428.382 122.483 427.46 122.114 426.494 122.059C425.528 122.005 424.57 122.269 423.768 122.81C423.094 123.281 422.565 123.932 422.243 124.688C421.921 125.445 421.819 126.278 421.948 127.09C422.04 128.118 422.383 129.107 422.948 129.97C423.267 130.506 423.702 130.964 424.222 131.31C424.741 131.656 425.331 131.882 425.948 131.97C427.551 132.173 429.178 131.914 430.638 131.223C432.098 130.532 433.33 129.438 434.188 128.07C434.75 127.032 435.085 125.886 435.172 124.709C435.258 123.531 435.093 122.349 434.688 121.24C434.339 120.106 433.722 119.073 432.89 118.228C432.059 117.382 431.036 116.748 429.908 116.38C427.208 115.59 424.038 116.54 421.408 118.38C418.916 120.009 417.07 122.456 416.188 125.3C415.458 128.42 416.938 132.54 418.938 134.93C423.348 140.18 431.818 139.61 436.388 134.83C438.154 132.84 439.434 130.468 440.128 127.9C440.823 125.332 440.911 122.638 440.388 120.03L438.688 120.36Z" fill="#8B909C"/>
<path fill-rule="evenodd" clip-rule="evenodd" d="M420.232 186.59C422.782 184.76 424.622 184.27 426.072 184.78C427.172 185.27 428.069 186.125 428.612 187.2C429.429 188.646 430.099 190.17 430.612 191.75C431.612 194.68 432.542 197.75 433.852 199.91C434.203 200.576 434.683 201.167 435.263 201.647C435.843 202.128 436.512 202.489 437.232 202.71C438.325 202.938 439.462 202.816 440.482 202.36L439.852 200.8C439.16 201.125 438.383 201.223 437.632 201.08C436.618 200.745 435.775 200.027 435.282 199.08C434.032 197.08 433.182 194.08 432.202 191.25C431.586 189.243 430.694 187.332 429.552 185.57C428.852 184.525 427.851 183.716 426.682 183.25C424.862 182.61 422.482 182.99 419.292 185.25L420.232 186.59Z" fill="#279FF2"/>
<path fill-rule="evenodd" clip-rule="evenodd" d="M422.93 180.61C424.495 179.544 426.369 179.027 428.26 179.14C430.038 179.421 431.673 180.282 432.91 181.59C434.366 183.083 435.703 184.688 436.91 186.39C438.033 187.977 439.339 189.427 440.8 190.71C441.464 191.321 442.263 191.768 443.131 192.017C443.999 192.265 444.913 192.307 445.8 192.14L445.46 190.5C443.72 190.86 442.31 189.95 440.95 188.6C439.39 187.04 437.95 184.89 436.35 182.92C434.28 180.36 431.97 178.13 429.05 177.57C426.599 177.195 424.098 177.763 422.05 179.16L422.93 180.61Z" fill="#279FF2"/>
<path fill-rule="evenodd" clip-rule="evenodd" d="M338.151 153.41C340.321 144.25 337.931 139.86 334.841 135.98C331.971 132.38 328.391 129.28 327.761 122.7C327.321 118.07 329.081 113.91 330.461 109.79C331.941 105.36 333.011 100.98 331.051 96.2L329.501 96.8399C331.291 101.21 330.231 105.21 328.871 109.25C327.411 113.59 325.621 117.99 326.091 122.86C326.631 128.51 329.141 131.78 331.711 134.86C335.271 139.11 338.921 142.91 336.521 153.05L338.151 153.41Z" fill="#279FF2"/>
<path fill-rule="evenodd" clip-rule="evenodd" d="M324.44 129.34C322.08 124.28 323.33 118.78 323.37 113.88C323.527 111.332 323.003 108.788 321.85 106.51C320.61 104.3 318.43 102.37 314.64 100.9L314.03 102.46C317.36 103.75 319.3 105.4 320.39 107.34C321.392 109.361 321.843 111.609 321.7 113.86C321.64 119 320.45 124.75 322.92 130.05L324.44 129.34Z" fill="#279FF2"/>
<path fill-rule="evenodd" clip-rule="evenodd" d="M423.628 190.53C424.986 192.272 425.694 194.433 425.628 196.64C425.402 198.482 424.714 200.236 423.628 201.74C421.298 205.31 417.868 208.74 416.848 213.27C416.295 215.496 416.156 217.804 416.438 220.08C416.521 220.777 416.74 221.452 417.083 222.064C417.426 222.677 417.887 223.216 418.438 223.65C419.318 224.254 420.372 224.552 421.438 224.5V222.82C420.732 222.863 420.031 222.677 419.438 222.29C418.692 221.66 418.222 220.762 418.128 219.79C417.885 217.732 418.024 215.647 418.538 213.64C419.538 209.31 422.838 206.07 425.078 202.64C426.326 200.901 427.114 198.875 427.368 196.75C427.476 194.162 426.673 191.617 425.098 189.56L423.628 190.53Z" fill="#A14DF6"/>
<path fill-rule="evenodd" clip-rule="evenodd" d="M326.501 106.59C327.081 102.31 326.801 99.81 324.191 96.23L322.831 97.23C325.141 100.39 325.351 102.6 324.831 106.37L326.501 106.59Z" fill="#A14DF6"/>
<path fill-rule="evenodd" clip-rule="evenodd" d="M315.602 226.07C317.472 224.91 318.912 224.58 320.132 224.82C322.022 225.19 323.312 226.82 324.672 228.54C326.272 230.54 327.942 232.54 330.292 233.23C332.327 233.787 334.497 233.559 336.372 232.59L335.692 231.05C334.191 231.847 332.447 232.053 330.802 231.63C328.752 230.99 327.362 229.18 325.982 227.47C324.352 225.47 322.712 223.62 320.462 223.17C318.922 222.87 317.072 223.17 314.722 224.64L315.602 226.07Z" fill="#A14DF6"/>
<path fill-rule="evenodd" clip-rule="evenodd" d="M421.43 98.3C423.63 95.91 425.26 94.94 426.71 94.95C428.16 94.96 429.24 95.87 430.45 97.01C433.35 99.74 436.45 103.69 442.36 103.37L442.27 101.69C436.97 101.98 434.22 98.25 431.6 95.79C430.05 94.32 428.51 93.27 426.71 93.27C424.91 93.27 422.87 94.27 420.19 97.16L421.43 98.3Z" fill="#A14DF6"/>
<path fill-rule="evenodd" clip-rule="evenodd" d="M335.36 167.71C333.08 165.82 333.2 165.96 331.04 164.07L329.94 165.33C332.11 167.23 332 167.1 334.3 169L335.36 167.71Z" fill="#FFBA16"/>
<path fill-rule="evenodd" clip-rule="evenodd" d="M422.69 150.41C425.57 150.15 428.74 150.85 431.56 150.34L431.26 148.69C428.49 149.19 425.37 148.48 422.53 148.74L422.69 150.41Z" fill="#FFBA16"/>
<path fill-rule="evenodd" clip-rule="evenodd" d="M322.478 215.68C320.948 216.08 319.358 216.3 317.858 216.82L318.408 218.41C319.868 217.9 321.408 217.69 322.908 217.3L322.478 215.68Z" fill="#FFBA16"/>
<path fill-rule="evenodd" clip-rule="evenodd" d="M416.472 228.37C417.702 230.11 418.982 231.73 420.342 233.37L421.632 232.3C420.302 230.7 419.052 229.11 417.832 227.41L416.472 228.37Z" fill="#FFBA16"/>
<path fill-rule="evenodd" clip-rule="evenodd" d="M400.839 84.42C400.209 81.68 400.239 81.88 399.459 79L397.839 79.44C398.619 82.29 398.579 82.09 399.199 84.8L400.839 84.42Z" fill="#FFBA16"/>
<path fill-rule="evenodd" clip-rule="evenodd" d="M445.289 154.3C444.089 157.3 442.639 160.3 441.479 163.36L443.049 163.96C444.209 160.9 445.649 157.96 446.849 154.91L445.289 154.3Z" fill="#F56C2C"/>
<path fill-rule="evenodd" clip-rule="evenodd" d="M439.269 158.07C442.416 158.813 445.446 159.991 448.269 161.57L449.139 160.13C446.18 158.474 443.007 157.236 439.709 156.45L439.269 158.07Z" fill="#F56C2C"/>
<path fill-rule="evenodd" clip-rule="evenodd" d="M442.011 154.13C442.706 157.419 443.676 160.643 444.911 163.77L446.441 163.09C445.25 160.052 444.31 156.922 443.631 153.73L442.011 154.13Z" fill="#F56C2C"/>
<path fill-rule="evenodd" clip-rule="evenodd" d="M441.261 161.89C443.881 160.37 447.071 159.36 449.481 157.52L448.481 156.19C446.111 157.98 442.981 158.95 440.421 160.44L441.261 161.89Z" fill="#F56C2C"/>
<path fill-rule="evenodd" clip-rule="evenodd" d="M305.69 165.46C306.02 168.88 305.79 172.55 306.34 175.93L308 175.66C307.45 172.31 307.69 168.66 307.36 165.3L305.69 165.46Z" fill="#F56C2C"/>
<path fill-rule="evenodd" clip-rule="evenodd" d="M302.819 169.95C306.089 170.65 309.239 171.67 312.459 172.57L312.909 170.95C309.659 170.05 306.459 169.02 303.169 168.31L302.819 169.95Z" fill="#F56C2C"/>
<path fill-rule="evenodd" clip-rule="evenodd" d="M302.581 167.07C305.151 169.66 307.431 172.51 309.981 175.07L311.181 173.9C308.631 171.29 306.341 168.44 303.771 165.85L302.581 167.07Z" fill="#F56C2C"/>
<path fill-rule="evenodd" clip-rule="evenodd" d="M303.772 173.38C305.584 170.979 307.591 168.732 309.772 166.66L308.562 165.49C306.313 167.624 304.245 169.942 302.382 172.42L303.772 173.38Z" fill="#F56C2C"/>
<path fill-rule="evenodd" clip-rule="evenodd" d="M410.691 82.46C410.161 84.35 409.691 86.24 409.261 88.17L410.911 88.4999C411.301 86.6199 411.781 84.7699 412.311 82.9299L410.691 82.46Z" fill="#F56C2C"/>
<path fill-rule="evenodd" clip-rule="evenodd" d="M407.12 84.9301C410.107 85.9442 413.041 87.109 415.91 88.4201L416.53 86.8701C413.612 85.5356 410.628 84.3508 407.59 83.3201L407.12 84.9301Z" fill="#F56C2C"/>
<path fill-rule="evenodd" clip-rule="evenodd" d="M367.809 238.56C367.469 241.76 367.109 244.98 366.979 248.2L368.659 248.27C368.779 245.09 369.139 241.9 369.479 238.73L367.809 238.56Z" fill="#F56C2C"/>
<path fill-rule="evenodd" clip-rule="evenodd" d="M364.901 242.39C367.443 244.143 370.118 245.694 372.901 247.03L373.571 245.49C370.861 244.189 368.256 242.678 365.781 240.97L364.901 242.39Z" fill="#F56C2C"/>
<path fill-rule="evenodd" clip-rule="evenodd" d="M399.6 214.74C404.52 217.59 405.94 223.1 404.7 228.42C404.456 230.059 403.764 231.599 402.7 232.87C400.985 234.344 398.828 235.205 396.57 235.32C395.1 235.502 393.608 235.327 392.22 234.81C390.893 234.345 389.705 233.55 388.77 232.5C386.25 229.55 386.23 224.5 389.88 222.38C393.53 220.26 399.26 220.83 399.88 225.74C400.2 228.21 398.62 229.57 396.38 230.22C395.858 230.38 395.316 230.464 394.77 230.47C394.375 230.464 393.994 230.323 393.69 230.07C393.42 229.819 393.217 229.505 393.098 229.156C392.979 228.807 392.949 228.434 393.01 228.07C393.034 227.757 393.163 227.461 393.375 227.229C393.587 226.997 393.87 226.842 394.18 226.79L393.91 225.13C393.247 225.234 392.636 225.554 392.173 226.041C391.71 226.527 391.421 227.152 391.35 227.82C391.252 228.456 391.314 229.107 391.528 229.714C391.743 230.321 392.104 230.866 392.58 231.3C393.78 232.35 395.58 232.19 396.96 231.79C400.06 230.9 402.09 228.9 401.65 225.49C400.85 219.27 393.79 218.14 389.12 220.89C384.45 223.64 384.43 229.89 387.59 233.55C388.706 234.822 390.132 235.783 391.73 236.34C393.362 236.955 395.119 237.165 396.85 236.95C399.484 236.784 401.99 235.754 403.98 234.02C405.244 232.517 406.077 230.699 406.39 228.76C407.8 222.76 406.09 216.48 400.49 213.24L399.6 214.74Z" fill="#888E9D"/>
<path fill-rule="evenodd" clip-rule="evenodd" d="M20.1186 276.545C15.1786 284.875 10.4986 293.035 12.1186 307.905C12.8586 314.675 19.2286 327.855 27.8486 327.825C39.5086 327.825 44.0086 309.745 57.9986 311.155C72.6786 312.615 77.9986 347.245 94.4686 328.415C99.6125 322.349 102.172 314.508 101.599 306.575C101.209 302.515 98.5986 297.755 99.9886 293.655C102.589 286.035 114.619 286.655 118.779 277.415C121.109 272.215 121.289 266.305 117.639 261.685C103.419 243.635 89.5086 269.225 74.7086 270.755C60.3786 272.235 68.1086 247.865 55.1186 249.955C35.4886 253.105 27.2486 264.495 20.1186 276.545Z" fill="#FFECE3"/>
<path fill-rule="evenodd" clip-rule="evenodd" d="M20.7373 277.515C21.1507 279.006 21.7736 280.43 22.5873 281.745C23.4151 283.338 24.7943 284.575 26.4673 285.225C28.5273 285.935 30.8373 285.475 33.2573 284.715C35.1075 284.057 36.9899 283.493 38.8973 283.025C40.6158 282.593 42.4286 282.737 44.0573 283.435L44.7773 281.915C42.8223 281.059 40.6391 280.873 38.5673 281.385C36.6009 281.857 34.6614 282.434 32.7573 283.115C30.7073 283.755 28.7573 284.245 27.0273 283.635C25.7265 283.113 24.6601 282.136 24.0273 280.885C23.2849 279.704 22.719 278.42 22.3473 277.075L20.7373 277.515Z" fill="#279FF2"/>
<path fill-rule="evenodd" clip-rule="evenodd" d="M58.1856 275.105C56.7776 274.816 55.5109 274.054 54.5957 272.945C53.8419 271.789 53.5099 270.408 53.6556 269.035L51.9757 268.955C51.8056 270.719 52.2546 272.487 53.2456 273.955C54.3784 275.377 55.9684 276.363 57.7456 276.745L58.1856 275.105Z" fill="#279FF2"/>
<path fill-rule="evenodd" clip-rule="evenodd" d="M86.889 307.135C84.5846 309.935 83.2294 313.395 83.019 317.015C82.8372 318.958 83.286 320.908 84.299 322.575C85.589 324.575 87.719 325.705 90.039 326.685C91.8416 327.341 93.5902 328.137 95.269 329.065C96.8544 329.974 98.0608 331.422 98.669 333.145L100.259 332.595C99.535 330.488 98.0758 328.713 96.149 327.595C94.3977 326.619 92.572 325.783 90.689 325.095C88.689 324.255 86.819 323.345 85.689 321.625C84.8762 320.244 84.5258 318.64 84.689 317.045C84.7812 315.598 85.0774 314.17 85.569 312.805C86.1576 311.125 87.0377 309.561 88.169 308.185L86.889 307.135Z" fill="#279FF2"/>
<path fill-rule="evenodd" clip-rule="evenodd" d="M41.8371 332.015C43.1771 334.665 43.4071 336.515 42.9071 338.015C42.2617 339.474 41.2229 340.724 39.9071 341.625C36.8471 344.145 33.1771 346.735 33.6171 353.115L35.2971 352.995C34.8971 347.365 38.2971 345.145 40.9771 342.915C42.5415 341.824 43.7653 340.313 44.5071 338.555C45.1171 336.785 44.9771 334.555 43.3371 331.295L41.8371 332.015Z" fill="#279FF2"/>
<path fill-rule="evenodd" clip-rule="evenodd" d="M121.736 273.905C122.786 273.128 123.989 272.582 125.266 272.305C126.691 271.999 128.083 271.561 129.426 270.995L128.706 269.475C127.458 270.001 126.162 270.407 124.836 270.685C123.339 271.015 121.93 271.663 120.706 272.585L121.736 273.905Z" fill="#279FF2"/>
<path fill-rule="evenodd" clip-rule="evenodd" d="M68.9354 264.245C68.9354 259.425 68.0954 254.755 67.7354 249.985L66.0654 250.115C66.4154 254.845 67.2154 259.475 67.2554 264.255L68.9354 264.245Z" fill="#FFBA16"/>
<path fill-rule="evenodd" clip-rule="evenodd" d="M25.5668 296.016C28.8368 295.416 32.1368 294.936 35.3568 294.016L34.9168 292.396C31.7468 293.256 28.4868 293.726 25.2568 294.316L25.5668 296.016Z" fill="#FFBA16"/>
<path fill-rule="evenodd" clip-rule="evenodd" d="M37.4482 269.865C38.4482 270.535 39.3482 271.235 40.2982 271.935L41.2982 270.575C40.2982 269.875 39.3982 269.165 38.4182 268.485L37.4482 269.865Z" fill="#FFBA16"/>
<path fill-rule="evenodd" clip-rule="evenodd" d="M120.307 289.205C121.977 288.985 123.627 288.805 125.307 288.735L125.237 287.055C123.497 287.125 121.787 287.315 120.077 287.545L120.307 289.205Z" fill="#FFBA16"/>
<path fill-rule="evenodd" clip-rule="evenodd" d="M57.4482 323.535C58.0982 327.245 58.5782 330.795 59.0582 334.535L60.7182 334.315C60.2382 330.585 59.7182 327.005 59.1082 323.315L57.4482 323.535Z" fill="#FFBA16"/>
<path fill-rule="evenodd" clip-rule="evenodd" d="M117.877 299.525C116.288 301.827 114.909 304.267 113.757 306.815L115.297 307.495C116.416 305.046 117.755 302.703 119.297 300.495L117.877 299.525Z" fill="#F56C2C"/>
<path fill-rule="evenodd" clip-rule="evenodd" d="M112.718 302.545C114.528 303.455 116.248 304.445 118.018 305.385L118.808 303.895C117.008 302.955 115.288 301.955 113.478 301.045L112.718 302.545Z" fill="#F56C2C"/>
<path fill-rule="evenodd" clip-rule="evenodd" d="M115.437 300.545C115.817 303.445 115.787 303.355 116.257 306.175L117.907 305.905C117.457 303.105 117.477 303.195 117.097 300.325L115.437 300.545Z" fill="#F56C2C"/>
<path fill-rule="evenodd" clip-rule="evenodd" d="M8.34637 286.875C6.40637 290.585 4.34637 294.286 2.77637 298.176L4.33636 298.806C5.88636 294.966 7.91636 291.316 9.82636 287.656L8.34637 286.875Z" fill="#F56C2C"/>
<path fill-rule="evenodd" clip-rule="evenodd" d="M0.737305 291.926C4.39181 293.489 7.9307 295.311 11.3273 297.375L12.2273 295.965C8.76524 293.853 5.15596 291.991 1.42731 290.396L0.737305 291.926Z" fill="#F56C2C"/>
<path fill-rule="evenodd" clip-rule="evenodd" d="M97.4589 250.945C96.3273 250.583 95.1151 250.554 93.9676 250.862C92.8201 251.171 91.7859 251.804 90.9889 252.685L60.3389 286.575L14.3389 312.345L32.0189 334.435L69.5689 298.085L108.339 273.825C109.282 273.236 110.048 272.403 110.555 271.413C111.062 270.423 111.292 269.315 111.219 268.205C110.712 259.479 106.126 253.725 97.4589 250.945Z" fill="#C8C9D3"/>
<path d="M31.9958 334.48C35.6161 331.57 34.5766 324.266 29.6739 318.166C24.7712 312.066 17.862 309.48 14.2417 312.39C10.6214 315.3 11.6609 322.604 16.5636 328.703C21.4663 334.803 28.3755 337.389 31.9958 334.48Z" fill="#B3B3BD"/>
<path d="M72.592 294.055L65.0146 294.759L66.2649 308.211L73.8423 307.507L72.592 294.055Z" fill="#7B41C9"/>
<path d="M69.1923 308.935L62.1982 311.935L71.3375 333.248L78.3315 330.249L69.1923 308.935Z" fill="#7B41C9"/>
<path d="M67.3174 303.605L62.2373 311.951L68.7377 315.908L73.8177 307.562L67.3174 303.605Z" fill="#7B41C9"/>
<path d="M68.0043 292.326L67.6631 299.928L81.1594 300.534L81.5006 292.932L68.0043 292.326Z" fill="#7B41C9"/>
<path d="M85.0023 288.867L84.4873 296.459L107.624 298.029L108.139 290.436L85.0023 288.867Z" fill="#7B41C9"/>
<path d="M85.053 288.715L76.96 294.188L81.2231 300.492L89.3161 295.019L85.053 288.715Z" fill="#7B41C9"/>
<path fill-rule="evenodd" clip-rule="evenodd" d="M63.0184 283.225L56.1084 288.785C61.5284 293.035 63.7384 295.685 66.8084 302.555L73.7184 297.005C70.6384 290.215 68.6184 287.335 63.0184 283.225Z" fill="#A35FFF"/>
</svg>
