<svg width="206" height="230" viewBox="0 0 206 230" fill="none" xmlns="http://www.w3.org/2000/svg">
<g filter="url(#filter0_b_3260_24179)">
<rect width="118.526" height="162.154" rx="14.2703" transform="matrix(0.826892 -0.56236 0.436399 0.899753 0.867188 156.456)" fill="#82A2FD"/>
<rect x="-2.25344" y="-0.601836" width="122.094" height="165.722" rx="16.0541" transform="matrix(0.826892 -0.56236 0.436399 0.899753 0.739741 155.128)" stroke="white" stroke-width="3.56757"/>
</g>
<g filter="url(#filter1_b_3260_24179)">
<rect width="113.908" height="178.833" rx="14.2703" transform="matrix(0.97266 -0.232236 0.167864 0.98581 60.6133 62.7236)" fill="#FF78A0"/>
<rect x="-2.03445" y="-1.34421" width="117.475" height="182.4" rx="16.0541" transform="matrix(0.97266 -0.232236 0.167864 0.98581 60.7833 62.2321)" stroke="white" stroke-width="3.56757"/>
</g>
<g filter="url(#filter2_b_3260_24179)">
<rect x="130.539" y="4.32422" width="161.095" height="239.958" rx="14.2703" fill="#FFCB66"/>
<rect x="128.755" y="2.54043" width="164.663" height="243.525" rx="16.0541" stroke="white" stroke-width="3.56757"/>
</g>
<defs>
<filter id="filter0_b_3260_24179" x="-1.88786" y="87.6346" width="174.284" height="216.887" filterUnits="userSpaceOnUse" color-interpolation-filters="sRGB">
<feFlood flood-opacity="0" result="BackgroundImageFix"/>
<feGaussianBlur in="BackgroundImageFix" stdDeviation="2.05135"/>
<feComposite in2="SourceAlpha" operator="in" result="effect1_backgroundBlur_3260_24179"/>
<feBlend mode="normal" in="SourceGraphic" in2="effect1_backgroundBlur_3260_24179" result="shape"/>
</filter>
<filter id="filter1_b_3260_24179" x="55.1785" y="31.4793" width="151.686" height="212.33" filterUnits="userSpaceOnUse" color-interpolation-filters="sRGB">
<feFlood flood-opacity="0" result="BackgroundImageFix"/>
<feGaussianBlur in="BackgroundImageFix" stdDeviation="2.05135"/>
<feComposite in2="SourceAlpha" operator="in" result="effect1_backgroundBlur_3260_24179"/>
<feBlend mode="normal" in="SourceGraphic" in2="effect1_backgroundBlur_3260_24179" result="shape"/>
</filter>
<filter id="filter2_b_3260_24179" x="122.87" y="-3.34587" width="176.436" height="255.298" filterUnits="userSpaceOnUse" color-interpolation-filters="sRGB">
<feFlood flood-opacity="0" result="BackgroundImageFix"/>
<feGaussianBlur in="BackgroundImageFix" stdDeviation="2.05135"/>
<feComposite in2="SourceAlpha" operator="in" result="effect1_backgroundBlur_3260_24179"/>
<feBlend mode="normal" in="SourceGraphic" in2="effect1_backgroundBlur_3260_24179" result="shape"/>
</filter>
</defs>
</svg>
