<svg width="30" height="30" viewBox="0 0 30 30" fill="none" xmlns="http://www.w3.org/2000/svg">
<g filter="url(#filter0_i_7955_106581)">
<path d="M15.5391 10.3838H27.1547C27.8522 10.3838 28.4184 10.95 28.4184 11.6475V26.25H15.5391V10.3838Z" fill="url(#paint0_linear_7955_106581)"/>
<path d="M15.5391 10.3838H27.1547C27.8522 10.3838 28.4184 10.95 28.4184 11.6475V26.25H15.5391V10.3838Z" fill="url(#paint1_linear_7955_106581)"/>
<path d="M15.5391 10.3838H27.1547C27.8522 10.3838 28.4184 10.95 28.4184 11.6475V26.25H15.5391V10.3838Z" fill="url(#paint2_radial_7955_106581)"/>
</g>
<path d="M14.8242 25.8711H28.4152V27.4508H28.0992L27.7833 27.7677H14.8242V25.8711Z" fill="url(#paint3_linear_7955_106581)"/>
<path d="M14.8242 25.8711H28.4152V27.4508H28.0992L27.7833 27.7677H14.8242V25.8711Z" fill="url(#paint4_linear_7955_106581)"/>
<path d="M15.4595 10.3838C15.335 10.3837 15.2117 10.4081 15.0967 10.4557C14.9816 10.5033 14.8771 10.5731 14.7891 10.6611C14.701 10.7492 14.6312 10.8537 14.5836 10.9687C14.536 11.0838 14.5116 11.2071 14.5117 11.3316V26.8191H15.1436C15.1436 26.4704 15.4267 26.1872 15.7755 26.1872H16.4083V10.3838H15.4595Z" fill="url(#paint5_linear_7955_106581)"/>
<path d="M15.4595 10.3838C15.335 10.3837 15.2117 10.4081 15.0967 10.4557C14.9816 10.5033 14.8771 10.5731 14.7891 10.6611C14.701 10.7492 14.6312 10.8537 14.5836 10.9687C14.536 11.0838 14.5116 11.2071 14.5117 11.3316V26.8191H15.1436C15.1436 26.4704 15.4267 26.1872 15.7755 26.1872H16.4083V10.3838H15.4595Z" fill="url(#paint6_radial_7955_106581)"/>
<g filter="url(#filter1_i_7955_106581)">
<path d="M15.4595 25.5552C15.335 25.5551 15.2117 25.5795 15.0967 25.6271C14.9816 25.6747 14.8771 25.7445 14.7891 25.8325C14.701 25.9205 14.6312 26.0251 14.5836 26.1401C14.536 26.2552 14.5116 26.3785 14.5117 26.503V27.1349C14.5117 27.6589 14.9364 28.0836 15.4595 28.0836H27.7286C28.1411 28.0836 28.4186 27.8717 28.4186 27.4508H15.7755C15.6079 27.4508 15.4472 27.3842 15.3287 27.2657C15.2102 27.1472 15.1436 26.9865 15.1436 26.8189C15.1436 26.6513 15.2102 26.4906 15.3287 26.3721C15.4472 26.2536 15.6079 26.1871 15.7755 26.1871H28.4186V25.5552H15.4595Z" fill="url(#paint7_linear_7955_106581)"/>
</g>
<path d="M9.78516 6.59619H20.5317C21.2302 6.59619 21.7964 7.16244 21.7964 7.86088V21.7678H9.78516V6.59619Z" fill="url(#paint8_linear_7955_106581)"/>
<path d="M9.78516 6.59619H20.5317C21.2302 6.59619 21.7964 7.16244 21.7964 7.86088V21.7678H9.78516V6.59619Z" fill="url(#paint9_linear_7955_106581)"/>
<path d="M9.78516 6.59619H20.5317C21.2302 6.59619 21.7964 7.16244 21.7964 7.86088V21.7678H9.78516V6.59619Z" fill="url(#paint10_radial_7955_106581)"/>
<path d="M8.20312 22.084H21.7959V23.6646H21.48L21.1631 23.9805H8.20312V22.084Z" fill="url(#paint11_linear_7955_106581)"/>
<path d="M8.20312 22.084H21.7959V23.6646H21.48L21.1631 23.9805H8.20312V22.084Z" fill="url(#paint12_linear_7955_106581)"/>
<path d="M8.83547 6.59619C8.31141 6.59619 7.88672 7.02088 7.88672 7.54494V23.0324H8.51953C8.51953 22.6828 8.80172 22.3996 9.15141 22.3996H9.78328V6.59619H8.83547Z" fill="url(#paint13_linear_7955_106581)"/>
<path d="M8.83547 6.59619C8.31141 6.59619 7.88672 7.02088 7.88672 7.54494V23.0324H8.51953C8.51953 22.6828 8.80172 22.3996 9.15141 22.3996H9.78328V6.59619H8.83547Z" fill="url(#paint14_radial_7955_106581)"/>
<path d="M8.83547 6.59619C8.31141 6.59619 7.88672 7.02088 7.88672 7.54494V23.0324H8.51953C8.51953 22.6828 8.80172 22.3996 9.15141 22.3996H9.78328V6.59619H8.83547Z" fill="url(#paint15_radial_7955_106581)"/>
<g filter="url(#filter2_i_7955_106581)">
<path d="M8.83547 21.7685C8.71097 21.7683 8.58764 21.7926 8.47254 21.8401C8.35744 21.8875 8.25284 21.9572 8.16472 22.0452C8.07659 22.1331 8.00668 22.2376 7.95897 22.3526C7.91127 22.4676 7.88672 22.5909 7.88672 22.7154V23.3482C7.88672 23.8713 8.31141 24.296 8.83547 24.296H21.1036C21.5161 24.296 21.7945 24.0851 21.7945 23.6641H9.15141C8.9837 23.6641 8.82286 23.5975 8.70427 23.4789C8.58568 23.3603 8.51906 23.1995 8.51906 23.0318C8.51906 22.8641 8.58568 22.7033 8.70427 22.5847C8.82286 22.4661 8.9837 22.3995 9.15141 22.3995H21.7945V21.7676L8.83547 21.7685Z" fill="url(#paint16_linear_7955_106581)"/>
</g>
<g filter="url(#filter3_i_7955_106581)">
<path d="M3.07812 3.75H14.6909C15.3884 3.75 15.9547 4.31625 15.9547 5.01375V18.9169H3.07812V3.75Z" fill="url(#paint17_linear_7955_106581)"/>
<path d="M3.07812 3.75H14.6909C15.3884 3.75 15.9547 4.31625 15.9547 5.01375V18.9169H3.07812V3.75Z" fill="url(#paint18_linear_7955_106581)"/>
</g>
<path d="M2.36812 19.2339H15.9553V20.8126H15.6394L15.3234 21.1286H2.36719L2.36812 19.2339Z" fill="url(#paint19_linear_7955_106581)"/>
<path d="M2.36812 19.2339H15.9553V20.8126H15.6394L15.3234 21.1286H2.36719L2.36812 19.2339Z" fill="url(#paint20_linear_7955_106581)"/>
<path d="M2.99859 3.75C2.87409 3.74988 2.75079 3.77431 2.63574 3.8219C2.52069 3.86949 2.41615 3.9393 2.32811 4.02733C2.24008 4.11537 2.17027 4.21991 2.12268 4.33495C2.07509 4.45 2.05066 4.57331 2.05078 4.69781V20.1816H2.68266C2.68266 19.8319 2.96578 19.5497 3.31453 19.5497H3.94641V3.75H2.99859Z" fill="url(#paint21_linear_7955_106581)"/>
<g filter="url(#filter4_i_7955_106581)">
<path d="M2.99859 18.918C2.87417 18.9178 2.75094 18.9422 2.63595 18.9898C2.52096 19.0373 2.41647 19.107 2.32845 19.195C2.24042 19.2829 2.17059 19.3873 2.12295 19.5023C2.0753 19.6172 2.05078 19.7404 2.05078 19.8648V20.4977C2.05066 20.6221 2.07506 20.7453 2.12259 20.8603C2.17012 20.9753 2.23985 21.0798 2.32778 21.1678C2.41572 21.2558 2.52015 21.3257 2.63509 21.3733C2.75003 21.4209 2.87323 21.4455 2.99766 21.4455H15.2639C15.6764 21.4455 15.9539 21.2336 15.9539 20.8136H3.31453C3.14695 20.8136 2.98623 20.747 2.86773 20.6285C2.74923 20.51 2.68266 20.3493 2.68266 20.1817C2.68266 20.0141 2.74923 19.8534 2.86773 19.7349C2.98623 19.6164 3.14695 19.5498 3.31453 19.5498H15.9539V18.918H2.99859Z" fill="url(#paint22_linear_7955_106581)"/>
</g>
<defs>
<filter id="filter0_i_7955_106581" x="15.5391" y="10.3838" width="12.8789" height="15.9162" filterUnits="userSpaceOnUse" color-interpolation-filters="sRGB">
<feFlood flood-opacity="0" result="BackgroundImageFix"/>
<feBlend mode="normal" in="SourceGraphic" in2="BackgroundImageFix" result="shape"/>
<feColorMatrix in="SourceAlpha" type="matrix" values="0 0 0 0 0 0 0 0 0 0 0 0 0 0 0 0 0 0 127 0" result="hardAlpha"/>
<feOffset dy="0.05"/>
<feGaussianBlur stdDeviation="0.125"/>
<feComposite in2="hardAlpha" operator="arithmetic" k2="-1" k3="1"/>
<feColorMatrix type="matrix" values="0 0 0 0 0.32549 0 0 0 0 0.807843 0 0 0 0 0.933333 0 0 0 1 0"/>
<feBlend mode="normal" in2="shape" result="effect1_innerShadow_7955_106581"/>
</filter>
<filter id="filter1_i_7955_106581" x="14.5117" y="25.5552" width="13.9062" height="2.57832" filterUnits="userSpaceOnUse" color-interpolation-filters="sRGB">
<feFlood flood-opacity="0" result="BackgroundImageFix"/>
<feBlend mode="normal" in="SourceGraphic" in2="BackgroundImageFix" result="shape"/>
<feColorMatrix in="SourceAlpha" type="matrix" values="0 0 0 0 0 0 0 0 0 0 0 0 0 0 0 0 0 0 127 0" result="hardAlpha"/>
<feOffset dy="0.05"/>
<feGaussianBlur stdDeviation="0.075"/>
<feComposite in2="hardAlpha" operator="arithmetic" k2="-1" k3="1"/>
<feColorMatrix type="matrix" values="0 0 0 0 0.168627 0 0 0 0 0.388235 0 0 0 0 0.74902 0 0 0 1 0"/>
<feBlend mode="normal" in2="shape" result="effect1_innerShadow_7955_106581"/>
</filter>
<filter id="filter2_i_7955_106581" x="7.88672" y="21.7676" width="13.9062" height="2.57832" filterUnits="userSpaceOnUse" color-interpolation-filters="sRGB">
<feFlood flood-opacity="0" result="BackgroundImageFix"/>
<feBlend mode="normal" in="SourceGraphic" in2="BackgroundImageFix" result="shape"/>
<feColorMatrix in="SourceAlpha" type="matrix" values="0 0 0 0 0 0 0 0 0 0 0 0 0 0 0 0 0 0 127 0" result="hardAlpha"/>
<feOffset dy="0.05"/>
<feGaussianBlur stdDeviation="0.075"/>
<feComposite in2="hardAlpha" operator="arithmetic" k2="-1" k3="1"/>
<feColorMatrix type="matrix" values="0 0 0 0 0.694118 0 0 0 0 0.192157 0 0 0 0 0.360784 0 0 0 1 0"/>
<feBlend mode="normal" in2="shape" result="effect1_innerShadow_7955_106581"/>
</filter>
<filter id="filter3_i_7955_106581" x="3.07812" y="3.75" width="12.875" height="15.217" filterUnits="userSpaceOnUse" color-interpolation-filters="sRGB">
<feFlood flood-opacity="0" result="BackgroundImageFix"/>
<feBlend mode="normal" in="SourceGraphic" in2="BackgroundImageFix" result="shape"/>
<feColorMatrix in="SourceAlpha" type="matrix" values="0 0 0 0 0 0 0 0 0 0 0 0 0 0 0 0 0 0 127 0" result="hardAlpha"/>
<feOffset dy="0.05"/>
<feGaussianBlur stdDeviation="0.125"/>
<feComposite in2="hardAlpha" operator="arithmetic" k2="-1" k3="1"/>
<feColorMatrix type="matrix" values="0 0 0 0 0.623529 0 0 0 0 0.858824 0 0 0 0 0.290196 0 0 0 1 0"/>
<feBlend mode="normal" in2="shape" result="effect1_innerShadow_7955_106581"/>
</filter>
<filter id="filter4_i_7955_106581" x="2.05078" y="18.918" width="13.9023" height="2.57734" filterUnits="userSpaceOnUse" color-interpolation-filters="sRGB">
<feFlood flood-opacity="0" result="BackgroundImageFix"/>
<feBlend mode="normal" in="SourceGraphic" in2="BackgroundImageFix" result="shape"/>
<feColorMatrix in="SourceAlpha" type="matrix" values="0 0 0 0 0 0 0 0 0 0 0 0 0 0 0 0 0 0 127 0" result="hardAlpha"/>
<feOffset dy="0.05"/>
<feGaussianBlur stdDeviation="0.075"/>
<feComposite in2="hardAlpha" operator="arithmetic" k2="-1" k3="1"/>
<feColorMatrix type="matrix" values="0 0 0 0 0.113725 0 0 0 0 0.435294 0 0 0 0 0.439216 0 0 0 1 0"/>
<feBlend mode="normal" in2="shape" result="effect1_innerShadow_7955_106581"/>
</filter>
<linearGradient id="paint0_linear_7955_106581" x1="22.4128" y1="10.3838" x2="22.4128" y2="25.5554" gradientUnits="userSpaceOnUse">
<stop stop-color="#56D1F3"/>
<stop offset="1" stop-color="#39ADF1"/>
</linearGradient>
<linearGradient id="paint1_linear_7955_106581" x1="28.5169" y1="12.616" x2="27.2728" y2="12.7932" gradientUnits="userSpaceOnUse">
<stop offset="0.014" stop-color="#7FECFF"/>
<stop offset="1" stop-color="#60DEFF" stop-opacity="0"/>
</linearGradient>
<radialGradient id="paint2_radial_7955_106581" cx="0" cy="0" r="1" gradientUnits="userSpaceOnUse" gradientTransform="translate(16.3275 25.5554) scale(5.65078 4.79727)">
<stop stop-color="#2E7CD5"/>
<stop offset="1" stop-color="#2E7CD5" stop-opacity="0"/>
</radialGradient>
<linearGradient id="paint3_linear_7955_106581" x1="15.5967" y1="27.0814" x2="28.3008" y2="27.0814" gradientUnits="userSpaceOnUse">
<stop stop-color="#D5BCEB"/>
<stop offset="1" stop-color="#E3D3F2"/>
</linearGradient>
<linearGradient id="paint4_linear_7955_106581" x1="21.6202" y1="26.0211" x2="21.6202" y2="26.9183" gradientUnits="userSpaceOnUse">
<stop stop-color="#9F84AE"/>
<stop offset="1" stop-color="#C5B1D6" stop-opacity="0"/>
</linearGradient>
<linearGradient id="paint5_linear_7955_106581" x1="14.6411" y1="19.6997" x2="16.1317" y2="19.7072" gradientUnits="userSpaceOnUse">
<stop stop-color="#44A3D2"/>
<stop offset="1" stop-color="#3C8FCC"/>
</linearGradient>
<radialGradient id="paint6_radial_7955_106581" cx="0" cy="0" r="1" gradientUnits="userSpaceOnUse" gradientTransform="translate(16.4083 24.0235) rotate(90) scale(3.95508 2.30659)">
<stop stop-color="#3163AE"/>
<stop offset="1" stop-color="#3163AE" stop-opacity="0"/>
</radialGradient>
<linearGradient id="paint7_linear_7955_106581" x1="15.4164" y1="27.4283" x2="28.4186" y2="27.4077" gradientUnits="userSpaceOnUse">
<stop stop-color="#3769C5"/>
<stop offset="1" stop-color="#3666C3"/>
</linearGradient>
<linearGradient id="paint8_linear_7955_106581" x1="15.7908" y1="6.59619" x2="15.7908" y2="21.7678" gradientUnits="userSpaceOnUse">
<stop stop-color="#E13074"/>
<stop offset="1" stop-color="#E0334C"/>
</linearGradient>
<linearGradient id="paint9_linear_7955_106581" x1="22.8642" y1="8.73463" x2="21.1514" y2="8.79557" gradientUnits="userSpaceOnUse">
<stop offset="0.409" stop-color="#F76594"/>
<stop offset="1" stop-color="#FA6295" stop-opacity="0"/>
</linearGradient>
<radialGradient id="paint10_radial_7955_106581" cx="0" cy="0" r="1" gradientUnits="userSpaceOnUse" gradientTransform="translate(10.3205 21.3871) scale(6.32813 5.12081)">
<stop stop-color="#B21940"/>
<stop offset="1" stop-color="#B21940" stop-opacity="0"/>
</radialGradient>
<linearGradient id="paint11_linear_7955_106581" x1="8.97563" y1="23.2952" x2="21.6806" y2="23.2952" gradientUnits="userSpaceOnUse">
<stop stop-color="#D5BCEB"/>
<stop offset="1" stop-color="#E3D3F2"/>
</linearGradient>
<linearGradient id="paint12_linear_7955_106581" x1="14.9991" y1="22.2349" x2="14.9991" y2="23.1321" gradientUnits="userSpaceOnUse">
<stop stop-color="#9F84AE"/>
<stop offset="1" stop-color="#C5B1D6" stop-opacity="0"/>
</linearGradient>
<linearGradient id="paint13_linear_7955_106581" x1="8.01703" y1="15.9131" x2="9.78328" y2="15.9131" gradientUnits="userSpaceOnUse">
<stop stop-color="#9A3E4F"/>
<stop offset="1" stop-color="#AA2C4D"/>
</linearGradient>
<radialGradient id="paint14_radial_7955_106581" cx="0" cy="0" r="1" gradientUnits="userSpaceOnUse" gradientTransform="translate(8.13891 22.1934) rotate(-90) scale(4.20084 0.740213)">
<stop stop-color="#9B3F51"/>
<stop offset="1" stop-color="#9B3F51" stop-opacity="0"/>
</radialGradient>
<radialGradient id="paint15_radial_7955_106581" cx="0" cy="0" r="1" gradientUnits="userSpaceOnUse" gradientTransform="translate(9.78047 20.9484) rotate(90) scale(3.07617 1.74995)">
<stop offset="0.267" stop-color="#8F163A"/>
<stop offset="1" stop-color="#8F163A" stop-opacity="0"/>
</radialGradient>
<linearGradient id="paint16_linear_7955_106581" x1="8.79141" y1="23.6416" x2="21.7945" y2="23.621" gradientUnits="userSpaceOnUse">
<stop stop-color="#AB1F5C"/>
<stop offset="1" stop-color="#A51E5A"/>
</linearGradient>
<linearGradient id="paint17_linear_7955_106581" x1="9.95094" y1="3.75" x2="9.95094" y2="18.9178" gradientUnits="userSpaceOnUse">
<stop stop-color="#A6E051"/>
<stop offset="1" stop-color="#74D891"/>
</linearGradient>
<linearGradient id="paint18_linear_7955_106581" x1="16.0531" y1="5.98125" x2="14.8091" y2="6.15938" gradientUnits="userSpaceOnUse">
<stop offset="0.014" stop-color="#C0FA7C"/>
<stop offset="1" stop-color="#B0ED5B" stop-opacity="0"/>
</linearGradient>
<linearGradient id="paint19_linear_7955_106581" x1="3.13969" y1="20.4442" x2="15.8409" y2="20.4442" gradientUnits="userSpaceOnUse">
<stop stop-color="#D5BCEB"/>
<stop offset="1" stop-color="#E3D3F2"/>
</linearGradient>
<linearGradient id="paint20_linear_7955_106581" x1="9.16125" y1="19.3839" x2="9.16125" y2="20.2811" gradientUnits="userSpaceOnUse">
<stop stop-color="#9F84AE"/>
<stop offset="1" stop-color="#C5B1D6" stop-opacity="0"/>
</linearGradient>
<linearGradient id="paint21_linear_7955_106581" x1="2.18016" y1="13.0641" x2="3.66984" y2="13.0716" gradientUnits="userSpaceOnUse">
<stop stop-color="#63B33B"/>
<stop offset="1" stop-color="#429B5B"/>
</linearGradient>
<linearGradient id="paint22_linear_7955_106581" x1="2.95453" y1="20.7911" x2="15.9539" y2="20.7705" gradientUnits="userSpaceOnUse">
<stop stop-color="#2E7671"/>
<stop offset="1" stop-color="#2E7172"/>
</linearGradient>
</defs>
</svg>
