<svg width="150" height="150" viewBox="0 0 150 150" fill="none" xmlns="http://www.w3.org/2000/svg">
<path d="M141.116 96.2619H139.319V75.2994C139.319 73.7244 138.045 72.4494 136.473 72.4494H113.254L113.292 16.7994C113.292 16.7244 113.217 16.6494 113.142 16.6494H75.9549C68.5774 16.6494 67.7535 20.7744 67.7535 25.2744V80.2119H58.2414V60.0369C58.2414 58.6494 57.118 57.5619 55.7698 57.5619H20.5676C19.182 57.5619 18.096 58.6869 18.096 60.0369V96.2244H15.9614C14.3885 96.2244 13.1152 97.4994 13.1152 99.0744V110.287C13.1152 111.862 14.3885 113.137 15.9614 113.137H141.154C142.727 113.137 144 111.862 144 110.287V99.0744C143.962 97.5369 142.689 96.2619 141.116 96.2619Z" fill="#F0F3F5"/>
<path fill-rule="evenodd" clip-rule="evenodd" d="M10.1943 83.5869C9.92891 83.5869 9.67166 83.6166 9.42532 83.6724C9.02135 83.764 8.61965 83.5107 8.52808 83.1067C8.43652 82.7028 8.68977 82.3011 9.09374 82.2095C9.44832 82.1291 9.81677 82.0869 10.1943 82.0869H11.003C11.4172 82.0869 11.753 82.4227 11.753 82.8369C11.753 83.2511 11.4172 83.5869 11.003 83.5869H10.1943ZM14.2966 82.8369C14.2966 82.4227 14.6324 82.0869 15.0466 82.0869H16.6641C17.0783 82.0869 17.4141 82.4227 17.4141 82.8369C17.4141 83.2511 17.0783 83.5869 16.6641 83.5869H15.0466C14.6324 83.5869 14.2966 83.2511 14.2966 82.8369ZM19.9577 82.8369C19.9577 82.4227 20.2935 82.0869 20.7077 82.0869H22.3251C22.7394 82.0869 23.0751 82.4227 23.0751 82.8369C23.0751 83.2511 22.7394 83.5869 22.3251 83.5869H20.7077C20.2935 83.5869 19.9577 83.2511 19.9577 82.8369ZM25.6188 82.8369C25.6188 82.4227 25.9545 82.0869 26.3688 82.0869H27.9862C28.4004 82.0869 28.7362 82.4227 28.7362 82.8369C28.7362 83.2511 28.4004 83.5869 27.9862 83.5869H26.3688C25.9545 83.5869 25.6188 83.2511 25.6188 82.8369ZM31.2798 82.8369C31.2798 82.4227 31.6156 82.0869 32.0298 82.0869H33.6473C34.0615 82.0869 34.3973 82.4227 34.3973 82.8369C34.3973 83.2511 34.0615 83.5869 33.6473 83.5869H32.0298C31.6156 83.5869 31.2798 83.2511 31.2798 82.8369ZM36.9409 82.8369C36.9409 82.4227 37.2767 82.0869 37.6909 82.0869H39.3083C39.7225 82.0869 40.0583 82.4227 40.0583 82.8369C40.0583 83.2511 39.7225 83.5869 39.3083 83.5869H37.6909C37.2767 83.5869 36.9409 83.2511 36.9409 82.8369ZM42.6019 82.8369C42.6019 82.4227 42.9377 82.0869 43.3519 82.0869H44.1607C44.5382 82.0869 44.9066 82.1291 45.2612 82.2095C45.6652 82.3011 45.9184 82.7028 45.8269 83.1067C45.7353 83.5107 45.3336 83.764 44.9296 83.6724C44.6833 83.6166 44.426 83.5869 44.1607 83.5869H43.3519C42.9377 83.5869 42.6019 83.2511 42.6019 82.8369ZM6.26877 85.3705C6.67282 85.4617 6.92643 85.8632 6.83522 86.2672C6.77956 86.5138 6.75 86.7713 6.75 87.0369V87.7528C6.75 88.167 6.41421 88.5028 6 88.5028C5.58579 88.5028 5.25 88.167 5.25 87.7528V87.0369C5.25 86.6596 5.29203 86.2914 5.37204 85.9369C5.46324 85.5329 5.86473 85.2793 6.26877 85.3705ZM48.0862 85.3705C48.4902 85.2793 48.8917 85.5329 48.9829 85.9369C49.0629 86.2914 49.105 86.6596 49.105 87.0369V87.7528C49.105 88.167 48.7692 88.5028 48.355 88.5028C47.9407 88.5028 47.605 88.167 47.605 87.7528V87.0369C47.605 86.7713 47.5754 86.5138 47.5197 86.2672C47.4285 85.8632 47.6821 85.4617 48.0862 85.3705ZM6 90.582C6.41421 90.582 6.75 90.9178 6.75 91.332V92.7637C6.75 93.1779 6.41421 93.5137 6 93.5137C5.58579 93.5137 5.25 93.1779 5.25 92.7637V91.332C5.25 90.9178 5.58579 90.582 6 90.582ZM48.355 90.582C48.7692 90.582 49.105 90.9178 49.105 91.332V92.7637C49.105 93.1779 48.7692 93.5137 48.355 93.5137C47.9407 93.5137 47.605 93.1779 47.605 92.7637V91.332C47.605 90.9178 47.9407 90.582 48.355 90.582ZM48.355 95.5929C48.7692 95.5929 49.105 95.9287 49.105 96.3429V97.7746C49.105 98.1889 48.7692 98.5246 48.355 98.5246C47.9407 98.5246 47.605 98.1889 47.605 97.7746V96.3429C47.605 95.9287 47.9407 95.5929 48.355 95.5929ZM6 95.5929C6.41421 95.5929 6.75 95.9287 6.75 96.3429V97.7746C6.75 98.1889 6.41421 98.5246 6 98.5246C5.58579 98.5246 5.25 98.1889 5.25 97.7746V96.3429C5.25 95.9287 5.58579 95.5929 6 95.5929ZM6 100.604C6.41421 100.604 6.75 100.94 6.75 101.354V102.786C6.75 103.2 6.41421 103.536 6 103.536C5.58579 103.536 5.25 103.2 5.25 102.786V101.354C5.25 100.94 5.58579 100.604 6 100.604ZM48.355 100.604C48.7692 100.604 49.105 100.94 49.105 101.354V102.786C49.105 103.2 48.7692 103.536 48.355 103.536C47.9407 103.536 47.605 103.2 47.605 102.786V101.354C47.605 100.94 47.9407 100.604 48.355 100.604ZM6 105.615C6.41421 105.615 6.75 105.951 6.75 106.365V107.797C6.75 108.211 6.41421 108.547 6 108.547C5.58579 108.547 5.25 108.211 5.25 107.797V106.365C5.25 105.951 5.58579 105.615 6 105.615ZM48.355 105.615C48.7692 105.615 49.105 105.951 49.105 106.365V107.797C49.105 108.211 48.7692 108.547 48.355 108.547C47.9407 108.547 47.605 108.211 47.605 107.797V106.365C47.605 105.951 47.9407 105.615 48.355 105.615ZM6 110.626C6.41421 110.626 6.75 110.962 6.75 111.376V112.807C6.75 113.222 6.41421 113.557 6 113.557C5.58579 113.557 5.25 113.222 5.25 112.807V111.376C5.25 110.962 5.58579 110.626 6 110.626ZM48.355 110.626C48.7692 110.626 49.105 110.962 49.105 111.376V112.807C49.105 113.222 48.7692 113.557 48.355 113.557C47.9407 113.557 47.605 113.222 47.605 112.807V111.376C47.605 110.962 47.9407 110.626 48.355 110.626ZM6 115.637C6.41421 115.637 6.75 115.972 6.75 116.387V117.818C6.75 118.233 6.41421 118.568 6 118.568C5.58579 118.568 5.25 118.233 5.25 117.818V116.387C5.25 115.972 5.58579 115.637 6 115.637ZM48.355 115.637C48.7692 115.637 49.105 115.972 49.105 116.387V117.818C49.105 118.233 48.7692 118.568 48.355 118.568C47.9407 118.568 47.605 118.233 47.605 117.818V116.387C47.605 115.972 47.9407 115.637 48.355 115.637ZM6 120.648C6.41421 120.648 6.75 120.983 6.75 121.398V122.829C6.75 123.244 6.41421 123.579 6 123.579C5.58579 123.579 5.25 123.244 5.25 122.829V121.398C5.25 120.983 5.58579 120.648 6 120.648ZM48.355 120.648C48.7692 120.648 49.105 120.983 49.105 121.398V122.829C49.105 123.244 48.7692 123.579 48.355 123.579C47.9407 123.579 47.605 123.244 47.605 122.829V121.398C47.605 120.983 47.9407 120.648 48.355 120.648ZM6 125.659C6.41421 125.659 6.75 125.994 6.75 126.409V127.124C6.75 127.39 6.77956 127.648 6.83522 127.894C6.92643 128.298 6.67282 128.7 6.26877 128.791C5.86473 128.882 5.46324 128.628 5.37204 128.224C5.29203 127.87 5.25 127.502 5.25 127.124V126.409C5.25 125.994 5.58579 125.659 6 125.659ZM48.355 125.659C48.7692 125.659 49.105 125.994 49.105 126.409V127.124C49.105 127.502 49.0629 127.87 48.9829 128.224C48.8917 128.628 48.4902 128.882 48.0862 128.791C47.6821 128.7 47.4285 128.298 47.5197 127.894C47.5754 127.648 47.605 127.39 47.605 127.124V126.409C47.605 125.994 47.9407 125.659 48.355 125.659ZM8.52808 131.055C8.61965 130.651 9.02135 130.397 9.42532 130.489C9.67166 130.545 9.92891 130.574 10.1943 130.574H11.003C11.4172 130.574 11.753 130.91 11.753 131.324C11.753 131.739 11.4172 132.074 11.003 132.074H10.1943C9.81677 132.074 9.44832 132.032 9.09374 131.952C8.68977 131.86 8.43652 131.459 8.52808 131.055ZM45.8269 131.055C45.9184 131.459 45.6652 131.86 45.2612 131.952C44.9066 132.032 44.5382 132.074 44.1607 132.074H43.3519C42.9377 132.074 42.6019 131.739 42.6019 131.324C42.6019 130.91 42.9377 130.574 43.3519 130.574H44.1607C44.426 130.574 44.6833 130.545 44.9296 130.489C45.3336 130.397 45.7353 130.651 45.8269 131.055ZM14.2966 131.324C14.2966 130.91 14.6324 130.574 15.0466 130.574H16.6641C17.0783 130.574 17.4141 130.91 17.4141 131.324C17.4141 131.739 17.0783 132.074 16.6641 132.074H15.0466C14.6324 132.074 14.2966 131.739 14.2966 131.324ZM19.9577 131.324C19.9577 130.91 20.2935 130.574 20.7077 130.574H22.3251C22.7394 130.574 23.0751 130.91 23.0751 131.324C23.0751 131.739 22.7394 132.074 22.3251 132.074H20.7077C20.2935 132.074 19.9577 131.739 19.9577 131.324ZM25.6188 131.324C25.6188 130.91 25.9545 130.574 26.3688 130.574H27.9862C28.4004 130.574 28.7362 130.91 28.7362 131.324C28.7362 131.739 28.4004 132.074 27.9862 132.074H26.3688C25.9545 132.074 25.6188 131.739 25.6188 131.324ZM31.2798 131.324C31.2798 130.91 31.6156 130.574 32.0298 130.574H33.6473C34.0615 130.574 34.3973 130.91 34.3973 131.324C34.3973 131.739 34.0615 132.074 33.6473 132.074H32.0298C31.6156 132.074 31.2798 131.739 31.2798 131.324ZM36.9409 131.324C36.9409 130.91 37.2767 130.574 37.6909 130.574H39.3083C39.7225 130.574 40.0583 130.91 40.0583 131.324C40.0583 131.739 39.7225 132.074 39.3083 132.074H37.6909C37.2767 132.074 36.9409 131.739 36.9409 131.324Z" fill="#999999"/>
<path fill-rule="evenodd" clip-rule="evenodd" d="M12.1869 90.9431C12.412 90.5954 12.8763 90.496 13.2241 90.7211L20.639 95.5211C20.8516 95.6587 20.9804 95.8943 20.9814 96.1476C20.9825 96.4009 20.8556 96.6375 20.6441 96.7769L13.3041 101.614C12.9583 101.842 12.4931 101.747 12.2652 101.401C12.0372 101.055 12.1328 100.59 12.4787 100.362L18.86 96.1563L12.4089 91.9803C12.0612 91.7552 11.9618 91.2908 12.1869 90.9431ZM22.5896 106.988C22.5896 106.574 22.9253 106.238 23.3396 106.238H31.129C31.5432 106.238 31.879 106.574 31.879 106.988C31.879 107.402 31.5432 107.738 31.129 107.738H23.3396C22.9253 107.738 22.5896 107.402 22.5896 106.988Z" fill="#999999"/>
<path fill-rule="evenodd" clip-rule="evenodd" d="M126.697 23.1006C126.697 22.6864 127.033 22.3506 127.447 22.3506H128.196C128.395 22.3506 128.586 22.4297 128.727 22.5706L129.251 23.0956C129.544 23.3887 129.544 23.8636 129.251 24.1563C128.957 24.449 128.483 24.4486 128.19 24.1556L127.885 23.8506H127.447C127.033 23.8506 126.697 23.5148 126.697 23.1006Z" fill="#999999"/>
<path fill-rule="evenodd" clip-rule="evenodd" d="M78.4738 22.4639C78.7966 22.3897 79.132 22.3506 79.4754 22.3506H80.2645C80.6787 22.3506 81.0145 22.6864 81.0145 23.1006C81.0145 23.5148 80.6787 23.8506 80.2645 23.8506H79.4754C79.2462 23.8506 79.0235 23.8767 78.8098 23.9258C78.4061 24.0186 78.0037 23.7666 77.9109 23.3629C77.8181 22.9592 78.0701 22.5567 78.4738 22.4639ZM83.46 23.1006C83.46 22.6864 83.7958 22.3506 84.21 22.3506H85.7882C86.2025 22.3506 86.5382 22.6864 86.5382 23.1006C86.5382 23.5148 86.2025 23.8506 85.7882 23.8506H84.21C83.7958 23.8506 83.46 23.5148 83.46 23.1006ZM88.9838 23.1006C88.9838 22.6864 89.3195 22.3506 89.7338 22.3506H91.312C91.7262 22.3506 92.062 22.6864 92.062 23.1006C92.062 23.5148 91.7262 23.8506 91.312 23.8506H89.7338C89.3195 23.8506 88.9838 23.5148 88.9838 23.1006ZM94.5075 23.1006C94.5075 22.6864 94.8433 22.3506 95.2575 22.3506H96.8357C97.2499 22.3506 97.5857 22.6864 97.5857 23.1006C97.5857 23.5148 97.2499 23.8506 96.8357 23.8506H95.2575C94.8433 23.8506 94.5075 23.5148 94.5075 23.1006ZM100.031 23.1006C100.031 22.6864 100.367 22.3506 100.781 22.3506H102.359C102.774 22.3506 103.109 22.6864 103.109 23.1006C103.109 23.5148 102.774 23.8506 102.359 23.8506H100.781C100.367 23.8506 100.031 23.5148 100.031 23.1006ZM105.555 23.1006C105.555 22.6864 105.891 22.3506 106.305 22.3506H107.883C108.297 22.3506 108.633 22.6864 108.633 23.1006C108.633 23.5148 108.297 23.8506 107.883 23.8506H106.305C105.891 23.8506 105.555 23.5148 105.555 23.1006ZM111.079 23.1006C111.079 22.6864 111.415 22.3506 111.829 22.3506H113.407C113.821 22.3506 114.157 22.6864 114.157 23.1006C114.157 23.5148 113.821 23.8506 113.407 23.8506H111.829C111.415 23.8506 111.079 23.5148 111.079 23.1006ZM116.602 23.1006C116.602 22.6864 116.938 22.3506 117.352 22.3506H118.931C119.345 22.3506 119.681 22.6864 119.681 23.1006C119.681 23.5148 119.345 23.8506 118.931 23.8506H117.352C116.938 23.8506 116.602 23.5148 116.602 23.1006ZM122.126 23.1006C122.126 22.6864 122.462 22.3506 122.876 22.3506H123.665C124.08 22.3506 124.415 22.6864 124.415 23.1006C124.415 23.5148 124.08 23.8506 123.665 23.8506H122.876C122.462 23.8506 122.126 23.5148 122.126 23.1006ZM129.501 24.4459C129.793 24.1527 130.268 24.1521 130.561 24.4446L131.034 24.916C131.327 25.2086 131.328 25.6835 131.035 25.9767C130.743 26.27 130.268 26.2705 129.975 25.978L129.502 25.5066C129.209 25.214 129.208 24.7391 129.501 24.4459ZM75.9917 25.2859C76.3955 25.3783 76.6479 25.7806 76.5554 26.1843C76.5065 26.3983 76.4805 26.6212 76.4805 26.8506V27.6278C76.4805 28.042 76.1447 28.3778 75.7305 28.3778C75.3163 28.3778 74.9805 28.042 74.9805 27.6278V26.8506C74.9805 26.5074 75.0194 26.1723 75.0933 25.8496C75.1857 25.4458 75.588 25.1934 75.9917 25.2859ZM132.336 27.2745C132.629 26.9812 133.104 26.9806 133.397 27.2732L134.342 28.216C134.635 28.5086 134.636 28.9835 134.343 29.2767C134.051 29.57 133.576 29.5705 133.283 29.278L132.337 28.3351C132.044 28.0426 132.044 27.5677 132.336 27.2745ZM135.644 30.5745C135.937 30.2812 136.412 30.2806 136.705 30.5732L137.65 31.516C137.943 31.8086 137.944 32.2835 137.651 32.5767C137.359 32.87 136.884 32.8705 136.591 32.578L135.645 31.6351C135.352 31.3426 135.352 30.8677 135.644 30.5745ZM75.7305 30.7636C76.1447 30.7636 76.4805 31.0994 76.4805 31.5136V33.0679C76.4805 33.4822 76.1447 33.8179 75.7305 33.8179C75.3163 33.8179 74.9805 33.4822 74.9805 33.0679V31.5136C74.9805 31.0994 75.3163 30.7636 75.7305 30.7636ZM138.952 33.8745C139.245 33.5812 139.72 33.5806 140.013 33.8732L140.485 34.3446C140.626 34.4853 140.706 34.6764 140.706 34.8756V35.6243C140.706 36.0386 140.37 36.3743 139.956 36.3743C139.541 36.3743 139.206 36.0386 139.206 35.6243V35.1868L138.953 34.9351C138.66 34.6426 138.66 34.1677 138.952 33.8745ZM75.7305 36.2038C76.1447 36.2038 76.4805 36.5396 76.4805 36.9538V38.5081C76.4805 38.9223 76.1447 39.2581 75.7305 39.2581C75.3163 39.2581 74.9805 38.9223 74.9805 38.5081V36.9538C74.9805 36.5396 75.3163 36.2038 75.7305 36.2038ZM139.956 38.6182C140.37 38.6182 140.706 38.9539 140.706 39.3682V40.8657C140.706 41.2799 140.37 41.6157 139.956 41.6157C139.541 41.6157 139.206 41.2799 139.206 40.8657V39.3682C139.206 38.9539 139.541 38.6182 139.956 38.6182ZM75.7305 41.6439C76.1447 41.6439 76.4805 41.9797 76.4805 42.3939V43.9483C76.4805 44.3625 76.1447 44.6983 75.7305 44.6983C75.3163 44.6983 74.9805 44.3625 74.9805 43.9483V42.3939C74.9805 41.9797 75.3163 41.6439 75.7305 41.6439ZM139.956 43.8595C140.37 43.8595 140.706 44.1953 140.706 44.6095V46.107C140.706 46.5213 140.37 46.857 139.956 46.857C139.541 46.857 139.206 46.5213 139.206 46.107V44.6095C139.206 44.1953 139.541 43.8595 139.956 43.8595ZM75.7305 47.0841C76.1447 47.0841 76.4805 47.4199 76.4805 47.8341V49.3885C76.4805 49.8027 76.1447 50.1385 75.7305 50.1385C75.3163 50.1385 74.9805 49.8027 74.9805 49.3885V47.8341C74.9805 47.4199 75.3163 47.0841 75.7305 47.0841ZM139.956 49.1008C140.37 49.1008 140.706 49.4366 140.706 49.8508V51.3484C140.706 51.7626 140.37 52.0984 139.956 52.0984C139.541 52.0984 139.206 51.7626 139.206 51.3484V49.8508C139.206 49.4366 139.541 49.1008 139.956 49.1008ZM75.7305 52.5243C76.1447 52.5243 76.4805 52.8601 76.4805 53.2743V54.8287C76.4805 55.2429 76.1447 55.5787 75.7305 55.5787C75.3163 55.5787 74.9805 55.2429 74.9805 54.8287V53.2743C74.9805 52.8601 75.3163 52.5243 75.7305 52.5243ZM139.956 54.3422C140.37 54.3422 140.706 54.678 140.706 55.0922V56.5897C140.706 57.004 140.37 57.3397 139.956 57.3397C139.541 57.3397 139.206 57.004 139.206 56.5897V55.0922C139.206 54.678 139.541 54.3422 139.956 54.3422ZM75.7305 57.9645C76.1447 57.9645 76.4805 58.3003 76.4805 58.7145V60.2688C76.4805 60.683 76.1447 61.0188 75.7305 61.0188C75.3163 61.0188 74.9805 60.683 74.9805 60.2688V58.7145C74.9805 58.3003 75.3163 57.9645 75.7305 57.9645ZM139.956 59.5835C140.37 59.5835 140.706 59.9193 140.706 60.3335V61.8311C140.706 62.2453 140.37 62.5811 139.956 62.5811C139.541 62.5811 139.206 62.2453 139.206 61.8311V60.3335C139.206 59.9193 139.541 59.5835 139.956 59.5835ZM75.7305 63.4047C76.1447 63.4047 76.4805 63.7405 76.4805 64.1547V65.709C76.4805 66.1232 76.1447 66.459 75.7305 66.459C75.3163 66.459 74.9805 66.1232 74.9805 65.709V64.1547C74.9805 63.7405 75.3163 63.4047 75.7305 63.4047ZM139.956 64.8249C140.37 64.8249 140.706 65.1607 140.706 65.5749V67.0724C140.706 67.4867 140.37 67.8224 139.956 67.8224C139.541 67.8224 139.206 67.4867 139.206 67.0724V65.5749C139.206 65.1607 139.541 64.8249 139.956 64.8249ZM75.7305 68.8448C76.1447 68.8448 76.4805 69.1806 76.4805 69.5948V71.1492C76.4805 71.5634 76.1447 71.8992 75.7305 71.8992C75.3163 71.8992 74.9805 71.5634 74.9805 71.1492V69.5948C74.9805 69.1806 75.3163 68.8448 75.7305 68.8448ZM139.956 70.0662C140.37 70.0662 140.706 70.402 140.706 70.8162V72.3138C140.706 72.728 140.37 73.0638 139.956 73.0638C139.541 73.0638 139.206 72.728 139.206 72.3138V70.8162C139.206 70.402 139.541 70.0662 139.956 70.0662ZM75.7305 74.285C76.1447 74.285 76.4805 74.6208 76.4805 75.035V76.5894C76.4805 77.0036 76.1447 77.3394 75.7305 77.3394C75.3163 77.3394 74.9805 77.0036 74.9805 76.5894V75.035C74.9805 74.6208 75.3163 74.285 75.7305 74.285ZM139.956 75.3076C140.37 75.3076 140.706 75.6434 140.706 76.0576V77.5551C140.706 77.9693 140.37 78.3051 139.956 78.3051C139.541 78.3051 139.206 77.9693 139.206 77.5551V76.0576C139.206 75.6434 139.541 75.3076 139.956 75.3076ZM75.7305 79.7252C76.1447 79.7252 76.4805 80.061 76.4805 80.4752V82.0295C76.4805 82.4438 76.1447 82.7795 75.7305 82.7795C75.3163 82.7795 74.9805 82.4438 74.9805 82.0295V80.4752C74.9805 80.061 75.3163 79.7252 75.7305 79.7252ZM139.956 80.5489C140.37 80.5489 140.706 80.8847 140.706 81.2989V82.7965C140.706 83.2107 140.37 83.5465 139.956 83.5465C139.541 83.5465 139.206 83.2107 139.206 82.7965V81.2989C139.206 80.8847 139.541 80.5489 139.956 80.5489ZM75.7305 85.1654C76.1447 85.1654 76.4805 85.5012 76.4805 85.9154V87.4697C76.4805 87.8839 76.1447 88.2197 75.7305 88.2197C75.3163 88.2197 74.9805 87.8839 74.9805 87.4697V85.9154C74.9805 85.5012 75.3163 85.1654 75.7305 85.1654ZM139.956 85.7903C140.37 85.7903 140.706 86.1261 140.706 86.5403V88.0378C140.706 88.452 140.37 88.7878 139.956 88.7878C139.541 88.7878 139.206 88.452 139.206 88.0378V86.5403C139.206 86.1261 139.541 85.7903 139.956 85.7903ZM75.7305 90.6056C76.1447 90.6056 76.4805 90.9413 76.4805 91.3556V92.9099C76.4805 93.3241 76.1447 93.6599 75.7305 93.6599C75.3163 93.6599 74.9805 93.3241 74.9805 92.9099V91.3556C74.9805 90.9413 75.3163 90.6056 75.7305 90.6056ZM139.956 91.0316C140.37 91.0316 140.706 91.3674 140.706 91.7816V93.2792C140.706 93.6934 140.37 94.0292 139.956 94.0292C139.541 94.0292 139.206 93.6934 139.206 93.2792V91.7816C139.206 91.3674 139.541 91.0316 139.956 91.0316ZM75.7305 96.0457C76.1447 96.0457 76.4805 96.3815 76.4805 96.7957V98.3501C76.4805 98.7643 76.1447 99.1001 75.7305 99.1001C75.3163 99.1001 74.9805 98.7643 74.9805 98.3501V96.7957C74.9805 96.3815 75.3163 96.0457 75.7305 96.0457ZM139.956 96.273C140.37 96.273 140.706 96.6088 140.706 97.023V98.5205C140.706 98.9347 140.37 99.2705 139.956 99.2705C139.541 99.2705 139.206 98.9347 139.206 98.5205V97.023C139.206 96.6088 139.541 96.273 139.956 96.273ZM75.7305 101.486C76.1447 101.486 76.4805 101.822 76.4805 102.236V103.013C76.4805 103.242 76.5065 103.465 76.5554 103.679C76.6479 104.083 76.3955 104.485 75.9917 104.578C75.588 104.67 75.1857 104.418 75.0933 104.014C75.0194 103.691 74.9805 103.356 74.9805 103.013V102.236C74.9805 101.822 75.3163 101.486 75.7305 101.486ZM139.956 101.514C140.37 101.514 140.706 101.85 140.706 102.264V103.013C140.706 103.356 140.667 103.691 140.593 104.014C140.5 104.418 140.098 104.67 139.694 104.578C139.291 104.485 139.038 104.083 139.131 103.679C139.18 103.465 139.206 103.242 139.206 103.013V102.264C139.206 101.85 139.541 101.514 139.956 101.514ZM77.9109 106.501C78.0037 106.097 78.4061 105.845 78.8098 105.938C79.0235 105.987 79.2462 106.013 79.4754 106.013H80.2122C80.6264 106.013 80.9622 106.349 80.9622 106.763C80.9622 107.177 80.6264 107.513 80.2122 107.513H79.4754C79.132 107.513 78.7966 107.474 78.4738 107.4C78.0701 107.307 77.8181 106.904 77.9109 106.501ZM137.775 106.501C137.868 106.904 137.616 107.307 137.212 107.4C136.89 107.474 136.554 107.513 136.211 107.513H135.474C135.06 107.513 134.724 107.177 134.724 106.763C134.724 106.349 135.06 106.013 135.474 106.013H136.211C136.44 106.013 136.663 105.987 136.876 105.938C137.28 105.845 137.683 106.097 137.775 106.501ZM83.1463 106.763C83.1463 106.349 83.4821 106.013 83.8963 106.013H85.37C85.7842 106.013 86.12 106.349 86.12 106.763C86.12 107.177 85.7842 107.513 85.37 107.513H83.8963C83.4821 107.513 83.1463 107.177 83.1463 106.763ZM88.3041 106.763C88.3041 106.349 88.6399 106.013 89.0541 106.013H90.5277C90.942 106.013 91.2777 106.349 91.2777 106.763C91.2777 107.177 90.942 107.513 90.5277 107.513H89.0541C88.6399 107.513 88.3041 107.177 88.3041 106.763ZM93.4618 106.763C93.4618 106.349 93.7976 106.013 94.2118 106.013H95.6855C96.0997 106.013 96.4355 106.349 96.4355 106.763C96.4355 107.177 96.0997 107.513 95.6855 107.513H94.2118C93.7976 107.513 93.4618 107.177 93.4618 106.763ZM98.6196 106.763C98.6196 106.349 98.9554 106.013 99.3696 106.013H100.843C101.257 106.013 101.593 106.349 101.593 106.763C101.593 107.177 101.257 107.513 100.843 107.513H99.3696C98.9554 107.513 98.6196 107.177 98.6196 106.763ZM103.777 106.763C103.777 106.349 104.113 106.013 104.527 106.013H106.001C106.415 106.013 106.751 106.349 106.751 106.763C106.751 107.177 106.415 107.513 106.001 107.513H104.527C104.113 107.513 103.777 107.177 103.777 106.763ZM108.935 106.763C108.935 106.349 109.271 106.013 109.685 106.013H111.159C111.573 106.013 111.909 106.349 111.909 106.763C111.909 107.177 111.573 107.513 111.159 107.513H109.685C109.271 107.513 108.935 107.177 108.935 106.763ZM114.093 106.763C114.093 106.349 114.429 106.013 114.843 106.013H116.317C116.731 106.013 117.067 106.349 117.067 106.763C117.067 107.177 116.731 107.513 116.317 107.513H114.843C114.429 107.513 114.093 107.177 114.093 106.763ZM119.251 106.763C119.251 106.349 119.586 106.013 120.001 106.013H121.474C121.889 106.013 122.224 106.349 122.224 106.763C122.224 107.177 121.889 107.513 121.474 107.513H120.001C119.586 107.513 119.251 107.177 119.251 106.763ZM124.408 106.763C124.408 106.349 124.744 106.013 125.158 106.013H126.632C127.046 106.013 127.382 106.349 127.382 106.763C127.382 107.177 127.046 107.513 126.632 107.513H125.158C124.744 107.513 124.408 107.177 124.408 106.763ZM129.566 106.763C129.566 106.349 129.902 106.013 130.316 106.013H131.79C132.204 106.013 132.54 106.349 132.54 106.763C132.54 107.177 132.204 107.513 131.79 107.513H130.316C129.902 107.513 129.566 107.177 129.566 106.763Z" fill="#999999"/>
<path fill-rule="evenodd" clip-rule="evenodd" d="M128.197 22.3506C128.611 22.3506 128.947 22.6864 128.947 23.1006V23.8506C128.947 24.2648 128.611 24.6006 128.197 24.6006C127.783 24.6006 127.447 24.2648 127.447 23.8506V23.1006C127.447 22.6864 127.783 22.3506 128.197 22.3506Z" fill="#999999"/>
<path fill-rule="evenodd" clip-rule="evenodd" d="M128.197 27.1133C128.611 27.1133 128.947 27.4491 128.947 27.8633V28.4686C128.947 28.8829 128.611 29.2186 128.197 29.2186C127.783 29.2186 127.447 28.8829 127.447 28.4686V27.8633C127.447 27.4491 127.783 27.1133 128.197 27.1133ZM128.197 30.7454C128.611 30.7454 128.947 31.0812 128.947 31.4954V32.1008C128.947 32.2576 128.965 32.409 128.997 32.5537C129.088 32.9578 128.835 33.3592 128.43 33.4502C128.026 33.5412 127.625 33.2875 127.534 32.8834C127.477 32.631 127.447 32.369 127.447 32.1008V31.4954C127.447 31.0812 127.783 30.7454 128.197 30.7454ZM129.619 34.6417C129.711 34.2377 130.112 33.9843 130.516 34.0757C130.661 34.1083 130.812 34.1258 130.969 34.1258H131.857C132.271 34.1258 132.607 34.4616 132.607 34.8758C132.607 35.29 132.271 35.6258 131.857 35.6258H130.969C130.7 35.6258 130.438 35.5958 130.185 35.5387C129.781 35.4473 129.528 35.0457 129.619 34.6417ZM135.547 34.8758C135.547 34.4616 135.883 34.1258 136.297 34.1258H137.185C137.599 34.1258 137.935 34.4616 137.935 34.8758C137.935 35.29 137.599 35.6258 137.185 35.6258H136.297C135.883 35.6258 135.547 35.29 135.547 34.8758Z" fill="#999999"/>
<path fill-rule="evenodd" clip-rule="evenodd" d="M138.42 34.875C138.42 34.4608 138.756 34.125 139.17 34.125H139.919C140.333 34.125 140.669 34.4608 140.669 34.875C140.669 35.2892 140.333 35.625 139.919 35.625H139.17C138.756 35.625 138.42 35.2892 138.42 34.875Z" fill="#999999"/>
<path d="M29.4805 121.35L30.3418 48.0004C30.3792 45.1129 32.4015 42.7879 34.7982 42.9004L117.374 47.2129C119.096 47.2879 120.444 48.7504 120.444 50.5129V117.825L29.4805 121.35Z" fill="#2998EC"/>
<path d="M84.5681 53.9256C84.98 51.6756 87.1521 49.9131 89.399 50.0256L130.893 51.8631C132.952 51.9381 134.301 53.7381 133.889 55.8756L122.804 117.451C122.429 119.551 120.444 121.313 118.385 121.426L33.3751 124.951C30.8286 125.063 29.1059 123.226 29.5179 120.901L39.7789 60.8631C40.1909 58.5006 42.5502 56.6256 45.0593 56.7381L79.6248 57.9381C82.0216 57.9381 84.5681 53.9256 84.5681 53.9256Z" fill="#C2DDFF"/>
<path fill-rule="evenodd" clip-rule="evenodd" d="M35.772 13.875C36.1862 13.875 36.522 14.2108 36.522 14.625V18.675C36.522 19.0892 36.1862 19.425 35.772 19.425C35.3577 19.425 35.0219 19.0892 35.0219 18.675V14.625C35.0219 14.2108 35.3577 13.875 35.772 13.875ZM26.5586 23.1006C26.5586 22.6864 26.8944 22.3506 27.3086 22.3506H31.3531C31.7673 22.3506 32.1031 22.6864 32.1031 23.1006C32.1031 23.5148 31.7673 23.8506 31.3531 23.8506H27.3086C26.8944 23.8506 26.5586 23.5148 26.5586 23.1006ZM39.4036 23.1006C39.4036 22.6864 39.7394 22.3506 40.1536 22.3506H44.2355C44.6497 22.3506 44.9855 22.6864 44.9855 23.1006C44.9855 23.5148 44.6497 23.8506 44.2355 23.8506H40.1536C39.7394 23.8506 39.4036 23.5148 39.4036 23.1006ZM35.772 26.4375C36.1862 26.4375 36.522 26.7733 36.522 27.1875V31.575C36.522 31.9892 36.1862 32.325 35.772 32.325C35.3577 32.325 35.0219 31.9892 35.0219 31.575V27.1875C35.0219 26.7733 35.3577 26.4375 35.772 26.4375Z" fill="#999999"/>
<path fill-rule="evenodd" clip-rule="evenodd" d="M132.69 126.188C133.105 126.188 133.44 126.523 133.44 126.938V129.038C133.44 129.452 133.105 129.788 132.69 129.788C132.276 129.788 131.94 129.452 131.94 129.038V126.938C131.94 126.523 132.276 126.188 132.69 126.188ZM127.521 131.325C127.521 130.911 127.857 130.575 128.271 130.575H130.406C130.82 130.575 131.156 130.911 131.156 131.325C131.156 131.739 130.82 132.075 130.406 132.075H128.271C127.857 132.075 127.521 131.739 127.521 131.325ZM134.225 131.325C134.225 130.911 134.561 130.575 134.975 130.575H137.11C137.524 130.575 137.86 130.911 137.86 131.325C137.86 131.739 137.524 132.075 137.11 132.075H134.975C134.561 132.075 134.225 131.739 134.225 131.325ZM132.69 132.712C133.105 132.712 133.44 133.048 133.44 133.462V135.749C133.44 136.164 133.105 136.499 132.69 136.499C132.276 136.499 131.94 136.164 131.94 135.749V133.462C131.94 133.048 132.276 132.712 132.69 132.712Z" fill="#999999"/>
</svg>
