<svg width="10" height="11" viewBox="0 0 10 11" fill="none" xmlns="http://www.w3.org/2000/svg">
<path d="M5.72086 1.96309L6.45419 3.42975C6.55419 3.63392 6.82086 3.82975 7.04586 3.86725L8.37502 4.08809C9.22502 4.22975 9.42502 4.84642 8.81252 5.45475L7.77919 6.48809C7.60419 6.66309 7.50836 7.00059 7.56252 7.24225L7.85836 8.52142C8.09169 9.53392 7.55419 9.92559 6.65836 9.39642L5.41252 8.65892C5.18752 8.52559 4.81669 8.52559 4.58752 8.65892L3.34169 9.39642C2.45002 9.92559 1.90836 9.52975 2.14169 8.52142L2.43752 7.24225C2.49169 7.00059 2.39586 6.66309 2.22086 6.48809L1.18752 5.45475C0.57919 4.84642 0.775023 4.22975 1.62502 4.08809L2.95419 3.86725C3.17502 3.82975 3.44169 3.63392 3.54169 3.42975L4.27502 1.96309C4.67502 1.16725 5.32502 1.16725 5.72086 1.96309Z" fill="#EEBB3E"/>
</svg>
