<svg width="32" height="31" viewBox="0 0 32 31" fill="none" xmlns="http://www.w3.org/2000/svg">
<path d="M14.0668 11.3794C12.5511 12.1034 11.5039 13.6505 11.5039 15.4422C11.5039 17.9275 13.5186 19.9422 16.0039 19.9422C17.7957 19.9422 19.3428 18.8951 20.0668 17.3794" stroke="#9F1239" stroke-width="0.8" stroke-linecap="round" stroke-linejoin="round"/>
<path d="M19.2095 6.23291C18.2044 5.88273 17.1244 5.69238 16 5.69238C10.6152 5.69238 6.25 10.0576 6.25 15.4424C6.25 20.8272 10.6152 25.1924 16 25.1924C21.3848 25.1924 25.75 20.8272 25.75 15.4424C25.75 14.318 25.5597 13.238 25.2095 12.2329" stroke="#9F1239" stroke-width="0.8" stroke-linecap="round" stroke-linejoin="round"/>
<path d="M23.1756 2.2668C21.0441 1.10352 18.5993 0.442383 16 0.442383C7.71572 0.442383 1 7.15811 1 15.4424C1 23.7267 7.71572 30.4424 16 30.4424C24.2843 30.4424 31 23.7267 31 15.4424C31 12.8431 30.3389 10.3983 29.1756 8.26676" stroke="#9F1239" stroke-width="0.8" stroke-linecap="round" stroke-linejoin="round"/>
<path d="M31 0.442383L16 15.4424" stroke="#9F1239" stroke-width="0.8" stroke-linecap="round" stroke-linejoin="round"/>
</svg>
