<svg width="201" height="152" viewBox="0 0 201 152" fill="none" xmlns="http://www.w3.org/2000/svg">
<g opacity="0.5" filter="url(#filter0_dd_4299_22492)">
<path d="M51.8684 48.6549C51.1369 42.7616 50.7712 39.8149 51.7735 36.0571C52.6262 32.8598 54.4688 29.6171 56.7791 27.2481C59.4944 24.4636 63.8987 22.5292 72.7073 18.6603C75.6749 17.3569 78.6017 15.9524 81.4816 14.4601C89.694 10.2046 93.8003 8.07691 96.6359 7.52794C99.8235 6.91082 101.051 6.91082 104.239 7.52794C107.074 8.07691 111.181 10.2046 119.393 14.4601C122.273 15.9524 125.2 17.3569 128.167 18.6603C136.976 22.5292 141.38 24.4636 144.095 27.2481C146.406 29.6171 148.248 32.8598 149.101 36.0571C150.103 39.8149 149.738 42.7616 149.006 48.6549C147.894 57.6185 145.538 68.0879 140.75 77.8223C133.53 92.4977 122.442 103.135 113.72 109.84C110.886 112.019 109.468 113.109 105.621 114.141C103.242 114.779 97.6323 114.779 95.2539 114.141C91.4061 113.109 89.9888 112.019 87.1542 109.84C78.4326 103.135 67.3441 92.4977 60.1248 77.8223C55.3362 68.0879 52.9809 57.6185 51.8684 48.6549Z" fill="black"/>
<path d="M51.5319 35.9926C50.5171 39.7975 50.8884 42.7892 51.6156 48.6484L51.6203 48.6857C52.7349 57.6665 55.0956 68.1653 59.9005 77.9327C67.1426 92.6545 78.2626 103.32 87.0018 110.038L87.0118 110.046C88.421 111.129 89.496 111.956 90.7009 112.638C91.9131 113.325 93.2501 113.862 95.1891 114.383C96.411 114.711 98.4349 114.87 100.437 114.87C102.44 114.87 104.464 114.711 105.685 114.383C107.624 113.862 108.961 113.325 110.174 112.638C111.379 111.956 112.454 111.129 113.863 110.046L113.873 110.038C122.612 103.32 133.732 92.6545 140.974 77.9327C145.779 68.1653 148.14 57.6665 149.254 48.6857L149.259 48.6485C149.986 42.7893 150.357 39.7976 149.343 35.9926C148.479 32.7539 146.615 29.4733 144.274 27.0735C142.89 25.6535 141.083 24.4592 138.531 23.1388C135.983 21.8199 132.673 20.3664 128.276 18.4352L128.268 18.4314C125.305 17.1302 122.383 15.7281 119.508 14.2381L119.503 14.2354C115.401 12.11 112.318 10.5124 109.906 9.37786C107.495 8.24403 105.736 7.56325 104.286 7.28249C102.688 6.97308 101.565 6.8151 100.437 6.8151C99.3092 6.8151 98.1867 6.97308 96.5884 7.28249C95.1382 7.56325 93.3791 8.24403 90.9686 9.37786C88.5567 10.5124 85.4737 12.1099 81.372 14.2353L81.3666 14.2381C78.4912 15.7281 75.5692 17.1302 72.6067 18.4314L72.5982 18.4352C68.2011 20.3664 64.8919 21.8199 62.3433 23.1388C59.7918 24.4592 57.9848 25.6535 56.6001 27.0735C54.2599 29.4733 52.3957 32.7539 51.5319 35.9926Z" stroke="white" stroke-width="0.5" stroke-linecap="round"/>
</g>
<mask id="mask0_4299_22492" style="mask-type:alpha" maskUnits="userSpaceOnUse" x="51" y="7" width="99" height="108">
<path d="M51.8684 48.6549C51.1369 42.7616 50.7712 39.8149 51.7735 36.0571C52.6262 32.8598 54.4688 29.6171 56.7791 27.2481C59.4944 24.4636 63.8987 22.5292 72.7073 18.6603C75.6749 17.3569 78.6017 15.9524 81.4816 14.4601C89.694 10.2046 93.8003 8.07691 96.6359 7.52794C99.8235 6.91083 101.051 6.91083 104.239 7.52794C107.074 8.07691 111.181 10.2046 119.393 14.4601C122.273 15.9524 125.2 17.3569 128.167 18.6603C136.976 22.5292 141.38 24.4636 144.095 27.2481C146.406 29.6171 148.248 32.8598 149.101 36.0571C150.103 39.8149 149.738 42.7616 149.006 48.6549C147.894 57.6185 145.538 68.0879 140.75 77.8223C133.53 92.4977 122.442 103.135 113.72 109.84C110.886 112.019 109.468 113.109 105.621 114.141C103.242 114.779 97.6323 114.779 95.2539 114.141C91.4061 113.109 89.9888 112.019 87.1542 109.84C78.4326 103.135 67.3441 92.4977 60.1248 77.8223C55.3362 68.0879 52.9809 57.6185 51.8684 48.6549Z" fill="black"/>
</mask>
<g mask="url(#mask0_4299_22492)">
<mask id="mask1_4299_22492" style="mask-type:alpha" maskUnits="userSpaceOnUse" x="51" y="7" width="99" height="108">
<path d="M51.8684 48.6549C51.1369 42.7616 50.7712 39.8149 51.7735 36.0571C52.6262 32.8598 54.4688 29.6171 56.7791 27.2481C59.4944 24.4636 63.8987 22.5292 72.7073 18.6603C75.6749 17.3569 78.6017 15.9524 81.4816 14.4601C89.694 10.2046 93.8003 8.07691 96.6359 7.52794C99.8235 6.91083 101.051 6.91083 104.239 7.52794C107.074 8.07691 111.181 10.2046 119.393 14.4601C122.273 15.9524 125.2 17.3569 128.167 18.6603C136.976 22.5292 141.38 24.4636 144.095 27.2481C146.406 29.6171 148.248 32.8598 149.101 36.0571C150.103 39.8149 149.738 42.7616 149.006 48.6549C147.894 57.6185 145.538 68.0879 140.75 77.8223C133.53 92.4977 122.442 103.135 113.72 109.84C110.886 112.019 109.468 113.109 105.621 114.141C103.242 114.779 97.6323 114.779 95.2539 114.141C91.4061 113.109 89.9888 112.019 87.1542 109.84C78.4326 103.135 67.3441 92.4977 60.1248 77.8223C55.3362 68.0879 52.9809 57.6185 51.8684 48.6549Z" fill="black"/>
</mask>
<g mask="url(#mask1_4299_22492)">
<rect x="25.502" y="-14.4673" width="149.735" height="149.696" fill="#3BBFA7"/>
<rect x="25.502" y="-14.4673" width="149.735" height="149.696" fill="url(#paint0_linear_4299_22492)" fill-opacity="0.6" style="mix-blend-mode:overlay"/>
<rect x="25.502" y="-14.4673" width="149.735" height="149.696" fill="url(#paint1_radial_4299_22492)" fill-opacity="0.6" style="mix-blend-mode:overlay"/>
<rect x="25.502" y="-14.4673" width="149.735" height="149.696" fill="black" fill-opacity="0.16" style="mix-blend-mode:overlay"/>
<rect x="25.502" y="-14.4673" width="149.735" height="149.696" fill="black" fill-opacity="0.12" style="mix-blend-mode:darken"/>
</g>
<g filter="url(#filter1_d_4299_22492)">
<mask id="mask2_4299_22492" style="mask-type:alpha" maskUnits="userSpaceOnUse" x="51" y="7" width="99" height="108">
<path fill-rule="evenodd" clip-rule="evenodd" d="M75.9249 25.9872C79.0565 24.6118 82.1378 23.1328 85.1628 21.5654C89.3275 19.4074 92.2456 17.8969 94.4808 16.8455C96.7969 15.756 97.7757 15.4582 98.157 15.3844C99.6083 15.1034 100.112 15.0674 100.438 15.0674C100.764 15.0674 101.267 15.1034 102.719 15.3844C103.1 15.4582 104.079 15.756 106.395 16.8455C108.63 17.8969 111.548 19.4074 115.713 21.5654C118.738 23.1328 121.819 24.6118 124.951 25.9872C129.45 27.9634 132.478 29.2975 134.74 30.4681C136.965 31.6196 137.879 32.3336 138.368 32.8356C139.72 34.2215 140.873 36.2507 141.372 38.121C141.904 40.1168 141.837 41.4737 141.068 47.6718C140.023 56.0851 137.841 65.6143 133.572 74.2933C127.083 87.4839 117.001 97.2296 108.845 103.5C107.324 104.669 106.718 105.116 106.108 105.462C105.642 105.726 104.988 106.03 103.548 106.417C103.557 106.414 103.554 106.415 103.539 106.418C103.474 106.43 103.185 106.484 102.624 106.534C101.997 106.59 101.237 106.622 100.438 106.622C99.6384 106.622 98.8791 106.59 98.2515 106.534C97.6904 106.484 97.4018 106.43 97.3369 106.418L97.3367 106.418C97.3216 106.415 97.3188 106.414 97.3278 106.417C95.8876 106.03 95.2337 105.726 94.7676 105.462C94.1575 105.116 93.5514 104.669 92.0306 103.5C83.8743 97.2296 73.7927 87.4839 67.3038 74.2933C63.0344 65.6143 60.8522 56.0851 59.808 47.6718C59.0387 41.4737 58.9715 40.1168 59.5038 38.121C60.0027 36.2507 61.1557 34.2215 62.5072 32.8356C62.9967 32.3336 63.9105 31.6196 66.1356 30.4681C68.3976 29.2975 71.4256 27.9634 75.9249 25.9872ZM51.8689 48.6572C51.1375 42.7639 50.7718 39.8172 51.7741 36.0594C52.6268 32.8621 54.4694 29.6194 56.7796 27.2503C59.4949 24.4659 63.8992 22.5314 72.7078 18.6626C75.6754 17.3592 78.6023 15.9546 81.4822 14.4624C89.6946 10.2069 93.8008 8.07919 96.6365 7.53022C99.8241 6.9131 101.052 6.9131 104.239 7.53022C107.075 8.07919 111.181 10.2069 119.394 14.4624C122.273 15.9547 125.2 17.3592 128.168 18.6626C136.976 22.5314 141.381 24.4659 144.096 27.2503C146.406 29.6194 148.249 32.8621 149.102 36.0594C150.104 39.8172 149.738 42.7639 149.007 48.6572C147.894 57.6208 145.539 68.0902 140.75 77.8246C133.531 92.5 122.442 103.137 113.721 109.842C110.886 112.021 109.469 113.111 105.621 114.144C103.243 114.782 97.6329 114.782 95.2545 114.144C91.4067 113.111 89.9894 112.021 87.1547 109.842C78.4332 103.137 67.3447 92.5 60.1254 77.8246C55.3368 68.0902 52.9814 57.6208 51.8689 48.6572ZM96.9726 20.4359C91.9633 23.3149 86.9697 26.1848 81.7225 28.6569C77.2543 30.762 72.678 32.5232 68.072 34.2447C66.5316 34.8204 65.7614 35.1083 65.1897 35.6304C64.6989 36.0786 64.3008 36.6918 64.0912 37.3225C63.847 38.0573 63.8952 38.8392 63.9916 40.4031C64.6648 51.3275 66.7955 62.3149 71.6402 72.1633C77.3596 83.7898 86.4916 93.5535 96.9476 101.147C98.1174 101.997 98.7022 102.422 99.4411 102.611C100.049 102.768 100.822 102.768 101.43 102.611C102.169 102.422 102.754 101.997 103.924 101.147C114.38 93.5534 123.512 83.7898 129.231 72.1633C134.076 62.3149 136.207 51.3275 136.88 40.4031V40.403C136.976 38.8392 137.024 38.0573 136.78 37.3226C136.57 36.6918 136.172 36.0787 135.682 35.6304C135.11 35.1083 134.34 34.8204 132.799 34.2445C128.192 32.5223 123.605 30.7565 119.149 28.6569C113.902 26.1848 108.908 23.3149 103.899 20.4359L103.596 20.2619C102.453 19.6051 101.882 19.2767 101.264 19.146C100.722 19.0313 100.149 19.0313 99.6071 19.146C98.9897 19.2767 98.4183 19.6051 97.2754 20.2619L96.9726 20.4359Z" fill="url(#paint2_linear_4299_22492)"/>
</mask>
<g mask="url(#mask2_4299_22492)">
<rect x="25.502" y="-14.4648" width="149.735" height="149.696" fill="#3BBFA7"/>
<rect x="24.9707" y="-14.4648" width="149.735" height="149.696" fill="url(#paint3_linear_4299_22492)" fill-opacity="0.6" style="mix-blend-mode:overlay"/>
<rect x="24.9707" y="-14.4648" width="149.735" height="149.696" fill="url(#paint4_radial_4299_22492)" fill-opacity="0.6" style="mix-blend-mode:overlay"/>
<g style="mix-blend-mode:soft-light">
<path fill-rule="evenodd" clip-rule="evenodd" d="M25.502 -14.4648H100.369V135.231H25.502V-14.4648Z" fill="url(#paint5_linear_4299_22492)" style="mix-blend-mode:lighten"/>
</g>
<g style="mix-blend-mode:soft-light">
<mask id="path-12-inside-1_4299_22492" fill="white">
<path fill-rule="evenodd" clip-rule="evenodd" d="M75.9249 25.9872C79.0565 24.6118 82.1378 23.1328 85.1628 21.5654C89.3275 19.4074 92.2456 17.8969 94.4808 16.8455C96.7969 15.756 97.7757 15.4582 98.157 15.3844C99.6083 15.1034 100.112 15.0674 100.438 15.0674C100.764 15.0674 101.267 15.1034 102.719 15.3844C103.1 15.4582 104.079 15.756 106.395 16.8455C108.63 17.8969 111.548 19.4074 115.713 21.5654C118.738 23.1328 121.819 24.6118 124.951 25.9872C129.45 27.9634 132.478 29.2975 134.74 30.4681C136.965 31.6196 137.879 32.3336 138.368 32.8356C139.72 34.2215 140.873 36.2507 141.372 38.121C141.904 40.1168 141.837 41.4737 141.068 47.6718C140.023 56.0851 137.841 65.6143 133.572 74.2933C127.083 87.4839 117.001 97.2296 108.845 103.5C107.324 104.669 106.718 105.116 106.108 105.462C105.642 105.726 104.988 106.03 103.548 106.417C103.557 106.414 103.554 106.415 103.539 106.418C103.474 106.43 103.185 106.484 102.624 106.534C101.997 106.59 101.237 106.622 100.438 106.622C99.6384 106.622 98.8791 106.59 98.2515 106.534C97.6904 106.484 97.4018 106.43 97.3369 106.418L97.3367 106.418C97.3216 106.415 97.3188 106.414 97.3278 106.417C95.8876 106.03 95.2337 105.726 94.7676 105.462C94.1575 105.116 93.5514 104.669 92.0306 103.5C83.8743 97.2296 73.7927 87.4839 67.3038 74.2933C63.0344 65.6143 60.8522 56.0851 59.808 47.6718C59.0387 41.4737 58.9715 40.1168 59.5038 38.121C60.0027 36.2507 61.1557 34.2215 62.5072 32.8356C62.9967 32.3336 63.9105 31.6196 66.1356 30.4681C68.3976 29.2975 71.4256 27.9634 75.9249 25.9872ZM51.8689 48.6572C51.1375 42.7639 50.7718 39.8172 51.7741 36.0594C52.6268 32.8621 54.4694 29.6194 56.7796 27.2503C59.4949 24.4659 63.8992 22.5314 72.7078 18.6626C75.6754 17.3592 78.6023 15.9546 81.4822 14.4624C89.6946 10.2069 93.8008 8.07919 96.6365 7.53022C99.8241 6.9131 101.052 6.9131 104.239 7.53022C107.075 8.07919 111.181 10.2069 119.394 14.4624C122.273 15.9547 125.2 17.3592 128.168 18.6626C136.976 22.5314 141.381 24.4659 144.096 27.2503C146.406 29.6194 148.249 32.8621 149.102 36.0594C150.104 39.8172 149.738 42.7639 149.007 48.6572C147.894 57.6208 145.539 68.0902 140.75 77.8246C133.531 92.5 122.442 103.137 113.721 109.842C110.886 112.021 109.469 113.111 105.621 114.144C103.243 114.782 97.6329 114.782 95.2545 114.144C91.4067 113.111 89.9894 112.021 87.1547 109.842C78.4332 103.137 67.3447 92.5 60.1254 77.8246C55.3368 68.0902 52.9814 57.6208 51.8689 48.6572ZM96.9726 20.4359C91.9633 23.3149 86.9697 26.1848 81.7225 28.6569C77.2543 30.762 72.678 32.5232 68.072 34.2447C66.5316 34.8204 65.7614 35.1083 65.1897 35.6304C64.6989 36.0786 64.3008 36.6918 64.0912 37.3225C63.847 38.0573 63.8952 38.8392 63.9916 40.4031C64.6648 51.3275 66.7955 62.3149 71.6402 72.1633C77.3596 83.7898 86.4916 93.5535 96.9476 101.147C98.1174 101.997 98.7022 102.422 99.4411 102.611C100.049 102.768 100.822 102.768 101.43 102.611C102.169 102.422 102.754 101.997 103.924 101.147C114.38 93.5534 123.512 83.7898 129.231 72.1633C134.076 62.3149 136.207 51.3275 136.88 40.4031V40.403C136.976 38.8392 137.024 38.0573 136.78 37.3226C136.57 36.6918 136.172 36.0787 135.682 35.6304C135.11 35.1083 134.34 34.8204 132.799 34.2445C128.192 32.5223 123.605 30.7565 119.149 28.6569C113.902 26.1848 108.908 23.3149 103.899 20.4359L103.596 20.2619C102.453 19.6051 101.882 19.2767 101.264 19.146C100.722 19.0313 100.149 19.0313 99.6071 19.146C98.9897 19.2767 98.4183 19.6051 97.2754 20.2619L96.9726 20.4359Z"/>
</mask>
<path d="M85.1628 21.5654L84.9327 21.1215L85.1628 21.5654ZM75.9249 25.9872L75.7238 25.5294L75.9249 25.9872ZM94.4808 16.8455L94.268 16.393L94.4808 16.8455ZM98.157 15.3844L98.062 14.8935V14.8935L98.157 15.3844ZM102.719 15.3844L102.624 15.8753H102.624L102.719 15.3844ZM106.395 16.8455L106.608 16.393L106.395 16.8455ZM115.713 21.5654L115.943 21.1215L115.713 21.5654ZM124.951 25.9872L124.75 26.445L124.951 25.9872ZM134.74 30.4681L134.97 30.024L134.74 30.4681ZM138.368 32.8356L138.011 33.1847L138.368 32.8356ZM141.372 38.121L141.855 37.9922V37.9921L141.372 38.121ZM141.068 47.6718L141.564 47.7334L141.068 47.6718ZM133.572 74.2933L134.02 74.514L133.572 74.2933ZM108.845 103.5L108.54 103.103L108.845 103.5ZM106.108 105.462L106.355 105.897H106.355L106.108 105.462ZM103.548 106.417L103.418 105.934C103.151 106.006 102.993 106.28 103.065 106.547C103.137 106.813 103.411 106.971 103.677 106.9L103.548 106.417ZM103.539 106.418L103.447 105.926L103.447 105.926L103.539 106.418ZM102.624 106.534L102.58 106.036H102.58L102.624 106.534ZM98.2515 106.534L98.2957 106.036H98.2957L98.2515 106.534ZM97.3369 106.418L97.4291 105.926L97.4264 105.926L97.3369 106.418ZM97.3367 106.418L97.2448 106.909L97.2472 106.91L97.3367 106.418ZM97.3278 106.417L97.1982 106.9C97.4649 106.971 97.7391 106.813 97.8107 106.546C97.8823 106.28 97.7242 106.006 97.4575 105.934L97.3278 106.417ZM94.7676 105.462L94.5211 105.897H94.5211L94.7676 105.462ZM92.0306 103.5L92.3353 103.103L92.0306 103.5ZM67.3038 74.2933L66.8552 74.514L67.3038 74.2933ZM59.808 47.6718L60.3042 47.6102L59.808 47.6718ZM59.5038 38.121L59.987 38.2499L59.5038 38.121ZM62.5072 32.8356L62.8652 33.1847L62.5072 32.8356ZM66.1356 30.4681L65.9058 30.024L66.1356 30.4681ZM51.7741 36.0594L51.2909 35.9305H51.2909L51.7741 36.0594ZM51.8689 48.6572L52.3651 48.5956L51.8689 48.6572ZM56.7796 27.2503L56.4217 26.9013H56.4217L56.7796 27.2503ZM72.7078 18.6626L72.9089 19.1204L72.7078 18.6626ZM81.4822 14.4624L81.7122 14.9063L81.4822 14.4624ZM96.6365 7.53022L96.7315 8.0211V8.0211L96.6365 7.53022ZM104.239 7.53022L104.334 7.03933V7.03933L104.239 7.53022ZM119.394 14.4624L119.163 14.9063L119.394 14.4624ZM128.168 18.6626L127.967 19.1204L128.168 18.6626ZM144.096 27.2503L143.738 27.5994V27.5994L144.096 27.2503ZM149.102 36.0594L149.585 35.9305L149.102 36.0594ZM149.007 48.6572L149.503 48.7187L149.007 48.6572ZM140.75 77.8246L141.199 78.0453L140.75 77.8246ZM113.721 109.842L113.416 109.446L113.721 109.842ZM105.621 114.144L105.751 114.626L105.621 114.144ZM95.2545 114.144L95.1249 114.626L95.2545 114.144ZM87.1547 109.842L86.85 110.239L87.1547 109.842ZM60.1254 77.8246L60.5741 77.6039L60.1254 77.8246ZM81.7225 28.6569L81.9356 29.1092L81.7225 28.6569ZM96.9726 20.4359L96.7235 20.0024L96.7235 20.0024L96.9726 20.4359ZM68.072 34.2447L67.897 33.7763L68.072 34.2447ZM65.1897 35.6304L64.8525 35.2612H64.8525L65.1897 35.6304ZM64.0912 37.3225L63.6167 37.1648L64.0912 37.3225ZM63.9916 40.4031L63.4925 40.4338V40.4338L63.9916 40.4031ZM71.6402 72.1633L72.0888 71.9426L71.6402 72.1633ZM96.9476 101.147L96.6538 101.552L96.9476 101.147ZM99.4411 102.611L99.3168 103.096H99.3168L99.4411 102.611ZM101.43 102.611L101.306 102.127H101.306L101.43 102.611ZM103.924 101.147L103.63 100.743L103.924 101.147ZM129.231 72.1633L129.68 72.384L129.231 72.1633ZM136.88 40.4031L137.379 40.4338C137.379 40.4236 137.38 40.4133 137.38 40.4031H136.88ZM136.88 40.403L136.381 40.3723C136.38 40.3825 136.38 40.3928 136.38 40.403H136.88ZM136.78 37.3226L136.306 37.4802V37.4802L136.78 37.3226ZM135.682 35.6304L136.019 35.2613V35.2613L135.682 35.6304ZM132.799 34.2445L132.624 34.7129L132.799 34.2445ZM119.149 28.6569L119.362 28.2046V28.2046L119.149 28.6569ZM103.899 20.4359L104.148 20.0024L104.148 20.0023L103.899 20.4359ZM103.596 20.2619L103.845 19.8283L103.845 19.8283L103.596 20.2619ZM101.264 19.146L101.161 19.6351H101.161L101.264 19.146ZM99.6071 19.146L99.7107 19.6351H99.7107L99.6071 19.146ZM97.2754 20.2619L97.0263 19.8283L97.0263 19.8284L97.2754 20.2619ZM84.9327 21.1215C81.9168 22.6842 78.8452 24.1585 75.7238 25.5294L76.126 26.445C79.2678 25.0651 82.3588 23.5815 85.3928 22.0094L84.9327 21.1215ZM94.268 16.393C92.022 17.4495 89.0937 18.9653 84.9327 21.1215L85.3928 22.0094C89.5613 19.8494 92.4692 18.3442 94.6936 17.2979L94.268 16.393ZM98.062 14.8935C97.6153 14.98 96.5886 15.3014 94.268 16.393L94.6936 17.2979C97.0051 16.2106 97.9362 15.9364 98.2521 15.8753L98.062 14.8935ZM100.438 14.5674C100.063 14.5674 99.5214 14.611 98.062 14.8935L98.2521 15.8753C99.6953 15.5959 100.161 15.5674 100.438 15.5674V14.5674ZM102.814 14.8935C101.354 14.611 100.813 14.5674 100.438 14.5674V15.5674C100.714 15.5674 101.18 15.5959 102.624 15.8753L102.814 14.8935ZM106.608 16.393C104.287 15.3014 103.26 14.98 102.814 14.8935L102.624 15.8753C102.94 15.9364 103.871 16.2106 106.182 17.2979L106.608 16.393ZM115.943 21.1215C111.782 18.9653 108.854 17.4495 106.608 16.393L106.182 17.2979C108.406 18.3442 111.314 19.8494 115.483 22.0094L115.943 21.1215ZM125.152 25.5294C122.031 24.1585 118.959 22.6842 115.943 21.1215L115.483 22.0094C118.517 23.5815 121.608 25.0651 124.75 26.445L125.152 25.5294ZM134.97 30.024C132.69 28.8444 129.645 27.5029 125.152 25.5294L124.75 26.445C129.255 28.4239 132.266 29.7506 134.51 30.9121L134.97 30.024ZM138.726 32.4865C138.182 31.9287 137.214 31.1855 134.97 30.024L134.51 30.9121C136.716 32.0536 137.575 32.7386 138.011 33.1847L138.726 32.4865ZM141.855 37.9921C141.334 36.0389 140.138 33.9338 138.726 32.4865L138.011 33.1847C139.302 34.5091 140.412 36.4624 140.889 38.2499L141.855 37.9921ZM141.564 47.7334C142.33 41.5588 142.417 40.0994 141.855 37.9922L140.889 38.2499C141.391 40.1341 141.344 41.3886 140.571 47.6102L141.564 47.7334ZM134.02 74.514C138.322 65.769 140.515 56.1811 141.564 47.7334L140.571 47.6102C139.532 55.9891 137.36 65.4596 133.123 74.0726L134.02 74.514ZM109.15 103.896C117.341 97.5988 127.486 87.7974 134.02 74.514L133.123 74.0726C126.68 87.1704 116.661 96.8603 108.54 103.103L109.15 103.896ZM106.355 105.897C107.001 105.531 107.637 105.059 109.15 103.896L108.54 103.103C107.012 104.279 106.435 104.702 105.862 105.027L106.355 105.897ZM103.677 106.9C105.148 106.505 105.843 106.187 106.355 105.897L105.862 105.027C105.441 105.265 104.828 105.556 103.418 105.934L103.677 106.9ZM103.631 106.909C103.652 106.905 103.633 106.909 103.615 106.911C103.612 106.912 103.593 106.914 103.568 106.915C103.561 106.915 103.519 106.917 103.466 106.908C103.446 106.904 103.368 106.89 103.284 106.837C103.237 106.807 103.168 106.751 103.116 106.657C103.059 106.555 103.042 106.44 103.06 106.333C103.089 106.156 103.202 106.058 103.22 106.042C103.256 106.01 103.289 105.99 103.302 105.983C103.332 105.966 103.357 105.956 103.363 105.953C103.382 105.945 103.396 105.941 103.399 105.94C103.413 105.935 103.424 105.932 103.418 105.934L103.678 106.9C103.679 106.899 103.682 106.898 103.686 106.898C103.687 106.897 103.696 106.895 103.706 106.892C103.709 106.89 103.724 106.886 103.742 106.878C103.749 106.875 103.774 106.865 103.804 106.848C103.817 106.84 103.85 106.821 103.886 106.789C103.904 106.773 104.017 106.675 104.046 106.498C104.064 106.391 104.047 106.276 103.99 106.173C103.938 106.079 103.869 106.024 103.822 105.994C103.738 105.94 103.66 105.926 103.64 105.923C103.587 105.914 103.545 105.915 103.538 105.916C103.513 105.916 103.493 105.919 103.49 105.919C103.478 105.921 103.468 105.922 103.467 105.923C103.463 105.923 103.46 105.924 103.458 105.924C103.455 105.925 103.45 105.926 103.447 105.926L103.631 106.909ZM102.668 107.032C103.248 106.98 103.552 106.924 103.631 106.909L103.447 105.926C103.395 105.936 103.123 105.988 102.58 106.036L102.668 107.032ZM100.438 107.122C101.25 107.122 102.024 107.089 102.668 107.032L102.58 106.036C101.969 106.09 101.225 106.122 100.438 106.122V107.122ZM98.2072 107.032C98.8517 107.089 99.626 107.122 100.438 107.122V106.122C99.6509 106.122 98.9065 106.09 98.2957 106.036L98.2072 107.032ZM97.2448 106.909C97.3232 106.924 97.6278 106.98 98.2072 107.032L98.2957 106.036C97.753 105.988 97.4805 105.936 97.4291 105.926L97.2448 106.909ZM97.2472 106.91L97.2475 106.91L97.4264 105.926L97.4261 105.926L97.2472 106.91ZM97.4575 105.934C97.4518 105.932 97.4628 105.935 97.4757 105.939C97.4787 105.94 97.4925 105.945 97.5098 105.952C97.5167 105.954 97.5391 105.964 97.5661 105.979C97.5788 105.986 97.6071 106.002 97.6393 106.028C97.656 106.042 97.7512 106.118 97.7977 106.259C97.8258 106.345 97.8363 106.456 97.7967 106.574C97.7586 106.688 97.6889 106.763 97.6342 106.806C97.5398 106.882 97.4445 106.901 97.4244 106.905C97.3652 106.917 97.317 106.915 97.3114 106.915C97.2847 106.915 97.2637 106.912 97.2614 106.912C97.2429 106.909 97.2233 106.905 97.2448 106.909L97.4286 105.926C97.4253 105.926 97.4209 105.925 97.4172 105.924C97.4153 105.924 97.4122 105.923 97.4086 105.923C97.407 105.922 97.3972 105.921 97.385 105.919C97.3823 105.919 97.3611 105.916 97.3342 105.915C97.3285 105.915 97.2802 105.913 97.2209 105.926C97.2009 105.93 97.1056 105.949 97.0112 106.024C96.9564 106.068 96.8867 106.143 96.8486 106.256C96.8091 106.374 96.8196 106.486 96.8477 106.571C96.8941 106.713 96.9893 106.789 97.0061 106.802C97.0382 106.829 97.0666 106.845 97.0793 106.852C97.1064 106.867 97.1289 106.876 97.1358 106.879C97.1533 106.886 97.1674 106.891 97.1708 106.892C97.1805 106.895 97.1886 106.897 97.1903 106.898C97.1935 106.898 97.1964 106.899 97.1981 106.9L97.4575 105.934ZM94.5211 105.897C95.0325 106.187 95.7278 106.505 97.1982 106.9L97.4574 105.934C96.0474 105.556 95.4349 105.265 95.014 105.027L94.5211 105.897ZM91.7258 103.896C93.2386 105.059 93.8743 105.531 94.5211 105.897L95.014 105.027C94.4406 104.702 93.8641 104.279 92.3353 103.103L91.7258 103.896ZM66.8552 74.514C73.3897 87.7974 83.5343 97.5988 91.7258 103.896L92.3353 103.103C84.2144 96.8603 74.1957 87.1704 67.7525 74.0726L66.8552 74.514ZM59.3118 47.7334C60.3603 56.1811 62.5533 65.769 66.8552 74.514L67.7525 74.0726C63.5155 65.4596 61.3441 55.9891 60.3042 47.6102L59.3118 47.7334ZM59.0207 37.9922C58.4587 40.0994 58.5455 41.5588 59.3118 47.7334L60.3042 47.6102C59.532 41.3886 59.4844 40.1341 59.987 38.2499L59.0207 37.9922ZM62.1492 32.4865C60.7378 33.9338 59.5417 36.0389 59.0207 37.9922L59.987 38.2499C60.4637 36.4624 61.5736 34.5091 62.8652 33.1847L62.1492 32.4865ZM65.9058 30.024C63.6614 31.1855 62.6932 31.9287 62.1492 32.4865L62.8652 33.1847C63.3002 32.7386 64.1597 32.0536 66.3654 30.9121L65.9058 30.024ZM75.7238 25.5294C71.2306 27.5029 68.1853 28.8444 65.9058 30.024L66.3654 30.9121C68.6099 29.7506 71.6205 28.4239 76.126 26.445L75.7238 25.5294ZM51.2909 35.9305C50.2593 39.7985 50.6437 42.8445 51.3727 48.7187L52.3651 48.5956C51.6313 42.6832 51.2843 39.836 52.2572 36.1882L51.2909 35.9305ZM56.4217 26.9013C54.0515 29.3318 52.1658 32.6503 51.2909 35.9305L52.2572 36.1882C53.0878 33.0739 54.8873 29.9071 57.1376 27.5994L56.4217 26.9013ZM72.5068 18.2048C68.1084 20.1366 64.788 21.5947 62.2289 22.919C59.6676 24.2445 57.8336 25.4534 56.4217 26.9013L57.1376 27.5994C58.441 26.2628 60.1668 25.1122 62.6885 23.8072C65.2126 22.5009 68.4987 21.0574 72.9089 19.1204L72.5068 18.2048ZM81.2521 14.0184C78.3813 15.506 75.4641 16.9059 72.5068 18.2048L72.9089 19.1204C75.8868 17.8125 78.8232 16.4033 81.7122 14.9063L81.2521 14.0184ZM96.5414 7.03933C95.0588 7.32636 93.2761 8.01874 90.8628 9.15392C88.4445 10.2915 85.3547 11.8926 81.2521 14.0184L81.7122 14.9063C85.8221 12.7767 88.8916 11.1862 91.2884 10.0588C93.6903 8.92901 95.3785 8.28305 96.7315 8.0211L96.5414 7.03933ZM104.334 7.03933C102.732 6.72905 101.59 6.56738 100.438 6.56738C99.2854 6.56738 98.1442 6.72905 96.5414 7.03933L96.7315 8.0211C98.3164 7.71427 99.3827 7.56738 100.438 7.56738C101.493 7.56738 102.559 7.71427 104.144 8.0211L104.334 7.03933ZM119.624 14.0184C115.521 11.8926 112.431 10.2915 110.013 9.15392C107.6 8.01875 105.817 7.32636 104.334 7.03933L104.144 8.0211C105.497 8.28305 107.185 8.92901 109.587 10.0588C111.984 11.1862 115.054 12.7767 119.163 14.9063L119.624 14.0184ZM128.369 18.2048C125.412 16.9059 122.494 15.506 119.624 14.0184L119.163 14.9063C122.052 16.4033 124.989 17.8125 127.967 19.1204L128.369 18.2048ZM144.454 26.9013C143.042 25.4534 141.208 24.2445 138.647 22.919C136.088 21.5947 132.767 20.1366 128.369 18.2048L127.967 19.1204C132.377 21.0574 135.663 22.5009 138.187 23.8072C140.709 25.1122 142.435 26.2628 143.738 27.5994L144.454 26.9013ZM149.585 35.9305C148.71 32.6503 146.824 29.3318 144.454 26.9013L143.738 27.5994C145.988 29.9071 147.788 33.0739 148.619 36.1882L149.585 35.9305ZM149.503 48.7187C150.232 42.8445 150.616 39.7985 149.585 35.9305L148.619 36.1882C149.591 39.836 149.244 42.6832 148.511 48.5956L149.503 48.7187ZM141.199 78.0453C146.02 68.2449 148.386 57.7168 149.503 48.7187L148.511 48.5956C147.402 57.5248 145.058 67.9355 140.302 77.6039L141.199 78.0453ZM114.026 110.239C122.783 103.507 133.934 92.8135 141.199 78.0453L140.302 77.6039C133.128 92.1865 122.102 102.768 113.416 109.446L114.026 110.239ZM105.751 114.626C107.705 114.102 109.063 113.557 110.297 112.858C111.523 112.164 112.615 111.323 114.026 110.239L113.416 109.446C111.992 110.54 110.958 111.334 109.805 111.988C108.66 112.636 107.385 113.152 105.492 113.661L105.751 114.626ZM95.1249 114.626C96.3795 114.963 98.4301 115.122 100.438 115.122C102.446 115.122 104.496 114.963 105.751 114.626L105.492 113.661C104.368 113.962 102.424 114.122 100.438 114.122C98.4514 114.122 96.5079 113.962 95.384 113.661L95.1249 114.626ZM86.85 110.239C88.2608 111.323 89.3524 112.164 90.5782 112.858C91.8131 113.557 93.1707 114.102 95.1249 114.626L95.384 113.661C93.4904 113.152 92.2155 112.636 91.0711 111.988C89.9177 111.334 88.8833 110.54 87.4595 109.446L86.85 110.239ZM59.6768 78.0453C66.9417 92.8135 78.0931 103.507 86.85 110.239L87.4595 109.446C78.7733 102.768 67.7477 92.1865 60.5741 77.6039L59.6768 78.0453ZM51.3727 48.7187C52.4895 57.7168 54.8557 68.2449 59.6768 78.0453L60.5741 77.6039C55.8179 67.9355 53.4734 57.5248 52.3651 48.5956L51.3727 48.7187ZM81.9356 29.1092C87.2043 26.627 92.2153 23.7467 97.2218 20.8694L96.7235 20.0024C91.7112 22.883 86.7352 25.7425 81.5094 28.2046L81.9356 29.1092ZM68.2471 34.713C72.8543 32.9911 77.4472 31.2238 81.9356 29.1092L81.5094 28.2046C77.0613 30.3002 72.5018 32.0553 67.897 33.7763L68.2471 34.713ZM65.5269 35.9996C66.0102 35.5583 66.6676 35.3034 68.2471 34.713L67.897 33.7763C66.3957 34.3374 65.5127 34.6583 64.8525 35.2612L65.5269 35.9996ZM64.5657 37.4802C64.7484 36.9306 65.0992 36.3902 65.5269 35.9996L64.8525 35.2612C64.2987 35.767 63.8533 36.4531 63.6167 37.1648L64.5657 37.4802ZM64.4906 40.3723C64.3919 38.7699 64.3591 38.102 64.5657 37.4802L63.6167 37.1648C63.335 38.0126 63.3985 38.9085 63.4925 40.4338L64.4906 40.3723ZM72.0888 71.9426C67.2828 62.1728 65.1613 51.2561 64.4906 40.3723L63.4925 40.4338C64.1682 51.3989 66.3082 62.4571 71.1915 72.384L72.0888 71.9426ZM97.2415 100.743C86.8356 93.1853 77.7647 83.4805 72.0888 71.9426L71.1915 72.384C76.9544 84.099 86.1477 93.9216 96.6538 101.552L97.2415 100.743ZM99.5654 102.127C98.9391 101.966 98.4385 101.612 97.2415 100.743L96.6538 101.552C97.7963 102.382 98.4654 102.877 99.3168 103.096L99.5654 102.127ZM101.306 102.127C100.779 102.262 100.092 102.262 99.5654 102.127L99.3168 103.096C100.006 103.273 100.865 103.273 101.554 103.096L101.306 102.127ZM103.63 100.743C102.433 101.612 101.932 101.966 101.306 102.127L101.554 103.096C102.406 102.877 103.075 102.382 104.217 101.552L103.63 100.743ZM128.782 71.9426C123.107 83.4806 114.036 93.1852 103.63 100.743L104.217 101.552C114.724 93.9215 123.917 84.0991 129.68 72.384L128.782 71.9426ZM136.381 40.3723C135.71 51.2561 133.589 62.1728 128.782 71.9426L129.68 72.384C134.563 62.4571 136.703 51.3989 137.379 40.4338L136.381 40.3723ZM136.38 40.403V40.4031H137.38V40.403H136.38ZM136.306 37.4802C136.512 38.102 136.479 38.7699 136.381 40.3723L137.379 40.4338C137.473 38.9085 137.536 38.0125 137.255 37.1649L136.306 37.4802ZM135.345 35.9996C135.772 36.3902 136.123 36.9306 136.306 37.4802L137.255 37.1649C137.018 36.4531 136.573 35.7671 136.019 35.2613L135.345 35.9996ZM132.624 34.7129C134.204 35.3034 134.861 35.5583 135.345 35.9996L136.019 35.2613C135.359 34.6584 134.476 34.3374 132.974 33.7762L132.624 34.7129ZM118.936 29.1092C123.412 31.2183 128.016 32.9902 132.624 34.7129L132.974 33.7762C128.368 32.0544 123.798 30.2947 119.362 28.2046L118.936 29.1092ZM103.649 20.8694C108.656 23.7467 113.667 26.627 118.936 29.1092L119.362 28.2046C114.136 25.7425 109.16 22.883 104.148 20.0024L103.649 20.8694ZM103.347 20.6954L103.649 20.8694L104.148 20.0023L103.845 19.8283L103.347 20.6954ZM101.161 19.6351C101.683 19.7457 102.175 20.0223 103.347 20.6954L103.845 19.8283C102.73 19.1878 102.08 18.8077 101.368 18.6568L101.161 19.6351ZM99.7107 19.6351C100.184 19.5349 100.687 19.5349 101.161 19.6351L101.368 18.6568C100.758 18.5277 100.114 18.5277 99.5036 18.6568L99.7107 19.6351ZM97.5246 20.6954C98.6958 20.0223 99.1886 19.7457 99.7107 19.6351L99.5036 18.6568C98.7909 18.8077 98.1408 19.1879 97.0263 19.8283L97.5246 20.6954ZM97.2218 20.8694L97.5246 20.6954L97.0263 19.8284L96.7235 20.0024L97.2218 20.8694Z" fill="url(#paint6_linear_4299_22492)" mask="url(#path-12-inside-1_4299_22492)"/>
</g>
</g>
</g>
<g filter="url(#filter2_d_4299_22492)">
<path d="M91.3478 35.2292C92.5065 33.0937 95.4972 33.04 96.7337 35.1315C98.5924 38.2754 100.941 42.3921 102.318 45.3546C100.14 49.3867 95.9675 57.2162 95.9675 61.571C95.9675 64.9241 97.1888 68.0485 99.2725 70.457C97.6518 71.1959 95.8504 71.6081 93.9526 71.6081C86.8671 71.6081 81.123 65.8685 81.123 58.7883C81.123 54.6697 87.598 42.1402 91.3478 35.2292Z" fill="white"/>
<path d="M110.941 43.1541C111.931 43.6171 112.574 44.8608 113.858 47.3481C116.592 52.6395 119.626 59.0761 119.626 61.571C119.626 67.1143 115.129 71.6081 109.582 71.6081C104.034 71.6081 99.5368 67.1143 99.5368 61.571C99.5368 59.0762 102.571 52.6396 105.305 47.3481C106.59 44.8608 107.232 43.6171 108.222 43.1541C109.049 42.767 110.114 42.767 110.941 43.1541Z" fill="white"/>
<path d="M102.538 45.4734L102.597 45.363L102.545 45.2492C101.162 42.2743 98.8075 38.148 96.9489 35.0043C95.6136 32.7458 92.3795 32.8035 91.1281 35.11C89.2522 38.5672 86.6931 43.4327 84.6023 47.9509C83.5571 50.2097 82.6271 52.3856 81.9579 54.2573C81.2921 56.1197 80.873 57.7112 80.873 58.7883C80.873 66.0067 86.7292 71.8581 93.9526 71.8581C95.887 71.8581 97.7236 71.438 99.3762 70.6845L99.68 70.546L99.4616 70.2934C97.4163 67.9293 96.2175 64.8626 96.2175 61.571C96.2175 59.4515 97.2392 56.4488 98.555 53.442C99.8657 50.4468 101.449 47.4895 102.538 45.4734ZM114.081 47.2334L114.073 47.2197C113.437 45.9876 112.95 45.0455 112.498 44.355C112.044 43.6605 111.604 43.1882 111.047 42.9277C110.153 42.5092 109.01 42.5092 108.116 42.9277C107.559 43.1882 107.119 43.6605 106.665 44.3551C106.213 45.0455 105.726 45.9876 105.09 47.2197L105.083 47.2334C103.715 49.8814 102.27 52.8196 101.166 55.4103C100.614 56.7055 100.146 57.9175 99.8153 58.9651C99.4866 60.0068 99.2868 60.9072 99.2868 61.571C99.2868 67.2525 103.896 71.8581 109.582 71.8581C115.267 71.8581 119.876 67.2525 119.876 61.571C119.876 60.9072 119.677 60.0068 119.348 58.965C119.017 57.9174 118.549 56.7054 117.997 55.4103C116.894 52.8196 115.448 49.8813 114.081 47.2334Z" stroke="url(#paint7_linear_4299_22492)" stroke-width="0.5" stroke-linecap="round" style="mix-blend-mode:color-burn"/>
</g>
</g>
<g filter="url(#filter3_dd_4299_22492)">
<mask id="path-16-inside-2_4299_22492" fill="white">
<path fill-rule="evenodd" clip-rule="evenodd" d="M12.9157 83.6273C12.6935 84.8337 13.3491 86.3294 14.6602 89.3207L19.0767 99.3972L14.6602 109.474C13.3491 112.465 12.6935 113.961 12.9157 115.167C13.1098 116.222 13.7192 117.154 14.607 117.755C15.6228 118.443 17.2558 118.443 20.5219 118.443H30.485C34.9654 118.443 37.2056 118.443 38.9169 117.571C40.4222 116.804 41.6461 115.58 42.4131 114.075C43.285 112.363 43.285 110.123 43.285 105.643V93.1516C43.285 88.6711 43.285 86.4309 42.4131 84.7196C41.6461 83.2143 40.4222 81.9905 38.9169 81.2235C37.2056 80.3516 34.9654 80.3516 30.485 80.3516H20.5219C17.2558 80.3516 15.6228 80.3516 14.607 81.0393C13.7192 81.6404 13.1098 82.5728 12.9157 83.6273ZM188.089 83.6273C188.311 84.8337 187.656 86.3294 186.345 89.3207L181.928 99.3972L186.345 109.474C187.656 112.465 188.311 113.961 188.089 115.167C187.895 116.222 187.286 117.154 186.398 117.755C185.382 118.443 183.749 118.443 180.483 118.443H170.52C166.039 118.443 163.799 118.443 162.088 117.571C160.583 116.804 159.359 115.58 158.592 114.075C157.72 112.363 157.72 110.123 157.72 105.643V93.1516C157.72 88.6711 157.72 86.4309 158.592 84.7196C159.359 83.2143 160.583 81.9905 162.088 81.2235C163.799 80.3516 166.039 80.3516 170.52 80.3516H180.483C183.749 80.3516 185.382 80.3516 186.398 81.0393C187.286 81.6404 187.895 82.5728 188.089 83.6273Z"/>
</mask>
<path fill-rule="evenodd" clip-rule="evenodd" d="M12.9157 83.6273C12.6935 84.8337 13.3491 86.3294 14.6602 89.3207L19.0767 99.3972L14.6602 109.474C13.3491 112.465 12.6935 113.961 12.9157 115.167C13.1098 116.222 13.7192 117.154 14.607 117.755C15.6228 118.443 17.2558 118.443 20.5219 118.443H30.485C34.9654 118.443 37.2056 118.443 38.9169 117.571C40.4222 116.804 41.6461 115.58 42.4131 114.075C43.285 112.363 43.285 110.123 43.285 105.643V93.1516C43.285 88.6711 43.285 86.4309 42.4131 84.7196C41.6461 83.2143 40.4222 81.9905 38.9169 81.2235C37.2056 80.3516 34.9654 80.3516 30.485 80.3516H20.5219C17.2558 80.3516 15.6228 80.3516 14.607 81.0393C13.7192 81.6404 13.1098 82.5728 12.9157 83.6273ZM188.089 83.6273C188.311 84.8337 187.656 86.3294 186.345 89.3207L181.928 99.3972L186.345 109.474C187.656 112.465 188.311 113.961 188.089 115.167C187.895 116.222 187.286 117.154 186.398 117.755C185.382 118.443 183.749 118.443 180.483 118.443H170.52C166.039 118.443 163.799 118.443 162.088 117.571C160.583 116.804 159.359 115.58 158.592 114.075C157.72 112.363 157.72 110.123 157.72 105.643V93.1516C157.72 88.6711 157.72 86.4309 158.592 84.7196C159.359 83.2143 160.583 81.9905 162.088 81.2235C163.799 80.3516 166.039 80.3516 170.52 80.3516H180.483C183.749 80.3516 185.382 80.3516 186.398 81.0393C187.286 81.6404 187.895 82.5728 188.089 83.6273Z" fill="#1D4ED8"/>
<path d="M14.6602 89.3207L15.1181 89.12L14.6602 89.3207ZM12.9157 83.6273L13.4074 83.7178L13.4074 83.7178L12.9157 83.6273ZM19.0767 99.3972L19.5346 99.5979L19.6226 99.3972L19.5346 99.1965L19.0767 99.3972ZM14.6602 109.474L15.1181 109.674V109.674L14.6602 109.474ZM12.9157 115.167L12.4239 115.258H12.4239L12.9157 115.167ZM14.607 117.755L14.3267 118.169H14.3267L14.607 117.755ZM38.9169 117.571L38.6899 117.125L38.9169 117.571ZM42.4131 114.075L41.9676 113.848L41.9676 113.848L42.4131 114.075ZM42.4131 84.7196L41.9676 84.9466L42.4131 84.7196ZM38.9169 81.2235L39.1439 80.778L38.9169 81.2235ZM14.607 81.0393L14.3267 80.6253L14.607 81.0393ZM186.345 89.3207L185.887 89.12V89.12L186.345 89.3207ZM188.089 83.6273L187.597 83.7178V83.7178L188.089 83.6273ZM181.928 99.3972L181.47 99.1965L181.382 99.3972L181.47 99.5979L181.928 99.3972ZM186.345 109.474L185.887 109.674V109.674L186.345 109.474ZM188.089 115.167L187.597 115.077V115.077L188.089 115.167ZM186.398 117.755L186.678 118.169L186.398 117.755ZM162.088 117.571L162.315 117.125L162.088 117.571ZM158.592 114.075L159.037 113.848V113.848L158.592 114.075ZM158.592 84.7196L159.037 84.9466V84.9466L158.592 84.7196ZM162.088 81.2235L162.315 81.669V81.669L162.088 81.2235ZM186.398 81.0393L186.678 80.6253V80.6253L186.398 81.0393ZM15.1181 89.12C14.4587 87.6155 13.9783 86.5183 13.6872 85.6463C13.3963 84.775 13.3193 84.1964 13.4074 83.7178L12.4239 83.5367C12.2899 84.2645 12.4296 85.0371 12.7387 85.963C13.0476 86.8884 13.5506 88.0346 14.2023 89.5215L15.1181 89.12ZM19.5346 99.1965L15.1181 89.12L14.2023 89.5215L18.6188 99.5979L19.5346 99.1965ZM15.1181 109.674L19.5346 99.5979L18.6188 99.1965L14.2023 109.273L15.1181 109.674ZM13.4074 115.077C13.3193 114.598 13.3963 114.019 13.6872 113.148C13.9783 112.276 14.4587 111.179 15.1181 109.674L14.2023 109.273C13.5506 110.76 13.0476 111.906 12.7387 112.831C12.4296 113.757 12.2899 114.53 12.4239 115.258L13.4074 115.077ZM14.8873 117.341C14.1105 116.815 13.5773 115.999 13.4074 115.077L12.4239 115.258C12.6424 116.444 13.3279 117.493 14.3267 118.169L14.8873 117.341ZM20.5219 117.943C18.8792 117.943 17.6814 117.942 16.766 117.859C15.8511 117.776 15.2903 117.614 14.8873 117.341L14.3267 118.169C14.9395 118.584 15.7031 118.766 16.6752 118.855C17.6468 118.943 18.8985 118.943 20.5219 118.943V117.943ZM30.485 117.943H20.5219V118.943H30.485V117.943ZM38.6899 117.125C37.9165 117.519 37.0018 117.729 35.6987 117.835C34.3897 117.942 32.7335 117.943 30.485 117.943V118.943C32.717 118.943 34.421 118.943 35.7801 118.832C37.145 118.721 38.206 118.494 39.1439 118.016L38.6899 117.125ZM41.9676 113.848C41.2485 115.259 40.1012 116.406 38.6899 117.125L39.1439 118.016C40.7433 117.201 42.0436 115.901 42.8586 114.302L41.9676 113.848ZM42.785 105.643C42.785 107.891 42.7846 109.548 42.6777 110.856C42.5712 112.16 42.3616 113.074 41.9676 113.848L42.8586 114.302C43.3364 113.364 43.5628 112.303 43.6744 110.938C43.7854 109.579 43.785 107.875 43.785 105.643H42.785ZM42.785 93.1516V105.643H43.785V93.1516H42.785ZM41.9676 84.9466C42.3616 85.72 42.5712 86.6348 42.6777 87.9379C42.7846 89.2468 42.785 90.9031 42.785 93.1516H43.785C43.785 90.9196 43.7854 89.2156 43.6744 87.8565C43.5628 86.4915 43.3364 85.4305 42.8586 84.4926L41.9676 84.9466ZM38.6899 81.669C40.1012 82.3881 41.2485 83.5354 41.9676 84.9466L42.8586 84.4926C42.0436 82.8933 40.7433 81.5929 39.1439 80.778L38.6899 81.669ZM30.485 80.8516C32.7335 80.8516 34.3897 80.852 35.6987 80.9589C37.0018 81.0654 37.9165 81.2749 38.6899 81.669L39.1439 80.778C38.206 80.3001 37.145 80.0737 35.7801 79.9622C34.421 79.8512 32.717 79.8516 30.485 79.8516V80.8516ZM20.5219 80.8516H30.485V79.8516H20.5219V80.8516ZM14.8873 81.4534C15.2903 81.1805 15.8511 81.0188 16.766 80.9355C17.6814 80.8521 18.8792 80.8516 20.5219 80.8516V79.8516C18.8985 79.8516 17.6468 79.8511 16.6752 79.9396C15.7031 80.0282 14.9395 80.2104 14.3267 80.6253L14.8873 81.4534ZM13.4074 83.7178C13.5773 82.7952 14.1105 81.9793 14.8873 81.4534L14.3267 80.6253C13.3279 81.3016 12.6424 82.3505 12.4239 83.5367L13.4074 83.7178ZM186.803 89.5215C187.454 88.0346 187.957 86.8884 188.266 85.963C188.575 85.0371 188.715 84.2645 188.581 83.5367L187.597 83.7178C187.686 84.1964 187.609 84.775 187.318 85.6463C187.027 86.5183 186.546 87.6155 185.887 89.12L186.803 89.5215ZM182.386 99.5979L186.803 89.5215L185.887 89.12L181.47 99.1965L182.386 99.5979ZM186.803 109.273L182.386 99.1965L181.47 99.5979L185.887 109.674L186.803 109.273ZM188.581 115.258C188.715 114.53 188.575 113.757 188.266 112.831C187.957 111.906 187.454 110.76 186.803 109.273L185.887 109.674C186.546 111.179 187.027 112.276 187.318 113.148C187.609 114.019 187.686 114.598 187.597 115.077L188.581 115.258ZM186.678 118.169C187.677 117.493 188.363 116.444 188.581 115.258L187.597 115.077C187.428 115.999 186.894 116.815 186.118 117.341L186.678 118.169ZM180.483 118.943C182.106 118.943 183.358 118.943 184.33 118.855C185.302 118.766 186.065 118.584 186.678 118.169L186.118 117.341C185.715 117.614 185.154 117.776 184.239 117.859C183.323 117.942 182.126 117.943 180.483 117.943V118.943ZM170.52 118.943H180.483V117.943H170.52V118.943ZM161.861 118.016C162.799 118.494 163.86 118.721 165.225 118.832C166.584 118.943 168.288 118.943 170.52 118.943V117.943C168.271 117.943 166.615 117.942 165.306 117.835C164.003 117.729 163.088 117.519 162.315 117.125L161.861 118.016ZM158.146 114.302C158.961 115.901 160.262 117.201 161.861 118.016L162.315 117.125C160.904 116.406 159.756 115.259 159.037 113.848L158.146 114.302ZM157.22 105.643C157.22 107.875 157.219 109.579 157.331 110.938C157.442 112.303 157.668 113.364 158.146 114.302L159.037 113.848C158.643 113.074 158.434 112.16 158.327 110.856C158.22 109.548 158.22 107.891 158.22 105.643H157.22ZM157.22 93.1516V105.643H158.22V93.1516H157.22ZM158.146 84.4926C157.668 85.4305 157.442 86.4915 157.331 87.8565C157.219 89.2156 157.22 90.9196 157.22 93.1516H158.22C158.22 90.9031 158.22 89.2468 158.327 87.9379C158.434 86.6348 158.643 85.72 159.037 84.9466L158.146 84.4926ZM161.861 80.778C160.262 81.5929 158.961 82.8933 158.146 84.4926L159.037 84.9466C159.756 83.5354 160.904 82.3881 162.315 81.669L161.861 80.778ZM170.52 79.8516C168.288 79.8516 166.584 79.8512 165.225 79.9622C163.86 80.0737 162.799 80.3001 161.861 80.778L162.315 81.669C163.088 81.2749 164.003 81.0654 165.306 80.9589C166.615 80.852 168.271 80.8516 170.52 80.8516V79.8516ZM180.483 79.8516H170.52V80.8516H180.483V79.8516ZM186.678 80.6253C186.065 80.2104 185.302 80.0282 184.33 79.9396C183.358 79.8511 182.106 79.8516 180.483 79.8516V80.8516C182.126 80.8516 183.323 80.8521 184.239 80.9355C185.154 81.0188 185.715 81.1805 186.118 81.4534L186.678 80.6253ZM188.581 83.5367C188.363 82.3505 187.677 81.3015 186.678 80.6253L186.118 81.4534C186.894 81.9793 187.428 82.7952 187.597 83.7178L188.581 83.5367Z" fill="url(#paint8_linear_4299_22492)" style="mix-blend-mode:darken" mask="url(#path-16-inside-2_4299_22492)"/>
</g>
<g filter="url(#filter4_dd_4299_22492)">
<rect x="28.4941" y="68.3516" width="147" height="38" rx="8" fill="#1D4ED8"/>
<rect x="28.7441" y="68.6016" width="146.5" height="37.5" rx="7.75" stroke="url(#paint9_linear_4299_22492)" stroke-width="0.5" stroke-linecap="round" style="mix-blend-mode:darken"/>
</g>
<circle cx="39.4941" cy="91.3516" r="3.25" fill="white"/>
<circle cx="39.4941" cy="91.3516" r="3.25" stroke="url(#paint10_linear_4299_22492)" stroke-width="0.5" stroke-linecap="round" style="mix-blend-mode:darken"/>
<mask id="path-21-outside-3_4299_22492" maskUnits="userSpaceOnUse" x="73.4941" y="80.7422" width="58" height="12" fill="black">
<rect fill="white" x="73.4941" y="80.7422" width="58" height="12"/>
<path d="M74.4348 85.0062H76.8668V91.6462L75.7308 91.7742C75.3362 91.7742 75.0215 91.6569 74.7868 91.4222C74.5522 91.1875 74.4348 90.8729 74.4348 90.4782V85.0062ZM75.7308 91.7742V89.7902H80.7548C80.8295 89.8969 80.8935 90.0355 80.9468 90.2062C81.0002 90.3662 81.0268 90.5475 81.0268 90.7502C81.0268 91.0915 80.9522 91.3475 80.8028 91.5182C80.6535 91.6889 80.4455 91.7742 80.1788 91.7742H75.7308ZM76.8668 88.0462H74.4348V82.0142C74.5415 81.9929 74.7015 81.9662 74.9148 81.9342C75.1388 81.9022 75.3522 81.8862 75.5548 81.8862C76.0242 81.8862 76.3602 81.9662 76.5628 82.1262C76.7655 82.2862 76.8668 82.5902 76.8668 83.0382V88.0462ZM82.5911 84.9582H84.9591V91.6462C84.8631 91.6675 84.7137 91.6942 84.5111 91.7262C84.3191 91.7582 84.1111 91.7742 83.8871 91.7742C83.4924 91.7742 83.1777 91.6569 82.9431 91.4222C82.7084 91.1875 82.5911 90.8729 82.5911 90.4782V84.9582ZM84.9591 88.8302H82.5911V83.3422C82.5911 82.9369 82.7084 82.6222 82.9431 82.3982C83.1777 82.1635 83.4924 82.0462 83.8871 82.0462C84.1111 82.0462 84.3191 82.0622 84.5111 82.0942C84.7137 82.1262 84.8631 82.1529 84.9591 82.1742V88.8302ZM83.8871 87.7582V85.8382H88.7191C88.7831 85.9449 88.8417 86.0782 88.8951 86.2382C88.9484 86.3982 88.9751 86.5742 88.9751 86.7662C88.9751 87.1075 88.8951 87.3582 88.7351 87.5182C88.5857 87.6782 88.3831 87.7582 88.1271 87.7582H83.8871ZM83.8871 91.7742V89.8382H89.2471C89.3111 89.9342 89.3697 90.0675 89.4231 90.2382C89.4764 90.4089 89.5031 90.5902 89.5031 90.7822C89.5031 91.1235 89.4231 91.3742 89.2631 91.5342C89.1137 91.6942 88.9111 91.7742 88.6551 91.7742H83.8871ZM83.8871 83.9662V82.0462H89.1671C89.2417 82.1422 89.3004 82.2702 89.3431 82.4302C89.3964 82.5902 89.4231 82.7662 89.4231 82.9582C89.4231 83.2995 89.3484 83.5555 89.1991 83.7262C89.0497 83.8862 88.8417 83.9662 88.5751 83.9662H83.8871ZM99.7125 86.9582V90.2862C99.7125 90.5849 99.6538 90.8142 99.5365 90.9742C99.4298 91.1235 99.2485 91.2675 98.9925 91.4062C98.7045 91.5662 98.2885 91.7049 97.7445 91.8222C97.2005 91.9502 96.6565 92.0142 96.1125 92.0142C95.0885 92.0142 94.1658 91.8382 93.3445 91.4862C92.5338 91.1235 91.8885 90.5689 91.4085 89.8222C90.9391 89.0649 90.7045 88.0942 90.7045 86.9102C90.7045 85.7795 90.9445 84.8355 91.4245 84.0782C91.9045 83.3102 92.5498 82.7342 93.3605 82.3502C94.1818 81.9555 95.0885 81.7582 96.0805 81.7582C96.7418 81.7582 97.3125 81.8275 97.7925 81.9662C98.2831 82.1049 98.6565 82.2969 98.9125 82.5422C99.1791 82.7875 99.3125 83.0702 99.3125 83.3902C99.3125 83.6249 99.2485 83.8382 99.1205 84.0302C99.0031 84.2115 98.8591 84.3502 98.6885 84.4462C98.4218 84.2755 98.0858 84.1155 97.6805 83.9662C97.2751 83.8169 96.8005 83.7422 96.2565 83.7422C95.6698 83.7422 95.1418 83.8702 94.6725 84.1262C94.2138 84.3715 93.8565 84.7342 93.6005 85.2142C93.3445 85.6835 93.2165 86.2435 93.2165 86.8942C93.2165 87.5982 93.3391 88.1849 93.5845 88.6542C93.8405 89.1235 94.1871 89.4755 94.6245 89.7102C95.0725 89.9342 95.5791 90.0462 96.1445 90.0462C96.4111 90.0462 96.6511 90.0195 96.8645 89.9662C97.0885 89.9129 97.2591 89.8595 97.3765 89.8062V87.9342H95.5045C95.4405 87.8275 95.3818 87.6942 95.3285 87.5342C95.2751 87.3635 95.2485 87.1822 95.2485 86.9902C95.2485 86.6595 95.3231 86.4195 95.4725 86.2702C95.6325 86.1102 95.8405 86.0302 96.0965 86.0302H98.7845C99.0725 86.0302 99.2965 86.1102 99.4565 86.2702C99.6271 86.4302 99.7125 86.6595 99.7125 86.9582ZM101.732 84.9582H104.1V91.6462C104.004 91.6675 103.854 91.6942 103.652 91.7262C103.46 91.7582 103.252 91.7742 103.028 91.7742C102.633 91.7742 102.318 91.6569 102.084 91.4222C101.849 91.1875 101.732 90.8729 101.732 90.4782V84.9582ZM104.1 88.8302H101.732V83.3422C101.732 82.9369 101.849 82.6222 102.084 82.3982C102.318 82.1635 102.633 82.0462 103.028 82.0462C103.252 82.0462 103.46 82.0622 103.652 82.0942C103.854 82.1262 104.004 82.1529 104.1 82.1742V88.8302ZM103.028 87.7582V85.8382H107.86C107.924 85.9449 107.982 86.0782 108.036 86.2382C108.089 86.3982 108.116 86.5742 108.116 86.7662C108.116 87.1075 108.036 87.3582 107.876 87.5182C107.726 87.6782 107.524 87.7582 107.268 87.7582H103.028ZM103.028 91.7742V89.8382H108.388C108.452 89.9342 108.51 90.0675 108.564 90.2382C108.617 90.4089 108.644 90.5902 108.644 90.7822C108.644 91.1235 108.564 91.3742 108.404 91.5342C108.254 91.6942 108.052 91.7742 107.796 91.7742H103.028ZM103.028 83.9662V82.0462H108.308C108.382 82.1422 108.441 82.2702 108.484 82.4302C108.537 82.5902 108.564 82.7662 108.564 82.9582C108.564 83.2995 108.489 83.5555 108.34 83.7262C108.19 83.8862 107.982 83.9662 107.716 83.9662H103.028ZM110.435 84.8142L112.643 84.7822C112.685 85.2409 112.717 85.6942 112.739 86.1422C112.76 86.5902 112.771 87.0222 112.771 87.4382C112.781 87.8542 112.787 88.2595 112.787 88.6542V91.7422C112.691 91.7635 112.536 91.7849 112.323 91.8062C112.12 91.8382 111.912 91.8542 111.699 91.8542C111.229 91.8542 110.899 91.7742 110.707 91.6142C110.525 91.4542 110.435 91.1662 110.435 90.7502V84.8142ZM118.963 88.9262L116.739 88.9422C116.664 88.1635 116.621 87.4222 116.611 86.7182C116.6 86.0142 116.595 85.3422 116.595 84.7022V82.0142C116.701 81.9929 116.856 81.9662 117.059 81.9342C117.261 81.9022 117.475 81.8862 117.699 81.8862C118.157 81.8862 118.483 81.9715 118.675 82.1422C118.867 82.3022 118.963 82.5849 118.963 82.9902V88.9262ZM118.963 88.1582V91.4382C118.824 91.5662 118.627 91.6675 118.371 91.7422C118.125 91.8275 117.832 91.8702 117.491 91.8702C117.128 91.8702 116.787 91.8115 116.467 91.6942C116.157 91.5769 115.901 91.3155 115.699 90.9102L113.763 87.2302C113.645 86.9955 113.528 86.7609 113.411 86.5262C113.304 86.2915 113.197 86.0569 113.091 85.8222C112.984 85.5769 112.877 85.3315 112.771 85.0862L110.435 85.6142V82.4622C110.563 82.2809 110.76 82.1422 111.027 82.0462C111.304 81.9502 111.603 81.9022 111.923 81.9022C112.275 81.9022 112.605 81.9609 112.915 82.0782C113.235 82.1955 113.496 82.4515 113.699 82.8462L115.651 86.5422C115.768 86.7662 115.885 87.0009 116.003 87.2462C116.12 87.4809 116.232 87.7155 116.339 87.9502C116.445 88.1849 116.547 88.4249 116.643 88.6702L118.963 88.1582ZM127.536 86.8942C127.536 86.1795 127.413 85.5929 127.168 85.1342C126.933 84.6755 126.603 84.3342 126.176 84.1102C125.76 83.8755 125.275 83.7582 124.72 83.7582C124.528 83.7582 124.341 83.7689 124.16 83.7902C123.989 83.8009 123.813 83.8169 123.632 83.8382V89.9022C123.792 89.9342 123.973 89.9609 124.176 89.9822C124.379 89.9929 124.571 89.9982 124.752 89.9982C125.595 89.9982 126.267 89.7369 126.768 89.2142C127.28 88.6915 127.536 87.9182 127.536 86.8942ZM130.048 86.8462C130.048 87.9982 129.824 88.9529 129.376 89.7102C128.939 90.4675 128.32 91.0382 127.52 91.4222C126.731 91.7955 125.803 91.9822 124.736 91.9822C124.384 91.9822 123.952 91.9555 123.44 91.9022C122.928 91.8595 122.464 91.7635 122.048 91.6142C121.493 91.4115 121.216 91.0542 121.216 90.5422V82.8942C121.216 82.6809 121.275 82.5209 121.392 82.4142C121.509 82.2969 121.664 82.2009 121.856 82.1262C122.283 81.9875 122.741 81.8969 123.232 81.8542C123.723 81.8115 124.171 81.7902 124.576 81.7902C125.675 81.7902 126.629 81.9769 127.44 82.3502C128.261 82.7129 128.901 83.2675 129.36 84.0142C129.819 84.7609 130.048 85.7049 130.048 86.8462Z"/>
</mask>
<path d="M74.4348 85.0062H76.8668V91.6462L75.7308 91.7742C75.3362 91.7742 75.0215 91.6569 74.7868 91.4222C74.5522 91.1875 74.4348 90.8729 74.4348 90.4782V85.0062ZM75.7308 91.7742V89.7902H80.7548C80.8295 89.8969 80.8935 90.0355 80.9468 90.2062C81.0002 90.3662 81.0268 90.5475 81.0268 90.7502C81.0268 91.0915 80.9522 91.3475 80.8028 91.5182C80.6535 91.6889 80.4455 91.7742 80.1788 91.7742H75.7308ZM76.8668 88.0462H74.4348V82.0142C74.5415 81.9929 74.7015 81.9662 74.9148 81.9342C75.1388 81.9022 75.3522 81.8862 75.5548 81.8862C76.0242 81.8862 76.3602 81.9662 76.5628 82.1262C76.7655 82.2862 76.8668 82.5902 76.8668 83.0382V88.0462ZM82.5911 84.9582H84.9591V91.6462C84.8631 91.6675 84.7137 91.6942 84.5111 91.7262C84.3191 91.7582 84.1111 91.7742 83.8871 91.7742C83.4924 91.7742 83.1777 91.6569 82.9431 91.4222C82.7084 91.1875 82.5911 90.8729 82.5911 90.4782V84.9582ZM84.9591 88.8302H82.5911V83.3422C82.5911 82.9369 82.7084 82.6222 82.9431 82.3982C83.1777 82.1635 83.4924 82.0462 83.8871 82.0462C84.1111 82.0462 84.3191 82.0622 84.5111 82.0942C84.7137 82.1262 84.8631 82.1529 84.9591 82.1742V88.8302ZM83.8871 87.7582V85.8382H88.7191C88.7831 85.9449 88.8417 86.0782 88.8951 86.2382C88.9484 86.3982 88.9751 86.5742 88.9751 86.7662C88.9751 87.1075 88.8951 87.3582 88.7351 87.5182C88.5857 87.6782 88.3831 87.7582 88.1271 87.7582H83.8871ZM83.8871 91.7742V89.8382H89.2471C89.3111 89.9342 89.3697 90.0675 89.4231 90.2382C89.4764 90.4089 89.5031 90.5902 89.5031 90.7822C89.5031 91.1235 89.4231 91.3742 89.2631 91.5342C89.1137 91.6942 88.9111 91.7742 88.6551 91.7742H83.8871ZM83.8871 83.9662V82.0462H89.1671C89.2417 82.1422 89.3004 82.2702 89.3431 82.4302C89.3964 82.5902 89.4231 82.7662 89.4231 82.9582C89.4231 83.2995 89.3484 83.5555 89.1991 83.7262C89.0497 83.8862 88.8417 83.9662 88.5751 83.9662H83.8871ZM99.7125 86.9582V90.2862C99.7125 90.5849 99.6538 90.8142 99.5365 90.9742C99.4298 91.1235 99.2485 91.2675 98.9925 91.4062C98.7045 91.5662 98.2885 91.7049 97.7445 91.8222C97.2005 91.9502 96.6565 92.0142 96.1125 92.0142C95.0885 92.0142 94.1658 91.8382 93.3445 91.4862C92.5338 91.1235 91.8885 90.5689 91.4085 89.8222C90.9391 89.0649 90.7045 88.0942 90.7045 86.9102C90.7045 85.7795 90.9445 84.8355 91.4245 84.0782C91.9045 83.3102 92.5498 82.7342 93.3605 82.3502C94.1818 81.9555 95.0885 81.7582 96.0805 81.7582C96.7418 81.7582 97.3125 81.8275 97.7925 81.9662C98.2831 82.1049 98.6565 82.2969 98.9125 82.5422C99.1791 82.7875 99.3125 83.0702 99.3125 83.3902C99.3125 83.6249 99.2485 83.8382 99.1205 84.0302C99.0031 84.2115 98.8591 84.3502 98.6885 84.4462C98.4218 84.2755 98.0858 84.1155 97.6805 83.9662C97.2751 83.8169 96.8005 83.7422 96.2565 83.7422C95.6698 83.7422 95.1418 83.8702 94.6725 84.1262C94.2138 84.3715 93.8565 84.7342 93.6005 85.2142C93.3445 85.6835 93.2165 86.2435 93.2165 86.8942C93.2165 87.5982 93.3391 88.1849 93.5845 88.6542C93.8405 89.1235 94.1871 89.4755 94.6245 89.7102C95.0725 89.9342 95.5791 90.0462 96.1445 90.0462C96.4111 90.0462 96.6511 90.0195 96.8645 89.9662C97.0885 89.9129 97.2591 89.8595 97.3765 89.8062V87.9342H95.5045C95.4405 87.8275 95.3818 87.6942 95.3285 87.5342C95.2751 87.3635 95.2485 87.1822 95.2485 86.9902C95.2485 86.6595 95.3231 86.4195 95.4725 86.2702C95.6325 86.1102 95.8405 86.0302 96.0965 86.0302H98.7845C99.0725 86.0302 99.2965 86.1102 99.4565 86.2702C99.6271 86.4302 99.7125 86.6595 99.7125 86.9582ZM101.732 84.9582H104.1V91.6462C104.004 91.6675 103.854 91.6942 103.652 91.7262C103.46 91.7582 103.252 91.7742 103.028 91.7742C102.633 91.7742 102.318 91.6569 102.084 91.4222C101.849 91.1875 101.732 90.8729 101.732 90.4782V84.9582ZM104.1 88.8302H101.732V83.3422C101.732 82.9369 101.849 82.6222 102.084 82.3982C102.318 82.1635 102.633 82.0462 103.028 82.0462C103.252 82.0462 103.46 82.0622 103.652 82.0942C103.854 82.1262 104.004 82.1529 104.1 82.1742V88.8302ZM103.028 87.7582V85.8382H107.86C107.924 85.9449 107.982 86.0782 108.036 86.2382C108.089 86.3982 108.116 86.5742 108.116 86.7662C108.116 87.1075 108.036 87.3582 107.876 87.5182C107.726 87.6782 107.524 87.7582 107.268 87.7582H103.028ZM103.028 91.7742V89.8382H108.388C108.452 89.9342 108.51 90.0675 108.564 90.2382C108.617 90.4089 108.644 90.5902 108.644 90.7822C108.644 91.1235 108.564 91.3742 108.404 91.5342C108.254 91.6942 108.052 91.7742 107.796 91.7742H103.028ZM103.028 83.9662V82.0462H108.308C108.382 82.1422 108.441 82.2702 108.484 82.4302C108.537 82.5902 108.564 82.7662 108.564 82.9582C108.564 83.2995 108.489 83.5555 108.34 83.7262C108.19 83.8862 107.982 83.9662 107.716 83.9662H103.028ZM110.435 84.8142L112.643 84.7822C112.685 85.2409 112.717 85.6942 112.739 86.1422C112.76 86.5902 112.771 87.0222 112.771 87.4382C112.781 87.8542 112.787 88.2595 112.787 88.6542V91.7422C112.691 91.7635 112.536 91.7849 112.323 91.8062C112.12 91.8382 111.912 91.8542 111.699 91.8542C111.229 91.8542 110.899 91.7742 110.707 91.6142C110.525 91.4542 110.435 91.1662 110.435 90.7502V84.8142ZM118.963 88.9262L116.739 88.9422C116.664 88.1635 116.621 87.4222 116.611 86.7182C116.6 86.0142 116.595 85.3422 116.595 84.7022V82.0142C116.701 81.9929 116.856 81.9662 117.059 81.9342C117.261 81.9022 117.475 81.8862 117.699 81.8862C118.157 81.8862 118.483 81.9715 118.675 82.1422C118.867 82.3022 118.963 82.5849 118.963 82.9902V88.9262ZM118.963 88.1582V91.4382C118.824 91.5662 118.627 91.6675 118.371 91.7422C118.125 91.8275 117.832 91.8702 117.491 91.8702C117.128 91.8702 116.787 91.8115 116.467 91.6942C116.157 91.5769 115.901 91.3155 115.699 90.9102L113.763 87.2302C113.645 86.9955 113.528 86.7609 113.411 86.5262C113.304 86.2915 113.197 86.0569 113.091 85.8222C112.984 85.5769 112.877 85.3315 112.771 85.0862L110.435 85.6142V82.4622C110.563 82.2809 110.76 82.1422 111.027 82.0462C111.304 81.9502 111.603 81.9022 111.923 81.9022C112.275 81.9022 112.605 81.9609 112.915 82.0782C113.235 82.1955 113.496 82.4515 113.699 82.8462L115.651 86.5422C115.768 86.7662 115.885 87.0009 116.003 87.2462C116.12 87.4809 116.232 87.7155 116.339 87.9502C116.445 88.1849 116.547 88.4249 116.643 88.6702L118.963 88.1582ZM127.536 86.8942C127.536 86.1795 127.413 85.5929 127.168 85.1342C126.933 84.6755 126.603 84.3342 126.176 84.1102C125.76 83.8755 125.275 83.7582 124.72 83.7582C124.528 83.7582 124.341 83.7689 124.16 83.7902C123.989 83.8009 123.813 83.8169 123.632 83.8382V89.9022C123.792 89.9342 123.973 89.9609 124.176 89.9822C124.379 89.9929 124.571 89.9982 124.752 89.9982C125.595 89.9982 126.267 89.7369 126.768 89.2142C127.28 88.6915 127.536 87.9182 127.536 86.8942ZM130.048 86.8462C130.048 87.9982 129.824 88.9529 129.376 89.7102C128.939 90.4675 128.32 91.0382 127.52 91.4222C126.731 91.7955 125.803 91.9822 124.736 91.9822C124.384 91.9822 123.952 91.9555 123.44 91.9022C122.928 91.8595 122.464 91.7635 122.048 91.6142C121.493 91.4115 121.216 91.0542 121.216 90.5422V82.8942C121.216 82.6809 121.275 82.5209 121.392 82.4142C121.509 82.2969 121.664 82.2009 121.856 82.1262C122.283 81.9875 122.741 81.8969 123.232 81.8542C123.723 81.8115 124.171 81.7902 124.576 81.7902C125.675 81.7902 126.629 81.9769 127.44 82.3502C128.261 82.7129 128.901 83.2675 129.36 84.0142C129.819 84.7609 130.048 85.7049 130.048 86.8462Z" fill="white"/>
<path d="M74.4348 85.0062V84.5062H73.9348V85.0062H74.4348ZM76.8668 85.0062H77.3668V84.5062H76.8668V85.0062ZM76.8668 91.6462L76.9228 92.143L77.3668 92.093V91.6462H76.8668ZM75.7308 91.7742V92.2742H75.7589L75.7868 92.271L75.7308 91.7742ZM74.7868 91.4222L74.4333 91.7757L74.7868 91.4222ZM75.7308 91.7742H75.2308V92.2742H75.7308V91.7742ZM75.7308 89.7902V89.2902H75.2308V89.7902H75.7308ZM80.7548 89.7902L81.1644 89.5035L81.0152 89.2902H80.7548V89.7902ZM80.9468 90.2062L80.4695 90.3554L80.4725 90.3643L80.9468 90.2062ZM80.8028 91.5182L81.1791 91.8474L80.8028 91.5182ZM76.8668 88.0462V88.5462H77.3668V88.0462H76.8668ZM74.4348 88.0462H73.9348V88.5462H74.4348V88.0462ZM74.4348 82.0142L74.3368 81.5239L73.9348 81.6043V82.0142H74.4348ZM74.9148 81.9342L74.8441 81.4392L74.8407 81.4397L74.9148 81.9342ZM76.5628 82.1262L76.253 82.5186V82.5186L76.5628 82.1262ZM74.4348 85.5062H76.8668V84.5062H74.4348V85.5062ZM76.3668 85.0062V91.6462H77.3668V85.0062H76.3668ZM76.8108 91.1493L75.6748 91.2773L75.7868 92.271L76.9228 92.143L76.8108 91.1493ZM75.7308 91.2742C75.4418 91.2742 75.2638 91.1921 75.1404 91.0686L74.4333 91.7757C74.7792 92.1216 75.2305 92.2742 75.7308 92.2742V91.2742ZM75.1404 91.0686C75.017 90.9452 74.9348 90.7672 74.9348 90.4782H73.9348C73.9348 90.9785 74.0874 91.4298 74.4333 91.7757L75.1404 91.0686ZM74.9348 90.4782V85.0062H73.9348V90.4782H74.9348ZM76.2308 91.7742V89.7902H75.2308V91.7742H76.2308ZM75.7308 90.2902H80.7548V89.2902H75.7308V90.2902ZM80.3452 90.0769C80.3817 90.129 80.4263 90.2168 80.4696 90.3553L81.4241 90.057C81.3607 89.8543 81.2773 89.6647 81.1644 89.5035L80.3452 90.0769ZM80.4725 90.3643C80.5058 90.4642 80.5268 90.5908 80.5268 90.7502H81.5268C81.5268 90.5043 81.4945 90.2681 81.4212 90.0481L80.4725 90.3643ZM80.5268 90.7502C80.5268 91.0296 80.4643 91.1458 80.4265 91.1889L81.1791 91.8474C81.4401 91.5492 81.5268 91.1534 81.5268 90.7502H80.5268ZM80.4265 91.1889C80.3891 91.2317 80.3292 91.2742 80.1788 91.2742V92.2742C80.5618 92.2742 80.9179 92.146 81.1791 91.8474L80.4265 91.1889ZM80.1788 91.2742H75.7308V92.2742H80.1788V91.2742ZM76.8668 87.5462H74.4348V88.5462H76.8668V87.5462ZM74.9348 88.0462V82.0142H73.9348V88.0462H74.9348ZM74.5329 82.5045C74.6273 82.4856 74.7775 82.4604 74.989 82.4287L74.8407 81.4397C74.6255 81.472 74.4557 81.5001 74.3368 81.5239L74.5329 82.5045ZM74.9855 82.4292C75.1888 82.4001 75.3784 82.3862 75.5548 82.3862V81.3862C75.326 81.3862 75.0889 81.4042 74.8441 81.4392L74.9855 82.4292ZM75.5548 82.3862C75.9927 82.3862 76.1861 82.4658 76.253 82.5186L76.8727 81.7337C76.5343 81.4666 76.0556 81.3862 75.5548 81.3862V82.3862ZM76.253 82.5186C76.2705 82.5325 76.3668 82.6347 76.3668 83.0382H77.3668C77.3668 82.5456 77.2605 82.0399 76.8727 81.7337L76.253 82.5186ZM76.3668 83.0382V88.0462H77.3668V83.0382H76.3668ZM82.5911 84.9582V84.4582H82.0911V84.9582H82.5911ZM84.9591 84.9582H85.4591V84.4582H84.9591V84.9582ZM84.9591 91.6462L85.0675 92.1343L85.4591 92.0473V91.6462H84.9591ZM84.5111 91.7262L84.4331 91.2323L84.4289 91.233L84.5111 91.7262ZM82.9431 91.4222L82.5895 91.7757L82.9431 91.4222ZM84.9591 88.8302V89.3302H85.4591V88.8302H84.9591ZM82.5911 88.8302H82.0911V89.3302H82.5911V88.8302ZM82.9431 82.3982L83.2884 82.76L83.2966 82.7517L82.9431 82.3982ZM84.5111 82.0942L84.4289 82.5874L84.4331 82.5881L84.5111 82.0942ZM84.9591 82.1742H85.4591V81.7731L85.0675 81.6861L84.9591 82.1742ZM83.8871 87.7582H83.3871V88.2582H83.8871V87.7582ZM83.8871 85.8382V85.3382H83.3871V85.8382H83.8871ZM88.7191 85.8382L89.1478 85.5809L89.0022 85.3382H88.7191V85.8382ZM88.8951 86.2382L89.3694 86.0801V86.0801L88.8951 86.2382ZM88.7351 87.5182L88.3815 87.1646L88.3754 87.1707L88.3696 87.177L88.7351 87.5182ZM83.8871 91.7742H83.3871V92.2742H83.8871V91.7742ZM83.8871 89.8382V89.3382H83.3871V89.8382H83.8871ZM89.2471 89.8382L89.6631 89.5608L89.5147 89.3382H89.2471V89.8382ZM89.2631 91.5342L88.9095 91.1806L88.9034 91.1867L88.8976 91.193L89.2631 91.5342ZM83.8871 83.9662H83.3871V84.4662H83.8871V83.9662ZM83.8871 82.0462V81.5462H83.3871V82.0462H83.8871ZM89.1671 82.0462L89.5618 81.7392L89.4116 81.5462H89.1671V82.0462ZM89.3431 82.4302L88.86 82.559L88.8639 82.5738L88.8687 82.5883L89.3431 82.4302ZM89.1991 83.7262L89.5646 84.0673L89.5701 84.0615L89.5754 84.0554L89.1991 83.7262ZM82.5911 85.4582H84.9591V84.4582H82.5911V85.4582ZM84.4591 84.9582V91.6462H85.4591V84.9582H84.4591ZM84.8506 91.1581C84.7706 91.1759 84.634 91.2006 84.4331 91.2323L84.5891 92.2201C84.7935 92.1878 84.9556 92.1592 85.0675 92.1343L84.8506 91.1581ZM84.4289 91.233C84.2677 91.2598 84.0876 91.2742 83.8871 91.2742V92.2742C84.1346 92.2742 84.3704 92.2565 84.5933 92.2194L84.4289 91.233ZM83.8871 91.2742C83.5981 91.2742 83.4201 91.1921 83.2966 91.0686L82.5895 91.7757C82.9354 92.1216 83.3867 92.2742 83.8871 92.2742V91.2742ZM83.2966 91.0686C83.1732 90.9452 83.0911 90.7672 83.0911 90.4782H82.0911C82.0911 90.9785 82.2436 91.4298 82.5895 91.7757L83.2966 91.0686ZM83.0911 90.4782V84.9582H82.0911V90.4782H83.0911ZM84.9591 88.3302H82.5911V89.3302H84.9591V88.3302ZM83.0911 88.8302V83.3422H82.0911V88.8302H83.0911ZM83.0911 83.3422C83.0911 83.0372 83.176 82.8671 83.2883 82.7599L82.5978 82.0365C82.2409 82.3773 82.0911 82.8365 82.0911 83.3422H83.0911ZM83.2966 82.7517C83.4201 82.6283 83.5981 82.5462 83.8871 82.5462V81.5462C83.3867 81.5462 82.9354 81.6987 82.5895 82.0446L83.2966 82.7517ZM83.8871 82.5462C84.0876 82.5462 84.2677 82.5605 84.4289 82.5874L84.5933 81.601C84.3704 81.5638 84.1346 81.5462 83.8871 81.5462V82.5462ZM84.4331 82.5881C84.634 82.6198 84.7706 82.6445 84.8506 82.6623L85.0675 81.6861C84.9556 81.6612 84.7935 81.6326 84.5891 81.6003L84.4331 82.5881ZM84.4591 82.1742V88.8302H85.4591V82.1742H84.4591ZM84.3871 87.7582V85.8382H83.3871V87.7582H84.3871ZM83.8871 86.3382H88.7191V85.3382H83.8871V86.3382ZM88.2903 86.0954C88.3303 86.162 88.3752 86.2596 88.4207 86.3963L89.3694 86.0801C89.3083 85.8968 89.2359 85.7277 89.1478 85.5809L88.2903 86.0954ZM88.4207 86.3963C88.4549 86.4988 88.4751 86.6206 88.4751 86.7662H89.4751C89.4751 86.5278 89.4419 86.2976 89.3694 86.0801L88.4207 86.3963ZM88.4751 86.7662C88.4751 87.0414 88.4094 87.1368 88.3815 87.1646L89.0886 87.8717C89.3808 87.5796 89.4751 87.1736 89.4751 86.7662H88.4751ZM88.3696 87.177C88.331 87.2184 88.2701 87.2582 88.1271 87.2582V88.2582C88.496 88.2582 88.8405 88.138 89.1006 87.8593L88.3696 87.177ZM88.1271 87.2582H83.8871V88.2582H88.1271V87.2582ZM84.3871 91.7742V89.8382H83.3871V91.7742H84.3871ZM83.8871 90.3382H89.2471V89.3382H83.8871V90.3382ZM88.8311 90.1155C88.8583 90.1565 88.8998 90.2401 88.9458 90.3873L89.9003 90.0891C89.8397 89.895 89.7638 89.7119 89.6631 89.5608L88.8311 90.1155ZM88.9458 90.3873C88.983 90.5063 89.0031 90.637 89.0031 90.7822H90.0031C90.0031 90.5433 89.9698 90.3114 89.9003 90.0891L88.9458 90.3873ZM89.0031 90.7822C89.0031 91.0574 88.9374 91.1528 88.9095 91.1806L89.6166 91.8877C89.9088 91.5956 90.0031 91.1896 90.0031 90.7822H89.0031ZM88.8976 91.193C88.859 91.2344 88.7981 91.2742 88.6551 91.2742V92.2742C89.024 92.2742 89.3685 92.154 89.6286 91.8753L88.8976 91.193ZM88.6551 91.2742H83.8871V92.2742H88.6551V91.2742ZM84.3871 83.9662V82.0462H83.3871V83.9662H84.3871ZM83.8871 82.5462H89.1671V81.5462H83.8871V82.5462ZM88.7724 82.3532C88.794 82.3809 88.8287 82.4417 88.86 82.559L89.8262 82.3014C89.7721 82.0986 89.6895 81.9035 89.5618 81.7392L88.7724 82.3532ZM88.8687 82.5883C88.9029 82.6908 88.9231 82.8126 88.9231 82.9582H89.9231C89.9231 82.7198 89.8899 82.4896 89.8174 82.2721L88.8687 82.5883ZM88.9231 82.9582C88.9231 83.2376 88.8605 83.3538 88.8228 83.3969L89.5754 84.0554C89.8363 83.7572 89.9231 83.3614 89.9231 82.9582H88.9231ZM88.8335 83.385C88.7989 83.4221 88.7358 83.4662 88.5751 83.4662V84.4662C88.9477 84.4662 89.3006 84.3503 89.5646 84.0673L88.8335 83.385ZM88.5751 83.4662H83.8871V84.4662H88.5751V83.4662ZM99.5365 90.9742L99.1332 90.6785L99.1296 90.6836L99.5365 90.9742ZM98.9925 91.4062L98.7543 90.9665L98.7496 90.9691L98.9925 91.4062ZM97.7445 91.8222L97.639 91.3333L97.6299 91.3355L97.7445 91.8222ZM93.3445 91.4862L93.1402 91.9427L93.1475 91.9458L93.3445 91.4862ZM91.4085 89.8222L90.9834 90.0856L90.9879 90.0926L91.4085 89.8222ZM91.4245 84.0782L91.8468 84.3459L91.8485 84.3432L91.4245 84.0782ZM93.3605 82.3502L93.5745 82.8021L93.577 82.8009L93.3605 82.3502ZM97.7924 81.9662L97.6537 82.4466L97.6565 82.4473L97.7924 81.9662ZM98.9125 82.5422L98.5664 82.9033L98.5739 82.9102L98.9125 82.5422ZM99.1205 84.0302L98.7044 83.7528L98.7007 83.7586L99.1205 84.0302ZM98.6885 84.4462L98.4189 84.8673L98.6719 85.0292L98.9336 84.882L98.6885 84.4462ZM97.6805 83.9662L97.8533 83.497L97.8533 83.497L97.6805 83.9662ZM94.6725 84.1262L94.9083 84.5671L94.9119 84.5651L94.6725 84.1262ZM93.6005 85.2142L94.0394 85.4536L94.0416 85.4495L93.6005 85.2142ZM93.5844 88.6542L93.1413 88.8859L93.1455 88.8936L93.5844 88.6542ZM94.6245 89.7102L94.388 90.1508L94.3944 90.1542L94.4008 90.1574L94.6245 89.7102ZM96.8645 89.9662L96.7486 89.4798L96.7432 89.4811L96.8645 89.9662ZM97.3764 89.8062L97.5834 90.2614L97.8764 90.1281V89.8062H97.3764ZM97.3764 87.9342H97.8764V87.4342H97.3764V87.9342ZM95.5045 87.9342L95.0757 88.1914L95.2214 88.4342H95.5045V87.9342ZM95.3285 87.5342L94.8511 87.6834L94.8541 87.6923L95.3285 87.5342ZM95.4725 86.2702L95.826 86.6237V86.6237L95.4725 86.2702ZM99.4565 86.2702L99.1029 86.6237L99.1086 86.6294L99.1145 86.635L99.4565 86.2702ZM99.2125 86.9582V90.2862H100.212V86.9582H99.2125ZM99.2125 90.2862C99.2125 90.5294 99.1631 90.6378 99.1333 90.6785L99.9397 91.2699C100.144 90.9906 100.212 90.6403 100.212 90.2862H99.2125ZM99.1296 90.6836C99.0855 90.7452 98.9785 90.8451 98.7543 90.9665L99.2306 91.8458C99.5184 91.6899 99.774 91.5018 99.9433 91.2648L99.1296 90.6836ZM98.7496 90.9691C98.5242 91.0944 98.1632 91.2204 97.639 91.3334L97.8499 92.3109C98.4137 92.1893 98.8847 92.038 99.2353 91.8433L98.7496 90.9691ZM97.6299 91.3355C97.1224 91.4549 96.6169 91.5142 96.1125 91.5142V92.5142C96.6961 92.5142 97.2785 92.4455 97.859 92.3089L97.6299 91.3355ZM96.1125 91.5142C95.1463 91.5142 94.2921 91.3483 93.5414 91.0266L93.1475 91.9458C94.0395 92.328 95.0306 92.5142 96.1125 92.5142V91.5142ZM93.5486 91.0298C92.8266 90.7068 92.2565 90.2167 91.829 89.5518L90.9879 90.0926C91.5204 90.921 92.241 91.5403 93.1403 91.9426L93.5486 91.0298ZM91.8335 89.5588C91.4268 88.9026 91.2045 88.0309 91.2045 86.9102H90.2045C90.2045 88.1574 90.4515 89.2271 90.9834 90.0856L91.8335 89.5588ZM91.2045 86.9102C91.2045 85.8497 91.4292 85.0046 91.8468 84.3459L91.0021 83.8105C90.4597 84.6664 90.2045 85.7093 90.2045 86.9102H91.2045ZM91.8485 84.3432C92.2783 83.6554 92.8511 83.1447 93.5745 82.8021L93.1464 81.8983C92.2485 82.3237 91.5306 82.9649 91.0005 83.8132L91.8485 84.3432ZM93.577 82.8009C94.3249 82.4415 95.1567 82.2582 96.0805 82.2582V81.2582C95.0202 81.2582 94.0386 81.4696 93.1439 81.8995L93.577 82.8009ZM96.0805 82.2582C96.709 82.2582 97.2307 82.3243 97.6537 82.4465L97.9312 81.4858C97.3943 81.3307 96.7745 81.2582 96.0805 81.2582V82.2582ZM97.6565 82.4473C98.1006 82.5729 98.3898 82.7338 98.5665 82.9032L99.2584 82.1812C98.9231 81.8599 98.4656 81.6368 97.9284 81.485L97.6565 82.4473ZM98.5739 82.9102C98.7527 83.0746 98.8125 83.2292 98.8125 83.3902H99.8125C99.8125 82.9111 99.6055 82.5004 99.251 82.1742L98.5739 82.9102ZM98.8125 83.3902C98.8125 83.5279 98.7767 83.6444 98.7044 83.7528L99.5365 84.3075C99.7202 84.0319 99.8125 83.7218 99.8125 83.3902H98.8125ZM98.7007 83.7586C98.6228 83.879 98.5363 83.9581 98.4433 84.0104L98.9336 84.882C99.182 84.7423 99.3835 84.5441 99.5402 84.3018L98.7007 83.7586ZM98.958 84.0251C98.6522 83.8293 98.2812 83.6546 97.8533 83.497L97.5076 84.4354C97.8904 84.5764 98.1914 84.7217 98.4189 84.8673L98.958 84.0251ZM97.8533 83.497C97.3804 83.3228 96.8448 83.2422 96.2565 83.2422V84.2422C96.7561 84.2422 97.1699 84.3109 97.5076 84.4354L97.8533 83.497ZM96.2565 83.2422C95.5945 83.2422 94.9828 83.3874 94.433 83.6872L94.9119 84.5651C95.3008 84.353 95.7451 84.2422 96.2565 84.2422V83.2422ZM94.4366 83.6853C93.8865 83.9795 93.4596 84.4158 93.1593 84.9789L94.0416 85.4495C94.2533 85.0526 94.541 84.7635 94.9083 84.5671L94.4366 83.6853ZM93.1615 84.9748C92.8576 85.5319 92.7165 86.1779 92.7165 86.8942H93.7165C93.7165 86.3092 93.8313 85.8352 94.0394 85.4536L93.1615 84.9748ZM92.7165 86.8942C92.7165 87.6533 92.8484 88.3254 93.1413 88.8858L94.0276 88.4226C93.8299 88.0443 93.7165 87.543 93.7165 86.8942H92.7165ZM93.1455 88.8936C93.4443 89.4414 93.8584 89.8666 94.388 90.1508L94.8609 89.2696C94.5158 89.0845 94.2366 88.8057 94.0234 88.4148L93.1455 88.8936ZM94.4008 90.1574C94.9268 90.4204 95.5116 90.5462 96.1445 90.5462V89.5462C95.6467 89.5462 95.2182 89.448 94.8481 89.263L94.4008 90.1574ZM96.1445 90.5462C96.4437 90.5462 96.7254 90.5163 96.9857 90.4513L96.7432 89.4811C96.5769 89.5227 96.3786 89.5462 96.1445 89.5462V90.5462ZM96.9803 90.4526C97.2153 90.3966 97.4224 90.3345 97.5834 90.2614L97.1696 89.351C97.0958 89.3845 96.9616 89.4291 96.7486 89.4798L96.9803 90.4526ZM97.8764 89.8062V87.9342H96.8764V89.8062H97.8764ZM97.3764 87.4342H95.5045V88.4342H97.3764V87.4342ZM95.9332 87.6769C95.8933 87.6104 95.8484 87.5128 95.8028 87.3761L94.8541 87.6923C94.9152 87.8756 94.9876 88.0447 95.0757 88.1914L95.9332 87.6769ZM95.8057 87.385C95.7685 87.2661 95.7485 87.1353 95.7485 86.9902H94.7485C94.7485 87.229 94.7817 87.461 94.8512 87.6833L95.8057 87.385ZM95.7485 86.9902C95.7485 86.7193 95.8117 86.638 95.826 86.6237L95.1189 85.9166C94.8345 86.201 94.7485 86.5998 94.7485 86.9902H95.7485ZM95.826 86.6237C95.8796 86.5701 95.9541 86.5302 96.0965 86.5302V85.5302C95.7268 85.5302 95.3853 85.6502 95.1189 85.9166L95.826 86.6237ZM96.0965 86.5302H98.7845V85.5302H96.0965V86.5302ZM98.7845 86.5302C98.9778 86.5302 99.0605 86.5813 99.1029 86.6237L99.81 85.9166C99.5324 85.639 99.1671 85.5302 98.7845 85.5302V86.5302ZM99.1145 86.635C99.1581 86.6759 99.2125 86.7572 99.2125 86.9582H100.212C100.212 86.5618 100.096 86.1845 99.7984 85.9054L99.1145 86.635ZM101.732 84.9582V84.4582H101.232V84.9582H101.732ZM104.1 84.9582H104.6V84.4582H104.1V84.9582ZM104.1 91.6462L104.208 92.1343L104.6 92.0473V91.6462H104.1ZM103.652 91.7262L103.574 91.2323L103.57 91.233L103.652 91.7262ZM102.084 91.4222L101.73 91.7757L102.084 91.4222ZM104.1 88.8302V89.3302H104.6V88.8302H104.1ZM101.732 88.8302H101.232V89.3302H101.732V88.8302ZM102.084 82.3982L102.429 82.76L102.437 82.7517L102.084 82.3982ZM103.652 82.0942L103.57 82.5874L103.574 82.5881L103.652 82.0942ZM104.1 82.1742H104.6V81.7731L104.208 81.6861L104.1 82.1742ZM103.028 87.7582H102.528V88.2582H103.028V87.7582ZM103.028 85.8382V85.3382H102.528V85.8382H103.028ZM107.86 85.8382L108.288 85.5809L108.143 85.3382H107.86V85.8382ZM108.036 86.2382L108.51 86.0801V86.0801L108.036 86.2382ZM107.876 87.5182L107.522 87.1646L107.516 87.1707L107.51 87.177L107.876 87.5182ZM103.028 91.7742H102.528V92.2742H103.028V91.7742ZM103.028 89.8382V89.3382H102.528V89.8382H103.028ZM108.388 89.8382L108.804 89.5608L108.655 89.3382H108.388V89.8382ZM108.404 91.5342L108.05 91.1806L108.044 91.1867L108.038 91.193L108.404 91.5342ZM103.028 83.9662H102.528V84.4662H103.028V83.9662ZM103.028 82.0462V81.5462H102.528V82.0462H103.028ZM108.308 82.0462L108.702 81.7392L108.552 81.5462H108.308V82.0462ZM108.484 82.4302L108.001 82.559L108.005 82.5738L108.009 82.5883L108.484 82.4302ZM108.34 83.7262L108.705 84.0673L108.711 84.0615L108.716 84.0554L108.34 83.7262ZM101.732 85.4582H104.1V84.4582H101.732V85.4582ZM103.6 84.9582V91.6462H104.6V84.9582H103.6ZM103.991 91.1581C103.911 91.1759 103.775 91.2006 103.574 91.2323L103.73 92.2201C103.934 92.1878 104.096 92.1592 104.208 92.1343L103.991 91.1581ZM103.57 91.233C103.408 91.2598 103.228 91.2742 103.028 91.2742V92.2742C103.275 92.2742 103.511 92.2565 103.734 92.2194L103.57 91.233ZM103.028 91.2742C102.739 91.2742 102.561 91.1921 102.437 91.0686L101.73 91.7757C102.076 92.1216 102.527 92.2742 103.028 92.2742V91.2742ZM102.437 91.0686C102.314 90.9452 102.232 90.7672 102.232 90.4782H101.232C101.232 90.9785 101.384 91.4298 101.73 91.7757L102.437 91.0686ZM102.232 90.4782V84.9582H101.232V90.4782H102.232ZM104.1 88.3302H101.732V89.3302H104.1V88.3302ZM102.232 88.8302V83.3422H101.232V88.8302H102.232ZM102.232 83.3422C102.232 83.0372 102.317 82.8671 102.429 82.7599L101.738 82.0365C101.381 82.3773 101.232 82.8365 101.232 83.3422H102.232ZM102.437 82.7517C102.561 82.6283 102.739 82.5462 103.028 82.5462V81.5462C102.527 81.5462 102.076 81.6987 101.73 82.0446L102.437 82.7517ZM103.028 82.5462C103.228 82.5462 103.408 82.5605 103.57 82.5874L103.734 81.601C103.511 81.5638 103.275 81.5462 103.028 81.5462V82.5462ZM103.574 82.5881C103.775 82.6198 103.911 82.6445 103.991 82.6623L104.208 81.6861C104.096 81.6612 103.934 81.6326 103.73 81.6003L103.574 82.5881ZM103.6 82.1742V88.8302H104.6V82.1742H103.6ZM103.528 87.7582V85.8382H102.528V87.7582H103.528ZM103.028 86.3382H107.86V85.3382H103.028V86.3382ZM107.431 86.0954C107.471 86.162 107.516 86.2596 107.561 86.3963L108.51 86.0801C108.449 85.8968 108.377 85.7277 108.288 85.5809L107.431 86.0954ZM107.561 86.3963C107.596 86.4988 107.616 86.6206 107.616 86.7662H108.616C108.616 86.5278 108.583 86.2976 108.51 86.0801L107.561 86.3963ZM107.616 86.7662C107.616 87.0414 107.55 87.1368 107.522 87.1646L108.229 87.8717C108.521 87.5796 108.616 87.1736 108.616 86.7662H107.616ZM107.51 87.177C107.472 87.2184 107.411 87.2582 107.268 87.2582V88.2582C107.637 88.2582 107.981 88.138 108.241 87.8593L107.51 87.177ZM107.268 87.2582H103.028V88.2582H107.268V87.2582ZM103.528 91.7742V89.8382H102.528V91.7742H103.528ZM103.028 90.3382H108.388V89.3382H103.028V90.3382ZM107.972 90.1155C107.999 90.1565 108.04 90.2401 108.086 90.3873L109.041 90.0891C108.98 89.895 108.904 89.7119 108.804 89.5608L107.972 90.1155ZM108.086 90.3873C108.124 90.5063 108.144 90.637 108.144 90.7822H109.144C109.144 90.5433 109.11 90.3114 109.041 90.0891L108.086 90.3873ZM108.144 90.7822C108.144 91.0574 108.078 91.1528 108.05 91.1806L108.757 91.8877C109.049 91.5956 109.144 91.1896 109.144 90.7822H108.144ZM108.038 91.193C108 91.2344 107.939 91.2742 107.796 91.2742V92.2742C108.165 92.2742 108.509 92.154 108.769 91.8753L108.038 91.193ZM107.796 91.2742H103.028V92.2742H107.796V91.2742ZM103.528 83.9662V82.0462H102.528V83.9662H103.528ZM103.028 82.5462H108.308V81.5462H103.028V82.5462ZM107.913 82.3532C107.935 82.3809 107.969 82.4417 108.001 82.559L108.967 82.3014C108.913 82.0986 108.83 81.9035 108.702 81.7392L107.913 82.3532ZM108.009 82.5883C108.044 82.6908 108.064 82.8126 108.064 82.9582H109.064C109.064 82.7198 109.031 82.4896 108.958 82.2721L108.009 82.5883ZM108.064 82.9582C108.064 83.2376 108.001 83.3538 107.963 83.3969L108.716 84.0554C108.977 83.7572 109.064 83.3614 109.064 82.9582H108.064ZM107.974 83.385C107.94 83.4221 107.876 83.4662 107.716 83.4662V84.4662C108.088 84.4662 108.441 84.3503 108.705 84.0673L107.974 83.385ZM107.716 83.4662H103.028V84.4662H107.716V83.4662ZM110.435 84.8142L110.428 84.3142L109.935 84.3214V84.8142H110.435ZM112.643 84.7822L113.141 84.7359L113.098 84.2755L112.636 84.2822L112.643 84.7822ZM112.739 86.1422L112.239 86.166V86.166L112.739 86.1422ZM112.771 87.4382H112.271L112.271 87.451L112.771 87.4382ZM112.787 91.7422L112.895 92.2303L113.287 92.1433V91.7422H112.787ZM112.323 91.8062L112.273 91.3087L112.259 91.3101L112.245 91.3123L112.323 91.8062ZM110.707 91.6142L110.376 91.9893L110.387 91.9983L110.707 91.6142ZM118.963 88.9262L118.966 89.4262L119.463 89.4226V88.9262H118.963ZM116.739 88.9422L116.241 88.9899L116.285 89.4455L116.742 89.4422L116.739 88.9422ZM116.611 86.7182L116.111 86.7258V86.7258L116.611 86.7182ZM116.595 82.0142L116.497 81.5239L116.095 81.6043V82.0142H116.595ZM118.675 82.1422L118.343 82.5159L118.349 82.5212L118.355 82.5263L118.675 82.1422ZM118.963 88.1582H119.463V87.5358L118.855 87.6699L118.963 88.1582ZM118.963 91.4382L119.302 91.8056L119.463 91.6571V91.4382H118.963ZM118.371 91.7422L118.231 91.2622L118.219 91.2658L118.207 91.2699L118.371 91.7422ZM116.467 91.6942L116.289 92.1617L116.295 92.1636L116.467 91.6942ZM115.699 90.9102L116.146 90.6865L116.141 90.6774L115.699 90.9102ZM113.763 87.2302L113.316 87.4538L113.32 87.463L113.763 87.2302ZM113.411 86.5262L112.956 86.7331L112.959 86.7415L112.964 86.7498L113.411 86.5262ZM113.091 85.8222L112.632 86.0216L112.636 86.0291L113.091 85.8222ZM112.771 85.0862L113.229 84.8868L113.064 84.5072L112.661 84.5985L112.771 85.0862ZM110.435 85.6142H109.935V86.2398L110.545 86.1019L110.435 85.6142ZM110.435 82.4622L110.026 82.1738L109.935 82.3035V82.4622H110.435ZM111.027 82.0462L110.863 81.5737L110.857 81.5757L111.027 82.0462ZM112.915 82.0782L112.737 82.5457L112.743 82.5476L112.915 82.0782ZM113.699 82.8462L113.254 83.0746L113.257 83.0797L113.699 82.8462ZM115.651 86.5422L116.094 86.3102L116.093 86.3087L115.651 86.5422ZM116.003 87.2462L115.552 87.4619L115.556 87.4698L116.003 87.2462ZM116.339 87.9502L116.794 87.7433V87.7433L116.339 87.9502ZM116.643 88.6702L116.177 88.8524L116.333 89.2506L116.751 89.1584L116.643 88.6702ZM110.442 85.3141L112.65 85.2821L112.636 84.2822L110.428 84.3142L110.442 85.3141ZM112.145 84.8285C112.187 85.2799 112.218 85.7257 112.239 86.166L113.238 86.1184C113.217 85.6627 113.184 85.2018 113.141 84.7359L112.145 84.8285ZM112.239 86.166C112.26 86.6067 112.271 87.0307 112.271 87.4382H113.271C113.271 87.0137 113.26 86.5737 113.238 86.1184L112.239 86.166ZM112.271 87.451C112.282 87.863 112.287 88.264 112.287 88.6542H113.287C113.287 88.255 113.281 87.8454 113.271 87.4254L112.271 87.451ZM112.287 88.6542V91.7422H113.287V88.6542H112.287ZM112.678 91.2541C112.613 91.2685 112.484 91.2876 112.273 91.3087L112.373 92.3037C112.588 92.2821 112.768 92.2585 112.895 92.2303L112.678 91.2541ZM112.245 91.3123C112.069 91.3401 111.887 91.3542 111.699 91.3542V92.3542C111.937 92.3542 112.171 92.3363 112.401 92.3001L112.245 91.3123ZM111.699 91.3542C111.257 91.3542 111.078 91.2729 111.027 91.2301L110.387 91.9983C110.719 92.2754 111.202 92.3542 111.699 92.3542V91.3542ZM111.038 91.2393C111.02 91.224 110.935 91.1209 110.935 90.7502H109.935C109.935 91.2114 110.031 91.6844 110.376 91.9891L111.038 91.2393ZM110.935 90.7502V84.8142H109.935V90.7502H110.935ZM118.959 88.4262L116.735 88.4422L116.742 89.4422L118.966 89.4262L118.959 88.4262ZM117.237 88.8945C117.163 88.1277 117.121 87.3998 117.111 86.7106L116.111 86.7258C116.122 87.4445 116.165 88.1993 116.241 88.9899L117.237 88.8945ZM117.111 86.7106C117.1 86.0089 117.095 85.3394 117.095 84.7022H116.095C116.095 85.3449 116.1 86.0195 116.111 86.7258L117.111 86.7106ZM117.095 84.7022V82.0142H116.095V84.7022H117.095ZM116.693 82.5045C116.789 82.4852 116.936 82.4598 117.137 82.4281L116.981 81.4403C116.776 81.4726 116.614 81.5005 116.497 81.5239L116.693 82.5045ZM117.137 82.4281C117.311 82.4005 117.499 82.3862 117.699 82.3862V81.3862C117.451 81.3862 117.212 81.4039 116.981 81.4403L117.137 82.4281ZM117.699 82.3862C118.122 82.3862 118.291 82.47 118.343 82.5159L119.007 81.7685C118.675 81.473 118.193 81.3862 117.699 81.3862V82.3862ZM118.355 82.5263C118.378 82.5454 118.463 82.6424 118.463 82.9902H119.463C119.463 82.5273 119.356 82.059 118.995 81.7581L118.355 82.5263ZM118.463 82.9902V88.9262H119.463V82.9902H118.463ZM118.463 88.1582V91.4382H119.463V88.1582H118.463ZM118.624 91.0708C118.56 91.1293 118.441 91.2008 118.231 91.2622L118.511 92.2222C118.812 92.1342 119.088 92.0031 119.302 91.8056L118.624 91.0708ZM118.207 91.2699C118.028 91.3322 117.793 91.3702 117.491 91.3702V92.3702C117.872 92.3702 118.223 92.3229 118.535 92.2144L118.207 91.2699ZM117.491 91.3702C117.183 91.3702 116.9 91.3206 116.639 91.2247L116.295 92.1636C116.673 92.3024 117.073 92.3702 117.491 92.3702V91.3702ZM116.644 91.2267C116.49 91.1681 116.314 91.0216 116.146 90.6866L115.252 91.1338C115.489 91.6095 115.825 91.9856 116.289 92.1617L116.644 91.2267ZM116.141 90.6774L114.205 86.9974L113.32 87.463L115.256 91.143L116.141 90.6774ZM114.21 87.0066C114.093 86.7719 113.975 86.5372 113.858 86.3026L112.964 86.7498C113.081 86.9845 113.198 87.2191 113.316 87.4538L114.21 87.0066ZM113.866 86.3193C113.759 86.0846 113.653 85.85 113.546 85.6153L112.636 86.0291C112.742 86.2638 112.849 86.4984 112.956 86.7331L113.866 86.3193ZM113.549 85.6228C113.527 85.5714 113.532 85.5822 113.509 85.5308C113.487 85.4794 113.492 85.4902 113.469 85.4388C113.447 85.3874 113.452 85.3982 113.429 85.3468C113.407 85.2954 113.412 85.3062 113.389 85.2548C113.385 85.2439 113.384 85.2428 113.379 85.2318C113.375 85.2209 113.374 85.2198 113.369 85.2088C113.365 85.1979 113.364 85.1968 113.359 85.1858C113.355 85.1749 113.354 85.1738 113.349 85.1628C113.345 85.1519 113.344 85.1508 113.339 85.1398C113.335 85.1289 113.334 85.1278 113.329 85.1168C113.325 85.1059 113.324 85.1048 113.319 85.0938C113.315 85.0829 113.314 85.0818 113.309 85.0708C113.303 85.0566 113.276 84.9931 113.269 84.9788C113.263 84.9646 113.236 84.9011 113.229 84.8868L112.312 85.2856C112.373 85.4253 112.412 85.5138 112.472 85.6536C112.479 85.6678 112.506 85.7313 112.512 85.7456C112.519 85.7598 112.546 85.8233 112.552 85.8376C112.559 85.8518 112.586 85.9153 112.592 85.9296C112.599 85.9438 112.626 86.0073 112.632 86.0216L113.549 85.6228ZM112.661 84.5985L110.325 85.1265L110.545 86.1019L112.881 85.5739L112.661 84.5985ZM110.935 85.6142V82.4622H109.935V85.6142H110.935ZM110.843 82.7505C110.898 82.6735 110.999 82.5875 111.196 82.5166L110.857 81.5757C110.521 81.6969 110.228 81.8882 110.026 82.1738L110.843 82.7505ZM111.19 82.5187C111.411 82.4425 111.653 82.4022 111.923 82.4022V81.4022C111.552 81.4022 111.198 81.4579 110.863 81.5737L111.19 82.5187ZM111.923 82.4022C112.218 82.4022 112.488 82.4512 112.738 82.5457L113.092 81.6107C112.723 81.4705 112.332 81.4022 111.923 81.4022V82.4022ZM112.743 82.5476C112.913 82.6099 113.091 82.757 113.254 83.0746L114.144 82.6178C113.901 82.1461 113.557 81.7811 113.087 81.6087L112.743 82.5476ZM113.257 83.0797L115.209 86.7757L116.093 86.3087L114.141 82.6127L113.257 83.0797ZM115.208 86.7742C115.322 86.9924 115.437 87.2217 115.552 87.4619L116.454 87.0305C116.334 86.7801 116.214 86.5399 116.094 86.3102L115.208 86.7742ZM115.556 87.4698C115.67 87.699 115.78 87.9281 115.884 88.1571L116.794 87.7433C116.685 87.5029 116.57 87.2627 116.45 87.0226L115.556 87.4698ZM115.884 88.1571C115.987 88.3834 116.084 88.6152 116.177 88.8524L117.108 88.488C117.009 88.2345 116.904 87.9863 116.794 87.7433L115.884 88.1571ZM116.751 89.1584L119.071 88.6464L118.855 87.6699L116.535 88.1819L116.751 89.1584ZM127.168 85.1342L126.723 85.362L126.727 85.37L127.168 85.1342ZM126.176 84.1102L125.93 84.5457L125.937 84.5494L125.944 84.5529L126.176 84.1102ZM124.16 83.7902L124.191 84.2892L124.205 84.2884L124.218 84.2868L124.16 83.7902ZM123.632 83.8382L123.574 83.3416L123.132 83.3936V83.8382H123.632ZM123.632 89.9022H123.132V90.3121L123.534 90.3925L123.632 89.9022ZM124.176 89.9822L124.124 90.4794L124.137 90.4808L124.15 90.4815L124.176 89.9822ZM126.768 89.2142L126.411 88.8643L126.407 88.8681L126.768 89.2142ZM129.376 89.7102L128.946 89.4556L128.943 89.4601L129.376 89.7102ZM127.52 91.4222L127.734 91.8742L127.736 91.8729L127.52 91.4222ZM123.44 91.9022L123.492 91.4048L123.482 91.4039L123.44 91.9022ZM122.048 91.6142L121.876 92.0838L121.879 92.0848L122.048 91.6142ZM121.392 82.4142L121.728 82.7842L121.737 82.7762L121.746 82.7677L121.392 82.4142ZM121.856 82.1262L121.702 81.6507L121.688 81.655L121.675 81.6602L121.856 82.1262ZM127.44 82.3502L127.231 82.8044L127.238 82.8076L127.44 82.3502ZM129.36 84.0142L129.786 83.7525V83.7525L129.36 84.0142ZM128.036 86.8942C128.036 86.1265 127.905 85.4516 127.609 84.8984L126.727 85.37C126.922 85.7341 127.036 86.2325 127.036 86.8942H128.036ZM127.613 84.9064C127.335 84.3626 126.933 83.9429 126.408 83.6675L125.944 84.5529C126.272 84.7255 126.532 84.9884 126.723 85.3619L127.613 84.9064ZM126.422 83.6747C125.919 83.3914 125.347 83.2582 124.72 83.2582V84.2582C125.203 84.2582 125.601 84.3597 125.93 84.5457L126.422 83.6747ZM124.72 83.2582C124.51 83.2582 124.303 83.2699 124.102 83.2936L124.218 84.2868C124.379 84.2678 124.547 84.2582 124.72 84.2582V83.2582ZM124.129 83.2912C123.949 83.3024 123.763 83.3193 123.574 83.3416L123.69 84.3348C123.863 84.3144 124.03 84.2993 124.191 84.2892L124.129 83.2912ZM123.132 83.8382V89.9022H124.132V83.8382H123.132ZM123.534 90.3925C123.712 90.4281 123.909 90.4569 124.124 90.4794L124.228 89.4849C124.038 89.4648 123.872 89.4402 123.73 89.4119L123.534 90.3925ZM124.15 90.4815C124.36 90.4926 124.561 90.4982 124.752 90.4982V89.4982C124.58 89.4982 124.397 89.4931 124.202 89.4829L124.15 90.4815ZM124.752 90.4982C125.707 90.4982 126.518 90.1975 127.129 89.5603L126.407 88.8681C126.016 89.2762 125.483 89.4982 124.752 89.4982V90.4982ZM127.125 89.5641C127.76 88.916 128.036 87.9961 128.036 86.8942H127.036C127.036 87.8403 126.8 88.4671 126.411 88.8643L127.125 89.5641ZM129.548 86.8462C129.548 87.9356 129.336 88.7957 128.946 89.4556L129.806 89.9648C130.312 89.11 130.548 88.0607 130.548 86.8462H129.548ZM128.943 89.4601C128.557 90.1289 128.014 90.6303 127.304 90.9714L127.736 91.8729C128.626 91.4461 129.321 90.8061 129.809 89.9602L128.943 89.4601ZM127.306 90.9702C126.597 91.3057 125.745 91.4822 124.736 91.4822V92.4822C125.861 92.4822 126.865 92.2853 127.734 91.8742L127.306 90.9702ZM124.736 91.4822C124.407 91.4822 123.994 91.4572 123.492 91.4049L123.388 92.3995C123.91 92.4539 124.361 92.4822 124.736 92.4822V91.4822ZM123.482 91.4039C123.006 91.3643 122.586 91.276 122.217 91.1436L121.879 92.0848C122.342 92.251 122.85 92.3547 123.399 92.4005L123.482 91.4039ZM122.22 91.1446C122.004 91.0658 121.885 90.9725 121.819 90.8876C121.757 90.8081 121.716 90.7026 121.716 90.5422H120.716C120.716 90.8938 120.813 91.223 121.029 91.5007C121.241 91.7732 121.537 91.9599 121.876 92.0838L122.22 91.1446ZM121.716 90.5422V82.8942H120.716V90.5422H121.716ZM121.716 82.8942C121.716 82.8321 121.725 82.7993 121.73 82.7863C121.733 82.7762 121.734 82.7792 121.728 82.7842L121.056 82.0442C120.802 82.2752 120.716 82.5909 120.716 82.8942H121.716ZM121.746 82.7677C121.804 82.7098 121.895 82.6476 122.037 82.5922L121.675 81.6602C121.433 81.7541 121.215 81.884 121.039 82.0606L121.746 82.7677ZM122.011 82.6017C122.398 82.4758 122.819 82.392 123.275 82.3523L123.189 81.3561C122.664 81.4017 122.168 81.4992 121.702 81.6507L122.011 82.6017ZM123.275 82.3523C123.755 82.3106 124.188 82.2902 124.576 82.2902V81.2902C124.154 81.2902 123.691 81.3124 123.189 81.3561L123.275 82.3523ZM124.576 82.2902C125.619 82.2902 126.499 82.4674 127.231 82.8043L127.649 81.896C126.76 81.4864 125.731 81.2902 124.576 81.2902V82.2902ZM127.238 82.8076C127.969 83.1303 128.53 83.6179 128.934 84.2759L129.786 83.7525C129.273 82.9171 128.554 82.2954 127.642 81.8928L127.238 82.8076ZM128.934 84.2759C129.332 84.9234 129.548 85.7699 129.548 86.8462H130.548C130.548 85.6398 130.306 84.5983 129.786 83.7525L128.934 84.2759Z" fill="url(#paint11_linear_4299_22492)" style="mix-blend-mode:darken" mask="url(#path-21-outside-3_4299_22492)"/>
<circle cx="163.494" cy="91.3516" r="3.25" fill="white"/>
<circle cx="163.494" cy="91.3516" r="3.25" stroke="url(#paint12_linear_4299_22492)" stroke-width="0.5" stroke-linecap="round" style="mix-blend-mode:darken"/>
<defs>
<filter id="filter0_dd_4299_22492" x="29.6602" y="0.564941" width="141.555" height="150.555" filterUnits="userSpaceOnUse" color-interpolation-filters="sRGB">
<feFlood flood-opacity="0" result="BackgroundImageFix"/>
<feColorMatrix in="SourceAlpha" type="matrix" values="0 0 0 0 0 0 0 0 0 0 0 0 0 0 0 0 0 0 127 0" result="hardAlpha"/>
<feOffset dy="5"/>
<feGaussianBlur stdDeviation="5.5"/>
<feColorMatrix type="matrix" values="0 0 0 0 0 0 0 0 0 0 0 0 0 0 0 0 0 0 0.24 0"/>
<feBlend mode="normal" in2="BackgroundImageFix" result="effect1_dropShadow_4299_22492"/>
<feColorMatrix in="SourceAlpha" type="matrix" values="0 0 0 0 0 0 0 0 0 0 0 0 0 0 0 0 0 0 127 0" result="hardAlpha"/>
<feOffset dy="15"/>
<feGaussianBlur stdDeviation="10.5"/>
<feColorMatrix type="matrix" values="0 0 0 0 0 0 0 0 0 0 0 0 0 0 0 0 0 0 0.17 0"/>
<feBlend mode="normal" in2="effect1_dropShadow_4299_22492" result="effect2_dropShadow_4299_22492"/>
<feBlend mode="normal" in="SourceGraphic" in2="effect2_dropShadow_4299_22492" result="shape"/>
</filter>
<filter id="filter1_d_4299_22492" x="43.1602" y="1.06738" width="114.555" height="123.555" filterUnits="userSpaceOnUse" color-interpolation-filters="sRGB">
<feFlood flood-opacity="0" result="BackgroundImageFix"/>
<feColorMatrix in="SourceAlpha" type="matrix" values="0 0 0 0 0 0 0 0 0 0 0 0 0 0 0 0 0 0 127 0" result="hardAlpha"/>
<feOffset dy="2"/>
<feGaussianBlur stdDeviation="4"/>
<feColorMatrix type="matrix" values="0 0 0 0 0 0 0 0 0 0 0 0 0 0 0 0 0 0 0.16 0"/>
<feBlend mode="color-burn" in2="BackgroundImageFix" result="effect1_dropShadow_4299_22492"/>
<feBlend mode="normal" in="SourceGraphic" in2="effect1_dropShadow_4299_22492" result="shape"/>
</filter>
<filter id="filter2_d_4299_22492" x="68.623" y="23.0947" width="63.5039" height="63.0132" filterUnits="userSpaceOnUse" color-interpolation-filters="sRGB">
<feFlood flood-opacity="0" result="BackgroundImageFix"/>
<feColorMatrix in="SourceAlpha" type="matrix" values="0 0 0 0 0 0 0 0 0 0 0 0 0 0 0 0 0 0 127 0" result="hardAlpha"/>
<feOffset dy="2"/>
<feGaussianBlur stdDeviation="6"/>
<feColorMatrix type="matrix" values="0 0 0 0 0 0 0 0 0 0 0 0 0 0 0 0 0 0 0.12 0"/>
<feBlend mode="plus-darker" in2="BackgroundImageFix" result="effect1_dropShadow_4299_22492"/>
<feBlend mode="normal" in="SourceGraphic" in2="effect1_dropShadow_4299_22492" result="shape"/>
</filter>
<filter id="filter3_dd_4299_22492" x="0.873047" y="72.3516" width="199.258" height="62.0913" filterUnits="userSpaceOnUse" color-interpolation-filters="sRGB">
<feFlood flood-opacity="0" result="BackgroundImageFix"/>
<feColorMatrix in="SourceAlpha" type="matrix" values="0 0 0 0 0 0 0 0 0 0 0 0 0 0 0 0 0 0 127 0" result="hardAlpha"/>
<feOffset dy="4"/>
<feGaussianBlur stdDeviation="6"/>
<feColorMatrix type="matrix" values="0 0 0 0 0 0 0 0 0 0 0 0 0 0 0 0 0 0 0.16 0"/>
<feBlend mode="normal" in2="BackgroundImageFix" result="effect1_dropShadow_4299_22492"/>
<feColorMatrix in="SourceAlpha" type="matrix" values="0 0 0 0 0 0 0 0 0 0 0 0 0 0 0 0 0 0 127 0" result="hardAlpha"/>
<feOffset dy="2"/>
<feGaussianBlur stdDeviation="2"/>
<feColorMatrix type="matrix" values="0 0 0 0 0 0 0 0 0 0 0 0 0 0 0 0 0 0 0.24 0"/>
<feBlend mode="normal" in2="effect1_dropShadow_4299_22492" result="effect2_dropShadow_4299_22492"/>
<feBlend mode="normal" in="SourceGraphic" in2="effect2_dropShadow_4299_22492" result="shape"/>
</filter>
<filter id="filter4_dd_4299_22492" x="16.4941" y="60.3516" width="171" height="62" filterUnits="userSpaceOnUse" color-interpolation-filters="sRGB">
<feFlood flood-opacity="0" result="BackgroundImageFix"/>
<feColorMatrix in="SourceAlpha" type="matrix" values="0 0 0 0 0 0 0 0 0 0 0 0 0 0 0 0 0 0 127 0" result="hardAlpha"/>
<feOffset dy="4"/>
<feGaussianBlur stdDeviation="6"/>
<feColorMatrix type="matrix" values="0 0 0 0 0 0 0 0 0 0 0 0 0 0 0 0 0 0 0.16 0"/>
<feBlend mode="normal" in2="BackgroundImageFix" result="effect1_dropShadow_4299_22492"/>
<feColorMatrix in="SourceAlpha" type="matrix" values="0 0 0 0 0 0 0 0 0 0 0 0 0 0 0 0 0 0 127 0" result="hardAlpha"/>
<feOffset dy="2"/>
<feGaussianBlur stdDeviation="2"/>
<feColorMatrix type="matrix" values="0 0 0 0 0 0 0 0 0 0 0 0 0 0 0 0 0 0 0.24 0"/>
<feBlend mode="normal" in2="effect1_dropShadow_4299_22492" result="effect2_dropShadow_4299_22492"/>
<feBlend mode="normal" in="SourceGraphic" in2="effect2_dropShadow_4299_22492" result="shape"/>
</filter>
<linearGradient id="paint0_linear_4299_22492" x1="100.369" y1="2.49568" x2="100.369" y2="117.49" gradientUnits="userSpaceOnUse">
<stop stop-color="white"/>
<stop offset="1" stop-color="white" stop-opacity="0"/>
</linearGradient>
<radialGradient id="paint1_radial_4299_22492" cx="0" cy="0" r="1" gradientUnits="userSpaceOnUse" gradientTransform="translate(100.369 35.526) rotate(90) scale(75.8473 57.5617)">
<stop stop-color="white"/>
<stop offset="1" stop-color="white" stop-opacity="0"/>
</radialGradient>
<linearGradient id="paint2_linear_4299_22492" x1="149.421" y1="9.04116" x2="149.421" y2="114.69" gradientUnits="userSpaceOnUse">
<stop stop-color="#49F0BC"/>
<stop offset="1" stop-color="#29DCCC"/>
</linearGradient>
<linearGradient id="paint3_linear_4299_22492" x1="99.8381" y1="2.49812" x2="99.8381" y2="117.492" gradientUnits="userSpaceOnUse">
<stop stop-color="white"/>
<stop offset="1" stop-color="white" stop-opacity="0"/>
</linearGradient>
<radialGradient id="paint4_radial_4299_22492" cx="0" cy="0" r="1" gradientUnits="userSpaceOnUse" gradientTransform="translate(99.8381 35.5284) rotate(90) scale(75.8473 57.5617)">
<stop stop-color="white"/>
<stop offset="1" stop-color="white" stop-opacity="0"/>
</radialGradient>
<linearGradient id="paint5_linear_4299_22492" x1="25.502" y1="-14.4648" x2="25.502" y2="135.231" gradientUnits="userSpaceOnUse">
<stop stop-color="white"/>
<stop offset="1" stop-color="white" stop-opacity="0.01"/>
</linearGradient>
<linearGradient id="paint6_linear_4299_22492" x1="100.438" y1="7.06738" x2="100.438" y2="114.622" gradientUnits="userSpaceOnUse">
<stop stop-color="white"/>
<stop offset="1" stop-color="#999999"/>
</linearGradient>
<linearGradient id="paint7_linear_4299_22492" x1="100.375" y1="33.5947" x2="100.375" y2="71.6081" gradientUnits="userSpaceOnUse">
<stop stop-color="#DFDFDF"/>
<stop offset="1" stop-color="#A9A9A9"/>
</linearGradient>
<linearGradient id="paint8_linear_4299_22492" x1="98.5027" y1="80.3516" x2="98.5027" y2="118.443" gradientUnits="userSpaceOnUse">
<stop stop-opacity="0"/>
<stop offset="1" stop-opacity="0.16"/>
</linearGradient>
<linearGradient id="paint9_linear_4299_22492" x1="101.994" y1="68.3516" x2="101.994" y2="106.352" gradientUnits="userSpaceOnUse">
<stop stop-opacity="0"/>
<stop offset="1" stop-opacity="0.16"/>
</linearGradient>
<linearGradient id="paint10_linear_4299_22492" x1="39.4941" y1="88.3516" x2="39.4941" y2="94.3516" gradientUnits="userSpaceOnUse">
<stop stop-opacity="0.1"/>
<stop offset="1" stop-opacity="0.3"/>
</linearGradient>
<linearGradient id="paint11_linear_4299_22492" x1="101.994" y1="80.7422" x2="101.994" y2="93.9596" gradientUnits="userSpaceOnUse">
<stop stop-opacity="0.1"/>
<stop offset="1" stop-opacity="0.3"/>
</linearGradient>
<linearGradient id="paint12_linear_4299_22492" x1="163.494" y1="88.3516" x2="163.494" y2="94.3516" gradientUnits="userSpaceOnUse">
<stop stop-opacity="0.1"/>
<stop offset="1" stop-opacity="0.3"/>
</linearGradient>
</defs>
</svg>
