<svg width="345" height="285" viewBox="0 0 345 285" fill="none" xmlns="http://www.w3.org/2000/svg">
<path d="M312.603 143.593C312.579 174.445 302.67 204.447 284.377 229.054C274.63 241.946 262.821 253.078 249.444 261.984C231.359 274.017 210.761 281.585 189.292 284.085C167.822 286.584 146.075 283.947 125.786 276.382C105.496 268.817 87.2243 256.534 72.4279 240.513C57.6315 224.492 46.7196 205.175 40.5623 184.104C34.405 163.032 33.1726 140.789 36.9634 119.147C40.7542 97.5055 49.4634 77.064 62.3965 59.4529C75.3295 41.8419 92.1287 27.5484 111.454 17.7122C130.78 7.876 152.098 2.76932 173.707 2.79914C200.569 2.82701 226.857 10.7038 249.444 25.4924C262.821 34.399 274.63 45.5308 284.377 58.4223C302.824 82.8354 312.755 112.802 312.603 143.593Z" fill="#F9F7FF"/>
<path opacity="0.2" d="M284.377 58.161V228.758C274.631 241.649 262.821 252.781 249.444 261.688H108.316V48.4826C108.528 42.2503 111.135 36.3511 115.576 32.0526C120.017 27.7542 125.939 25.3992 132.068 25.4938H249.444C262.871 34.2283 274.694 45.2839 284.377 58.161Z" fill="#3A61E9"/>
<path d="M258.945 55.8897H179.579V25.4937H284.377C292.238 25.6851 299.713 29.0023 305.198 34.7338C310.684 40.4652 313.743 48.1548 313.721 56.1539H279.351" fill="#B2C0F1"/>
<path d="M286.615 25.4938C280.647 25.877 275.004 28.3964 270.687 32.6057C270.244 33.0166 269.867 33.4943 269.568 34.0219C265.724 38.4115 263.544 44.0512 263.42 49.9284V231.591C263.435 235.626 262.665 239.624 261.153 243.353C259.641 247.083 257.418 250.472 254.611 253.322C251.804 256.173 248.47 258.43 244.802 259.963C241.133 261.495 237.202 262.273 233.236 262.252H86.7974V48.5111C87.0016 42.2735 89.6049 36.3668 94.0471 32.0621C98.4893 27.7574 104.415 25.3987 110.55 25.4938H286.614H286.615Z" fill="white"/>
<path d="M286.611 25.4937C280.643 25.8774 275 28.3967 270.683 32.6056C270.241 33.0166 269.865 33.4943 269.566 34.0218C265.721 38.4105 263.54 44.0505 263.416 49.9284V231.591" stroke="#182052" stroke-miterlimit="10" stroke-linecap="round" stroke-linejoin="round"/>
<path d="M234.072 66.9565H190.756C190.016 66.9565 189.307 66.6586 188.783 66.1279C188.258 65.5971 187.962 64.8767 187.958 64.1243C188.003 63.3825 188.311 62.6825 188.826 62.1554C189.341 61.6283 190.027 61.3102 190.756 61.2608H234.353C234.722 61.2608 235.087 61.335 235.428 61.4792C235.769 61.6233 236.078 61.8345 236.338 62.1007C236.598 62.3668 236.803 62.6825 236.943 63.0298C237.083 63.3771 237.153 63.7491 237.151 64.1243C237.081 64.9032 236.725 65.6269 236.155 66.1515C235.585 66.6762 234.841 66.9635 234.072 66.9565V66.9565Z" fill="#B2C0F1"/>
<path d="M170.357 66.9565H113.624C112.885 66.9565 112.175 66.6586 111.651 66.1279C111.127 65.5971 110.83 64.8767 110.827 64.1243C110.871 63.3827 111.18 62.6831 111.695 62.1561C112.21 61.6291 112.896 61.3108 113.624 61.2608H170.357C171.099 61.2608 171.81 61.5607 172.335 62.0944C172.859 62.6281 173.154 63.352 173.154 64.1067C173.154 64.8615 172.859 65.5853 172.335 66.119C171.81 66.6526 171.099 66.9525 170.357 66.9525V66.9565Z" fill="#B2C0F1"/>
<path d="M206.686 95.6096H150.233C149.495 95.6096 148.786 95.3113 148.264 94.78C147.742 94.2487 147.448 93.5281 147.448 92.7767C147.448 92.0254 147.742 91.3049 148.264 90.7736C148.786 90.2423 149.495 89.9438 150.233 89.9438H206.685C207.424 89.9438 208.134 90.2417 208.658 90.7725C209.182 91.3032 209.479 92.0237 209.482 92.7761C209.505 93.1552 209.449 93.535 209.316 93.8902C209.184 94.2454 208.978 94.5678 208.714 94.8359C208.449 95.104 208.132 95.3117 207.782 95.4452C207.432 95.5786 207.059 95.6346 206.686 95.6096V95.6096Z" fill="#B2C0F1"/>
<path d="M132.064 95.6096H113.624C112.886 95.6096 112.177 95.3113 111.655 94.78C111.133 94.2487 110.839 93.5281 110.839 92.7767C110.839 92.0254 111.133 91.3049 111.655 90.7736C112.177 90.2423 112.886 89.9438 113.624 89.9438H132.064C132.802 89.9438 133.511 90.2423 134.033 90.7736C134.555 91.3049 134.849 92.0254 134.849 92.7767C134.849 93.5281 134.555 94.2487 134.033 94.78C133.511 95.3113 132.802 95.6096 132.064 95.6096Z" fill="#B2C0F1"/>
<path d="M234.074 124.59H199.419C198.677 124.59 197.966 124.29 197.441 123.756C196.916 123.223 196.621 122.499 196.621 121.744C196.621 120.989 196.916 120.265 197.441 119.732C197.966 119.198 198.677 118.898 199.419 118.898H234.074C234.814 118.898 235.523 119.196 236.048 119.727C236.572 120.258 236.868 120.979 236.871 121.732C236.897 122.113 236.842 122.495 236.71 122.852C236.579 123.21 236.374 123.535 236.109 123.806C235.844 124.076 235.526 124.286 235.175 124.421C234.824 124.557 234.448 124.614 234.074 124.59V124.59Z" fill="#B2C0F1"/>
<path d="M182.932 124.59H113.624C112.882 124.59 112.171 124.29 111.646 123.756C111.121 123.223 110.827 122.499 110.827 121.744C110.827 120.989 111.121 120.265 111.646 119.732C112.171 119.198 112.882 118.898 113.624 118.898H182.932C183.674 118.898 184.386 119.198 184.91 119.732C185.435 120.265 185.73 120.989 185.73 121.744C185.73 122.499 185.435 123.223 184.91 123.756C184.386 124.29 183.674 124.59 182.932 124.59Z" fill="#B2C0F1"/>
<path d="M206.686 153.243H168.4C167.66 153.243 166.95 152.945 166.426 152.413C165.902 151.882 165.606 151.162 165.602 150.409C165.653 149.672 165.964 148.979 166.478 148.458C166.993 147.937 167.675 147.623 168.4 147.575H206.686C207.057 147.567 207.426 147.634 207.771 147.773C208.116 147.912 208.43 148.119 208.695 148.383C208.96 148.647 209.171 148.962 209.315 149.31C209.458 149.657 209.533 150.031 209.533 150.408C209.533 150.786 209.458 151.159 209.315 151.507C209.171 151.855 208.96 152.17 208.695 152.434C208.43 152.698 208.116 152.905 207.771 153.044C207.426 153.182 207.057 153.249 206.686 153.241V153.243Z" fill="#B2C0F1"/>
<path d="M151.913 153.243H113.627C112.887 153.243 112.177 152.945 111.653 152.413C111.129 151.882 110.833 151.162 110.829 150.409C110.88 149.672 111.191 148.979 111.706 148.458C112.22 147.937 112.903 147.624 113.627 147.575H151.913C152.284 147.567 152.653 147.634 152.998 147.773C153.343 147.912 153.657 148.119 153.922 148.383C154.187 148.647 154.398 148.962 154.542 149.31C154.685 149.657 154.76 150.031 154.76 150.408C154.76 150.786 154.685 151.159 154.542 151.507C154.398 151.855 154.187 152.17 153.922 152.434C153.657 152.698 153.343 152.905 152.998 153.044C152.653 153.182 152.284 153.249 151.913 153.241V153.243Z" fill="#B2C0F1"/>
<path d="M234.072 182.222H207.524C206.782 182.222 206.07 181.922 205.546 181.388C205.021 180.855 204.726 180.131 204.726 179.376C204.726 178.621 205.021 177.897 205.546 177.364C206.07 176.83 206.782 176.53 207.524 176.53H234.072C234.812 176.53 235.521 176.828 236.046 177.359C236.57 177.89 236.866 178.61 236.87 179.363C236.893 179.743 236.837 180.124 236.704 180.481C236.572 180.838 236.367 181.162 236.103 181.432C235.838 181.702 235.521 181.912 235.171 182.048C234.821 182.185 234.446 182.244 234.072 182.222V182.222Z" fill="#B2C0F1"/>
<path d="M190.201 182.222H145.486C144.744 182.222 144.032 181.922 143.508 181.388C142.983 180.855 142.688 180.131 142.688 179.376C142.688 178.621 142.983 177.897 143.508 177.364C144.032 176.83 144.744 176.53 145.486 176.53H190.201C190.94 176.53 191.65 176.828 192.174 177.359C192.698 177.89 192.995 178.61 192.998 179.363C193.022 179.743 192.965 180.124 192.833 180.481C192.701 180.838 192.496 181.162 192.232 181.432C191.967 181.703 191.65 181.913 191.3 182.049C190.949 182.185 190.575 182.244 190.201 182.222Z" fill="#B2C0F1"/>
<path d="M128.996 182.222H113.346C112.604 182.222 111.893 181.922 111.368 181.388C110.843 180.855 110.549 180.131 110.549 179.376C110.549 178.621 110.843 177.897 111.368 177.364C111.893 176.83 112.604 176.53 113.346 176.53H128.996C129.738 176.53 130.45 176.83 130.974 177.364C131.499 177.897 131.794 178.621 131.794 179.376C131.794 180.131 131.499 180.855 130.974 181.388C130.45 181.922 129.738 182.222 128.996 182.222V182.222Z" fill="#B2C0F1"/>
<path d="M206.686 210.876H180.136C179.397 210.876 178.687 210.578 178.163 210.047C177.639 209.516 177.342 208.796 177.339 208.044C177.389 207.307 177.7 206.614 178.215 206.093C178.729 205.572 179.412 205.258 180.136 205.21H206.685C207.056 205.202 207.424 205.269 207.769 205.408C208.114 205.546 208.429 205.754 208.694 206.018C208.959 206.282 209.169 206.597 209.313 206.944C209.457 207.292 209.531 207.666 209.531 208.043C209.531 208.42 209.457 208.794 209.313 209.142C209.169 209.489 208.959 209.805 208.694 210.069C208.429 210.332 208.114 210.54 207.769 210.678C207.424 210.817 207.056 210.884 206.685 210.876H206.686Z" fill="#B2C0F1"/>
<path d="M162.813 210.875H113.624C112.885 210.875 112.175 210.577 111.651 210.046C111.127 209.516 110.83 208.795 110.827 208.043C110.877 207.306 111.188 206.613 111.703 206.092C112.217 205.571 112.9 205.257 113.624 205.209H162.813C163.553 205.209 164.262 205.508 164.787 206.039C165.311 206.57 165.607 207.29 165.61 208.043C165.56 208.779 165.248 209.472 164.734 209.993C164.219 210.514 163.537 210.827 162.813 210.875V210.875Z" fill="#B2C0F1"/>
<path d="M168.961 237.848H207.525C207.489 241.021 208.091 244.167 209.293 247.095C210.494 250.023 212.271 252.67 214.514 254.875C216.708 257.13 219.319 258.919 222.197 260.14C225.075 261.361 228.163 261.989 231.282 261.987H57.169C54.0459 262.022 50.9485 261.409 48.0657 260.187C45.1829 258.964 42.575 257.157 40.4012 254.875C38.1875 252.648 36.4301 249.996 35.2305 247.074C34.031 244.151 33.4131 241.015 33.4127 237.848H147.712C148.001 237.848 169.239 238.143 168.961 237.848Z" fill="#B2C0F1"/>
<path d="M107.478 237.848H106.079" stroke="#182052" stroke-miterlimit="10" stroke-linecap="round" stroke-linejoin="round"/>
<path d="M231.279 261.987C228.156 262.022 225.059 261.409 222.176 260.186C219.293 258.964 216.685 257.157 214.511 254.875C212.298 252.648 210.541 249.996 209.342 247.074C208.143 244.151 207.525 241.015 207.525 237.848H116.419" stroke="#182052" stroke-miterlimit="10" stroke-linecap="round" stroke-linejoin="round"/>
<path d="M86.7976 128.542V238.142H33.4181C33.3824 241.314 33.9838 244.461 35.1855 247.389C36.3872 250.317 38.1639 252.964 40.4067 255.169C44.8793 259.656 50.893 262.196 57.1744 262.251H231.002C251.117 262.251 262.86 247.496 262.86 231.591" stroke="#182052" stroke-miterlimit="10" stroke-linecap="round" stroke-linejoin="round"/>
<path d="M276.555 55.8883H314.003C314.003 55.8883 313.724 52.4653 313.724 51.9043C312.047 38.2702 302.268 27.204 288.292 25.4925C285.495 25.2215 107.757 25.2214 110.551 25.2214C104.383 25.148 98.4345 27.5459 93.9902 31.897C89.5459 36.2481 86.9627 42.2032 86.7987 48.4757V106.404" stroke="#182052" stroke-miterlimit="10" stroke-linecap="round" stroke-linejoin="round"/>
<path d="M59.6426 32.5457C60.9517 32.1085 62.1042 31.2864 62.9543 30.1833C63.8044 29.0802 64.3141 27.7456 64.419 26.348C64.5239 24.9504 64.2192 23.5525 63.5435 22.3309C62.8679 21.1093 61.8515 20.1188 60.6228 19.4844C59.394 18.8501 58.0081 18.6003 56.64 18.7668C55.2718 18.9333 53.9829 19.5086 52.9359 20.4199C51.8889 21.3312 51.1309 22.5376 50.7576 23.8868C50.3842 25.2361 50.4124 26.6676 50.8384 28.0006C51.1212 28.8884 51.5736 29.7106 52.1697 30.42C52.7658 31.1295 53.4938 31.7121 54.3119 32.1345C55.13 32.5568 56.0221 32.8106 56.9369 32.8812C57.8517 32.9518 58.7712 32.8377 59.6426 32.5457V32.5457Z" fill="#E2EBFF"/>
<path d="M74.8971 9.41301C75.7885 9.11685 76.5737 8.55847 77.1534 7.80857C77.733 7.05867 78.0812 6.15079 78.1539 5.19968C78.2265 4.24858 78.0205 3.29693 77.5617 2.46491C77.1029 1.63289 76.412 0.957906 75.5762 0.525156C74.7405 0.0924055 73.7974 -0.0787328 72.8661 0.0335183C71.9349 0.145769 71.0572 0.536297 70.344 1.15575C69.6308 1.7752 69.1141 2.59581 68.8592 3.51386C68.6042 4.4319 68.6225 5.40615 68.9117 6.31364C69.3026 7.53115 70.1524 8.54135 71.2744 9.12236C72.3965 9.70338 73.6993 9.80791 74.8971 9.41301V9.41301Z" fill="#E2EBFF"/>
<path d="M12.5111 162.067C13.4027 161.771 14.1881 161.213 14.7679 160.463C15.3477 159.713 15.696 158.805 15.7687 157.854C15.8414 156.903 15.6354 155.951 15.1765 155.119C14.7177 154.287 14.0266 153.611 13.1908 153.179C12.3549 152.746 11.4116 152.575 10.4803 152.687C9.54889 152.8 8.67122 153.191 7.95808 153.81C7.24494 154.43 6.72842 155.251 6.47371 156.169C6.21901 157.087 6.23753 158.062 6.52705 158.969C6.71926 159.573 7.02671 160.132 7.43169 160.614C7.83667 161.097 8.3313 161.494 8.88719 161.781C9.44308 162.069 10.0493 162.243 10.6712 162.292C11.293 162.341 11.9183 162.264 12.5111 162.067Z" fill="#3A61E9"/>
<path d="M341.269 102.487C342.817 101.045 343.91 99.1684 344.409 97.0947C344.909 95.0209 344.793 92.8429 344.076 90.8362C343.359 88.8295 342.074 87.0842 340.382 85.8206C338.69 84.557 336.668 83.8319 334.571 83.7372C332.474 83.6426 330.396 84.1825 328.601 85.2886C326.806 86.3947 325.373 88.0173 324.484 89.9515C323.595 91.8857 323.29 94.0446 323.607 96.1552C323.924 98.2659 324.849 100.234 326.265 101.81C327.204 102.861 328.337 103.713 329.601 104.317C330.865 104.921 332.234 105.264 333.629 105.327C335.023 105.39 336.417 105.171 337.728 104.684C339.039 104.197 340.243 103.45 341.269 102.487V102.487Z" fill="#F9F7FF"/>
<path d="M342.071 54.1204C342.721 53.5121 343.178 52.7216 343.386 51.8488C343.594 50.9761 343.543 50.0602 343.24 49.2169C342.936 48.3737 342.393 47.6409 341.681 47.1111C340.968 46.5813 340.117 46.2783 339.235 46.2405C338.353 46.2026 337.479 46.4317 336.725 46.8985C335.971 47.3653 335.37 48.049 334.998 48.8633C334.625 49.6775 334.499 50.5857 334.634 51.4732C334.768 52.3606 335.159 53.1875 335.756 53.8493C336.151 54.2923 336.628 54.6513 337.161 54.905C337.694 55.1588 338.27 55.3025 338.858 55.3277C339.445 55.3529 340.032 55.2591 340.584 55.0519C341.135 54.8447 341.641 54.528 342.071 54.1204Z" fill="#3A61E9"/>
<path d="M93.782 95.0482C93.8522 99.5973 92.1634 103.993 89.0793 107.288C85.9953 110.582 81.7626 112.514 77.2926 112.665H72.8218L60.5247 112.936C53.902 113.096 47.3815 111.255 41.7872 107.646C36.193 104.036 31.7763 98.8209 29.0953 92.6585C26.4144 86.4962 25.5896 79.6635 26.7252 73.0244C27.8608 66.3853 30.9059 60.2377 35.4755 55.3587C40.0451 50.4798 45.934 47.0886 52.3979 45.6137C58.8619 44.1387 65.6106 44.6463 71.7909 47.0724C77.9713 49.4984 83.3059 53.7339 87.1203 59.2435C90.9348 64.7531 93.0578 71.2895 93.2211 78.0263L93.5022 85.1096L93.782 95.0482Z" fill="#EA67A4"/>
<path d="M54.3768 42.521C55.8573 42.2984 57.3542 42.2076 58.8502 42.2499C67.729 42.0417 76.3277 45.417 82.7678 51.6381C89.2078 57.8592 92.9655 66.4203 93.2198 75.451L93.5009 82.5628L93.7793 92.2128C93.8487 96.7589 92.1588 101.151 89.0741 104.441C85.9895 107.731 81.7571 109.656 77.2899 109.801H72.8232L60.5261 110.097C53.4882 110.307 46.5649 108.25 40.7451 104.218C34.9252 100.187 30.5065 94.3882 28.1199 87.6498C25.7334 80.9113 25.501 73.578 27.4561 66.6973C29.4113 59.8165 33.4539 53.74 39.0065 49.3359" stroke="#182052" stroke-miterlimit="10" stroke-linecap="round" stroke-linejoin="round"/>
<path d="M47.3909 44.528H47.672" stroke="#182052" stroke-miterlimit="10" stroke-linecap="round" stroke-linejoin="round"/>
<path d="M65.6257 80.4719L71.8509 74.3738C72.6419 73.5723 73.0876 72.4839 73.0898 71.3482C73.0921 70.2124 72.6508 69.1223 71.8629 68.3176C71.4728 67.9192 71.0093 67.6027 70.499 67.3865C69.9886 67.1702 69.4415 67.0584 68.8886 67.0573C67.7722 67.055 66.7005 67.5039 65.9094 68.3054L59.6843 74.3738L53.7416 68.0303C53.3629 67.6133 52.9034 67.2805 52.3922 67.053C51.8809 66.8254 51.329 66.7079 50.7709 66.7079C50.2128 66.7079 49.6608 66.8254 49.1495 67.053C48.6383 67.2805 48.1788 67.6133 47.8001 68.0303C47.3976 68.4224 47.0772 68.8934 46.8583 69.4149C46.6395 69.9363 46.5267 70.4975 46.5267 71.0645C46.5267 71.6315 46.6395 72.1926 46.8583 72.7141C47.0772 73.2355 47.3976 73.7065 47.8001 74.0987L53.7416 80.4678L47.5165 86.5362C47.1139 86.9283 46.7934 87.3993 46.5746 87.9208C46.3557 88.4422 46.2429 89.0034 46.2429 89.5704C46.2429 90.1374 46.3557 90.6985 46.5746 91.22C46.7934 91.7414 47.1139 92.2124 47.5165 92.6046C48.2694 93.3633 49.2861 93.7893 50.3459 93.7903C51.4916 93.7976 52.5999 93.3755 53.4592 92.6046L59.6883 86.5362L65.631 92.9053C66.1967 93.5098 66.9274 93.928 67.729 94.1058C68.5306 94.2835 69.3662 94.2128 70.1279 93.9026C70.8895 93.5925 71.5424 93.0572 72.0019 92.3658C72.4615 91.6745 72.7068 90.8589 72.7061 90.0243C72.7394 89.4429 72.6564 88.8608 72.4622 88.313C72.2681 87.7652 71.9667 87.2631 71.5765 86.8371L65.6257 80.4719Z" fill="white"/>
<path d="M1 266.796H286.333" stroke="#EBF0F6" stroke-width="2" stroke-miterlimit="10" stroke-linecap="round" stroke-linejoin="round"/>
<path d="M270.163 178.268C270.442 178.268 270.723 177.973 271.279 177.973" stroke="#182052" stroke-miterlimit="10" stroke-linecap="round" stroke-linejoin="round"/>
<path d="M323.376 212.881C323.376 227.47 317.589 241.017 308.399 250.744C307.718 251.438 306.697 252.481 306.016 253.175C296.485 262.207 283.55 267.764 269.254 267.764C258.021 267.764 247.128 264.291 238.618 258.038C235.895 256.301 233.513 254.217 231.47 252.133C221.599 242.059 215.472 228.165 215.472 212.881C215.472 182.313 239.64 157.998 269.254 157.998C299.208 157.998 323.376 182.66 323.376 212.881Z" fill="#E9F0F8"/>
<path d="M323.376 212.881C323.376 228.86 316.568 243.102 306.016 253.175C296.485 262.207 283.55 267.764 269.254 267.764C258.021 267.764 247.128 264.291 238.618 258.038C224.662 247.965 215.472 231.638 215.472 212.881C215.472 182.313 239.64 157.998 269.254 157.998C298.868 157.998 323.376 182.66 323.376 212.881Z" fill="#F9F7FF"/>
<path d="M308.722 253.108C308.027 253.817 306.983 254.88 306.288 255.589C296.55 264.804 283.335 270.475 268.728 270.475C257.252 270.475 246.123 266.93 237.429 260.551C234.646 258.779 232.212 256.652 230.125 254.526C231.169 252.753 233.603 251.69 237.777 249.918L239.515 249.209C242.993 247.791 247.166 246.019 253.426 243.538C254.469 243.184 255.165 242.475 255.513 241.766C255.861 241.412 256.209 241.058 256.209 240.349C256.556 239.64 256.556 238.931 256.556 237.868V226.526C256.556 226.172 256.209 226.172 256.209 225.817C255.165 224.4 254.469 222.628 254.469 220.855L253.426 220.501C250.644 221.21 250.644 218.02 249.948 211.995C249.601 209.514 249.948 209.16 250.992 208.451L252.035 207.033C249.948 202.071 248.905 198.172 248.905 194.628C248.905 188.957 251.34 185.413 254.469 183.641C252.731 179.742 252.731 178.325 252.731 178.325C252.731 178.325 264.207 180.451 268.38 179.388C273.597 178.325 281.248 179.742 284.03 186.476C288.899 188.249 290.638 191.438 290.986 194.983C291.681 200.299 288.551 206.324 288.204 208.451C288.204 208.451 288.204 208.451 288.204 208.805C288.899 209.16 289.247 209.868 288.899 211.995C288.204 217.666 288.551 221.21 285.422 220.501L282.987 225.108C282.987 225.463 282.987 225.817 282.639 226.172C282.639 226.881 282.639 228.653 282.639 238.222C282.639 239.285 282.987 240.349 283.683 241.412C283.683 241.766 284.03 241.766 284.378 242.121C285.074 242.829 285.769 243.184 286.465 243.538C293.072 246.374 297.941 248.146 301.419 249.564C305.245 250.981 307.331 252.044 308.722 253.108Z" fill="white"/>
<path d="M308.722 252.439C308.027 253.176 306.983 254.28 306.288 255.016C296.55 264.586 283.335 270.475 268.728 270.475C257.252 270.475 246.123 266.794 237.429 260.169C234.646 258.328 232.212 256.12 230.125 253.912C231.169 252.072 233.603 250.967 237.777 249.127L239.515 248.391C242.993 246.919 247.166 245.078 253.426 242.502C254.469 242.134 255.165 241.398 255.513 240.661C258.643 245.446 264.207 248.759 270.119 248.759C276.032 248.759 281.248 245.814 284.726 241.03C285.422 241.766 286.117 242.134 286.813 242.502C293.42 245.446 298.289 247.287 301.767 248.759C305.245 250.231 307.331 251.335 308.722 252.439Z" fill="#3A61E9"/>
<path d="M288.947 208.138C289.297 206.735 288.596 204.981 287.896 203.578C287.896 203.228 287.546 203.228 287.546 202.877C285.445 198.317 280.193 196.564 275.64 196.213C263.385 195.511 262.335 197.967 258.483 194.459C259.533 196.213 259.883 199.019 257.782 202.526C256.382 204.981 253.931 206.033 251.829 206.735C246.227 194.108 249.028 186.392 254.631 183.586C252.88 179.728 252.53 178.325 252.53 178.325C252.53 178.325 264.085 180.429 268.287 179.377C273.54 178.325 281.243 179.728 284.044 186.392C288.947 188.146 290.697 191.302 291.048 194.81C292.448 200.071 289.297 205.683 288.947 208.138Z" fill="#1C3754"/>
<path d="M256.768 224.4C257.445 225.493 258.121 226.586 259.136 227.315L267.595 233.875C269.624 235.697 272.331 235.697 274.361 233.875L278.083 230.23" stroke="#182052" stroke-miterlimit="10" stroke-linecap="round" stroke-linejoin="round"/>
<path d="M308.722 253.108C308.027 253.817 306.983 254.88 306.288 255.589C296.55 264.804 283.335 270.475 268.728 270.475C257.252 270.475 246.123 266.93 237.429 260.551C234.646 258.779 232.212 256.652 230.125 254.526C231.169 252.753 233.603 251.69 237.777 249.918L239.515 249.209C242.993 247.791 247.166 246.019 253.426 243.538C254.469 243.184 255.165 242.475 255.513 241.766C255.861 241.412 256.209 241.058 256.209 240.349C256.556 239.64 256.556 238.931 256.556 237.868V226.526C256.556 226.172 256.209 226.172 256.209 225.817C255.165 224.4 254.469 222.628 254.469 220.855L253.426 220.501C250.644 221.21 250.644 218.02 249.948 211.995C249.601 209.514 249.948 209.16 250.992 208.451L252.035 207.033C249.948 202.071 248.905 198.172 248.905 194.628C248.905 188.957 251.34 185.413 254.469 183.641C252.731 179.742 252.731 178.325 252.731 178.325C252.731 178.325 264.207 180.451 268.38 179.388C273.597 178.325 281.248 179.742 284.03 186.476C288.899 188.249 290.638 191.438 290.986 194.983C291.681 200.299 288.551 206.324 288.204 208.451C288.204 208.451 288.204 208.451 288.204 208.805C288.899 209.16 289.247 209.868 288.899 211.995C288.204 217.666 288.551 221.21 285.422 220.501L282.987 225.108C282.987 225.463 282.987 225.817 282.639 226.172C282.639 226.881 282.639 228.653 282.639 238.222C282.639 239.285 282.987 240.349 283.683 241.412C283.683 241.766 284.03 241.766 284.378 242.121C285.074 242.829 285.769 243.184 286.465 243.538C293.072 246.374 297.941 248.146 301.419 249.564C305.245 250.981 307.331 252.044 308.722 253.108Z" stroke="#182052" stroke-miterlimit="10" stroke-linecap="round" stroke-linejoin="round"/>
<path d="M215.472 210.45C216.833 181.271 240.32 157.998 269.254 157.998C299.208 157.998 323.376 182.66 323.376 212.881C323.376 228.86 316.568 243.102 306.016 253.175C296.485 262.207 283.55 267.764 269.254 267.764C258.021 267.764 247.128 264.291 238.618 258.038C230.789 252.481 224.662 244.839 220.578 236.154C220.578 235.807 220.237 235.807 220.237 235.46" stroke="#182052" stroke-miterlimit="10" stroke-linecap="round" stroke-linejoin="round"/>
<path d="M214.14 274.54C217.082 274.54 219.468 272.113 219.468 269.12C219.468 266.126 217.082 263.699 214.14 263.699C211.197 263.699 208.811 266.126 208.811 269.12C208.811 272.113 211.197 274.54 214.14 274.54Z" fill="#FFB5D7"/>
</svg>
