<svg width="30" height="31" viewBox="0 0 30 31" fill="none" xmlns="http://www.w3.org/2000/svg">
<path d="M7.50831 29.4271C7.3503 29.3477 7.22642 29.2137 7.15963 29.05C7.09284 28.8862 7.08765 28.7038 7.14503 28.5365L8.08722 25.7779L9.93175 27.0225L8.44113 29.1881C8.34062 29.3337 8.19086 29.4382 8.01943 29.4821C7.84801 29.526 7.66648 29.5065 7.50831 29.4271ZM22.3489 29.4271C22.6747 29.2631 22.8318 28.8834 22.7122 28.5365L21.7583 25.7451L19.8153 26.8631L21.4161 29.1881C21.5166 29.3337 21.6664 29.4382 21.8378 29.4821C22.0092 29.526 22.1908 29.5065 22.3489 29.4271Z" fill="#82AEC0"/>
<path d="M8.08594 25.7788L7.60547 27.1851C7.90313 27.014 8.29219 27.0304 8.60156 27.1827C8.91094 27.3351 9.14766 27.6022 9.32813 27.8976L9.87422 27.1054C9.87422 27.0726 8.08594 25.7788 8.08594 25.7788ZM21.7641 25.7437L22.2844 27.2905C21.9867 27.1194 21.6305 27.1241 21.3188 27.2765C21.0094 27.4288 20.7727 27.696 20.5922 27.9913L19.8773 26.953L21.7641 25.7437Z" fill="#2F7889"/>
<path d="M14.9281 27.616C20.366 27.616 24.7742 23.2078 24.7742 17.7699C24.7742 12.3321 20.366 7.92383 14.9281 7.92383C9.49028 7.92383 5.08203 12.3321 5.08203 17.7699C5.08203 23.2078 9.49028 27.616 14.9281 27.616Z" fill="#FFEFA1"/>
<path d="M14.9281 28.4695C21.3174 28.4695 26.4969 23.29 26.4969 16.9008C26.4969 10.5115 21.3174 5.33203 14.9281 5.33203C8.53888 5.33203 3.35938 10.5115 3.35938 16.9008C3.35938 23.29 8.53888 28.4695 14.9281 28.4695Z" fill="#CC2929"/>
<path d="M14.9297 28.3569C20.9358 28.3569 25.8047 23.488 25.8047 17.4819C25.8047 11.4758 20.9358 6.60693 14.9297 6.60693C8.92359 6.60693 4.05469 11.4758 4.05469 17.4819C4.05469 23.488 8.92359 28.3569 14.9297 28.3569Z" fill="#FF4638"/>
<path d="M14.9289 26.8642C20.1105 26.8642 24.3109 22.6637 24.3109 17.4821C24.3109 12.3006 20.1105 8.1001 14.9289 8.1001C9.74735 8.1001 5.54688 12.3006 5.54688 17.4821C5.54688 22.6637 9.74735 26.8642 14.9289 26.8642Z" fill="#FAFAFA"/>
<path d="M15 18.5249C15.576 18.5249 16.043 18.0579 16.043 17.4819C16.043 16.9059 15.576 16.439 15 16.439C14.424 16.439 13.957 16.9059 13.957 17.4819C13.957 18.0579 14.424 18.5249 15 18.5249Z" fill="#563428"/>
<path d="M14.9281 10.4205C14.7383 10.4205 14.5836 10.2658 14.5836 10.076V9.04473C14.5836 8.85488 14.7383 8.7002 14.9281 8.7002C15.118 8.7002 15.2727 8.85488 15.2727 9.04473V10.076C15.2727 10.2658 15.118 10.4205 14.9281 10.4205ZM14.9281 26.2619C14.7383 26.2619 14.5836 26.1072 14.5836 25.9174V24.8861C14.5836 24.6963 14.7383 24.5416 14.9281 24.5416C15.118 24.5416 15.2727 24.6963 15.2727 24.8861V25.9174C15.2727 26.1072 15.118 26.2619 14.9281 26.2619ZM23.3633 17.8244H22.332C22.1422 17.8244 21.9875 17.6697 21.9875 17.4799C21.9875 17.29 22.1422 17.1354 22.332 17.1354H23.3633C23.5531 17.1354 23.7078 17.29 23.7078 17.4799C23.7078 17.6721 23.5531 17.8244 23.3633 17.8244ZM7.52422 17.8244H6.49297C6.30312 17.8244 6.14844 17.6697 6.14844 17.4799C6.14844 17.29 6.30312 17.1354 6.49297 17.1354H7.52422C7.71406 17.1354 7.86875 17.29 7.86875 17.4799C7.86875 17.6721 7.71406 17.8244 7.52422 17.8244Z" fill="#B2947C"/>
<path d="M14.9305 10.4205C14.7406 10.4205 14.5859 10.2658 14.5859 10.076V9.04473C14.5859 8.85488 14.7406 8.7002 14.9305 8.7002C15.1203 8.7002 15.275 8.85488 15.275 9.04473V10.076C15.275 10.2658 15.1203 10.4205 14.9305 10.4205ZM14.9305 26.2619C14.7406 26.2619 14.5859 26.1072 14.5859 25.9174V24.8861C14.5859 24.6963 14.7406 24.5416 14.9305 24.5416C15.1203 24.5416 15.275 24.6963 15.275 24.8861V25.9174C15.275 26.1072 15.1203 26.2619 14.9305 26.2619ZM10.9297 11.2408L10.4141 10.3479C10.318 10.1838 10.3742 9.97285 10.5406 9.87676C10.7047 9.78066 10.9156 9.83691 11.0117 10.0033L11.5273 10.8963C11.6234 11.0604 11.5672 11.2713 11.4008 11.3674C11.2367 11.4611 11.0258 11.4049 10.9297 11.2408ZM18.8516 24.9588L18.3359 24.0658C18.2398 23.9018 18.2984 23.6908 18.4625 23.5947C18.6266 23.4986 18.8375 23.5572 18.9336 23.7213L19.4492 24.6143C19.5453 24.7783 19.4867 24.9893 19.3227 25.0854C19.1563 25.1791 18.9453 25.1229 18.8516 24.9588Z" fill="#B2947C"/>
<path d="M10.93 11.2396L10.4143 10.3466C10.3182 10.1825 10.3745 9.97159 10.5409 9.87549C10.705 9.7794 10.9159 9.83565 11.012 10.0021L11.5276 10.895C11.6237 11.0591 11.5675 11.27 11.4011 11.3661C11.237 11.4599 11.0261 11.4036 10.93 11.2396ZM18.8518 24.9575L18.3362 24.0646C18.2401 23.9005 18.2987 23.6896 18.4628 23.5935C18.6268 23.4974 18.8378 23.556 18.9339 23.72L19.4495 24.613C19.5456 24.7771 19.487 24.988 19.3229 25.0841C19.1565 25.1778 18.9456 25.1216 18.8518 24.9575ZM8.34715 14.0755L7.45418 13.5599C7.29012 13.4638 7.23387 13.2552 7.32762 13.0888C7.42371 12.9247 7.63231 12.8685 7.79871 12.9622L8.69168 13.4778C8.85574 13.5739 8.91199 13.7825 8.81824 13.9489C8.72215 14.1153 8.51121 14.1716 8.34715 14.0755ZM22.0651 21.995L21.1722 21.4794C21.0081 21.3833 20.9518 21.1747 21.0456 21.0083C21.1417 20.8442 21.3503 20.788 21.5167 20.8817L22.4097 21.3974C22.5737 21.4935 22.63 21.7021 22.5362 21.8685C22.4401 22.0349 22.2292 22.0911 22.0651 21.995ZM18.4604 11.3661C18.2964 11.27 18.2401 11.0614 18.3339 10.895L18.8495 10.0021C18.9456 9.83799 19.1542 9.78174 19.3206 9.87549C19.4847 9.97159 19.5409 10.1802 19.4472 10.3466L18.9315 11.2396C18.8354 11.4036 18.6268 11.4599 18.4604 11.3661ZM10.5409 25.0841C10.3768 24.988 10.3206 24.7794 10.4143 24.613L10.93 23.72C11.0261 23.556 11.2346 23.4997 11.4011 23.5935C11.5651 23.6896 11.6214 23.8981 11.5276 24.0646L11.012 24.9575C10.9159 25.1216 10.705 25.1778 10.5409 25.0841ZM21.0456 13.9489C20.9495 13.7849 21.0057 13.5739 21.1722 13.4778L22.0651 12.9622C22.2292 12.8661 22.4401 12.9247 22.5362 13.0888C22.6323 13.2528 22.5737 13.4638 22.4097 13.5599L21.5167 14.0755C21.3503 14.1716 21.1393 14.1153 21.0456 13.9489ZM7.32762 21.8708C7.23152 21.7067 7.29012 21.4958 7.45418 21.3997L8.34715 20.8841C8.51121 20.788 8.72215 20.8466 8.81824 21.0106C8.91434 21.1747 8.85574 21.3856 8.69168 21.4817L7.79871 21.9974C7.63231 22.0911 7.42137 22.0349 7.32762 21.8708Z" fill="#B2947C"/>
<path d="M11.1289 15.3232L14.9281 17.4818" stroke="#563428" stroke-width="0.500466" stroke-miterlimit="10" stroke-linecap="round"/>
<path d="M21.5602 8.05718L20.5898 7.42202L23.8922 1.57202L24.9 2.14155L21.5602 8.05718Z" fill="#82AEC0"/>
<path d="M26.0558 8.69527C26.3441 8.77964 26.6534 8.62027 26.7425 8.33433C27.5019 5.90855 26.5175 3.26949 24.1362 2.0437C21.7386 0.808548 19.1347 1.61949 17.6183 3.68902C17.4472 3.92105 17.487 4.24683 17.7026 4.43667C18.1925 4.87027 19.28 5.68589 21.448 6.78277C23.7378 7.94058 25.3081 8.47495 26.0558 8.69527Z" fill="#CC2929"/>
<path d="M24.8062 2.85652C24.8062 2.85652 25.418 2.07605 24.5297 1.58152C23.8383 1.19714 23.4 2.03855 23.4 2.03855C23.2477 2.31746 24.7008 3.04871 24.8062 2.85652ZM8.34844 8.06433L5.00391 2.14168L6.01406 1.57214L9.2625 7.32839L8.34844 8.06433Z" fill="#82AEC0"/>
<path d="M3.94235 8.69502C3.65407 8.7794 3.34469 8.62002 3.25563 8.33408C2.49626 5.9083 3.48063 3.26924 5.86188 2.04346C8.25954 0.808304 10.8634 1.61924 12.3799 3.68877C12.5509 3.9208 12.5111 4.24659 12.2955 4.43643C11.8056 4.87002 10.7181 5.68565 8.55016 6.78252C6.26032 7.94034 4.69001 8.47471 3.94235 8.69502Z" fill="#CC2929"/>
<path d="M5.1897 2.85652C5.1897 2.85652 4.57798 2.07605 5.46626 1.58152C6.15767 1.19714 6.59595 2.03855 6.59595 2.03855C6.74829 2.31746 5.29517 3.04871 5.1897 2.85652Z" fill="#82AEC0"/>
<path d="M14.9297 5.88506V2.66943" stroke="#82AEC0" stroke-width="0.370946" stroke-miterlimit="10"/>
<path d="M14.9414 3.81299C14.0227 3.81299 13.1016 3.46143 13.1016 3.46143V2.76533C13.1016 2.76533 13.957 2.3833 14.9859 2.3833C16.0148 2.3833 16.7789 2.76533 16.7789 2.76533V3.46143C16.7812 3.46377 15.8625 3.81299 14.9414 3.81299Z" fill="#82AEC0"/>
<path d="M13.3354 2.7373C13.2346 2.7748 13.2252 2.91309 13.319 2.96699C13.4549 3.04434 13.6166 3.12402 13.6729 3.11465C14.4463 2.99512 15.569 3.05371 16.3448 3.1709C16.3987 3.18027 16.5533 3.04902 16.6635 2.95059C16.7244 2.89434 16.7104 2.79824 16.6354 2.76309C16.3916 2.65293 15.8408 2.45605 14.9877 2.45605C14.2002 2.45605 13.6307 2.62246 13.3354 2.7373Z" fill="#94D1E0"/>
<path d="M22.2797 2.29326C22.3524 2.5417 22.0852 2.7456 21.8696 2.88857C21.3259 3.25372 20.8891 3.75684 20.604 4.34639C20.468 4.62764 20.3157 4.97217 20.004 5.0167C19.8797 5.0331 19.7579 4.9956 19.6407 4.95342C19.4602 4.88779 19.2844 4.81279 19.1133 4.72607C18.9094 4.62295 18.7008 4.4917 18.6071 4.2831C18.4852 4.00889 18.6 3.68545 18.7641 3.43232C19.1555 2.83467 19.793 2.46435 20.4493 2.2206C20.8454 2.07295 22.0829 1.6206 22.2797 2.29326ZM6.12427 4.26904C6.27661 4.58545 6.4477 4.89248 6.63755 5.18779C6.86958 5.54873 7.13911 5.95185 7.04067 6.36904C6.92583 6.84717 6.39614 7.07685 5.92974 7.23623C5.69067 7.31826 5.45395 7.40029 5.21489 7.48232C5.08833 7.52685 4.95474 7.57139 4.82114 7.56435C4.6102 7.55498 4.42036 7.42139 4.30083 7.25029C4.17895 7.0792 4.11802 6.87295 4.07114 6.66904C3.89536 5.88389 3.93052 5.05185 4.17192 4.2831C4.31255 3.84248 4.53286 3.37842 5.03208 3.34326C5.63911 3.30107 5.89692 3.7956 6.12427 4.26904Z" fill="#FF4638"/>
</svg>
