<svg width="351" height="191" viewBox="0 0 351 191" fill="none" xmlns="http://www.w3.org/2000/svg">
<g clip-path="url(#clip0_8538_93452)">
<rect width="350" height="190.739" transform="translate(0.5)" fill="#101A33"/>
<g opacity="0.8">
<mask id="path-1-inside-1_8538_93452" fill="white">
<path d="M11.0791 24.2368C-2.82412 33.0701 -21.2562 28.9612 -30.0902 15.0588L20.2603 -16.931C29.0925 -3.0276 24.9819 15.4034 11.0791 24.2368Z"/>
</mask>
<path d="M11.0791 24.2368L11.7783 25.3374L11.7783 25.3373L11.0791 24.2368ZM-30.0902 15.0588L-30.7894 13.9582L-31.89 14.6575L-31.1907 15.7581L-30.0902 15.0588ZM20.2603 -16.931L21.3609 -17.6302L20.6617 -18.7308L19.5611 -18.0315L20.2603 -16.931ZM11.0791 24.2368L10.3798 23.1363C-2.9156 31.5834 -20.5419 27.6541 -28.9897 14.3595L-30.0902 15.0588L-31.1907 15.7581C-21.9704 30.2683 -2.73264 34.5567 11.7783 25.3374L11.0791 24.2368ZM-30.0902 15.0588L-29.391 16.1593L20.9596 -15.8305L20.2603 -16.931L19.5611 -18.0315L-30.7894 13.9582L-30.0902 15.0588ZM20.2603 -16.931L19.1597 -16.2319C27.6058 -2.93628 23.6749 14.689 10.3798 23.1363L11.0791 24.2368L11.7783 25.3373C26.2889 16.1178 30.5792 -3.11893 21.3609 -17.6302L20.2603 -16.931Z" fill="#1D4ED8" mask="url(#path-1-inside-1_8538_93452)"/>
</g>
<g opacity="0.6">
<mask id="path-3-inside-2_8538_93452" fill="white">
<path d="M189.108 53.0319C151.613 3.46976 163.496 -68.6935 215.65 -108.15L351.433 71.3311C299.279 110.787 226.604 102.594 189.108 53.0319Z"/>
</mask>
<path d="M189.108 53.0319L187.366 54.3501L189.108 53.0319ZM215.65 -108.15L217.392 -109.468L216.074 -111.211L214.331 -109.892L215.65 -108.15ZM351.433 71.3311L352.751 73.0735L354.493 71.7553L353.175 70.0129L351.433 71.3311ZM189.108 53.0319L190.851 51.7137C154.146 3.1965 165.692 -67.615 216.968 -106.408L215.65 -108.15L214.331 -109.892C161.3 -69.772 149.08 3.74303 187.366 54.3501L189.108 53.0319ZM215.65 -108.15L213.907 -106.832L349.69 72.6493L351.433 71.3311L353.175 70.0129L217.392 -109.468L215.65 -108.15ZM351.433 71.3311L350.115 69.5886C298.838 108.381 227.556 100.231 190.851 51.7137L189.108 53.0319L187.366 54.3501C225.652 104.957 299.719 113.193 352.751 73.0735L351.433 71.3311Z" fill="#F63A72" mask="url(#path-3-inside-2_8538_93452)"/>
</g>
<g opacity="0.6">
<mask id="path-5-inside-3_8538_93452" fill="white">
<path d="M122.555 49.4071C112.726 57.2109 98.4318 55.5689 90.6278 45.7403L90.6271 45.7395L126.22 17.4787L126.221 17.4794C134.025 27.3083 132.383 41.603 122.555 49.4071Z"/>
</mask>
<path d="M122.555 49.4071L123.913 51.1182L123.913 51.1182L122.555 49.4071ZM90.6278 45.7403L88.9167 47.0989L88.9167 47.0989L90.6278 45.7403ZM90.6271 45.7395L89.2685 44.0284L87.5574 45.387L88.916 47.0981L90.6271 45.7395ZM126.22 17.4787L127.931 16.1201L126.573 14.409L124.862 15.7676L126.22 17.4787ZM126.221 17.4794L127.932 16.1208L127.932 16.1208L126.221 17.4794ZM122.555 49.4071L121.196 47.696C112.312 54.7494 99.3926 53.2654 92.3388 44.3816L90.6278 45.7403L88.9167 47.0989C97.471 57.8725 113.139 59.6724 123.913 51.1182L122.555 49.4071ZM90.6278 45.7403L92.3389 44.3817L92.3382 44.3809L90.6271 45.7395L88.916 47.0981L88.9167 47.0989L90.6278 45.7403ZM90.6271 45.7395L91.9858 47.4506L127.579 19.1898L126.22 17.4787L124.862 15.7676L89.2685 44.0284L90.6271 45.7395ZM126.22 17.4787L124.509 18.8373L124.51 18.838L126.221 17.4794L127.932 16.1208L127.931 16.1201L126.22 17.4787ZM126.221 17.4794L124.51 18.838C131.563 27.7219 130.08 40.6422 121.196 47.696L122.555 49.4071L123.913 51.1182C134.687 42.5637 136.486 26.8947 127.932 16.1208L126.221 17.4794Z" fill="#FFCB66" mask="url(#path-5-inside-3_8538_93452)"/>
</g>
<g opacity="0.5">
<mask id="path-7-inside-4_8538_93452" fill="white">
<path d="M251.554 211.97C272.855 195.057 303.832 198.613 320.746 219.913L243.607 281.161C226.695 259.86 230.253 228.882 251.554 211.97Z"/>
</mask>
<path d="M251.554 211.97L250.195 210.258L251.554 211.97ZM320.746 219.913L322.105 221.624L323.816 220.265L322.457 218.554L320.746 219.913ZM243.607 281.161L241.896 282.52L243.254 284.231L244.965 282.872L243.607 281.161ZM251.554 211.97L252.913 213.681C273.268 197.518 302.872 200.917 319.035 221.271L320.746 219.913L322.457 218.554C304.793 196.309 272.441 192.595 250.195 210.258L251.554 211.97ZM320.746 219.913L319.388 218.202L242.248 279.45L243.607 281.161L244.965 282.872L322.105 221.624L320.746 219.913ZM243.607 281.161L245.318 279.803C229.157 259.446 232.557 229.843 252.913 213.681L251.554 211.97L250.195 210.258C227.95 227.921 224.234 260.273 241.896 282.52L243.607 281.161Z" fill="#FFCB66" mask="url(#path-7-inside-4_8538_93452)"/>
</g>
<g opacity="0.7">
<mask id="path-9-inside-5_8538_93452" fill="white">
<path d="M50.1424 138.965C55.1095 148.138 51.7002 159.601 42.5276 164.568C42.5265 164.569 42.5252 164.569 42.5241 164.57L24.5362 131.352C24.5372 131.352 24.5385 131.351 24.5396 131.35C33.7125 126.383 45.1752 129.792 50.1424 138.965Z"/>
</mask>
<path d="M50.1424 138.965L52.0637 137.925L52.0637 137.925L50.1424 138.965ZM42.5276 164.568L43.568 166.489L43.568 166.489L42.5276 164.568ZM42.5241 164.57L40.6029 165.61L41.6431 167.531L43.5642 166.491L42.5241 164.57ZM24.5362 131.352L23.4954 129.431L21.5747 130.472L22.6149 132.393L24.5362 131.352ZM24.5396 131.35L23.4992 129.429L23.4992 129.429L24.5396 131.35ZM50.1424 138.965L48.2212 140.006C52.6137 148.117 49.5988 158.254 41.4872 162.647L42.5276 164.568L43.568 166.489C53.8017 160.947 57.6054 148.159 52.0637 137.925L50.1424 138.965ZM42.5276 164.568L41.4872 162.647C41.4856 162.648 41.485 162.648 41.4841 162.648L42.5241 164.57L43.5642 166.491C43.5655 166.491 43.5674 166.49 43.568 166.489L42.5276 164.568ZM42.5241 164.57L44.4454 163.53L26.4574 130.312L24.5362 131.352L22.6149 132.393L40.6029 165.61L42.5241 164.57ZM24.5362 131.352L25.5769 133.273C25.5778 133.273 25.5784 133.273 25.58 133.272L24.5396 131.35L23.4992 129.429C23.4986 129.429 23.4967 129.431 23.4954 129.431L24.5362 131.352ZM24.5396 131.35L25.58 133.272C33.6918 128.879 43.8285 131.894 48.2212 140.006L50.1424 138.965L52.0637 137.925C46.5218 127.691 33.7331 123.887 23.4992 129.429L24.5396 131.35Z" fill="#F63A72" mask="url(#path-9-inside-5_8538_93452)"/>
</g>
<path d="M69.7734 67.5095L269.897 56.1699L261.999 110.978L78.6187 115.703L69.7734 67.5095Z" fill="#2C4796"/>
<g filter="url(#filter0_d_8538_93452)">
<path d="M272.071 124.8C272.003 125.199 271.688 125.51 271.288 125.574L56.8999 159.902C56.2516 160.006 55.6977 159.434 55.8228 158.789L66.0063 106.352C66.0894 105.924 66.4542 105.609 66.8895 105.588L275.839 95.756C276.442 95.7276 276.916 96.2634 276.815 96.8581L272.071 124.8Z" fill="#FFCB66"/>
</g>
<path d="M125.652 91.5162L121.434 91.8159C121.357 91.821 121.317 91.7851 121.312 91.7085L120.29 75.5295C120.286 75.4682 120.315 75.4355 120.376 75.4315L124.778 75.1197C125.65 75.0393 126.453 75.1868 127.186 75.5621C127.927 75.9369 128.532 76.4707 129.001 77.1636C129.477 77.8482 129.744 78.6236 129.801 79.4897L130.247 86.2498C130.306 87.1542 130.142 87.9963 129.755 88.7761C129.36 89.5487 128.809 90.1814 128.102 90.6742C127.395 91.1594 126.578 91.44 125.652 91.5162ZM124.964 77.9364L123.321 78.0672L124.002 88.7377L125.462 88.642C126.045 88.6038 126.522 88.3685 126.894 87.9361C127.266 87.5038 127.433 87.004 127.395 86.4368L126.948 79.6537C126.915 79.1555 126.702 78.7345 126.31 78.3907C125.918 78.0393 125.469 77.8879 124.964 77.9364ZM135.443 90.8971L132.776 91.072C132.699 91.077 132.658 91.0412 132.653 90.9646L131.609 74.7871C131.605 74.7258 131.634 74.6931 131.695 74.6891L134.339 74.5156C134.401 74.5116 134.433 74.5402 134.437 74.6016L135.527 90.7761C135.533 90.8527 135.504 90.893 135.443 90.8971ZM141.856 90.7073C141.021 90.7621 140.236 90.5981 139.503 90.2151C138.777 89.8316 138.18 89.2973 137.711 88.6122C137.25 87.9189 136.991 87.143 136.934 86.2846L136.863 85.2039C136.857 85.1195 136.893 85.0749 136.969 85.0698L139.614 84.8964C139.675 84.8924 139.709 84.9325 139.714 85.0168L139.785 86.0975C139.819 86.6111 140.021 87.0443 140.391 87.3972C140.76 87.7425 141.186 87.8993 141.669 87.8676C142.159 87.8355 142.565 87.6203 142.885 87.2221C143.204 86.8162 143.348 86.3642 143.315 85.866C143.277 85.2912 142.868 84.8138 142.089 84.4338C141.961 84.3652 141.794 84.2838 141.588 84.1896C141.389 84.0872 141.15 83.972 140.872 83.8439C140.594 83.7159 140.324 83.5912 140.062 83.4698C139.8 83.3408 139.545 83.2189 139.299 83.1042C138.407 82.6547 137.726 82.0643 137.254 81.3332C136.79 80.5939 136.526 79.749 136.463 78.7986C136.406 77.9249 136.568 77.1213 136.951 76.3881C137.334 75.6624 137.857 75.0739 138.52 74.6224C139.19 74.1628 139.932 73.9063 140.744 73.853C141.58 73.7982 142.36 73.9549 143.085 74.323C143.81 74.6988 144.403 75.2219 144.862 75.8922C145.33 76.562 145.592 77.33 145.65 78.1961L145.777 80.1276C145.781 80.1889 145.752 80.2215 145.691 80.2256L143.047 80.399C142.985 80.403 142.953 80.3744 142.949 80.3131L142.798 78.3831C142.762 77.8313 142.56 77.3942 142.192 77.0719C141.824 76.7496 141.403 76.6041 140.928 76.6353C140.445 76.6669 140.043 76.878 139.723 77.2685C139.402 77.6591 139.258 78.1073 139.292 78.6131C139.325 79.1266 139.461 79.5488 139.698 79.8796C139.944 80.21 140.368 80.5131 140.971 80.7892C141.034 80.8158 141.181 80.8832 141.411 80.9912C141.642 81.0993 141.896 81.2211 142.175 81.3568C142.46 81.4844 142.718 81.6022 142.948 81.7102C143.178 81.8106 143.317 81.8708 143.364 81.8908C144.175 82.2764 144.828 82.7724 145.322 83.3789C145.824 83.9849 146.105 84.7516 146.166 85.679C146.225 86.5758 146.072 87.3941 145.705 88.1341C145.33 88.8745 144.808 89.4745 144.138 89.9342C143.467 90.3938 142.707 90.6515 141.856 90.7073ZM152.872 89.7538L150.216 89.928C150.147 89.9326 150.11 89.8965 150.105 89.8199L149.219 76.3916L146.161 76.5922C146.085 76.5972 146.044 76.5614 146.039 76.4848L145.888 73.8505C145.884 73.7892 145.913 73.7565 145.974 73.7525L154.919 73.1658C155.003 73.1603 155.047 73.1881 155.051 73.2495L155.225 75.8822C155.23 75.9589 155.202 75.9992 155.14 76.0032L152.048 76.2061L152.957 89.6328C152.962 89.7095 152.934 89.7498 152.872 89.7538ZM160.293 89.2671L157.626 89.442C157.549 89.4471 157.509 89.4113 157.503 89.3346L156.459 73.1571C156.455 73.0958 156.484 73.0631 156.545 73.0591L159.19 72.8856C159.251 72.8816 159.284 72.9103 159.288 72.9716L160.378 89.1461C160.383 89.2227 160.355 89.2631 160.293 89.2671ZM165.254 88.9417L162.897 89.0963C162.775 89.1043 162.71 89.0547 162.703 88.9474L161.622 72.9109C161.614 72.7882 161.671 72.7229 161.793 72.7149L163.92 72.5753L168.51 81.5923L167.796 72.5059C167.787 72.3833 167.852 72.3174 167.99 72.3084L170.324 72.1553C170.416 72.1493 170.466 72.2076 170.474 72.3302L171.557 88.3897C171.563 88.4817 171.528 88.5302 171.451 88.5352L169.382 88.671L164.728 80.2701L165.46 88.7434C165.469 88.8661 165.4 88.9321 165.254 88.9417ZM178.198 88.3236C177.347 88.3795 176.555 88.2159 175.821 87.8329C175.095 87.4494 174.502 86.9111 174.04 86.2177C173.586 85.5163 173.33 84.721 173.271 83.8319L172.809 76.4839C172.752 75.6102 172.899 74.8076 173.251 74.0764C173.602 73.3374 174.113 72.7305 174.782 72.2555C175.458 71.7724 176.226 71.5026 177.084 71.4463C177.958 71.389 178.75 71.5488 179.46 71.9256C180.177 72.3019 180.763 72.8369 181.217 73.5308C181.678 74.2164 181.937 75 181.995 75.8814L182.067 76.9621C182.071 77.0234 182.042 77.0561 181.981 77.0601L179.337 77.2335C179.275 77.2376 179.243 77.2089 179.238 77.1476L179.167 76.0669C179.133 75.5457 178.935 75.1084 178.573 74.7549C178.211 74.4015 177.777 74.2414 177.271 74.2746C176.711 74.3113 176.295 74.531 176.021 74.9339C175.747 75.3367 175.627 75.791 175.661 76.2969L176.145 83.6434C176.183 84.2182 176.383 84.6785 176.744 85.0243C177.105 85.3624 177.527 85.5156 178.01 85.4839C178.516 85.4508 178.925 85.2238 179.235 84.8031C179.546 84.3748 179.685 83.9115 179.652 83.4133L179.58 82.3211C179.576 82.2598 179.604 82.2272 179.666 82.2231L182.333 82.0482C182.394 82.0442 182.427 82.0728 182.431 82.1341L182.503 83.2263C182.561 84.1077 182.407 84.9261 182.042 85.6814C181.668 86.4295 181.15 87.0446 180.489 87.5267C179.827 88.0012 179.064 88.2668 178.198 88.3236ZM189.777 87.3332L187.121 87.5074C187.052 87.5119 187.015 87.4759 187.01 87.3992L186.124 73.971L183.066 74.1715C182.989 74.1766 182.948 74.1408 182.943 74.0641L182.793 71.4298C182.789 71.3685 182.817 71.3359 182.879 71.3318L191.823 70.7451C191.908 70.7396 191.952 70.7675 191.956 70.8288L192.13 73.4616C192.135 73.5382 192.107 73.5786 192.045 73.5826L188.952 73.7854L189.861 87.2122C189.866 87.2888 189.838 87.3292 189.777 87.3332ZM197.198 86.8464L194.531 87.0214C194.454 87.0264 194.413 86.9906 194.408 86.914L193.364 70.7365C193.36 70.6751 193.389 70.6425 193.45 70.6384L196.094 70.465C196.156 70.461 196.188 70.4896 196.192 70.5509L197.283 86.7254C197.288 86.8021 197.259 86.8424 197.198 86.8464ZM203.968 86.6333C203.132 86.6881 202.348 86.5241 201.614 86.1411C200.888 85.7576 200.287 85.2236 199.811 84.5389C199.342 83.8461 199.079 83.0705 199.023 82.2121L198.553 74.7491C198.496 73.8754 198.655 73.0759 199.03 72.3508C199.398 71.6185 199.92 71.0185 200.597 70.5507C201.274 70.0752 202.026 69.8103 202.854 69.756C203.713 69.6997 204.497 69.86 205.207 70.2368C205.924 70.6131 206.514 71.1441 206.975 71.8297C207.443 72.5072 207.705 73.279 207.762 74.1451L208.278 81.605C208.334 82.4634 208.179 83.2626 207.812 84.0026C207.438 84.7507 206.917 85.3622 206.248 85.8372C205.578 86.3122 204.818 86.5775 203.968 86.6333ZM203.78 83.7936C204.255 83.7625 204.657 83.5437 204.984 83.1374C205.311 82.7233 205.458 82.2749 205.426 81.792L204.911 74.3321C204.877 73.8109 204.683 73.381 204.33 73.0424C203.976 72.7038 203.547 72.5511 203.041 72.5843C202.558 72.6159 202.156 72.8194 201.834 73.1945C201.512 73.5697 201.369 74.0256 201.405 74.5621L201.897 82.0235C201.931 82.5371 202.132 82.9703 202.502 83.3232C202.871 83.6685 203.297 83.8253 203.78 83.7936ZM213.156 85.7998L210.799 85.9544C210.676 85.9624 210.611 85.9128 210.604 85.8055L209.523 69.7689C209.515 69.6463 209.572 69.581 209.695 69.5729L211.822 69.4334L216.412 78.4504L215.697 69.364C215.689 69.2413 215.754 69.1755 215.892 69.1664L218.226 69.0134C218.318 69.0073 218.368 69.0656 218.376 69.1883L219.458 85.2478C219.464 85.3398 219.429 85.3883 219.353 85.3933L217.283 85.529L212.63 77.1281L213.362 85.6015C213.37 85.7241 213.301 85.7902 213.156 85.7998Z" fill="white"/>
<path d="M91.8255 135.668C90.9772 135.753 90.1798 135.617 89.4334 135.26C88.6946 134.902 88.0825 134.384 87.597 133.708C87.1185 133.022 86.8343 132.237 86.7446 131.35L86.0259 124.023C85.9377 123.152 86.0567 122.344 86.383 121.601C86.7084 120.851 87.1972 120.226 87.8494 119.728C88.5084 119.222 89.2659 118.926 90.1219 118.84C90.9931 118.752 91.7901 118.884 92.5129 119.236C93.2432 119.587 93.8473 120.101 94.3251 120.779C94.8098 121.448 95.0966 122.222 95.1856 123.101L95.2946 124.178C95.3008 124.239 95.2734 124.273 95.2122 124.279L92.5755 124.545C92.5144 124.551 92.4807 124.523 92.4745 124.462L92.3654 123.385C92.3128 122.865 92.0994 122.435 91.7253 122.094C91.3511 121.754 90.9118 121.609 90.4074 121.659C89.8495 121.716 89.4408 121.95 89.1814 122.362C88.9221 122.774 88.8179 123.232 88.869 123.737L89.6105 131.062C89.6686 131.635 89.8843 132.088 90.2577 132.421C90.6303 132.746 91.0574 132.885 91.5389 132.836C92.0433 132.785 92.4435 132.544 92.7396 132.113C93.0348 131.674 93.1573 131.206 93.107 130.71L92.9968 129.621C92.9906 129.56 93.0181 129.526 93.0792 129.52L95.7388 129.252C95.8 129.246 95.8336 129.273 95.8398 129.334L95.9501 130.423C96.039 131.302 95.9139 132.126 95.5747 132.893C95.2271 133.654 94.7314 134.286 94.0877 134.791C93.4432 135.289 92.6891 135.581 91.8255 135.668ZM97.5511 134.744L98.83 118.322C98.8391 118.259 98.8742 118.225 98.9354 118.219L102.34 117.876C102.401 117.87 102.443 117.897 102.464 117.956L106.894 133.803C106.91 133.879 106.883 133.92 106.814 133.927L104.212 134.189C104.135 134.197 104.089 134.163 104.074 134.087L103.648 132.393L100.449 132.715L100.371 134.46C100.371 134.537 100.337 134.579 100.268 134.586L97.6544 134.849C97.5933 134.855 97.5588 134.82 97.5511 134.744ZM101.053 123.46L100.665 130.157L102.924 129.93L101.293 123.436L101.068 122.578L101.053 123.46ZM111.359 133.47L108.7 133.737C108.638 133.744 108.604 133.708 108.596 133.632L107.009 117.499C107.003 117.438 107.031 117.404 107.092 117.398L109.958 117.109C110.019 117.103 110.075 117.128 110.127 117.185L112.585 120.064L114.403 116.754C114.443 116.689 114.497 116.652 114.566 116.645L117.444 116.356C117.512 116.349 117.55 116.376 117.556 116.437L119.235 132.561C119.242 132.638 119.216 132.679 119.155 132.685L116.495 132.953C116.434 132.959 116.399 132.924 116.392 132.847L115.156 120.871L113.053 124.695L110.249 121.364L111.439 133.346C111.447 133.422 111.42 133.464 111.359 133.47ZM124.204 132.177L121.568 132.442C121.491 132.45 121.449 132.415 121.441 132.339L119.854 116.206C119.848 116.145 119.876 116.111 119.937 116.105L124.454 115.65C125.89 115.506 127.07 115.831 127.992 116.626C128.921 117.412 129.461 118.558 129.614 120.064C129.725 121.164 129.604 122.145 129.252 123.007C128.89 123.862 128.381 124.546 127.722 125.06C127.064 125.574 126.322 125.872 125.497 125.956L123.708 126.136L124.307 132.051C124.315 132.127 124.281 132.169 124.204 132.177ZM124.736 118.436L122.949 118.639L123.421 123.293L125.209 123.113C125.706 123.063 126.114 122.782 126.432 122.272C126.751 121.753 126.871 121.112 126.794 120.348C126.732 119.736 126.517 119.252 126.149 118.896C125.78 118.531 125.309 118.378 124.736 118.436ZM136.763 131.144C135.938 131.227 135.152 131.09 134.405 130.733C133.659 130.376 133.039 129.859 132.546 129.183C132.06 128.499 131.773 127.729 131.687 126.873L130.544 115.13C130.538 115.069 130.565 115.035 130.627 115.029L133.263 114.763C133.324 114.757 133.358 114.785 133.364 114.846L134.553 126.584C134.606 127.111 134.82 127.545 135.194 127.886C135.567 128.219 135.995 128.361 136.476 128.313C136.981 128.262 137.383 128.036 137.682 127.636C137.98 127.227 138.102 126.76 138.049 126.232L136.861 114.494C136.855 114.433 136.882 114.399 136.943 114.393L139.58 114.128C139.641 114.121 139.675 114.149 139.681 114.21L140.915 125.944C141.003 126.807 140.877 127.623 140.537 128.39C140.19 129.151 139.69 129.78 139.038 130.278C138.385 130.769 137.627 131.057 136.763 131.144ZM147.464 130.067C146.631 130.151 145.841 130.014 145.095 129.657C144.356 129.299 143.741 128.786 143.248 128.118C142.763 127.441 142.477 126.674 142.39 125.818L142.281 124.741C142.273 124.657 142.307 124.611 142.383 124.603L145.02 124.338C145.081 124.332 145.116 124.371 145.124 124.455L145.233 125.532C145.285 126.044 145.502 126.47 145.884 126.81C146.265 127.142 146.696 127.284 147.178 127.236C147.667 127.186 148.064 126.957 148.37 126.548C148.676 126.131 148.803 125.675 148.753 125.178C148.695 124.605 148.27 124.142 147.477 123.789C147.347 123.725 147.177 123.65 146.968 123.563C146.765 123.467 146.523 123.361 146.241 123.242C145.958 123.124 145.684 123.009 145.418 122.897C145.151 122.777 144.893 122.664 144.643 122.558C143.736 122.14 143.034 121.573 142.537 120.859C142.047 120.136 141.754 119.301 141.658 118.354C141.57 117.482 141.704 116.674 142.061 115.928C142.418 115.189 142.92 114.583 143.567 114.108C144.221 113.626 144.953 113.344 145.763 113.262C146.596 113.178 147.381 113.308 148.118 113.65C148.856 114.001 149.467 114.503 149.95 115.157C150.441 115.81 150.73 116.568 150.817 117.432L151.012 119.357C151.018 119.419 150.991 119.452 150.93 119.458L148.293 119.724C148.232 119.73 148.198 119.702 148.192 119.641L147.974 117.718C147.919 117.168 147.701 116.738 147.323 116.429C146.944 116.119 146.518 115.988 146.044 116.036C145.562 116.085 145.168 116.31 144.861 116.711C144.555 117.112 144.427 117.565 144.478 118.07C144.53 118.582 144.68 118.999 144.929 119.321C145.185 119.643 145.62 119.931 146.232 120.186C146.297 120.21 146.446 120.273 146.68 120.373C146.914 120.472 147.172 120.585 147.455 120.711C147.745 120.829 148.007 120.938 148.241 121.038C148.474 121.13 148.615 121.185 148.663 121.204C149.487 121.561 150.156 122.034 150.671 122.623C151.194 123.211 151.502 123.967 151.596 124.892C151.686 125.786 151.561 126.609 151.22 127.361C150.872 128.114 150.371 128.732 149.717 129.215C149.064 129.698 148.313 129.982 147.464 130.067ZM168.124 129.273L166.342 127.796C165.794 128.099 165.218 128.28 164.614 128.341C163.781 128.425 162.995 128.291 162.257 127.941C161.511 127.592 160.888 127.079 160.388 126.404C159.894 125.72 159.603 124.95 159.517 124.095L158.787 116.653C158.702 115.82 158.83 115.027 159.171 114.275C159.504 113.523 159.997 112.899 160.649 112.401C161.3 111.895 162.054 111.599 162.91 111.513C163.743 111.429 164.528 111.558 165.266 111.901C166.004 112.251 166.615 112.757 167.098 113.419C167.59 114.08 167.88 114.849 167.969 115.728L168.745 123.166C168.791 123.617 168.77 124.062 168.684 124.504C168.604 124.936 168.479 125.342 168.309 125.722L169.915 127.055C169.997 127.108 170.011 127.161 169.954 127.213L168.296 129.256C168.248 129.307 168.19 129.313 168.124 129.273ZM164.327 125.509C164.862 125.456 165.27 125.214 165.551 124.784C165.831 124.347 165.948 123.903 165.902 123.452L165.126 116.014C165.075 115.51 164.867 115.091 164.501 114.757C164.135 114.424 163.7 114.282 163.196 114.333C162.668 114.386 162.263 114.616 161.98 115.023C161.697 115.429 161.58 115.877 161.63 116.366L162.383 123.806C162.44 124.372 162.67 124.808 163.071 125.115C163.473 125.422 163.891 125.553 164.327 125.509ZM175.762 127.219C174.937 127.302 174.151 127.165 173.404 126.808C172.658 126.45 172.038 125.934 171.545 125.258C171.059 124.573 170.772 123.803 170.686 122.947L169.543 111.204C169.537 111.143 169.565 111.109 169.626 111.103L172.262 110.838C172.324 110.832 172.357 110.859 172.363 110.92L173.552 122.659C173.605 123.186 173.819 123.62 174.193 123.961C174.567 124.294 174.994 124.436 175.475 124.387C175.98 124.337 176.382 124.111 176.681 123.71C176.979 123.302 177.102 122.834 177.048 122.307L175.86 110.568C175.854 110.507 175.881 110.474 175.942 110.467L178.579 110.202C178.64 110.196 178.674 110.223 178.68 110.285L179.914 122.018C180.002 122.882 179.876 123.697 179.537 124.465C179.189 125.226 178.689 125.855 178.037 126.353C177.384 126.843 176.626 127.132 175.762 127.219ZM185.225 126.035L182.565 126.302C182.489 126.31 182.447 126.276 182.439 126.199L180.829 110.068C180.823 110.007 180.851 109.973 180.912 109.967L183.548 109.702C183.61 109.696 183.643 109.723 183.649 109.784L185.305 125.911C185.313 125.987 185.286 126.028 185.225 126.035ZM195.743 124.976L186.985 125.858C186.908 125.865 186.866 125.831 186.858 125.754L186.622 123.196L191.264 111.623L185.819 112.171C185.75 112.178 185.713 112.151 185.707 112.09L185.457 109.626C185.449 109.549 185.48 109.507 185.549 109.501L194.043 108.645C194.12 108.638 194.162 108.672 194.17 108.749L194.426 111.282L189.813 122.794L195.464 122.225C195.526 122.219 195.56 122.258 195.569 122.342L195.846 124.85C195.854 124.926 195.819 124.968 195.743 124.976ZM196.769 124.757L198.048 108.335C198.057 108.272 198.092 108.238 198.153 108.232L201.558 107.889C201.619 107.883 201.66 107.91 201.682 107.969L206.112 123.816C206.127 123.892 206.1 123.933 206.032 123.94L203.429 124.202C203.353 124.21 203.307 124.176 203.292 124.1L202.865 122.406L199.667 122.728L199.589 124.473C199.589 124.55 199.554 124.592 199.486 124.599L196.872 124.862C196.811 124.868 196.776 124.833 196.769 124.757ZM200.27 113.473L199.883 120.17L202.141 119.943L200.511 113.449L200.285 112.591L200.27 113.473ZM211.414 123.399L208.765 123.665C208.697 123.672 208.658 123.637 208.651 123.561L207.295 110.172L204.246 110.479C204.169 110.486 204.127 110.452 204.12 110.376L203.877 107.748C203.87 107.687 203.898 107.654 203.959 107.647L212.878 106.75C212.962 106.741 213.007 106.768 213.013 106.829L213.279 109.454C213.287 109.53 213.26 109.571 213.199 109.578L210.115 109.888L211.494 123.275C211.501 123.351 211.475 123.392 211.414 123.399ZM218.79 122.656L216.131 122.924C216.07 122.93 216.035 122.895 216.027 122.818L214.417 106.687C214.411 106.626 214.446 106.592 214.523 106.584L217.137 106.321C217.213 106.313 217.254 106.34 217.261 106.401L217.884 112.788L221.403 112.434L220.757 106.049C220.751 105.988 220.778 105.954 220.839 105.948L223.453 105.685C223.53 105.677 223.571 105.704 223.577 105.765L225.256 121.889C225.264 121.966 225.229 122.008 225.153 122.016L222.516 122.281C222.44 122.289 222.398 122.254 222.39 122.178L221.691 115.277L218.172 115.631L218.87 122.532C218.878 122.609 218.851 122.65 218.79 122.656ZM231.785 121.58C230.952 121.664 230.162 121.527 229.415 121.17C228.677 120.812 228.057 120.299 227.557 119.631C227.064 118.955 226.774 118.189 226.688 117.333L225.958 109.891C225.869 109.02 226 108.216 226.35 107.478C226.692 106.733 227.193 106.116 227.853 105.624C228.513 105.126 229.256 104.835 230.081 104.752C230.937 104.666 231.726 104.798 232.449 105.15C233.179 105.501 233.787 106.011 234.272 106.681C234.763 107.341 235.053 108.104 235.14 108.967L235.916 116.404C236.003 117.26 235.876 118.064 235.535 118.817C235.187 119.577 234.688 120.207 234.035 120.705C233.383 121.203 232.633 121.494 231.785 121.58ZM231.498 118.748C231.972 118.701 232.365 118.468 232.678 118.05C232.99 117.625 233.122 117.172 233.073 116.691L232.297 109.253C232.244 108.734 232.036 108.311 231.671 107.985C231.306 107.659 230.871 107.521 230.367 107.572C229.885 107.62 229.49 107.837 229.182 108.224C228.873 108.61 228.746 109.07 228.801 109.605L229.554 117.045C229.606 117.557 229.822 117.983 230.204 118.323C230.585 118.655 231.017 118.797 231.498 118.748ZM240.938 120.427L238.588 120.663C238.466 120.676 238.399 120.628 238.388 120.521L236.746 104.532C236.734 104.41 236.789 104.343 236.911 104.331L239.032 104.117L243.935 112.969L242.903 103.913C242.89 103.79 242.953 103.722 243.09 103.709L245.418 103.474C245.509 103.465 245.561 103.522 245.574 103.644L247.218 119.656C247.227 119.747 247.194 119.797 247.117 119.805L245.054 120.012L240.109 111.779L241.137 120.221C241.15 120.344 241.083 120.412 240.938 120.427Z" fill="#08101D"/>
<rect x="259.597" y="72.2881" width="36.332" height="35.6135" rx="17.8068" fill="#E72020"/>
<rect x="259.597" y="72.2881" width="36.332" height="35.6135" rx="17.8068" stroke="white" stroke-width="1.02933"/>
<path d="M271.527 94.7162C270.827 94.7162 270.205 94.5962 269.662 94.3562C269.121 94.1133 268.696 93.7793 268.386 93.3542C268.077 92.9291 267.921 92.4405 267.918 91.8882H270.347C270.35 92.0588 270.402 92.212 270.503 92.3479C270.607 92.4809 270.749 92.585 270.928 92.6602C271.107 92.7354 271.313 92.773 271.544 92.773C271.767 92.773 271.963 92.734 272.134 92.6559C272.305 92.5749 272.438 92.4636 272.533 92.3219C272.628 92.1802 272.675 92.0183 272.672 91.8361C272.675 91.6568 272.62 91.4978 272.507 91.359C272.397 91.2202 272.242 91.1117 272.043 91.0337C271.843 90.9556 271.614 90.9166 271.353 90.9166H270.451V89.251H271.353C271.593 89.251 271.804 89.2119 271.987 89.1339C272.172 89.0558 272.315 88.9474 272.416 88.8086C272.52 88.6698 272.571 88.5107 272.568 88.3314C272.571 88.1579 272.529 88.0047 272.442 87.8717C272.355 87.7386 272.234 87.6345 272.078 87.5594C271.924 87.4842 271.747 87.4466 271.544 87.4466C271.324 87.4466 271.128 87.4856 270.954 87.5637C270.784 87.6418 270.649 87.7502 270.551 87.889C270.453 88.0278 270.402 88.1869 270.399 88.3661H268.092C268.094 87.8225 268.243 87.3425 268.538 86.9261C268.836 86.5097 269.244 86.1829 269.761 85.9458C270.279 85.7087 270.873 85.5902 271.544 85.5902C272.201 85.5902 272.78 85.7015 273.283 85.9241C273.789 86.1468 274.184 86.4533 274.468 86.8437C274.754 87.2312 274.896 87.675 274.893 88.1753C274.898 88.6726 274.728 89.0804 274.381 89.3984C274.037 89.7165 273.6 89.9045 273.071 89.9623V90.0317C273.788 90.1098 274.327 90.3296 274.689 90.691C275.05 91.0496 275.228 91.5007 275.222 92.0443C275.225 92.5648 275.069 93.026 274.754 93.4279C274.442 93.8299 274.006 94.1451 273.448 94.3735C272.893 94.602 272.253 94.7162 271.527 94.7162ZM277.501 94.7335C277.166 94.7335 276.878 94.6164 276.638 94.3822C276.401 94.1451 276.284 93.8574 276.287 93.519C276.284 93.1894 276.401 92.9075 276.638 92.6732C276.878 92.439 277.166 92.3219 277.501 92.3219C277.819 92.3219 278.1 92.439 278.343 92.6732C278.588 92.9075 278.713 93.1894 278.716 93.519C278.713 93.7446 278.654 93.9499 278.538 94.135C278.425 94.3171 278.278 94.4632 278.095 94.573C277.913 94.68 277.715 94.7335 277.501 94.7335ZM283.597 94.8376C282.79 94.8347 282.093 94.6482 281.506 94.2781C280.919 93.908 280.467 93.3745 280.149 92.6776C279.831 91.9807 279.673 91.145 279.676 90.1705C279.679 89.1931 279.838 88.3632 280.153 87.6808C280.471 86.9984 280.922 86.4793 281.506 86.1237C282.093 85.768 282.79 85.5902 283.597 85.5902C284.404 85.5902 285.101 85.7694 285.688 86.128C286.275 86.4837 286.727 87.0027 287.045 87.6852C287.364 88.3676 287.521 89.196 287.518 90.1705C287.518 91.1508 287.359 91.9894 287.041 92.6862C286.723 93.3831 286.27 93.9166 285.683 94.2868C285.099 94.654 284.404 94.8376 283.597 94.8376ZM283.597 92.8771C284.014 92.8771 284.355 92.6602 284.621 92.2265C284.89 91.7898 285.023 91.1045 285.02 90.1705C285.02 89.5604 284.959 89.0616 284.838 88.6741C284.716 88.2866 284.548 88.0003 284.335 87.8153C284.121 87.6273 283.875 87.5333 283.597 87.5333C283.181 87.5333 282.841 87.7444 282.578 88.1666C282.315 88.5888 282.18 89.2568 282.174 90.1705C282.172 90.7922 282.231 91.304 282.352 91.706C282.474 92.105 282.641 92.4 282.855 92.5908C283.072 92.7817 283.32 92.8771 283.597 92.8771Z" fill="white"/>
</g>
<defs>
<filter id="filter0_d_8538_93452" x="50.1979" y="88.8881" width="232.237" height="75.3738" filterUnits="userSpaceOnUse" color-interpolation-filters="sRGB">
<feFlood flood-opacity="0" result="BackgroundImageFix"/>
<feColorMatrix in="SourceAlpha" type="matrix" values="0 0 0 0 0 0 0 0 0 0 0 0 0 0 0 0 0 0 127 0" result="hardAlpha"/>
<feOffset dy="-1.25996"/>
<feGaussianBlur stdDeviation="2.80341"/>
<feComposite in2="hardAlpha" operator="out"/>
<feColorMatrix type="matrix" values="0 0 0 0 0 0 0 0 0 0 0 0 0 0 0 0 0 0 0.2 0"/>
<feBlend mode="normal" in2="BackgroundImageFix" result="effect1_dropShadow_8538_93452"/>
<feBlend mode="normal" in="SourceGraphic" in2="effect1_dropShadow_8538_93452" result="shape"/>
</filter>
<clipPath id="clip0_8538_93452">
<rect width="350" height="190.739" fill="white" transform="translate(0.5)"/>
</clipPath>
</defs>
</svg>
