<svg width="24" height="25" viewBox="0 0 24 25" fill="none" xmlns="http://www.w3.org/2000/svg">
<path d="M8.09 12.2779H3.4C3.48 7.60792 4.4 6.83792 7.27 5.13792C7.6 4.93792 7.71 4.51792 7.51 4.17792C7.32 3.84792 6.89 3.73792 6.56 3.93792C3.18 5.93792 2 7.15792 2 12.9679V18.3579C2 20.0679 3.39 21.4479 5.09 21.4479H8.09C9.85 21.4479 11.18 20.1179 11.18 18.3579V15.3579C11.18 13.6079 9.85 12.2779 8.09 12.2779Z" fill="#1D4ED8"/>
<path d="M18.9105 12.2779H14.2205C14.3005 7.60792 15.2205 6.83792 18.0905 5.13792C18.4205 4.93792 18.5305 4.51792 18.3305 4.17792C18.1305 3.84792 17.7105 3.73792 17.3705 3.93792C13.9905 5.93792 12.8105 7.15792 12.8105 12.9779V18.3679C12.8105 20.0779 14.2005 21.4579 15.9005 21.4579H18.9005C20.6605 21.4579 21.9905 20.1279 21.9905 18.3679V15.3679C22.0005 13.6079 20.6705 12.2779 18.9105 12.2779Z" fill="#1D4ED8"/>
</svg>
