<svg width="22" height="25" viewBox="0 0 22 25" fill="none" xmlns="http://www.w3.org/2000/svg">
<path fill-rule="evenodd" clip-rule="evenodd" d="M10.25 20.6924V16.9424H11.75V20.6924H10.25Z" fill="url(#paint0_linear_7955_106546)"/>
<path d="M7.25 19.9424C6.45435 19.9424 5.69129 20.2585 5.12868 20.8211C4.56607 21.3837 4.25 22.1467 4.25 22.9424V23.6924C4.25 23.8913 4.32902 24.0821 4.46967 24.2227C4.61032 24.3634 4.80109 24.4424 5 24.4424H17C17.1989 24.4424 17.3897 24.3634 17.5303 24.2227C17.671 24.0821 17.75 23.8913 17.75 23.6924V22.9424C17.75 22.1467 17.4339 21.3837 16.8713 20.8211C16.3087 20.2585 15.5456 19.9424 14.75 19.9424H7.25Z" fill="url(#paint1_linear_7955_106546)"/>
<path fill-rule="evenodd" clip-rule="evenodd" d="M0.5 5.69238C0.5 5.09565 0.737053 4.52335 1.15901 4.10139C1.58097 3.67944 2.15326 3.44238 2.75 3.44238H7.25C7.84674 3.44238 8.41903 3.67944 8.84099 4.10139C9.26295 4.52335 9.5 5.09565 9.5 5.69238V7.94238C9.5 9.13586 9.0259 10.2805 8.18198 11.1244C7.33807 11.9683 6.19347 12.4424 5 12.4424C3.80653 12.4424 2.66193 11.9683 1.81802 11.1244C0.974106 10.2805 0.5 9.13586 0.5 7.94238V5.69238ZM2.75 4.94238C2.55109 4.94238 2.36032 5.0214 2.21967 5.16205C2.07902 5.30271 2 5.49347 2 5.69238V7.94238C2 8.73803 2.31607 9.50109 2.87868 10.0637C3.44129 10.6263 4.20435 10.9424 5 10.9424C5.79565 10.9424 6.55871 10.6263 7.12132 10.0637C7.68393 9.50109 8 8.73803 8 7.94238V5.69238C8 5.49347 7.92098 5.30271 7.78033 5.16205C7.63968 5.0214 7.44891 4.94238 7.25 4.94238H2.75Z" fill="url(#paint2_linear_7955_106546)"/>
<path fill-rule="evenodd" clip-rule="evenodd" d="M12.5 5.69238C12.5 5.09565 12.7371 4.52335 13.159 4.10139C13.581 3.67944 14.1533 3.44238 14.75 3.44238H19.25C19.8467 3.44238 20.419 3.67944 20.841 4.10139C21.2629 4.52335 21.5 5.09565 21.5 5.69238V7.94238C21.5 8.53333 21.3836 9.11849 21.1575 9.66446C20.9313 10.2104 20.5998 10.7065 20.182 11.1244C19.7641 11.5422 19.268 11.8737 18.7221 12.0998C18.1761 12.326 17.5909 12.4424 17 12.4424C16.4091 12.4424 15.8239 12.326 15.2779 12.0998C14.732 11.8737 14.2359 11.5422 13.818 11.1244C13.4002 10.7065 13.0687 10.2104 12.8425 9.66446C12.6164 9.11849 12.5 8.53333 12.5 7.94238V5.69238ZM14.75 4.94238C14.5511 4.94238 14.3603 5.0214 14.2197 5.16205C14.079 5.30271 14 5.49347 14 5.69238V7.94238C14 8.73803 14.3161 9.50109 14.8787 10.0637C15.4413 10.6263 16.2044 10.9424 17 10.9424C17.7956 10.9424 18.5587 10.6263 19.1213 10.0637C19.6839 9.50109 20 8.73803 20 7.94238V5.69238C20 5.49347 19.921 5.30271 19.7803 5.16205C19.6397 5.0214 19.4489 4.94238 19.25 4.94238H14.75Z" fill="url(#paint3_linear_7955_106546)"/>
<path d="M7.25 0.442383C6.45435 0.442383 5.69129 0.758453 5.12868 1.32106C4.56607 1.88367 4.25 2.64673 4.25 3.44238V10.9424C4.25 11.8288 4.42459 12.7065 4.76381 13.5255C5.10303 14.3444 5.60023 15.0886 6.22703 15.7154C6.85382 16.3421 7.59794 16.8394 8.41689 17.1786C9.23583 17.5178 10.1136 17.6924 11 17.6924C11.8864 17.6924 12.7642 17.5178 13.5831 17.1786C14.4021 16.8394 15.1462 16.3421 15.773 15.7154C16.3998 15.0886 16.897 14.3444 17.2362 13.5255C17.5754 12.7065 17.75 11.8288 17.75 10.9424V3.44238C17.75 2.64673 17.4339 1.88367 16.8713 1.32106C16.3087 0.758453 15.5456 0.442383 14.75 0.442383H7.25Z" fill="url(#paint4_radial_7955_106546)"/>
<defs>
<linearGradient id="paint0_linear_7955_106546" x1="9.5" y1="16.1924" x2="15.5" y2="24.4424" gradientUnits="userSpaceOnUse">
<stop offset="0.174" stop-color="#EB4824"/>
<stop offset="0.563" stop-color="#FF921F" stop-opacity="0.988"/>
<stop offset="0.853" stop-color="#EB4824"/>
</linearGradient>
<linearGradient id="paint1_linear_7955_106546" x1="42.5" y1="37.9424" x2="36.362" y2="12.5444" gradientUnits="userSpaceOnUse">
<stop offset="0.184" stop-color="#FFCD0F"/>
<stop offset="1" stop-color="#FF6F47"/>
</linearGradient>
<linearGradient id="paint2_linear_7955_106546" x1="7.25" y1="7.19238" x2="-1.75" y2="7.19238" gradientUnits="userSpaceOnUse">
<stop stop-color="#EB4824"/>
<stop offset="1" stop-color="#FFCD0F" stop-opacity="0.988"/>
</linearGradient>
<linearGradient id="paint3_linear_7955_106546" x1="15.5" y1="7.19238" x2="23.75" y2="7.19238" gradientUnits="userSpaceOnUse">
<stop stop-color="#EB4824"/>
<stop offset="1" stop-color="#FFCD0F" stop-opacity="0.988"/>
</linearGradient>
<radialGradient id="paint4_radial_7955_106546" cx="0" cy="0" r="1" gradientUnits="userSpaceOnUse" gradientTransform="translate(17.7508 16.9417) rotate(-130.365) scale(19.6866 20.97)">
<stop stop-color="#FF6F47"/>
<stop offset="1" stop-color="#FFCD0F"/>
</radialGradient>
</defs>
</svg>
