<svg width="80" height="86" viewBox="0 0 80 86" fill="none" xmlns="http://www.w3.org/2000/svg">
<path d="M3.85687 15.2141C4.9507 14.8585 5.54856 13.6816 5.19223 12.5853C4.8359 11.489 3.66031 10.8884 2.56649 11.244C1.47266 11.5995 0.8748 12.7764 1.23113 13.8727C1.58746 14.9691 2.76305 15.5696 3.85687 15.2141Z" fill="#E2EBFF"/>
<path d="M8.40329 8.40217C9.14689 8.1598 9.55377 7.35881 9.31208 6.61312C9.07039 5.86743 8.27165 5.45941 7.52805 5.70178C6.78445 5.94415 6.37757 6.74513 6.61926 7.49082C6.86095 8.23651 7.65969 8.64454 8.40329 8.40217Z" fill="#E2EBFF"/>
<path d="M71.9025 7.07853C72.3439 6.67402 72.3747 5.98728 71.9714 5.54464C71.568 5.10201 70.8832 5.07109 70.4418 5.4756C70.0004 5.8801 69.9696 6.56684 70.3729 7.00947C70.7763 7.45211 71.4611 7.48303 71.9025 7.07853Z" fill="#E2EBFF"/>
<path d="M9.20139 76.7677C9.74465 76.2698 9.78259 75.4246 9.28614 74.8798C8.78969 74.3351 7.94683 74.297 7.40358 74.7949C6.86032 75.2927 6.82238 76.1379 7.31883 76.6827C7.81528 77.2275 8.65813 77.2655 9.20139 76.7677Z" fill="#E2EBFF"/>
<path d="M79.4146 27.2572V58.7426C79.4146 59.2436 79.4146 59.6612 79.3313 60.1623C78.9149 63.7535 76.8329 66.9271 73.6682 68.7644L46.5185 84.4653C43.9367 85.9686 40.8553 86.3862 38.0237 85.6345C36.9411 85.384 35.9417 84.9664 35.0256 84.4653L7.79259 68.6809C5.71055 67.5117 4.12821 65.7579 3.12883 63.67C2.3793 62.1667 1.96289 60.4129 1.96289 58.659V27.2572C1.96289 25.5869 2.29602 24.0001 2.96227 22.4968C3.96165 20.3254 5.54399 18.4881 7.70931 17.2353L34.9423 1.53444C37.6073 0.0311579 40.6055 -0.38642 43.5203 0.36522C44.5197 0.615766 45.5191 1.03334 46.5185 1.53444L73.6682 17.2353C76.0834 18.6551 77.8323 20.8265 78.7484 23.4155C79.1648 24.5847 79.4146 25.921 79.4146 27.2572Z" fill="#E2EBFF"/>
<path d="M40.7645 16.6505C40.6812 16.6505 40.5147 16.6505 40.4314 16.567C40.015 16.4 39.8484 15.8989 40.015 15.4813L46.5942 1.8683C46.7608 1.45073 47.2605 1.28369 47.6769 1.45073C48.0933 1.61776 48.2599 2.11885 48.0933 2.53643L41.5141 16.1495C41.3475 16.4835 41.0144 16.6505 40.7645 16.6505Z" fill="#84A2FF"/>
<path d="M65.8215 11.1375V75.6115C65.8215 77.4488 64.3225 78.9521 62.4903 78.9521H18.8508C17.0186 78.9521 15.5195 77.4488 15.5195 75.6115V11.1375C15.5195 9.30015 17.0186 7.79688 18.8508 7.79688H62.4903C64.3225 7.79688 65.8215 9.30015 65.8215 11.1375Z" fill="white"/>
<path d="M18.6214 37.6953H17.0391V39.2821H18.6214V37.6953Z" fill="#E2EBFF"/>
<path d="M18.6214 34.5205H17.0391V36.1073H18.6214V34.5205Z" fill="#E2EBFF"/>
<path d="M18.6214 31.3477H17.0391V32.9345H18.6214V31.3477Z" fill="#E2EBFF"/>
<path d="M18.6214 28.2578H17.0391V29.8446H18.6214V28.2578Z" fill="#EA67A4"/>
<path d="M18.6214 21.9092H17.0391V23.496H18.6214V21.9092Z" fill="#E2EBFF"/>
<path d="M21.8695 40.7852H20.2871V42.3719H21.8695V40.7852Z" fill="#E2EBFF"/>
<path d="M21.8695 37.6953H20.2871V39.2821H21.8695V37.6953Z" fill="#E2EBFF"/>
<path d="M21.8695 28.2578H20.2871V29.8446H21.8695V28.2578Z" fill="#E2EBFF"/>
<path d="M21.8695 15.6455H20.2871V17.2323H21.8695V15.6455Z" fill="#EA67A4"/>
<path d="M25.1136 40.7852H23.5312V42.3719H25.1136V40.7852Z" fill="#E2EBFF"/>
<path d="M25.1136 34.5205H23.5312V36.1073H25.1136V34.5205Z" fill="#E2EBFF"/>
<path d="M25.1136 31.3477H23.5312V32.9345H25.1136V31.3477Z" fill="#E2EBFF"/>
<path d="M25.1136 28.2578H23.5312V29.8446H25.1136V28.2578Z" fill="#EA67A4"/>
<path d="M25.1136 25.084H23.5312V26.6708H25.1136V25.084Z" fill="#E2EBFF"/>
<path d="M25.1136 21.9092H23.5312V23.496H25.1136V21.9092Z" fill="#E2EBFF"/>
<path d="M25.1136 15.6455H23.5312V17.2323H25.1136V15.6455Z" fill="#E2EBFF"/>
<path d="M25.1136 12.4727H23.5312V14.0595H25.1136V12.4727Z" fill="#E2EBFF"/>
<path d="M28.3734 37.6953H26.791V39.2821H28.3734V37.6953Z" fill="#E2EBFF"/>
<path d="M28.3734 34.5205H26.791V36.1073H28.3734V34.5205Z" fill="#E2EBFF"/>
<path d="M28.3734 25.084H26.791V26.6708H28.3734V25.084Z" fill="#E2EBFF"/>
<path d="M28.3734 18.8193H26.791V20.4061H28.3734V18.8193Z" fill="#E2EBFF"/>
<path d="M31.6976 40.7852H30.1152V42.3719H31.6976V40.7852Z" fill="#E2EBFF"/>
<path d="M31.6976 37.6953H30.1152V39.2821H31.6976V37.6953Z" fill="#E2EBFF"/>
<path d="M31.6976 28.2578H30.1152V29.8446H31.6976V28.2578Z" fill="#E2EBFF"/>
<path d="M31.6976 25.084H30.1152V26.6708H31.6976V25.084Z" fill="#EA67A4"/>
<path d="M31.6976 21.9092H30.1152V23.496H31.6976V21.9092Z" fill="#E2EBFF"/>
<path d="M34.9476 40.7852H33.3652V42.3719H34.9476V40.7852Z" fill="#E2EBFF"/>
<path d="M34.9476 37.6953H33.3652V39.2821H34.9476V37.6953Z" fill="#E2EBFF"/>
<path d="M34.9476 34.5205H33.3652V36.1073H34.9476V34.5205Z" fill="#E2EBFF"/>
<path d="M34.9476 31.3477H33.3652V32.9345H34.9476V31.3477Z" fill="#E2EBFF"/>
<path d="M34.9476 28.2578H33.3652V29.8446H34.9476V28.2578Z" fill="#E2EBFF"/>
<path d="M34.9476 25.084H33.3652V26.6708H34.9476V25.084Z" fill="#E2EBFF"/>
<path d="M34.9476 15.6455H33.3652V17.2323H34.9476V15.6455Z" fill="#E2EBFF"/>
<path d="M38.1956 40.7852H36.6133V42.3719H38.1956V40.7852Z" fill="#E2EBFF"/>
<path d="M38.1956 37.6953H36.6133V39.2821H38.1956V37.6953Z" fill="#E2EBFF"/>
<path d="M38.1956 34.5205H36.6133V36.1073H38.1956V34.5205Z" fill="#E2EBFF"/>
<path d="M38.1956 28.2578H36.6133V29.8446H38.1956V28.2578Z" fill="#E2EBFF"/>
<path d="M38.1956 25.084H36.6133V26.6708H38.1956V25.084Z" fill="#E2EBFF"/>
<path d="M41.4398 40.7852H39.8574V42.3719H41.4398V40.7852Z" fill="#84A2FF"/>
<path d="M41.4398 37.6953H39.8574V39.2821H41.4398V37.6953Z" fill="#E2EBFF"/>
<path d="M41.4398 34.5205H39.8574V36.1073H41.4398V34.5205Z" fill="#E2EBFF"/>
<path d="M41.4398 31.3477H39.8574V32.9345H41.4398V31.3477Z" fill="#E2EBFF"/>
<path d="M41.4398 28.2578H39.8574V29.8446H41.4398V28.2578Z" fill="#E2EBFF"/>
<path d="M41.4398 21.9092H39.8574V23.496H41.4398V21.9092Z" fill="#E2EBFF"/>
<path d="M44.6878 40.7852H43.1055V42.3719H44.6878V40.7852Z" fill="#E2EBFF"/>
<path d="M44.6878 37.6953H43.1055V39.2821H44.6878V37.6953Z" fill="#E2EBFF"/>
<path d="M44.6878 34.5205H43.1055V36.1073H44.6878V34.5205Z" fill="url(#paint0_linear_4809_28494)"/>
<path d="M44.6878 31.3477H43.1055V32.9345H44.6878V31.3477Z" fill="#E2EBFF"/>
<path d="M44.6878 28.2578H43.1055V29.8446H44.6878V28.2578Z" fill="#E2EBFF"/>
<path d="M44.6878 25.084H43.1055V26.6708H44.6878V25.084Z" fill="#E2EBFF"/>
<path d="M47.9378 40.7852H46.3555V42.3719H47.9378V40.7852Z" fill="#E2EBFF"/>
<path d="M47.9378 37.6953H46.3555V39.2821H47.9378V37.6953Z" fill="#E2EBFF"/>
<path d="M47.9378 34.5205H46.3555V36.1073H47.9378V34.5205Z" fill="#E2EBFF"/>
<path d="M47.9378 28.2578H46.3555V29.8446H47.9378V28.2578Z" fill="#E2EBFF"/>
<path d="M47.9378 21.9092H46.3555V23.496H47.9378V21.9092Z" fill="#E2EBFF"/>
<path d="M47.9378 12.4727H46.3555V14.0595H47.9378V12.4727Z" fill="#E2EBFF"/>
<path d="M51.18 37.6953H49.5977V39.2821H51.18V37.6953Z" fill="#E2EBFF"/>
<path d="M51.18 34.5205H49.5977V36.1073H51.18V34.5205Z" fill="#E2EBFF"/>
<path d="M51.18 31.3477H49.5977V32.9345H51.18V31.3477Z" fill="#E2EBFF"/>
<path d="M51.18 18.8193H49.5977V20.4061H51.18V18.8193Z" fill="#E2EBFF"/>
<path d="M54.4339 40.7852H52.8516V42.3719H54.4339V40.7852Z" fill="#E2EBFF"/>
<path d="M54.4339 34.5205H52.8516V36.1073H54.4339V34.5205Z" fill="#E2EBFF"/>
<path d="M54.4339 31.3477H52.8516V32.9345H54.4339V31.3477Z" fill="#EA67A4"/>
<path d="M54.4339 28.2578H52.8516V29.8446H54.4339V28.2578Z" fill="#E2EBFF"/>
<path d="M54.4339 25.084H52.8516V26.6708H54.4339V25.084Z" fill="#E2EBFF"/>
<path d="M54.4339 21.9092H52.8516V23.496H54.4339V21.9092Z" fill="#EA67A4"/>
<path d="M57.7698 40.7852H56.1875V42.3719H57.7698V40.7852Z" fill="#E2EBFF"/>
<path d="M57.7698 31.3477H56.1875V32.9345H57.7698V31.3477Z" fill="#E2EBFF"/>
<path d="M57.7698 25.084H56.1875V26.6708H57.7698V25.084Z" fill="#E2EBFF"/>
<path d="M61.0179 40.7852H59.4355V42.3719H61.0179V40.7852Z" fill="#E2EBFF"/>
<path d="M61.0179 37.6953H59.4355V39.2821H61.0179V37.6953Z" fill="#E2EBFF"/>
<path d="M61.0179 34.5205H59.4355V36.1073H61.0179V34.5205Z" fill="#E2EBFF"/>
<path d="M61.0179 31.3477H59.4355V32.9345H61.0179V31.3477Z" fill="#E2EBFF"/>
<path d="M61.0179 28.2578H59.4355V29.8446H61.0179V28.2578Z" fill="#E2EBFF"/>
<path d="M61.0179 18.8193H59.4355V20.4061H61.0179V18.8193Z" fill="#E2EBFF"/>
<path d="M64.262 40.7852H62.6797V42.3719H64.262V40.7852Z" fill="#E2EBFF"/>
<path d="M64.262 34.5205H62.6797V36.1073H64.262V34.5205Z" fill="#E2EBFF"/>
<path d="M64.262 31.3477H62.6797V32.9345H64.262V31.3477Z" fill="#E2EBFF"/>
<path d="M62.6462 51.873L64.2285 51.873L64.2285 50.2863L62.6462 50.2863L62.6462 51.873Z" fill="#E2EBFF"/>
<path d="M62.6462 48.6748L64.2285 48.6748L64.2285 47.088L62.6462 47.088L62.6462 48.6748Z" fill="#E2EBFF"/>
<path d="M62.6462 45.5605L64.2285 45.5605L64.2285 43.9738L62.6462 43.9738L62.6462 45.5605Z" fill="#E2EBFF"/>
<path d="M59.3805 54.9873L60.9629 54.9873L60.9629 53.4005L59.3805 53.4005L59.3805 54.9873Z" fill="#E2EBFF"/>
<path d="M59.3805 51.873L60.9629 51.873L60.9629 50.2863L59.3805 50.2863L59.3805 51.873Z" fill="#E2EBFF"/>
<path d="M59.3805 45.5605L60.9629 45.5605L60.9629 43.9738L59.3805 43.9738L59.3805 45.5605Z" fill="#E2EBFF"/>
<path d="M56.1169 54.9873L57.6992 54.9873L57.6992 53.4005L56.1169 53.4005L56.1169 54.9873Z" fill="#E2EBFF"/>
<path d="M56.1169 51.873L57.6992 51.873L57.6992 50.2863L56.1169 50.2863L56.1169 51.873Z" fill="#E2EBFF"/>
<path d="M56.1169 48.6748L57.6992 48.6748L57.6992 47.088L56.1169 47.088L56.1169 48.6748Z" fill="#E2EBFF"/>
<path d="M56.1169 45.5605L57.6992 45.5605L57.6992 43.9738L56.1169 43.9738L56.1169 45.5605Z" fill="#E2EBFF"/>
<path d="M52.9313 54.9873L54.5137 54.9873L54.5137 53.4005L52.9313 53.4005L52.9313 54.9873Z" fill="#E2EBFF"/>
<path d="M52.9313 51.873L54.5137 51.873L54.5137 50.2863L52.9313 50.2863L52.9313 51.873Z" fill="#E2EBFF"/>
<path d="M52.9313 48.6748L54.5137 48.6748L54.5137 47.088L52.9313 47.088L52.9313 48.6748Z" fill="#E2EBFF"/>
<path d="M52.9313 45.5605L54.5137 45.5605L54.5137 43.9738L52.9313 43.9738L52.9313 45.5605Z" fill="#E2EBFF"/>
<path d="M49.6559 54.9873L51.2383 54.9873L51.2383 53.4005L49.6559 53.4005L49.6559 54.9873Z" fill="#E2EBFF"/>
<path d="M49.6559 51.873L51.2383 51.873L51.2383 50.2863L49.6559 50.2863L49.6559 51.873Z" fill="#E2EBFF"/>
<path d="M49.6559 48.6748L51.2383 48.6748L51.2383 47.088L49.6559 47.088L49.6559 48.6748Z" fill="#E2EBFF"/>
<path d="M46.3864 54.9873L47.9688 54.9873L47.9687 53.4005L46.3864 53.4005L46.3864 54.9873Z" fill="#E2EBFF"/>
<path d="M46.3864 51.873L47.9688 51.873L47.9687 50.2863L46.3864 50.2863L46.3864 51.873Z" fill="#E2EBFF"/>
<path d="M46.3864 48.6748L47.9688 48.6748L47.9687 47.088L46.3864 47.088L46.3864 48.6748Z" fill="#E2EBFF"/>
<path d="M46.3864 45.5605L47.9688 45.5605L47.9687 43.9738L46.3864 43.9738L46.3864 45.5605Z" fill="#E2EBFF"/>
<path d="M43.1266 54.9873L44.709 54.9873L44.709 53.4005L43.1266 53.4005L43.1266 54.9873Z" fill="#E2EBFF"/>
<path d="M43.1266 51.873L44.709 51.873L44.709 50.2863L43.1266 50.2863L43.1266 51.873Z" fill="#E2EBFF"/>
<path d="M43.1266 48.6748L44.709 48.6748L44.709 47.088L43.1266 47.088L43.1266 48.6748Z" fill="#E2EBFF"/>
<path d="M39.8574 54.9823H41.4398V53.3955H39.8574V54.9823Z" fill="url(#paint1_linear_4809_28494)"/>
<path d="M39.8512 51.873L41.4336 51.873L41.4336 50.2863L39.8512 50.2863L39.8512 51.873Z" fill="#E2EBFF"/>
<path d="M39.8512 48.6748L41.4336 48.6748L41.4336 47.088L39.8512 47.088L39.8512 48.6748Z" fill="#E2EBFF"/>
<path d="M39.8512 45.5605L41.4336 45.5605L41.4336 43.9738L39.8512 43.9738L39.8512 45.5605Z" fill="#E2EBFF"/>
<path d="M36.5954 54.9873L38.1777 54.9873L38.1777 53.4005L36.5954 53.4005L36.5954 54.9873Z" fill="#E2EBFF"/>
<path d="M36.5954 51.873L38.1777 51.873L38.1777 50.2863L36.5954 50.2863L36.5954 51.873Z" fill="#E2EBFF"/>
<path d="M36.6133 48.7177H38.1956V47.1309H36.6133V48.7177Z" fill="url(#paint2_linear_4809_28494)"/>
<path d="M36.5954 45.5605L38.1777 45.5605L38.1777 43.9738L36.5954 43.9738L36.5954 45.5605Z" fill="#E2EBFF"/>
<path d="M33.3141 54.9873L34.8965 54.9873L34.8965 53.4005L33.3141 53.4005L33.3141 54.9873Z" fill="#E2EBFF"/>
<path d="M33.3141 51.873L34.8965 51.873L34.8965 50.2863L33.3141 50.2863L33.3141 51.873Z" fill="#E2EBFF"/>
<path d="M33.3141 48.6748L34.8965 48.6748L34.8965 47.088L33.3141 47.088L33.3141 48.6748Z" fill="#E2EBFF"/>
<path d="M30.0602 51.873L31.6426 51.873L31.6426 50.2863L30.0602 50.2863L30.0602 51.873Z" fill="#E2EBFF"/>
<path d="M30.0602 48.6748L31.6426 48.6748L31.6426 47.088L30.0602 47.088L30.0602 48.6748Z" fill="#E2EBFF"/>
<path d="M30.0602 45.5605L31.6426 45.5605L31.6426 43.9738L30.0602 43.9738L30.0602 45.5605Z" fill="#E2EBFF"/>
<path d="M26.8708 54.9873L28.4531 54.9873L28.4531 53.4005L26.8708 53.4005L26.8708 54.9873Z" fill="#E2EBFF"/>
<path d="M26.8708 48.6748L28.4531 48.6748L28.4531 47.088L26.8708 47.088L26.8708 48.6748Z" fill="#E2EBFF"/>
<path d="M26.8708 45.5605L28.4531 45.5605L28.4531 43.9738L26.8708 43.9738L26.8708 45.5605Z" fill="#EA67A4"/>
<path d="M23.6012 54.9873L25.1836 54.9873L25.1836 53.4005L23.6012 53.4005L23.6012 54.9873Z" fill="#E2EBFF"/>
<path d="M23.6012 45.5605L25.1836 45.5605L25.1836 43.9738L23.6012 43.9738L23.6012 45.5605Z" fill="#E2EBFF"/>
<path d="M20.3356 54.9873L21.918 54.9873L21.918 53.4005L20.3356 53.4005L20.3356 54.9873Z" fill="#E2EBFF"/>
<path d="M20.3356 51.873L21.918 51.873L21.918 50.2863L20.3356 50.2863L20.3356 51.873Z" fill="#E2EBFF"/>
<path d="M20.3356 48.6748L21.918 48.6748L21.918 47.088L20.3356 47.088L20.3356 48.6748Z" fill="#E2EBFF"/>
<path d="M17.0641 54.9873L18.6465 54.9873L18.6465 53.4005L17.0641 53.4005L17.0641 54.9873Z" fill="#E2EBFF"/>
<path d="M17.0641 48.6748L18.6465 48.6748L18.6465 47.088L17.0641 47.088L17.0641 48.6748Z" fill="#E2EBFF"/>
<path d="M17.0641 45.5605L18.6465 45.5605L18.6465 43.9738L17.0641 43.9738L17.0641 45.5605Z" fill="#E2EBFF"/>
<path d="M40.6853 19.0719C42.6171 19.0719 44.1831 17.5015 44.1831 15.5643C44.1831 13.6271 42.6171 12.0566 40.6853 12.0566C38.7535 12.0566 37.1875 13.6271 37.1875 15.5643C37.1875 17.5015 38.7535 19.0719 40.6853 19.0719Z" fill="#C7D9FF"/>
<path d="M43.4336 13.3928C43.9333 13.9774 44.1831 14.729 44.1831 15.5642C44.1831 17.485 42.6008 19.0718 40.6853 19.0718C38.7698 19.0718 37.1875 17.485 37.1875 15.5642C37.1875 14.3114 37.8538 13.2257 38.8531 12.5576" stroke="#182052" stroke-miterlimit="10" stroke-linecap="round" stroke-linejoin="round"/>
<path d="M55.6747 52.3102C55.3415 52.6443 55.0917 52.9783 54.7586 53.2289C51.0109 56.7365 46.014 58.8244 40.4342 58.8244C36.0203 58.8244 31.8562 57.4882 28.4416 55.0662C27.4423 54.3981 26.5262 53.5629 25.6934 52.7278C26.1098 52.1432 26.9426 51.7256 28.6082 51.0575L29.2745 50.8069C30.5237 50.3058 32.2726 49.6377 34.5212 48.719C34.8543 48.552 35.1874 48.385 35.354 48.0509C35.4373 47.8839 35.6039 47.7168 35.6039 47.5498C35.7704 47.2993 35.7704 46.9652 35.7704 46.6311V42.3718C35.6871 42.2883 35.6871 42.2048 35.6039 42.1213C35.2707 41.5367 35.0209 40.9521 34.9376 40.284L34.6045 40.1169C33.5218 40.3675 33.6051 39.1983 33.3553 36.9433C33.272 36.0247 33.3553 35.8576 33.7717 35.6906L34.1048 35.1895C33.272 33.3522 32.9388 31.8489 32.9388 30.5126C32.9388 28.4248 33.8549 27.005 35.1042 26.3369C34.5212 25.0006 34.4379 24.416 34.4379 24.416C34.4379 24.416 38.8518 25.1677 40.3509 24.8336C42.2664 24.416 45.2645 24.9171 46.3472 27.5061C46.597 27.5896 46.7636 27.6731 47.0134 27.7566C48.4292 28.5083 48.9289 29.5105 49.0954 30.5962C49.3453 32.6005 48.2626 34.7719 48.0128 35.6906C48.0128 35.6906 48.0128 35.7741 48.0961 35.7741C48.4292 35.9412 48.5125 36.1917 48.3459 37.0269C48.0961 39.1983 48.1793 40.451 47.0967 40.2004L46.0973 41.8708C46.0973 42.0378 46.014 42.1213 46.014 42.2883C46.014 42.6224 46.014 43.207 46.014 46.7147C46.014 46.7982 46.014 46.9652 46.014 47.0487C46.014 47.3828 46.1806 47.6333 46.3472 47.8839C46.4304 47.9674 46.5137 48.0509 46.597 48.1344C46.8468 48.385 47.0967 48.552 47.4298 48.719C49.9283 49.8047 51.7604 50.4729 53.093 50.9739C54.3422 51.5586 55.175 51.9761 55.6747 52.3102Z" fill="#E2EBFF"/>
<path d="M57.6683 58.5742C53.9207 62.0819 46.0089 58.9083 40.4291 58.9083C36.0151 58.9083 26.7709 62.4159 23.3564 60.0775C22.6901 59.5764 23.5229 57.6555 23.7728 57.0709C24.1892 55.9017 24.6056 54.7325 25.1886 53.6468C26.4378 51.2248 32.1842 50.0556 34.5161 48.8029C34.9325 48.5523 35.1823 48.3853 35.3489 48.1348C38.0972 51.9765 43.7603 51.9765 46.5086 48.2183C46.7585 48.4688 47.0083 48.6359 47.3414 48.8029C47.4247 48.8029 47.508 48.8864 47.5913 48.8864C55.3364 52.06 55.8361 51.6424 56.8355 54.5655C57.0021 55.0666 58.0014 58.2401 57.6683 58.5742Z" fill="white"/>
<path d="M57.6683 58.574C53.9207 62.0817 46.0089 58.9081 40.4291 58.9081C36.0151 58.9081 26.7709 62.4158 23.3564 60.0773C22.6901 59.5762 23.5229 57.6554 23.7728 57.0708C24.1892 55.9016 24.6056 54.7323 25.1886 53.6466C26.4378 51.2247 32.1842 50.0555 34.5161 48.8027C34.5161 48.8027 34.5161 48.8027 34.5994 48.8027C37.7641 53.2291 44.3433 53.2291 47.508 48.8862H47.5913C55.3364 52.0598 55.8361 51.6423 56.8355 54.5653C57.0021 55.0664 58.0014 58.24 57.6683 58.574Z" fill="#84A2FF"/>
<path d="M48.0085 35.6906C48.0918 35.1895 47.8419 34.5214 47.6753 34.0203C47.6753 33.9368 47.5921 33.8533 47.5921 33.7698C46.7592 32.0994 44.8438 31.3478 43.0949 31.2643C38.5144 31.0137 38.098 31.9324 36.5989 30.5962C37.0153 31.2643 37.0986 32.35 36.4324 33.6862C35.9327 34.6049 35.0166 35.0225 34.1838 35.273C32.1017 30.5126 33.1011 27.5061 35.1831 26.4204C34.5169 25.0006 34.4336 24.416 34.4336 24.416C34.4336 24.416 38.8475 25.1677 40.3466 24.8336C42.262 24.416 45.2602 24.9171 46.3428 27.5061C48.175 28.2577 48.9246 29.4269 49.0911 30.6797C49.4243 32.6841 48.2583 34.8555 48.0085 35.6906Z" fill="#182052"/>
<path d="M35.6836 41.9551C35.9334 42.3727 36.1833 42.7067 36.5997 42.9573L39.9309 45.2957C40.6805 45.9638 41.8464 45.9638 42.596 45.2957L43.7619 44.21" stroke="#182052" stroke-miterlimit="10" stroke-linecap="round" stroke-linejoin="round"/>
<path d="M57.6637 58.5743C57.9969 58.2403 57.0808 55.0667 56.9142 54.6491C55.9148 51.6425 55.9981 52.3942 47.4201 48.803C46.6706 48.5525 46.1709 47.8008 46.0876 47.1327C46.0043 46.7986 46.0043 42.7899 46.1709 41.9547L47.1703 40.2844C48.2529 40.6185 48.1697 39.2822 48.4195 37.1108C48.5028 36.2757 48.4195 36.0251 48.1697 35.8581C48.1697 35.8581 48.1697 35.7746 48.0864 35.7746C48.4195 34.2713 51.2511 29.5109 46.4207 27.5901C45.3381 25.0011 42.34 24.5835 40.4245 24.9176C38.9254 25.2516 34.5115 24.5 34.5115 24.5C34.5115 24.5 34.5115 25.0846 35.261 26.5879C32.2629 28.0912 32.7626 32.0999 34.2617 35.4405L33.9285 35.9416C33.5121 36.1087 33.3456 36.2757 33.5121 37.1944C33.762 39.4493 33.762 40.6185 34.7613 40.3679L35.0945 40.535C35.1778 41.4536 35.5109 41.9547 35.9273 42.6229C35.9273 46.5481 36.0106 47.2162 35.7607 47.8008C35.0945 49.3876 29.4313 50.7239 26.8496 52.1436" stroke="#182052" stroke-miterlimit="10" stroke-linecap="round" stroke-linejoin="round"/>
<path d="M65.8215 55.1514V75.6127C65.8215 77.45 64.3225 78.9533 62.4903 78.9533H18.8508C17.0186 78.9533 15.5195 77.45 15.5195 75.6127V55.1514H65.8215Z" fill="white"/>
<path d="M47.1852 63.0015H34.1933C33.527 63.0015 33.0273 62.5004 33.0273 61.8323C33.0273 61.1642 33.527 60.6631 34.1933 60.6631H47.1852C47.8514 60.6631 48.3511 61.1642 48.3511 61.8323C48.3511 62.5004 47.8514 63.0015 47.1852 63.0015Z" fill="#EA67A4"/>
<path d="M52.5158 68.1793H28.9472C28.2809 68.1793 27.7812 67.6782 27.7812 67.01C27.7812 66.3419 28.2809 65.8408 28.9472 65.8408H52.5158C53.1821 65.8408 53.6818 66.3419 53.6818 67.01C53.6818 67.6782 53.0988 68.1793 52.5158 68.1793Z" fill="#C7D9FF"/>
<path d="M45.3473 73.441H36.103C35.6866 73.441 35.3535 73.1069 35.3535 72.6893V71.8542C35.3535 71.4366 35.6866 71.1025 36.103 71.1025H45.3473C45.7637 71.1025 46.0968 71.4366 46.0968 71.8542V72.6893C46.0968 73.1069 45.7637 73.441 45.3473 73.441Z" fill="#C7D9FF"/>
<path d="M15.5195 18.8209V18.5703" stroke="#182052" stroke-miterlimit="10" stroke-linecap="round" stroke-linejoin="round"/>
<path d="M40.9204 7.79688H62.4903C64.3225 7.79688 65.8215 9.30015 65.8215 11.1375V75.6115C65.8215 77.4488 64.3225 78.9521 62.4903 78.9521H18.8508C17.0186 78.9521 15.5195 77.4488 15.5195 75.6115V21.911" stroke="#182052" stroke-miterlimit="10" stroke-linecap="round" stroke-linejoin="round"/>
<path d="M15.5195 14.1445V11.2215C15.5195 9.38414 17.0186 7.88086 18.8508 7.88086H35.7569" stroke="#182052" stroke-miterlimit="10" stroke-linecap="round" stroke-linejoin="round"/>
<path d="M40.5918 16.6505C40.2587 16.6505 40.0088 16.4835 39.8423 16.1495L33.263 2.53643C33.0965 2.11885 33.263 1.61776 33.6795 1.45073C34.0959 1.28369 34.5956 1.45073 34.7621 1.8683L41.3413 15.4813C41.5079 15.8989 41.3413 16.4 40.9249 16.567C40.8417 16.6505 40.6751 16.6505 40.5918 16.6505Z" fill="#84A2FF"/>
<path d="M61.2676 55.3184H61.5181" stroke="#182052" stroke-miterlimit="10" stroke-linecap="round" stroke-linejoin="round"/>
<path d="M15.541 55.3184H57.7647" stroke="#182052" stroke-miterlimit="10" stroke-linecap="round" stroke-linejoin="round"/>
<defs>
<linearGradient id="paint0_linear_4809_28494" x1="43.1107" y1="35.3213" x2="44.709" y2="35.3213" gradientUnits="userSpaceOnUse">
<stop stop-color="#FF66A9"/>
<stop offset="1" stop-color="#F53689"/>
</linearGradient>
<linearGradient id="paint1_linear_4809_28494" x1="41.4475" y1="54.1912" x2="39.8493" y2="54.1912" gradientUnits="userSpaceOnUse">
<stop stop-color="#84A2FF"/>
<stop offset="1" stop-color="#84A2FF"/>
</linearGradient>
<linearGradient id="paint2_linear_4809_28494" x1="38.1934" y1="47.9025" x2="36.5951" y2="47.9025" gradientUnits="userSpaceOnUse">
<stop stop-color="#FF66A9"/>
<stop offset="1" stop-color="#F53689"/>
</linearGradient>
</defs>
</svg>
