<svg width="1107" height="276" viewBox="0 0 1107 276" fill="none" xmlns="http://www.w3.org/2000/svg">
<g clip-path="url(#clip0_8640_93920)">
<rect width="1107" height="276" rx="16" fill="#101A33"/>
<g opacity="0.8">
<mask id="path-2-inside-1_8640_93920" fill="white">
<path d="M456.31 347.311C491.605 324.444 501.679 277.295 478.812 242.001L351 324.809C373.867 360.103 421.016 370.177 456.31 347.311Z"/>
</mask>
<path d="M456.31 347.311L457.398 348.989L457.398 348.989L456.31 347.311ZM478.812 242.001L477.725 240.322L479.403 239.235L480.491 240.913L478.812 242.001ZM351 324.809L349.322 325.896L348.234 324.218L349.913 323.13L351 324.809ZM456.31 347.311L455.223 345.632C489.59 323.366 499.4 277.455 477.134 243.088L478.812 242.001L480.491 240.913C503.958 277.134 493.619 325.522 457.398 348.989L456.31 347.311ZM478.812 242.001L479.9 243.679L352.088 326.487L351 324.809L349.913 323.13L477.725 240.322L478.812 242.001ZM351 324.809L352.679 323.721C374.945 358.089 420.856 367.898 455.223 345.632L456.31 347.311L457.398 348.989C421.176 372.457 372.789 362.118 349.322 325.896L351 324.809Z" fill="#1D4ED8" mask="url(#path-2-inside-1_8640_93920)"/>
</g>
<mask id="path-4-inside-2_8640_93920" fill="white">
<path d="M1043.68 278.637C1058.07 283.96 1065.42 299.937 1060.09 314.323L1008 295.048C1013.32 280.662 1029.3 273.315 1043.68 278.637Z"/>
</mask>
<path d="M1043.68 278.637L1045.07 274.886L1045.07 274.886L1043.68 278.637ZM1060.09 314.323L1058.71 318.074L1062.46 319.462L1063.85 315.711L1060.09 314.323ZM1008 295.048L1004.25 293.66L1002.86 297.411L1006.61 298.799L1008 295.048ZM1043.68 278.637L1042.3 282.389C1054.61 286.945 1060.9 300.621 1056.34 312.935L1060.09 314.323L1063.85 315.711C1069.94 299.253 1061.53 280.975 1045.07 274.886L1043.68 278.637ZM1060.09 314.323L1061.48 310.571L1009.39 291.296L1008 295.048L1006.61 298.799L1058.71 318.074L1060.09 314.323ZM1008 295.048L1011.75 296.436C1016.31 284.122 1029.98 277.833 1042.3 282.389L1043.68 278.637L1045.07 274.886C1028.61 268.797 1010.34 277.202 1004.25 293.66L1008 295.048Z" fill="#1D4ED8" mask="url(#path-4-inside-2_8640_93920)"/>
<mask id="path-6-inside-3_8640_93920" fill="white">
<path d="M277.371 25.3717C251.917 41.5436 218.172 34.0189 202 8.5649L294.179 -50.0002C310.351 -24.5457 302.825 9.19945 277.371 25.3717Z"/>
</mask>
<path d="M277.371 25.3717L278.651 27.3865L278.651 27.3865L277.371 25.3717ZM202 8.5649L200.72 6.55006L198.705 7.83019L199.985 9.84504L202 8.5649ZM294.179 -50.0002L296.194 -51.2803L294.913 -53.2951L292.899 -52.015L294.179 -50.0002ZM277.371 25.3717L276.091 23.3568C251.749 38.8217 219.48 31.6261 204.015 7.28477L202 8.5649L199.985 9.84504C216.864 36.4118 252.084 44.2654 278.651 27.3865L277.371 25.3717ZM202 8.5649L203.28 10.5797L295.459 -47.9853L294.179 -50.0002L292.899 -52.015L200.72 6.55006L202 8.5649ZM294.179 -50.0002L292.164 -48.7201C307.629 -24.3784 300.433 7.89158 276.091 23.3568L277.371 25.3717L278.651 27.3865C305.218 10.5073 313.072 -24.713 296.194 -51.2803L294.179 -50.0002Z" fill="#1D4ED8" mask="url(#path-6-inside-3_8640_93920)"/>
<g opacity="0.2">
<mask id="path-8-inside-4_8640_93920" fill="white">
<path d="M789.169 281.972C803.636 301.839 799.259 329.673 779.392 344.141L727 272.196C746.867 257.728 774.701 262.105 789.169 281.972Z"/>
</mask>
<path d="M789.169 281.972L792.402 279.618L789.169 281.972ZM779.392 344.141L776.159 346.496L778.514 349.729L781.747 347.374L779.392 344.141ZM727 272.196L724.646 268.963L721.412 271.317L723.767 274.551L727 272.196ZM789.169 281.972L785.935 284.327C799.102 302.408 795.119 327.74 777.038 340.907L779.392 344.141L781.747 347.374C803.4 331.606 808.17 301.271 792.402 279.618L789.169 281.972ZM779.392 344.141L782.626 341.786L730.234 269.841L727 272.196L723.767 274.551L776.159 346.496L779.392 344.141ZM727 272.196L729.355 275.43C747.436 262.262 772.768 266.246 785.935 284.327L789.169 281.972L792.402 279.618C776.634 257.965 746.298 253.194 724.646 268.963L727 272.196Z" fill="#F63A72" mask="url(#path-8-inside-4_8640_93920)"/>
</g>
<mask id="path-10-inside-5_8640_93920" fill="white">
<path d="M1175.29 97.0884C1106.65 6.35121 1128.4 -125.764 1223.88 -198L1223.89 -198L1472.47 130.588L1472.47 130.589C1376.99 202.824 1243.94 187.826 1175.29 97.0884Z"/>
</mask>
<path d="M1175.29 97.0884L1172.1 99.5017L1175.29 97.0884ZM1223.88 -198L1221.47 -201.19L1223.88 -198ZM1223.89 -198L1227.07 -200.414L1224.66 -203.604L1221.47 -201.19L1223.89 -198ZM1472.47 130.588L1474.89 133.778L1478.08 131.365L1475.66 128.175L1472.47 130.588ZM1472.47 130.589L1474.89 133.779L1472.47 130.589ZM1175.29 97.0884L1178.48 94.6751C1111.28 5.85092 1132.42 -123.79 1226.3 -194.81L1223.88 -198L1221.47 -201.19C1124.38 -127.739 1102.01 6.85147 1172.1 99.5017L1175.29 97.0884ZM1223.88 -198L1226.3 -194.81L1226.3 -194.81L1223.89 -198L1221.47 -201.19L1221.47 -201.19L1223.88 -198ZM1223.89 -198L1220.7 -195.587L1469.28 133.002L1472.47 130.588L1475.66 128.175L1227.07 -200.414L1223.89 -198ZM1472.47 130.588L1470.06 127.398L1470.06 127.399L1472.47 130.589L1474.89 133.779L1474.89 133.778L1472.47 130.588ZM1472.47 130.589L1470.06 127.399C1376.18 198.419 1245.68 183.499 1178.48 94.6751L1175.29 97.0884L1172.1 99.5017C1242.19 192.152 1377.8 207.23 1474.89 133.779L1472.47 130.589Z" fill="#F63A72" mask="url(#path-10-inside-5_8640_93920)"/>
<mask id="path-12-inside-6_8640_93920" fill="white">
<path d="M891.453 90.4521C873.459 104.739 847.289 101.734 833.002 83.7395L833.001 83.7388L898.164 31.9992L898.165 32C912.453 49.9944 909.448 76.1646 891.453 90.4521Z"/>
</mask>
<path d="M891.453 90.4521L892.075 91.2353L892.075 91.2353L891.453 90.4521ZM833.002 83.7395L833.785 83.1177L833.002 83.7395ZM833.001 83.7388L832.379 82.9556L831.596 83.5774L832.218 84.3606L833.001 83.7388ZM898.164 31.9992L898.948 31.3774L898.326 30.5942L897.543 31.216L898.164 31.9992ZM898.165 32L897.382 32.6218L898.165 32ZM891.453 90.4521L890.831 89.669C873.269 103.613 847.729 100.68 833.785 83.1177L833.002 83.7395L832.219 84.3613C846.849 102.788 873.648 105.866 892.075 91.2353L891.453 90.4521ZM833.002 83.7395L833.785 83.1177L833.784 83.1169L833.001 83.7388L832.218 84.3606L832.219 84.3613L833.002 83.7395ZM833.001 83.7388L833.623 84.5219L898.786 32.7824L898.164 31.9992L897.543 31.216L832.379 82.9556L833.001 83.7388ZM898.164 31.9992L897.381 32.621L897.382 32.6218L898.165 32L898.948 31.3781L898.948 31.3774L898.164 31.9992ZM898.165 32L897.382 32.6218C911.326 50.1837 908.393 75.7248 890.831 89.669L891.453 90.4521L892.075 91.2353C910.502 76.6043 913.579 49.8051 898.948 31.3781L898.165 32Z" fill="#FFCB66" mask="url(#path-12-inside-6_8640_93920)"/>
<mask id="path-14-inside-7_8640_93920" fill="white">
<path d="M84.8742 219.407C93.9681 236.2 87.7264 257.186 70.9331 266.28L70.9314 266.281L37.9995 205.467L38.0012 205.466C54.7945 196.372 75.7802 202.614 84.8742 219.407Z"/>
</mask>
<path d="M84.8742 219.407L85.7535 218.931L85.7535 218.931L84.8742 219.407ZM70.9331 266.28L71.4093 267.159L71.4093 267.159L70.9331 266.28ZM70.9314 266.281L70.052 266.757L70.5282 267.636L71.4076 267.16L70.9314 266.281ZM37.9995 205.467L37.5233 204.588L36.6439 205.064L37.1201 205.943L37.9995 205.467ZM38.0012 205.466L37.525 204.587L37.525 204.587L38.0012 205.466ZM84.8742 219.407L83.9948 219.883C92.8257 236.191 86.7646 256.57 70.4569 265.401L70.9331 266.28L71.4093 267.159C88.6882 257.802 95.1104 236.21 85.7535 218.931L84.8742 219.407ZM70.9331 266.28L70.4569 265.401L70.4552 265.402L70.9314 266.281L71.4076 267.16L71.4093 267.159L70.9331 266.28ZM70.9314 266.281L71.8107 265.805L38.8788 204.991L37.9995 205.467L37.1201 205.943L70.052 266.757L70.9314 266.281ZM37.9995 205.467L38.4757 206.346L38.4774 206.345L38.0012 205.466L37.525 204.587L37.5233 204.588L37.9995 205.467ZM38.0012 205.466L38.4774 206.345C54.7851 197.515 75.1638 203.576 83.9948 219.883L84.8742 219.407L85.7535 218.931C76.3965 201.652 54.804 195.23 37.525 204.587L38.0012 205.466Z" fill="#F63A72" mask="url(#path-14-inside-7_8640_93920)"/>
</g>
<defs>
<clipPath id="clip0_8640_93920">
<rect width="1107" height="276" rx="16" fill="white"/>
</clipPath>
</defs>
</svg>
