<svg width="11" height="10" viewBox="0 0 11 10" fill="none" xmlns="http://www.w3.org/2000/svg">
<path d="M6.22086 1.46309L6.95419 2.92975C7.05419 3.13392 7.32086 3.32975 7.54586 3.36725L8.87502 3.58809C9.72502 3.72975 9.92502 4.34642 9.31252 4.95475L8.27919 5.98809C8.10419 6.16309 8.00836 6.50059 8.06252 6.74225L8.35836 8.02142C8.59169 9.03392 8.05419 9.42559 7.15836 8.89642L5.91252 8.15892C5.68752 8.02559 5.31669 8.02559 5.08752 8.15892L3.84169 8.89642C2.95002 9.42559 2.40836 9.02975 2.64169 8.02142L2.93752 6.74225C2.99169 6.50059 2.89586 6.16309 2.72086 5.98809L1.68752 4.95475C1.07919 4.34642 1.27502 3.72975 2.12502 3.58809L3.45419 3.36725C3.67502 3.32975 3.94169 3.13392 4.04169 2.92975L4.77502 1.46309C5.17502 0.667253 5.82502 0.667253 6.22086 1.46309Z" stroke="#EEBB3E" stroke-width="0.72" stroke-linecap="round" stroke-linejoin="round"/>
</svg>
