<svg width="32" height="32" viewBox="0 0 32 32" fill="none" xmlns="http://www.w3.org/2000/svg">
<rect x="0.5" y="0.686523" width="30.6255" height="30.6274" rx="15.3128" fill="#335CFF" fill-opacity="0.1"/>
<path d="M23.0125 22.4133C23.0754 22.4968 23.1137 22.5963 23.1232 22.7004C23.1327 22.8046 23.113 22.9093 23.0662 23.0029C23.0195 23.0964 22.9476 23.1751 22.8586 23.23C22.7696 23.285 22.6671 23.3141 22.5625 23.314H9.0625C8.95804 23.314 8.85564 23.2849 8.76678 23.23C8.67792 23.175 8.6061 23.0965 8.55938 23.003C8.51267 22.9096 8.49289 22.805 8.50227 22.7009C8.51165 22.5969 8.54982 22.4975 8.6125 22.414C9.11058 21.7462 9.77478 21.2204 10.5391 20.8889C10.1201 20.5065 9.82658 20.0064 9.69696 19.4543C9.56735 18.9021 9.60771 18.3236 9.81276 17.7948C10.0178 17.2659 10.378 16.8115 10.8459 16.491C11.3139 16.1705 11.8678 15.999 12.435 15.999C13.0022 15.999 13.5562 16.1705 14.0241 16.491C14.4921 16.8115 14.8523 17.2659 15.0573 17.7948C15.2624 18.3236 15.3027 18.9021 15.1731 19.4543C15.0435 20.0064 14.75 20.5065 14.331 20.8889C14.8824 21.1272 15.3835 21.4682 15.8076 21.8937C16.2317 21.4682 16.7327 21.1272 17.2841 20.8889C16.8652 20.5065 16.5717 20.0064 16.442 19.4543C16.3124 18.9021 16.3528 18.3236 16.5578 17.7948C16.7629 17.2659 17.123 16.8115 17.591 16.491C18.059 16.1705 18.6129 15.999 19.1801 15.999C19.7473 15.999 20.3012 16.1705 20.7692 16.491C21.2372 16.8115 21.5974 17.2659 21.8024 17.7948C22.0074 18.3236 22.0478 18.9021 21.9182 19.4543C21.7886 20.0064 21.495 20.5065 21.0761 20.8889C21.8439 21.2186 22.5117 21.7443 23.0125 22.4133ZM8.725 15.889C8.7841 15.9333 8.85134 15.9655 8.9229 15.9839C8.99446 16.0022 9.06892 16.0063 9.14205 15.9958C9.21518 15.9854 9.28553 15.9606 9.34909 15.923C9.41265 15.8853 9.46818 15.8356 9.5125 15.7765C9.85307 15.3224 10.2947 14.9538 10.8024 14.7C11.3101 14.4461 11.8699 14.314 12.4375 14.314C13.0051 14.314 13.5649 14.4461 14.0726 14.7C14.5803 14.9538 15.0219 15.3224 15.3625 15.7765C15.4149 15.8463 15.4828 15.903 15.5609 15.9421C15.639 15.9811 15.7252 16.0015 15.8125 16.0015C15.8998 16.0015 15.986 15.9811 16.0641 15.9421C16.1422 15.903 16.2101 15.8463 16.2625 15.7765C16.6031 15.3224 17.0447 14.9538 17.5524 14.7C18.0601 14.4461 18.6199 14.314 19.1875 14.314C19.7551 14.314 20.3149 14.4461 20.8226 14.7C21.3303 14.9538 21.7719 15.3224 22.1125 15.7765C22.1569 15.8356 22.2124 15.8853 22.276 15.923C22.3396 15.9606 22.41 15.9853 22.4832 15.9957C22.5564 16.0061 22.6309 16.002 22.7024 15.9836C22.774 15.9653 22.8413 15.933 22.9004 15.8886C22.9594 15.8442 23.0092 15.7887 23.0468 15.7251C23.0845 15.6615 23.1092 15.5911 23.1196 15.5179C23.13 15.4448 23.1259 15.3703 23.1075 15.2987C23.0892 15.2271 23.0569 15.1599 23.0125 15.1008C22.5144 14.4332 21.8502 13.9076 21.0859 13.5764C21.5049 13.194 21.7984 12.6939 21.928 12.1418C22.0577 11.5896 22.0173 11.0111 21.8122 10.4823C21.6072 9.95344 21.247 9.49896 20.7791 9.17849C20.3111 8.85801 19.7572 8.68652 19.19 8.68652C18.6228 8.68652 18.0688 8.85801 17.6009 9.17849C17.1329 9.49896 16.7727 9.95344 16.5677 10.4823C16.3626 11.0111 16.3223 11.5896 16.4519 12.1418C16.5815 12.6939 16.875 13.194 17.294 13.5764C16.7426 13.8147 16.2415 14.1557 15.8174 14.5812C15.3933 14.1557 14.8923 13.8147 14.3409 13.5764C14.7598 13.194 15.0533 12.6939 15.183 12.1418C15.3126 11.5896 15.2722 11.0111 15.0672 10.4823C14.8621 9.95344 14.502 9.49896 14.034 9.17849C13.566 8.85801 13.0121 8.68652 12.4449 8.68652C11.8777 8.68652 11.3238 8.85801 10.8558 9.17849C10.3878 9.49896 10.0276 9.95344 9.8226 10.4823C9.61755 11.0111 9.57719 11.5896 9.70681 12.1418C9.83643 12.6939 10.13 13.194 10.5489 13.5764C9.78104 13.9064 9.1133 14.4323 8.6125 15.1015C8.56818 15.1606 8.53593 15.2278 8.5176 15.2994C8.49927 15.3709 8.49521 15.4454 8.50565 15.5185C8.5161 15.5916 8.54085 15.662 8.57848 15.7256C8.61612 15.7891 8.66591 15.8446 8.725 15.889Z" fill="#335CFF"/>
</svg>
