<svg width="30" height="31" viewBox="0 0 30 31" fill="none" xmlns="http://www.w3.org/2000/svg">
<path d="M27.1499 14.1094C26.6571 13.6094 26.0572 13.1761 25.5002 12.7427C24.0647 11.7427 22.4364 11.026 21.0653 9.97599C17.873 7.54259 17.166 3.5258 19.2013 0.442383C17.166 0.825727 15.3877 1.69242 13.8666 2.64245C8.3176 6.10921 6.13228 12.2261 8.74609 17.4762C8.83179 17.6429 8.91749 17.8095 8.91749 18.0262C8.91749 18.3929 8.59612 18.7262 8.16763 18.8596C7.67486 19.0262 7.16067 18.9262 6.7536 18.6596C6.632 18.5803 6.53031 18.4843 6.45365 18.3762C4.03267 15.9928 3.64702 12.5761 5.2753 9.84265C1.69738 12.1094 -0.252261 15.9428 0.0262596 19.5596C0.154808 20.393 0.283355 21.2263 0.647574 22.0597C0.94752 23.0597 1.52599 24.0597 2.16872 24.9431C4.48259 27.8265 8.489 29.8932 12.7954 30.3099C17.3802 30.7599 22.2865 30.1099 25.8001 27.6432C29.7208 24.8764 31.092 20.443 29.0781 16.6428L28.7996 16.2095C28.3496 15.4428 27.1499 14.1094 27.1499 14.1094ZM20.3797 24.6097C19.7798 25.0098 18.7943 25.4431 18.023 25.6098C15.6234 26.2765 13.2238 25.3431 11.8098 24.2431C14.3594 23.7764 15.8805 22.3097 16.3304 20.8263C16.6946 19.4929 16.009 18.3929 15.7305 17.1095C15.4734 15.8762 15.5163 14.8261 16.0947 13.6761C16.5018 14.3094 16.9303 14.9428 17.4445 15.4428C19.0942 17.1095 21.6866 17.8429 22.2436 20.1096C22.3293 20.343 22.3722 20.5763 22.3722 20.8263C22.4364 22.193 21.6652 23.693 20.3797 24.6097Z" fill="url(#paint0_linear_7955_106512)"/>
<defs>
<linearGradient id="paint0_linear_7955_106512" x1="15" y1="0.442383" x2="15" y2="30.4424" gradientUnits="userSpaceOnUse">
<stop stop-color="#FF611B"/>
<stop offset="1" stop-color="#FF9329"/>
</linearGradient>
</defs>
</svg>
