<svg width="295" height="254" viewBox="0 0 295 254" fill="none" xmlns="http://www.w3.org/2000/svg">
<path d="M149.584 254C219.41 254 276.016 197.142 276.016 127C276.016 56.8584 219.409 0 149.584 0C79.7596 0 23.1539 56.8584 23.1539 127C23.1539 197.142 79.7562 254 149.584 254Z" fill="#D3D9EC"/>
<path d="M27.644 52.6047C28.8483 52.2196 29.9111 51.4856 30.6977 50.4958C31.4843 49.5059 31.9593 48.3048 32.0625 47.0446C32.1656 45.7845 31.8923 44.5221 31.2771 43.4175C30.6619 42.3129 29.7326 41.4158 28.607 40.84C27.4813 40.2642 26.2101 40.0356 24.9544 40.1832C23.6987 40.3307 22.5151 40.8479 21.5536 41.6689C20.5922 42.49 19.8961 43.578 19.5538 44.7952C19.2114 46.0123 19.2382 47.3037 19.6307 48.5056C20.1557 50.1076 21.2925 51.4373 22.7934 52.205C24.2943 52.9728 26.0377 53.1164 27.644 52.6047V52.6047Z" fill="#D3D9EC"/>
<path d="M41.5268 31.7626C42.346 31.5007 43.0689 31.0014 43.6039 30.3281C44.139 29.6548 44.462 28.8379 44.5322 27.9808C44.6024 27.1237 44.4166 26.265 43.9983 25.5136C43.5799 24.7623 42.9478 24.152 42.1823 23.7603C41.4167 23.3686 40.552 23.2129 39.6979 23.3132C38.8438 23.4134 38.0387 23.765 37.3846 24.3233C36.7305 24.8816 36.2569 25.6216 36.0238 26.4494C35.7908 27.2772 35.8088 28.1556 36.0755 28.9732C36.4329 30.0629 37.2062 30.9673 38.2272 31.4897C39.2481 32.0121 40.434 32.1102 41.5268 31.7626V31.7626Z" fill="#D3D9EC"/>
<path d="M291.686 95.1649C293.58 93.4234 294.708 91.0029 294.823 88.4324C294.938 85.8619 294.032 83.3503 292.301 81.4463C291.447 80.5058 290.415 79.7435 289.265 79.2031C288.115 78.6627 286.87 78.3549 285.601 78.2975C284.332 78.24 283.064 78.4341 281.87 78.8684C280.676 79.3027 279.58 79.9687 278.644 80.8282C276.751 82.5703 275.624 84.9906 275.508 87.5608C275.393 90.131 276.3 92.6425 278.03 94.5468C278.883 95.4879 279.915 96.2507 281.065 96.7914C282.214 97.3322 283.46 97.6402 284.729 97.6976C285.999 97.7551 287.267 97.5609 288.461 97.1262C289.655 96.6915 290.751 96.025 291.686 95.1649V95.1649Z" fill="#D3D9EC"/>
<path d="M292.588 51.8227C293.386 51.0893 293.861 50.07 293.909 48.9874C293.958 47.9049 293.576 46.8471 292.847 46.0451C292.488 45.6498 292.054 45.3295 291.57 45.1025C291.086 44.8755 290.563 44.7463 290.029 44.7222C289.495 44.6982 288.962 44.7799 288.46 44.9625C287.958 45.1452 287.497 45.4252 287.103 45.7866C286.306 46.5199 285.832 47.5386 285.783 48.6204C285.735 49.7022 286.116 50.7592 286.845 51.5608C287.204 51.9561 287.638 52.2765 288.121 52.5037C288.605 52.7309 289.128 52.8604 289.662 52.8848C290.195 52.9091 290.729 52.8278 291.231 52.6455C291.733 52.4633 292.194 52.1837 292.588 51.8227V51.8227Z" fill="#D3D9EC"/>
<path d="M16.2804 178.106C17.2924 178.111 18.283 177.815 19.1267 177.256C19.9705 176.697 20.6294 175.901 21.0199 174.967C21.4105 174.033 21.5151 173.005 21.3205 172.012C21.1259 171.019 20.6409 170.106 19.9269 169.388C19.2129 168.671 18.3021 168.182 17.3099 167.983C16.3177 167.784 15.2887 167.884 14.3533 168.27C13.418 168.657 12.6184 169.312 12.0558 170.153C11.4932 170.994 11.193 171.984 11.1932 172.996C11.1905 174.348 11.7249 175.646 12.6788 176.604C13.6328 177.562 14.9282 178.102 16.2804 178.106V178.106Z" fill="#EA67A4"/>
<path d="M247.523 13.7984C248.332 13.8021 249.124 13.5655 249.798 13.1186C250.473 12.6717 251 12.0346 251.312 11.2881C251.624 10.5416 251.708 9.7192 251.552 8.9251C251.397 8.131 251.009 7.40091 250.438 6.82736C249.868 6.2538 249.139 5.86256 248.346 5.70321C247.553 5.54386 246.73 5.62357 245.982 5.93223C245.234 6.24089 244.594 6.76464 244.144 7.4371C243.694 8.10955 243.454 8.90046 243.453 9.70965C243.451 10.7914 243.878 11.8299 244.641 12.5967C245.404 13.3634 246.441 13.7957 247.523 13.7984V13.7984Z" fill="#EA67A4"/>
<path d="M3.30762 101.192C3.96538 101.195 4.60921 101.002 5.15756 100.639C5.7059 100.276 6.13407 99.7579 6.38783 99.1511C6.6416 98.5442 6.70949 97.8757 6.58298 97.2302C6.45647 96.5847 6.14122 95.9914 5.67716 95.5252C5.21309 95.059 4.62114 94.7411 3.97623 94.6117C3.33132 94.4823 2.66254 94.5472 2.05456 94.7982C1.44658 95.0493 0.926729 95.4751 0.560981 96.0218C0.195234 96.5685 1.94111e-05 97.2115 1.27655e-05 97.8692C-0.00119566 98.3046 0.0834029 98.736 0.249013 99.1387C0.414623 99.5414 0.657977 99.9075 0.965159 100.216C1.27234 100.525 1.63735 100.77 2.03927 100.937C2.4412 101.104 2.87222 101.191 3.30762 101.192Z" fill="#EA67A4"/>
<path d="M38.1594 183.73V56.9834C38.1429 55.9082 38.342 54.8405 38.7448 53.8435C39.1477 52.8464 39.7462 51.9401 40.5049 51.1781C41.2637 50.4161 42.1675 49.8138 43.1628 49.4068C44.1582 48.9997 45.2249 48.7962 46.3002 48.8081H252.357C253.432 48.7963 254.499 49 255.494 49.4071C256.489 49.8142 257.393 50.4166 258.152 51.1786C258.91 51.9405 259.509 52.8468 259.911 53.8438C260.314 54.8407 260.513 55.9083 260.497 56.9834V210.305L38.1594 208.007" fill="white"/>
<path d="M38.1594 178.107V56.9834C38.1429 55.9082 38.342 54.8405 38.7448 53.8435C39.1477 52.8464 39.7462 51.9401 40.5049 51.1781C41.2637 50.4161 42.1675 49.8138 43.1628 49.4068C44.1582 48.9997 45.2249 48.7962 46.3002 48.8081H252.357C253.432 48.7963 254.499 49 255.494 49.4071C256.489 49.8142 257.393 50.4166 258.152 51.1786C258.91 51.9405 259.509 52.8468 259.911 53.8438C260.314 54.8407 260.513 55.9083 260.497 56.9834V198.294H195.119" stroke="#182052" stroke-miterlimit="10" stroke-linecap="round" stroke-linejoin="round"/>
<path d="M273.474 198.548V204.938C273.474 210.815 268.387 212.349 262.281 212.349H36.8877C30.7849 212.349 25.6943 211.07 25.6943 204.938V198.548H127.705C128.189 199.768 129.032 200.812 130.123 201.542C131.213 202.272 132.499 202.654 133.812 202.637H165.357C166.661 202.619 167.932 202.223 169.016 201.497C170.1 200.771 170.95 199.747 171.463 198.548H273.474Z" fill="#D3D9EC"/>
<path d="M187.234 198.548H273.22V204.938C273.22 210.815 268.131 212.349 262.027 212.349H36.8877C30.7849 212.349 25.6943 211.07 25.6943 204.938V198.548H127.705C128.189 199.768 129.032 200.812 130.123 201.542C131.213 202.272 132.499 202.654 133.812 202.637H165.357C166.661 202.619 167.932 202.223 169.016 201.497C170.1 200.771 170.95 199.747 171.463 198.548" stroke="#182052" stroke-miterlimit="10" stroke-linecap="round" stroke-linejoin="round"/>
<path d="M53.1683 67.2049C53.6741 67.2069 54.1691 67.0588 54.5906 66.7793C55.0122 66.4998 55.3413 66.1015 55.5362 65.6348C55.7312 65.1681 55.7833 64.654 55.6859 64.1577C55.5884 63.6614 55.3459 63.2051 54.989 62.8468C54.6321 62.4884 54.1768 62.244 53.6809 62.1446C53.185 62.0452 52.6707 62.0951 52.2032 62.2882C51.7358 62.4813 51.3361 62.8088 51.0549 63.2292C50.7737 63.6496 50.6235 64.144 50.6235 64.6498C50.6226 64.9847 50.6878 65.3165 50.8153 65.6263C50.9427 65.936 51.1299 66.2176 51.3663 66.4549C51.6026 66.6922 51.8834 66.8806 52.1926 67.0093C52.5019 67.138 52.8334 67.2044 53.1683 67.2049V67.2049Z" fill="#B2C0F1"/>
<path d="M60.035 67.2048C60.5409 67.2073 61.0361 67.0596 61.458 66.7804C61.8798 66.5012 62.2093 66.103 62.4046 65.6363C62.5999 65.1697 62.6523 64.6556 62.5552 64.1591C62.458 63.6626 62.2157 63.2062 61.8589 62.8476C61.502 62.489 61.0468 62.2444 60.5508 62.1448C60.0548 62.0451 59.5404 62.095 59.0728 62.288C58.6052 62.481 58.2054 62.8085 57.9241 63.2289C57.6428 63.6494 57.4926 64.1439 57.4926 64.6498C57.4917 64.9845 57.5568 65.3161 57.6841 65.6257C57.8114 65.9353 57.9983 66.2167 58.2344 66.454C58.4705 66.6913 58.7511 66.8797 59.06 67.0086C59.369 67.1374 59.7003 67.2041 60.035 67.2048V67.2048Z" fill="#B2C0F1"/>
<path d="M66.65 67.2049C67.1558 67.2069 67.6508 67.0588 68.0723 66.7793C68.4939 66.4998 68.8229 66.1015 69.0179 65.6348C69.2129 65.1681 69.265 64.654 69.1676 64.1577C69.0701 63.6614 68.8276 63.2051 68.4707 62.8468C68.1138 62.4884 67.6585 62.244 67.1626 62.1446C66.6667 62.0452 66.1524 62.0951 65.6849 62.2882C65.2174 62.4813 64.8178 62.8088 64.5366 63.2292C64.2554 63.6496 64.1052 64.144 64.1052 64.6498C64.1043 64.9847 64.1695 65.3165 64.2969 65.6263C64.4244 65.936 64.6116 66.2176 64.848 66.4549C65.0843 66.6922 65.3651 66.8806 65.6743 67.0093C65.9835 67.138 66.3151 67.2044 66.65 67.2049V67.2049Z" fill="#B2C0F1"/>
<path d="M236.584 106.557H169.934C169.633 106.557 169.334 106.498 169.056 106.382C168.777 106.267 168.524 106.098 168.312 105.884C168.099 105.671 167.93 105.417 167.816 105.138C167.702 104.859 167.644 104.56 167.646 104.259V80.4889C167.644 80.1875 167.702 79.8887 167.816 79.6097C167.93 79.3308 168.099 79.0773 168.312 78.8637C168.524 78.6501 168.777 78.4807 169.056 78.3653C169.334 78.2499 169.633 78.1907 169.934 78.1912H236.584C236.886 78.1907 237.184 78.2499 237.463 78.3653C237.742 78.4807 237.995 78.65 238.208 78.8636C238.42 79.0771 238.589 79.3306 238.704 79.6096C238.818 79.8885 238.876 80.1873 238.875 80.4889V104.253C239.129 105.534 238.11 106.557 236.584 106.557Z" fill="#D3D9EC"/>
<path d="M239.129 140.798C239.131 141.099 239.072 141.398 238.958 141.677C238.844 141.956 238.675 142.209 238.463 142.423C238.25 142.636 237.997 142.806 237.719 142.921C237.44 143.037 237.142 143.096 236.84 143.096H169.934C169.633 143.096 169.334 143.037 169.056 142.922C168.777 142.806 168.524 142.637 168.312 142.423C168.099 142.21 167.93 141.956 167.816 141.677C167.702 141.398 167.644 141.099 167.646 140.798V117.035C167.644 116.733 167.702 116.435 167.816 116.156C167.93 115.877 168.099 115.623 168.312 115.41C168.524 115.196 168.777 115.027 169.056 114.911C169.334 114.796 169.633 114.737 169.934 114.737H236.584C236.886 114.737 237.184 114.796 237.463 114.911C237.742 115.027 237.995 115.196 238.208 115.41C238.42 115.623 238.589 115.877 238.704 116.156C238.818 116.435 238.876 116.733 238.875 117.035V140.799L239.129 140.798Z" fill="#D3D9EC"/>
<path d="M225.644 88.6702H180.874C180.535 88.6702 180.21 88.5356 179.97 88.2961C179.731 88.0565 179.596 87.7315 179.596 87.3927C179.596 87.0539 179.731 86.7289 179.97 86.4893C180.21 86.2497 180.535 86.1151 180.874 86.1151H225.644C225.814 86.1054 225.984 86.1318 226.143 86.1926C226.302 86.2535 226.446 86.3474 226.566 86.4682C226.686 86.5889 226.779 86.7338 226.839 86.8931C226.899 87.0525 226.924 87.2228 226.913 87.3927C226.663 88.1567 226.155 88.6702 225.644 88.6702Z" fill="#B2C0F1"/>
<path d="M209.874 98.1226H180.874C180.535 98.1226 180.209 97.9879 179.969 97.7481C179.73 97.5083 179.595 97.183 179.595 96.8439C179.595 96.5048 179.73 96.1795 179.969 95.9397C180.209 95.6999 180.535 95.5652 180.874 95.5652H210.128C210.298 95.5555 210.469 95.5819 210.628 95.6427C210.787 95.7035 210.931 95.7974 211.052 95.9181C211.172 96.0388 211.265 96.1836 211.326 96.343C211.386 96.5024 211.412 96.6727 211.401 96.8427C211.146 97.3597 210.636 98.1226 209.874 98.1226Z" fill="#B2C0F1"/>
<path d="M225.644 125.213H180.874C180.535 125.213 180.21 125.078 179.97 124.839C179.731 124.599 179.596 124.274 179.596 123.935C179.596 123.596 179.731 123.271 179.97 123.032C180.21 122.792 180.535 122.658 180.874 122.658H225.644C225.814 122.648 225.984 122.674 226.143 122.735C226.302 122.796 226.446 122.89 226.566 123.011C226.686 123.131 226.779 123.276 226.839 123.436C226.899 123.595 226.924 123.765 226.913 123.935C226.663 124.703 226.155 125.213 225.644 125.213Z" fill="#B2C0F1"/>
<path d="M209.874 134.668H180.874C180.535 134.668 180.209 134.533 179.969 134.293C179.73 134.053 179.595 133.728 179.595 133.389C179.595 133.05 179.73 132.724 179.969 132.485C180.209 132.245 180.535 132.11 180.874 132.11H210.128C210.298 132.1 210.469 132.127 210.628 132.188C210.787 132.248 210.931 132.342 211.052 132.463C211.172 132.584 211.265 132.728 211.326 132.888C211.386 133.047 211.412 133.218 211.401 133.388C211.326 133.741 211.135 134.059 210.858 134.291C210.582 134.523 210.235 134.655 209.874 134.668V134.668Z" fill="#B2C0F1"/>
<path d="M239.128 177.596C239.129 177.898 239.071 178.197 238.956 178.476C238.842 178.755 238.673 179.008 238.46 179.222C238.248 179.435 237.994 179.605 237.716 179.72C237.437 179.835 237.139 179.895 236.837 179.894H169.933C169.631 179.895 169.333 179.835 169.054 179.72C168.776 179.605 168.523 179.435 168.31 179.222C168.097 179.008 167.928 178.755 167.814 178.476C167.699 178.197 167.641 177.898 167.642 177.596V153.832C167.641 153.531 167.699 153.232 167.814 152.953C167.928 152.674 168.097 152.42 168.31 152.207C168.523 151.993 168.776 151.824 169.054 151.709C169.333 151.593 169.631 151.534 169.933 151.534H236.583C236.885 151.534 237.183 151.593 237.462 151.709C237.74 151.824 237.993 151.993 238.206 152.207C238.418 152.421 238.587 152.674 238.701 152.953C238.815 153.232 238.873 153.531 238.872 153.832V177.596H239.128Z" fill="#D3D9EC"/>
<path d="M225.644 162.264H180.874C180.535 162.264 180.21 162.129 179.97 161.89C179.731 161.65 179.596 161.325 179.596 160.986C179.596 160.647 179.731 160.322 179.97 160.083C180.21 159.843 180.535 159.709 180.874 159.709H225.644C225.814 159.699 225.984 159.725 226.143 159.786C226.302 159.847 226.446 159.941 226.566 160.062C226.686 160.182 226.779 160.327 226.839 160.487C226.899 160.646 226.924 160.816 226.913 160.986C226.663 161.752 226.155 162.264 225.644 162.264Z" fill="#B2C0F1"/>
<path d="M209.874 171.719H180.874C180.535 171.719 180.21 171.585 179.97 171.345C179.731 171.106 179.596 170.781 179.596 170.442C179.596 170.103 179.731 169.778 179.97 169.539C180.21 169.299 180.535 169.164 180.874 169.164H210.128C210.298 169.154 210.469 169.181 210.628 169.242C210.787 169.302 210.932 169.396 211.052 169.517C211.172 169.638 211.266 169.783 211.326 169.942C211.386 170.101 211.412 170.272 211.401 170.442C211.146 170.952 210.636 171.719 209.874 171.719Z" fill="#B2C0F1"/>
<path d="M149.073 148.718H59.2722C58.7344 148.724 58.2007 148.623 57.7027 148.419C57.2048 148.216 56.7527 147.915 56.3733 147.533C55.9939 147.152 55.6948 146.699 55.4938 146.2C55.2927 145.701 55.1939 145.167 55.203 144.629V82.5361C55.1939 81.9983 55.2927 81.4642 55.4938 80.9653C55.6948 80.4664 55.9939 80.0128 56.3733 79.6316C56.7527 79.2503 57.2048 78.9491 57.7027 78.7456C58.2007 78.5422 58.7344 78.4408 59.2722 78.4473H149.332C149.869 78.4413 150.403 78.543 150.901 78.7466C151.399 78.9502 151.851 79.2514 152.23 79.6325C152.61 80.0136 152.909 80.4669 153.111 80.9656C153.312 81.4643 153.412 81.9984 153.403 82.5361V144.629C153.32 145.727 152.831 146.755 152.03 147.511C151.229 148.268 150.174 148.698 149.073 148.718Z" fill="#D3D9EC"/>
<path d="M106.083 133.39H73.5181L89.8055 114.99L106.083 133.39Z" fill="#B2C0F1"/>
<path d="M132.793 133.39H85.9844L109.387 106.812L132.793 133.39Z" fill="white"/>
<path d="M85.7304 108.346C86.9444 108.351 88.1326 107.996 89.1446 107.325C90.1565 106.654 90.9466 105.699 91.4149 104.579C91.8831 103.458 92.0084 102.225 91.7749 101.033C91.5413 99.842 90.9595 98.7468 90.103 97.8864C89.2465 97.0261 88.1539 96.4393 86.9637 96.2004C85.7734 95.9615 84.5391 96.0812 83.4169 96.5444C82.2948 97.0076 81.3353 97.7934 80.6601 98.8024C79.985 99.8113 79.6244 100.998 79.6242 102.212C79.6222 103.016 79.7786 103.812 80.0844 104.555C80.3903 105.298 80.8396 105.974 81.4066 106.544C81.9737 107.113 82.6474 107.566 83.3892 107.875C84.1311 108.184 84.9266 108.344 85.7304 108.346V108.346Z" fill="#B2C0F1"/>
<path d="M151.618 173.251H56.9837C56.5094 173.251 56.0545 173.062 55.7192 172.727C55.3838 172.392 55.1954 171.937 55.1954 171.463C55.1954 170.988 55.3838 170.533 55.7192 170.198C56.0545 169.863 56.5094 169.674 56.9837 169.674H151.618C151.854 169.669 152.088 169.712 152.307 169.8C152.526 169.888 152.724 170.02 152.891 170.187C153.057 170.354 153.188 170.553 153.275 170.772C153.363 170.992 153.405 171.226 153.399 171.462C153.329 171.91 153.119 172.325 152.799 172.646C152.479 172.967 152.066 173.179 151.618 173.251V173.251Z" fill="#D3D9EC"/>
<path d="M151.618 162.521H56.9836C56.509 162.521 56.0539 162.332 55.7183 161.997C55.3827 161.661 55.1942 161.206 55.1942 160.731C55.1942 160.257 55.3827 159.802 55.7183 159.466C56.0539 159.13 56.509 158.942 56.9836 158.942H151.618C151.854 158.937 152.088 158.98 152.307 159.068C152.526 159.156 152.724 159.288 152.891 159.455C153.057 159.622 153.188 159.821 153.275 160.04C153.363 160.259 153.404 160.494 153.399 160.73C153.329 161.178 153.119 161.593 152.799 161.914C152.479 162.236 152.066 162.448 151.618 162.521V162.521Z" fill="#D3D9EC"/>
<path d="M88.7864 183.73H56.9836C56.509 183.73 56.0539 183.541 55.7183 183.206C55.3827 182.87 55.1942 182.415 55.1942 181.94C55.1942 181.466 55.3827 181.011 55.7183 180.675C56.0539 180.34 56.509 180.151 56.9836 180.151H88.7864C89.0222 180.146 89.2566 180.189 89.4754 180.277C89.6941 180.365 89.8928 180.497 90.0593 180.664C90.2257 180.831 90.3566 181.03 90.4439 181.249C90.5312 181.468 90.5731 181.703 90.5671 181.939C90.4975 182.387 90.2876 182.802 89.9677 183.124C89.6479 183.445 89.2343 183.657 88.7864 183.73V183.73Z" fill="#D3D9EC"/>
<g opacity="0.3">
<path opacity="0.6" d="M203.518 51.6174C200.973 51.6174 194.867 49.3197 192.833 48.5523C182.404 43.4421 164.852 29.3881 155.184 29.3881C145.516 29.3881 127.964 43.4433 117.278 48.5523C115.498 49.3197 109.137 51.6174 106.594 51.6174C105.647 51.6615 104.72 51.898 103.867 52.3126C103.015 52.7271 102.257 53.311 101.638 54.0285C101.019 54.7461 100.552 55.5823 100.267 56.486C99.9824 57.3898 99.8845 58.3421 99.9798 59.285C101.868 75.5805 105.274 91.6639 110.154 107.326C118.549 134.155 142.463 150.254 151.621 155.621C152.703 156.248 153.932 156.579 155.183 156.579C156.434 156.579 157.662 156.248 158.744 155.621C167.903 150.254 191.817 134.155 199.957 107.326C204.836 91.6636 208.242 75.5803 210.132 59.285C210.267 58.3353 210.198 57.3676 209.928 56.447C209.658 55.5264 209.194 54.6743 208.568 53.9479C207.941 53.2215 207.166 52.6377 206.295 52.2357C205.424 51.8337 204.477 51.6229 203.518 51.6174V51.6174Z" fill="#3A61E9"/>
</g>
<path d="M199.443 39.0955C196.9 39.0955 190.794 36.7977 188.758 36.0303C178.074 31.174 160.519 16.8661 150.853 16.8661C141.186 16.8661 123.634 30.9121 112.95 36.0292C111.17 36.7966 104.81 39.0943 102.266 39.0943C101.319 39.1387 100.392 39.3755 99.54 39.7901C98.688 40.2048 97.9294 40.7886 97.3105 41.5061C96.6916 42.2236 96.2254 43.0597 95.9402 43.9633C95.6551 44.8669 95.557 45.8191 95.652 46.7618C97.5418 63.0564 100.948 79.139 105.827 94.8004C114.478 121.632 138.39 137.731 147.548 143.097C148.63 143.725 149.859 144.056 151.11 144.056C152.361 144.056 153.589 143.725 154.671 143.097C163.83 137.731 187.744 121.632 195.885 94.8004C200.764 79.1393 204.171 63.0566 206.059 46.7618C206.154 45.8189 206.056 44.8664 205.771 43.9626C205.486 43.0587 205.02 42.2225 204.4 41.505C203.781 40.7875 203.022 40.2038 202.17 39.7895C201.317 39.3752 200.389 39.1391 199.443 39.0955V39.0955Z" fill="#3A61E9"/>
<path d="M205.802 48.8068C205.802 48.0394 206.055 47.2731 206.055 46.7618C206.191 45.8121 206.122 44.8444 205.852 43.9237C205.582 43.0031 205.118 42.1509 204.492 41.4244C203.865 40.698 203.09 40.1142 202.219 39.7123C201.348 39.3103 200.401 39.0997 199.442 39.0944C196.897 39.0944 190.793 36.7966 188.757 36.0292C178.073 31.1729 160.52 16.865 150.854 16.865C148.055 16.865 144.494 18.1425 140.679 19.9302" stroke="#182052" stroke-miterlimit="10" stroke-linecap="round" stroke-linejoin="round"/>
<path d="M116.511 34.2404C115.238 35.0078 114.222 35.5179 113.203 36.0303C111.422 36.7977 105.062 39.0955 102.519 39.0955C101.572 39.1396 100.644 39.3761 99.792 39.7906C98.9398 40.2051 98.1809 40.7889 97.5618 41.5064C96.9426 42.224 96.4762 43.0601 96.1909 43.9639C95.9056 44.8676 95.8074 45.82 95.9024 46.763C97.7934 63.0575 101.201 79.1401 106.08 94.8015C114.475 121.633 138.387 137.732 147.545 143.099C148.627 143.726 149.856 144.056 151.107 144.056C152.357 144.056 153.586 143.726 154.668 143.099C163.827 137.732 187.738 121.633 195.878 94.8015C198.676 85.3487 200.965 76.9149 202.492 69.5036" stroke="#182052" stroke-miterlimit="10" stroke-linecap="round" stroke-linejoin="round"/>
<path d="M125.161 29.1333C124.596 29.3837 124.08 29.7301 123.634 30.1569" stroke="#182052" stroke-miterlimit="10" stroke-linecap="round" stroke-linejoin="round"/>
<path d="M108.625 64.6509C107.352 58.007 106.588 52.3845 106.08 48.2957C109.901 47.4054 113.644 46.2094 117.274 44.7193C122.199 42.3134 126.958 39.5815 131.52 36.5417C134.826 34.4967 140.168 31.1753 144.494 28.8765" stroke="#3A61E9" stroke-miterlimit="10" stroke-linecap="round" stroke-linejoin="round"/>
<path d="M191.556 73.3387C190.794 77.1714 189.521 81.004 188.503 85.349C187.942 87.5136 187.262 89.646 186.469 91.7367C179.601 113.966 160.266 128.021 150.854 133.644C149.779 133.051 148.758 132.367 147.801 131.599C145.904 130.493 144.115 129.21 142.46 127.766" stroke="#3A61E9" stroke-miterlimit="10" stroke-linecap="round" stroke-linejoin="round"/>
<path d="M145.258 96.0791L129.993 80.7476C129.501 80.1803 129.231 79.4549 129.231 78.7043C129.231 77.9537 129.501 77.2283 129.993 76.6611L136.099 70.5273C136.662 70.0326 137.385 69.7597 138.135 69.7597C138.884 69.7597 139.608 70.0326 140.17 70.5273L147.293 77.6813C147.496 77.9222 147.749 78.1159 148.035 78.2488C148.32 78.3817 148.632 78.4505 148.947 78.4505C149.262 78.4505 149.573 78.3817 149.858 78.2488C150.144 78.1159 150.397 77.9222 150.6 77.6813L169.676 58.5171C170.238 58.0224 170.962 57.7495 171.711 57.7495C172.461 57.7495 173.184 58.0224 173.747 58.5171L179.851 64.6508C180.344 65.218 180.615 65.944 180.615 66.6952C180.615 67.4465 180.344 68.1724 179.851 68.7396L152.887 96.0826C151.86 97.0655 150.493 97.6139 149.072 97.6133C147.65 97.6126 146.284 97.063 145.258 96.0791V96.0791Z" fill="white"/>
</svg>
