<svg width="182" height="173" viewBox="0 0 182 173" fill="none" xmlns="http://www.w3.org/2000/svg">
<path d="M49.5336 46.0344C50.5184 45.081 51.4666 44.0862 52.4941 43.18C56.8161 39.3732 61.6593 36.3599 66.9028 34.0143C72.9045 31.3296 79.208 29.7562 85.7727 29.2805C93.0129 28.756 100.106 29.578 107.043 31.7353C113.055 33.6049 118.607 36.4048 123.711 40.0978C124.055 40.3471 124.511 40.5151 124.419 41.1331C124.381 41.386 124.627 41.6825 124.767 42.0165C125.048 41.8366 125.28 41.6883 125.593 41.4876C126.878 42.6008 128.176 43.7225 129.542 44.9067C128.839 45.2966 128.261 45.6565 127.646 45.9311C127.487 46.0027 127.164 45.8699 126.996 45.7324C125.322 44.3598 123.726 42.8819 121.983 41.6061C120.489 40.5121 118.857 39.5974 117.243 38.6784C109.621 34.3362 101.421 31.9568 92.6711 31.512C85.8001 31.1639 79.1029 32.1006 72.5786 34.2879C68.9974 35.4885 65.6189 37.1089 62.3183 38.9349C60.124 40.1488 58.1123 41.6159 56.1712 43.1644C54.2273 44.7159 52.3527 46.3814 50.6266 48.1711C48.8876 49.9754 47.3018 51.9421 45.7681 53.9297C43.706 56.6054 42.0565 59.5453 40.5722 62.5821C39.586 64.5993 38.7725 66.6836 38.0828 68.8122C37.8513 69.5287 37.5608 69.9598 36.7713 69.9196C36.6472 69.913 36.5194 69.9673 36.3606 70.0011C36.2331 70.6584 36.7533 71.0349 36.9744 71.5259C37.0371 71.6661 37.1247 71.8377 37.0928 71.97C36.8111 73.1848 36.505 74.3935 36.1902 75.6734C35.5942 75.4777 35.2902 75.8845 35.242 76.3455C35.2185 76.5636 35.6432 76.8303 35.9483 77.1662C35.3564 80.741 35.0078 84.5156 35.2376 88.3133C35.3844 90.735 35.7041 93.1483 35.9625 95.5624C36.0051 95.9565 35.839 96.2024 35.6848 96.5428C35.3425 97.3011 34.5952 97.3235 34.0299 97.8993C33.833 96.7736 33.6301 95.7567 33.4811 94.731C32.3569 86.9735 32.785 79.305 34.7773 71.7281C36.213 66.2649 38.4162 61.133 41.3585 56.3195C41.5152 56.0622 41.6965 55.8003 41.9244 55.609C42.3723 55.234 42.9509 54.9643 42.741 54.2031C42.7208 54.1314 42.8407 54.0167 42.9022 53.9268C44.7924 51.1851 46.9014 48.6236 49.2285 46.2412C49.3188 46.149 49.436 46.0809 49.5398 46.0022C49.5378 46.0637 49.5287 46.126 49.5355 46.1871C49.5564 46.3957 49.5825 46.6028 49.6063 46.8113C49.8027 46.7612 50.0671 46.7714 50.1801 46.6469C50.3431 46.466 50.3951 46.1854 50.4949 45.9476C50.3207 45.8858 50.1418 45.7694 49.9732 45.78C49.8199 45.7911 49.6775 45.944 49.5293 46.0322L49.5336 46.0344ZM45.5103 53.3941C45.7495 52.7729 45.9977 52.1542 46.2023 51.522C46.2148 51.4849 45.8547 51.2262 45.6998 51.2533C45.2636 51.3294 44.5439 52.4191 44.5638 52.8755C44.5876 53.4067 44.8856 53.5807 45.5103 53.3941ZM53.2105 44.0026C54.0491 44.1015 54.6831 43.8042 54.869 43.1492C54.937 42.9109 54.8496 42.5281 54.6841 42.3545C54.5719 42.2389 54.1567 42.2987 53.949 42.4124C53.3575 42.7374 53.1827 43.3094 53.2105 44.0026ZM34.1167 93.8342C34.8422 93.7454 35.2215 93.3767 35.0419 92.8656C34.9712 92.6621 34.6145 92.4286 34.3939 92.4349C34.0326 92.4453 33.8982 93.1742 34.1167 93.8342ZM64.9298 36.8456C64.9923 36.5215 65.0813 36.3047 65.0473 36.1079C65.0348 36.0365 64.6493 35.9246 64.5721 35.9915C64.4193 36.123 64.3634 36.3666 64.2676 36.563C64.4472 36.6398 64.6267 36.7167 64.9298 36.8456Z" fill="#2CDA9D"/>
<path d="M100.971 142.697C101.133 142.329 101.276 142.08 101.352 141.809C101.405 141.618 101.365 141.402 101.367 141.197C101.118 141.198 100.795 141.1 100.635 141.22C100.335 141.448 100.057 141.77 99.8977 142.112C99.5695 142.814 99.074 143.084 98.3027 143.191C90.8636 144.219 83.5022 143.828 76.2195 141.997C71.9541 140.924 67.8587 139.385 63.9515 137.352C63.8755 137.313 63.8049 137.262 63.7728 137.242C64.1582 136.594 64.5365 135.96 64.8894 135.365C66.935 136.227 69.0582 137.221 71.2497 138.026C81.0919 141.641 91.158 142.376 101.422 140.278C102.086 140.143 102.74 139.955 103.404 139.826C103.802 139.749 104.191 139.442 104.59 140.013C104.796 140.307 105.194 139.994 105.402 139.65C105.526 139.444 105.729 139.212 105.945 139.145C110.042 137.885 113.949 136.197 117.67 134.069C117.894 133.94 118.219 133.955 118.496 133.959C118.965 133.968 119.305 133.87 119.326 133.309C119.331 133.19 119.419 133.034 119.517 132.964C120.555 132.234 121.602 131.516 122.65 130.8C122.754 130.729 122.894 130.647 123.004 130.663C123.452 130.731 123.563 130.487 123.739 130.124C123.907 129.779 124.299 129.531 124.619 129.274C129.759 125.154 133.997 120.248 137.347 114.574C142.013 106.673 144.53 98.1205 144.984 88.9535C145.037 87.8822 145.034 86.8092 145.057 85.6819C145.602 85.6857 145.924 85.3654 145.809 84.841C145.758 84.6112 145.379 84.4536 145.124 84.2436C144.801 81.7478 144.455 79.1244 144.135 76.4987C144.116 76.3402 144.26 76.0888 144.402 75.9979C144.936 75.6593 145.502 75.3713 146.184 74.9929C146.4 76.22 146.6 77.3633 146.809 78.5505C146.444 78.6277 146.134 78.6937 145.764 78.7712C145.888 79.4651 146.129 80.0132 146.733 80.3856C146.893 80.4851 147.039 80.7297 147.059 80.9224C147.61 86.3876 147.359 91.8196 146.332 97.2097C144.977 104.326 142.376 110.956 138.521 117.085C135.34 122.143 131.51 126.651 126.848 130.39C124.515 132.262 121.994 133.898 119.554 135.636C119.36 135.774 119.137 135.871 118.934 135.984C118.218 135.288 118.091 135.34 117.612 136.235C117.41 136.612 117.096 137.014 116.729 137.204C111.85 139.743 106.724 141.602 101.317 142.658C101.238 142.673 101.157 142.675 100.968 142.696L100.971 142.697ZM143.597 102.595C144.368 102.47 144.707 102.133 144.513 101.601C144.438 101.395 144.077 101.167 143.851 101.172C143.507 101.181 143.374 101.969 143.597 102.595ZM144.838 94.4449C144.795 94.98 144.731 95.3037 144.768 95.6166C144.779 95.7041 145.228 95.8316 145.238 95.8158C145.407 95.4884 145.556 95.1465 145.656 94.7936C145.664 94.7667 145.271 94.6274 144.839 94.446L144.838 94.4449ZM96.8772 141.645C96.4261 141.893 96.0564 142.157 96.2112 142.707C96.2245 142.755 96.6936 142.771 96.8609 142.663C97.2654 142.4 97.4131 142.045 96.8772 141.645ZM130.157 125.179L130.365 125.443C130.652 125.322 130.939 125.2 131.226 125.079L130.836 124.195C130.759 124.195 130.682 124.197 130.606 124.197C130.456 124.524 130.306 124.85 130.156 125.178L130.157 125.179Z" fill="#2CDA9D"/>
<path d="M68.5856 120.686L67.4774 118.687C67.6914 118.555 67.8831 118.423 68.0856 118.311C88.3246 107.085 108.567 95.8614 128.798 84.6214C129.377 84.3005 129.599 84.4186 129.879 84.9615C130.569 86.3009 130.597 86.2944 129.279 87.025C112.414 96.3785 95.5491 105.729 78.6834 115.081C75.5631 116.812 72.444 118.545 69.3243 120.276C69.0988 120.401 68.8733 120.526 68.5856 120.686ZM89.8412 108.803C90.2879 107.736 90.2063 107.431 89.3809 106.974C88.7457 107.771 88.9052 108.455 89.8412 108.803ZM78.377 114.662C78.651 114.244 79.1536 113.932 78.746 113.409C78.6724 113.314 78.1226 113.408 78.0048 113.57C77.7134 113.969 77.82 114.373 78.377 114.662ZM83.5374 111.073C83.6104 111.058 83.6828 111.042 83.7558 111.027C83.7411 110.824 83.7994 110.514 83.6938 110.443C83.5347 110.335 83.2638 110.392 83.0406 110.38C83.0233 110.444 83.0061 110.508 82.9906 110.572C83.1735 110.739 83.3546 110.906 83.5374 111.073Z" fill="#2CDA9D"/>
<path d="M112.792 54.1679L50.8076 88.5448L49.7307 86.6028C49.9281 86.4812 50.137 86.3397 50.3567 86.2179C65.083 78.0536 79.8117 69.8911 94.5373 61.7257C100.032 58.6781 105.53 55.6321 111.012 52.5603C111.574 52.2453 111.85 52.317 112.096 52.8926C112.273 53.3111 112.531 53.6963 112.792 54.1679ZM94.9364 62.8253C95.0597 62.4372 95.1393 62.182 95.2207 61.9272C95.0282 61.8893 94.746 61.7547 94.6593 61.8345C94.4627 62.0144 94.3609 62.3001 94.2212 62.5419C94.4124 62.6183 94.6037 62.6946 94.9359 62.8271L94.9364 62.8253Z" fill="#2CDA9D"/>
<path d="M138.883 93.3286L139.353 94.1751C139.513 94.1271 139.672 94.0798 139.862 94.024C139.869 94.1105 139.892 94.1956 139.88 94.2735C139.354 97.7062 138.47 101.045 137.247 104.291C136.007 107.583 134.459 110.725 132.555 113.685C132.247 114.164 131.936 114.64 131.603 115.101C131.329 115.479 131.174 115.962 130.505 115.939C130.269 115.931 129.883 116.397 129.791 116.712C129.059 119.232 127.022 120.74 125.351 122.525C124.884 123.024 124.265 123.375 123.75 123.834C123.009 124.495 122.342 125.244 121.57 125.866C118.647 128.226 115.496 130.238 112.093 131.835C110.7 132.489 109.291 133.12 107.85 133.659C106.356 134.218 104.832 134.712 103.293 135.127C101.775 135.537 100.23 135.868 98.68 136.133C97.1308 136.4 95.5652 136.612 93.9964 136.727C87.5072 137.203 81.1518 136.466 74.9414 134.485C71.189 133.288 67.6139 131.697 64.2496 129.642C63.9379 129.452 63.6571 129.132 63.488 128.809C63.2957 128.44 63.0678 128.319 62.6729 128.291C62.3284 128.266 61.9327 128.19 61.6631 127.995C60.1279 126.878 58.6232 125.719 57.0934 124.564C57.9196 123.769 58.0344 123.767 58.7717 124.367C67.9738 131.855 78.5001 135.661 90.3442 135.691C99.2839 135.714 107.62 133.381 115.283 128.812C124.143 123.528 130.71 116.143 134.991 106.732C135.221 106.225 135.583 105.772 135.77 105.252C136.203 104.045 136.626 102.831 136.94 101.59C137.587 99.0451 138.16 96.4818 138.762 93.9255C138.795 93.7801 138.82 93.6322 138.88 93.3276L138.883 93.3286Z" fill="#2CDA9D"/>
<path d="M113.319 119.202C111.883 119.221 110.617 119.268 109.353 119.239C108.701 119.224 108.266 119.394 107.92 119.989C107.273 121.1 106.541 122.162 105.754 123.386C105.558 122.849 105.4 122.441 105.263 122.025C104.946 121.068 104.661 120.101 104.316 119.156C104.245 118.96 103.987 118.758 103.777 118.699C102.489 118.346 101.191 118.035 99.8953 117.707C99.797 117.681 99.7026 117.638 99.4919 117.562C100.644 116.715 101.691 115.899 102.789 115.158C103.292 114.819 103.451 114.453 103.401 113.858C103.289 112.552 103.255 111.239 103.183 109.796C104.107 110.44 104.947 111.013 105.773 111.603C107.197 112.618 107.191 112.615 108.791 111.953C109.732 111.563 110.686 111.202 111.776 110.77C111.321 112.16 110.932 113.409 110.498 114.643C110.31 115.178 110.29 115.581 110.736 116.046C111.476 116.819 112.119 117.686 112.799 118.516C112.949 118.699 113.085 118.891 113.32 119.2L113.319 119.202ZM109.502 115.042C109.63 114.659 109.716 114.397 109.804 114.134C109.585 114.104 109.29 113.973 109.17 114.068C108.981 114.215 108.91 114.515 108.79 114.75C108.986 114.83 109.181 114.91 109.504 115.042L109.502 115.042Z" fill="#2CDA9D"/>
<path d="M70.3987 50.7078C71.6122 51.5397 72.7441 52.2977 73.856 53.0849C74.2068 53.3322 74.4897 53.4165 74.9247 53.2296C76.2035 52.6817 77.5131 52.2057 78.9685 51.6398C78.5606 52.92 78.2709 54.085 77.8143 55.1796C77.4691 56.0059 77.5896 56.5679 78.1954 57.2045C79.0061 58.0562 79.71 59.0109 80.5617 60.0449C79.4885 60.0656 78.5483 60.1905 77.6388 60.0751C76.1494 59.8878 75.176 60.3734 74.5394 61.7594C74.1606 62.5847 73.5557 63.3062 73.0501 64.0737C73.0401 64.0883 73.012 64.0918 72.9092 64.1397C72.5478 63.0675 72.0975 62.022 71.8537 60.9312C71.6254 59.9118 71.1085 59.4461 70.0954 59.2931C69.1038 59.1435 68.1368 58.8293 67.1603 58.5822C67.0447 58.5528 66.9372 58.4918 66.7242 58.4034C67.7083 57.6767 68.5773 56.9459 69.533 56.3525C70.3849 55.8242 70.7561 55.2293 70.5909 54.1825C70.4155 53.0659 70.4531 51.9156 70.3958 50.7079L70.3987 50.7078ZM75.1029 56.3727C75.4016 56.0593 75.6917 55.7551 75.8816 55.5549C76.1713 55.7138 76.4414 55.9622 76.5567 55.9042C76.7839 55.7903 76.9946 55.5302 77.0841 55.2845C77.1567 55.0844 77.0784 54.8021 76.9952 54.5844C76.93 54.4124 76.7414 54.1537 76.6299 54.1642C76.4604 54.1813 76.1911 54.3849 76.1757 54.5307C76.129 54.9864 75.8436 55.0496 75.4906 55.1564C74.8468 55.3492 74.7407 55.7141 75.1018 56.3733L75.1029 56.3727Z" fill="#2CDA9D"/>
<path d="M123.089 48.4327C122.153 49.0819 122.157 49.0764 121.361 48.4247C120.87 48.0228 120.372 47.6265 119.863 47.2484C119.386 46.8931 118.828 46.6025 119.177 45.6357C118.161 46.2941 117.655 45.6138 117.049 45.2474C115.662 44.4091 114.271 43.5776 112.986 42.8053C112.893 42.4511 112.817 42.1587 112.74 41.8651C112.453 41.9532 112.167 42.0425 111.771 42.164C110.228 41.533 108.546 40.7891 106.825 40.1524C101.409 38.1469 95.8013 37.133 90.0346 37.1948C87.5494 37.222 85.0681 37.5411 82.5859 37.7446C82.1602 37.7801 81.7507 37.9016 81.6507 37.2816C81.6361 37.1902 81.4319 37.1285 81.3149 37.0532C81.2507 37.1762 81.1492 37.2943 81.1336 37.4236C81.1146 37.5683 81.1732 37.7228 81.2133 37.966C80.4141 37.987 79.6828 38.5811 78.9984 38.1524C78.5469 38.3666 78.2005 38.5829 77.8239 38.7013C75.9135 39.3039 73.9955 39.8821 72.0878 40.4651C72.0404 40.1491 71.9884 39.7949 71.9343 39.4313C88.6621 32.5923 109.389 36.1642 123.089 48.4327Z" fill="#2CDA9D"/>
<path d="M86.0851 43.9366C87.2027 44.7177 88.1775 45.3743 89.1224 46.0717C89.4633 46.3229 89.749 46.3635 90.1368 46.2027C91.2572 45.7382 92.3934 45.3101 93.647 44.8199C93.3315 45.8137 93.1088 46.7469 92.7372 47.615C92.3512 48.5197 92.3772 49.2095 93.1439 49.9303C93.8215 50.5663 94.3449 51.3663 95.0364 52.2147C93.9204 52.2395 92.9246 52.3319 91.94 52.2627C91.0245 52.1989 90.4537 52.4854 90.0218 53.3099C89.5694 54.1761 88.9711 54.9664 88.3522 55.9203C88.1091 55.2242 87.8093 54.6592 87.7227 54.0633C87.4703 52.3304 86.5585 51.4157 84.7822 51.3106C84.166 51.2739 83.5624 51.01 82.803 50.8099C83.8353 50.0534 84.7473 49.3621 85.6858 48.7105C86.1352 48.3979 86.3616 48.0763 86.2943 47.4773C86.1694 46.3704 86.1572 45.2523 86.0862 43.936L86.0851 43.9366ZM89.9773 51.0321C89.5329 51.5002 89.4087 52.1391 89.749 52.3077C89.9007 52.3834 90.2808 52.3038 90.3548 52.1768C90.6372 51.693 90.3756 51.3299 89.9773 51.0321Z" fill="#2CDA9D"/>
<path d="M96.6126 120.525C96.2064 121.802 95.8824 122.938 95.4744 124.042C95.2989 124.515 95.4168 124.814 95.708 125.155C96.457 126.036 97.1867 126.934 98.0139 127.935C96.969 127.955 96.0368 128.062 95.1253 127.968C94.0239 127.853 93.3506 128.224 92.8601 129.216C92.4497 130.047 91.8575 130.789 91.2924 131.653C90.9085 130.483 90.5406 129.41 90.2129 128.325C90.1598 128.148 90.3321 127.91 90.3047 127.714C90.2614 127.411 90.1356 127.119 90.0449 126.822C89.8224 126.923 89.6027 127.032 89.3762 127.122C89.2002 127.193 88.9972 127.321 88.8366 127.286C87.8575 127.072 86.8871 126.817 85.7615 126.54C86.5684 125.938 87.2285 125.335 87.9888 124.908C89.0314 124.322 89.4289 123.56 89.2107 122.366C89.0629 121.557 89.1103 120.712 89.0707 119.884C89.0693 119.865 89.0866 119.844 89.1461 119.707C89.9762 120.464 91.0968 120.759 91.6999 121.823C91.8218 122.037 92.5704 122.058 92.9538 121.932C94.1539 121.538 95.3179 121.033 96.6138 120.524L96.6126 120.525Z" fill="#2CDA9D"/>
<path d="M115.596 109.967C116.722 109.136 117.718 108.431 118.673 107.674C118.886 107.506 119.049 107.161 119.065 106.886C119.1 106.322 118.967 105.747 119 105.182C119.034 104.621 119.187 104.067 119.309 103.39C120.286 104.067 121.129 104.685 122.012 105.239C122.239 105.381 122.629 105.429 122.881 105.34C124.032 104.934 125.162 104.464 126.453 103.956C126.017 105.315 125.631 106.531 125.228 107.742C125.2 107.827 125.055 107.902 124.951 107.926C124.168 108.113 124.037 108.534 124.593 109.192C124.85 108.933 125.104 108.675 125.393 108.384C126.206 109.373 126.983 110.315 127.846 111.366C126.821 111.387 125.89 111.497 124.981 111.402C123.877 111.285 123.198 111.667 122.7 112.647C122.288 113.459 121.719 114.191 121.221 114.958C121.151 114.961 121.079 114.965 121.008 114.968C120.857 114.203 120.711 113.438 120.548 112.675C120.516 112.528 120.433 112.389 120.353 112.258C120.267 112.117 120.093 112.001 120.07 111.857C119.962 111.163 119.546 110.904 118.884 110.778C117.835 110.58 116.808 110.271 115.596 109.966L115.596 109.967Z" fill="#2CDA9D"/>
<path d="M41.2616 79.9918C41.05 79.7322 40.8644 79.5034 40.6771 79.274C40.627 79.5581 40.5996 79.8478 40.5191 80.1232C40.4544 80.343 40.3247 80.5431 40.0699 80.7131C40.1509 80.0831 40.2206 79.4518 40.3152 78.8248C41.0624 73.8942 42.5077 69.1781 44.6368 64.6723C44.804 64.3173 44.9778 64.0746 45.4116 64.0104C45.9233 63.9347 46.385 63.7148 46.4537 63.0057C46.2096 62.9481 45.9501 62.887 45.5744 62.7982C51.3358 52.086 59.8428 44.4698 71.0398 39.7919C70.7846 40.4929 70.6553 41.1904 69.7988 41.5719C62.7564 44.6996 56.8253 49.3024 51.9527 55.2633C48.403 59.6055 45.7 64.4355 43.795 69.7172C43.6878 70.0149 43.4311 70.2629 43.2237 70.5182C42.9552 70.848 42.6767 71.1487 43.0323 71.6029C43.1084 71.6994 43.0667 71.9171 43.0308 72.0667C42.5919 73.9205 42.2409 75.8026 41.6556 77.6094C41.3955 78.4127 41.6474 79.2441 41.2652 79.9928L41.2616 79.9918Z" fill="#2CDA9D"/>
<path d="M56.2703 60.5059C57.3624 61.2709 58.3192 61.8923 59.2159 62.5923C59.6532 62.9333 60.0094 62.9001 60.4676 62.7063C61.5287 62.2596 62.6056 61.8523 63.8261 61.3699C63.3986 62.7017 63.0141 63.8966 62.6313 65.0891C61.5352 64.8405 61.2548 64.9779 60.8212 66.0463C60.6009 66.5876 60.4465 67.1558 60.2597 67.7223C61.5078 67.7811 62.2041 67.2788 62.7823 65.8634C63.1257 66.2655 63.4379 66.6307 63.7024 66.9394C63.6418 67.2263 63.5969 67.4382 63.5519 67.6501C63.7289 67.6546 63.907 67.6447 64.0812 67.6687C64.1939 67.6847 64.3321 67.7196 64.402 67.7969C64.6491 68.0716 64.8717 68.3673 65.2081 68.7839C64.1438 68.8072 63.1931 68.9213 62.2657 68.8249C61.1973 68.7133 60.5739 69.1193 60.093 70.0344C59.6588 70.8603 59.089 71.6151 58.512 72.5036C58.0835 71.2288 57.7087 70.0509 57.2782 68.8948C57.1915 68.6625 56.9205 68.4071 56.6836 68.338C55.6332 68.0308 54.5639 67.79 53.5017 67.5211C53.3635 67.4862 53.2297 67.4322 53.0043 67.3566C54.0103 66.6178 54.9222 65.913 55.8726 65.2637C56.32 64.9583 56.5028 64.6368 56.4525 64.0766C56.3482 62.9281 56.3302 61.7725 56.2704 60.5088L56.2703 60.5059Z" fill="#2CDA9D"/>
<path d="M63.4922 134.516C63.1396 135.198 62.8027 135.849 62.4412 136.546C58.2353 134.216 54.3428 131.385 50.7208 127.946C51.4053 127.566 52.0155 127.21 52.6458 126.895C52.753 126.841 52.992 126.917 53.0964 127.013C56.2624 129.939 59.7735 132.386 63.5012 134.532C63.5187 134.542 63.5285 134.565 63.4893 134.516L63.4922 134.516Z" fill="#2CDA9D"/>
<path d="M139.936 78.4787C140.113 80.6201 140.291 82.5992 140.431 84.5799C140.489 85.4087 140.486 86.2425 140.463 87.0742C140.455 87.3819 140.299 87.6823 140.229 87.9896C140.187 88.1714 140.103 88.3991 140.171 88.5408C140.567 89.3644 140.443 90.0729 139.948 90.8358C139.538 91.4689 139.308 92.2189 138.923 93.0888C139.032 91.7526 139.141 90.5957 139.219 89.4367C139.437 86.1944 139.326 82.9581 138.829 79.7475C138.697 78.8945 139.288 78.858 139.938 78.4781L139.936 78.4787Z" fill="#2CDA9D"/>
<path d="M39.9724 81.6125C40.7271 82.3279 40.7509 81.4808 41.1642 81.1491C41.1145 81.7541 41.0715 82.268 41.0294 82.7754C40.7956 82.8584 40.581 82.9352 40.1922 83.0724C41.198 83.5867 40.9231 84.3906 40.9216 85.1258C40.9195 85.9578 41.0584 86.8187 40.8886 87.614C40.6998 88.4998 41.0352 89.2864 41.0593 90.122C41.0855 90.9941 41.2195 91.8653 41.3281 92.7339C41.4643 93.818 41.4748 93.8152 40.3794 94.3005C39.6972 90.0993 39.576 85.9142 39.9706 81.612L39.9724 81.6125Z" fill="#2CDA9D"/>
<path d="M45.2629 103.943L54.7047 113.064L54.8291 112.995L52.0929 100.155L56.1484 97.9056L59.4035 115.704L54.5793 118.38L41.2073 106.192L45.2629 103.943ZM66.0761 112.003L57.7626 97.0103L68.2162 91.2127L69.8481 94.1557L63.0181 97.9436L64.723 101.018L71.0186 97.5268L72.6545 100.477L66.3589 103.969L68.0679 107.051L74.8979 103.263L76.5297 106.206L66.0761 112.003ZM78.7991 104.947L70.4856 89.9541L76.6787 86.5194C77.8011 85.8969 78.8822 85.5622 79.9218 85.5152C80.9636 85.4607 81.915 85.6861 82.7758 86.1914C83.634 86.6918 84.3472 87.4545 84.9155 88.4794C85.492 89.519 85.7548 90.5282 85.7042 91.5071C85.6509 92.4812 85.3125 93.3899 84.689 94.2335C84.0629 95.0721 83.1788 95.8081 82.0368 96.4415L78.1203 98.6135L76.5372 95.7584L79.7802 93.9598C80.3268 93.6567 80.7438 93.3329 81.0314 92.9883C81.3211 92.6362 81.4799 92.261 81.5079 91.8626C81.5331 91.4593 81.4172 91.0258 81.1601 90.5622C80.903 90.0985 80.5954 89.7682 80.2373 89.5711C79.8765 89.3692 79.4687 89.2955 79.0139 89.3499C78.5564 89.3994 78.0568 89.5744 77.5151 89.8748L75.7289 90.8655L82.4227 102.937L78.7991 104.947ZM83.44 93.4138L90.973 98.1955L87.02 100.388L79.5602 95.5655L83.44 93.4138ZM87.7582 80.3747L96.0717 95.3677L92.4481 97.3774L84.1346 82.3843L87.7582 80.3747ZM98.3466 94.1061L90.033 79.113L100.267 73.4372L101.899 76.3802L95.2885 80.0463L96.9934 83.1211L102.952 79.8163L104.588 82.7665L98.6294 86.0714L101.97 92.0964L98.3466 94.1061ZM105.715 70.4156L114.029 85.4086L110.405 87.4183L102.092 72.4253L105.715 70.4156ZM116.304 84.147L107.99 69.1539L118.444 63.3563L120.076 66.2993L113.246 70.0872L114.951 73.162L121.246 69.6704L122.882 72.6207L116.586 76.1123L118.295 79.1943L125.125 75.4064L126.757 78.3494L116.304 84.147ZM134.568 74.0174L129.027 77.0908L120.713 62.0977L126.247 59.0284C127.775 58.1812 129.257 57.7519 130.692 57.7405C132.13 57.7216 133.461 58.1069 134.683 58.8965C135.904 59.6812 136.945 60.852 137.808 62.4089C138.674 63.9707 139.118 65.4793 139.141 66.9347C139.168 68.3875 138.794 69.7212 138.019 70.9359C137.241 72.1458 136.091 73.1729 134.568 74.0174ZM130.937 71.9917L132.716 71.0051C133.556 70.5396 134.187 70.0042 134.611 69.3991C135.037 68.7863 135.22 68.0753 135.161 67.266C135.103 66.449 134.776 65.5013 134.177 64.4227C133.579 63.3441 132.952 62.569 132.295 62.0975C131.635 61.621 130.931 61.405 130.184 61.4495C129.438 61.4863 128.636 61.7429 127.777 62.2193L126.05 63.1774L130.937 71.9917Z" fill="#2CDA9D"/>
</svg>
