<svg width="20" height="20" viewBox="0 0 20 20" fill="none" xmlns="http://www.w3.org/2000/svg">
<path d="M5.36628 3.19511C5.59101 2.26835 6.90907 2.26835 7.1338 3.19511L7.75214 5.74515C7.83238 6.07603 8.09072 6.33437 8.4216 6.4146L10.9716 7.03295C11.8984 7.25768 11.8984 8.57574 10.9716 8.80046L8.4216 9.41881C8.09072 9.49904 7.83238 9.75739 7.75214 10.0883L7.1338 12.6383C6.90907 13.5651 5.59101 13.5651 5.36628 12.6383L4.74794 10.0883C4.6677 9.75739 4.40936 9.49904 4.07848 9.41881L1.52844 8.80046C0.601685 8.57574 0.601684 7.25768 1.52844 7.03295L4.07848 6.41461C4.40936 6.33437 4.6677 6.07603 4.74794 5.74515L5.36628 3.19511Z" fill="url(#paint0_linear_1147_11148)"/>
<path d="M12.7895 12.0944C12.9278 11.5241 13.7389 11.5241 13.8772 12.0944L14.2577 13.6637C14.3071 13.8673 14.4661 14.0263 14.6697 14.0757L16.239 14.4562C16.8093 14.5945 16.8093 15.4056 16.239 15.5439L14.6697 15.9244C14.4661 15.9738 14.3071 16.1328 14.2577 16.3364L13.8772 17.9056C13.7389 18.476 12.9278 18.476 12.7895 17.9056L12.409 16.3364C12.3596 16.1328 12.2006 15.9738 11.997 15.9244L10.4278 15.5439C9.85746 15.4056 9.85746 14.5945 10.4278 14.4562L11.997 14.0757C12.2006 14.0263 12.3596 13.8673 12.409 13.6637L12.7895 12.0944Z" fill="url(#paint1_linear_1147_11148)"/>
<path d="M15.4765 3.09324C15.5672 2.71897 16.0995 2.71897 16.1903 3.09324L16.44 4.12306C16.4724 4.25669 16.5767 4.36102 16.7104 4.39342L17.7402 4.64314C18.1144 4.73389 18.1144 5.26619 17.7402 5.35694L16.7104 5.60666C16.5767 5.63906 16.4724 5.74339 16.44 5.87702L16.1903 6.90684C16.0995 7.28111 15.5672 7.28111 15.4765 6.90684L15.2268 5.87702C15.1944 5.74339 15.09 5.63906 14.9564 5.60666L13.9266 5.35694C13.5523 5.26619 13.5523 4.73389 13.9266 4.64314L14.9564 4.39342C15.09 4.36102 15.1944 4.25669 15.2268 4.12306L15.4765 3.09324Z" fill="url(#paint2_linear_1147_11148)"/>
<path fill-rule="evenodd" clip-rule="evenodd" d="M15.8334 3.27595L15.6296 4.11647C15.5481 4.45244 15.2858 4.71476 14.9498 4.79623L14.1093 5.00004L14.9498 5.20385C15.2858 5.28532 15.5481 5.54764 15.6296 5.88361L15.8334 6.72413L16.0372 5.88361C16.1187 5.54764 16.381 5.28532 16.7169 5.20385L17.5575 5.00004L16.7169 4.79623C16.381 4.71476 16.1187 4.45244 16.0372 4.11647L15.8334 3.27595ZM16.2413 2.82084C16.1375 2.39311 15.5292 2.39311 15.4255 2.82084L15.1401 3.99778C15.1031 4.1505 14.9838 4.26973 14.8311 4.30676L13.6542 4.59215C13.2264 4.69587 13.2264 5.30421 13.6542 5.40793L14.8311 5.69332C14.9838 5.73035 15.1031 5.84959 15.1401 6.0023L15.4255 7.17924C15.5292 7.60698 16.1375 7.60698 16.2413 7.17924L16.5267 6.0023C16.5637 5.84959 16.6829 5.73035 16.8356 5.69332L18.0126 5.40793C18.4403 5.30421 18.4403 4.69587 18.0126 4.59215L16.8356 4.30676C16.6829 4.26973 16.5637 4.1505 16.5267 3.99778L16.2413 2.82084Z" fill="url(#paint3_linear_1147_11148)"/>
<path d="M5.83337 19.1667C5.37314 19.1667 5.00004 18.7936 5.00004 18.3334C5.00004 17.8731 5.37314 17.5 5.83337 17.5C6.29361 17.5 6.66671 17.8731 6.66671 18.3334C6.66671 18.7936 6.29361 19.1667 5.83337 19.1667Z" fill="url(#paint4_linear_1147_11148)"/>
<path d="M1.66671 15.8334C1.20647 15.8334 0.833374 15.4603 0.833374 15C0.833374 14.5398 1.20647 14.1667 1.66671 14.1667C2.12694 14.1667 2.50004 14.5398 2.50004 15C2.50004 15.4603 2.12694 15.8334 1.66671 15.8334Z" fill="url(#paint5_linear_1147_11148)"/>
<path d="M10.8334 2.50004C10.3731 2.50004 10 2.12694 10 1.66671C10 1.20647 10.3731 0.833374 10.8334 0.833374C11.2936 0.833374 11.6667 1.20647 11.6667 1.66671C11.6667 2.12694 11.2936 2.50004 10.8334 2.50004Z" fill="url(#paint6_linear_1147_11148)"/>
<path d="M18.3334 11.6667C17.8731 11.6667 17.5 11.2936 17.5 10.8334C17.5 10.3731 17.8731 10 18.3334 10C18.7936 10 19.1667 10.3731 19.1667 10.8334C19.1667 11.2936 18.7936 11.6667 18.3334 11.6667Z" fill="url(#paint7_linear_1147_11148)"/>
<defs>
<linearGradient id="paint0_linear_1147_11148" x1="0.833374" y1="0.833374" x2="0.833374" y2="19.1667" gradientUnits="userSpaceOnUse">
<stop stop-color="#F9D423"/>
<stop offset="1" stop-color="#E14FAD"/>
</linearGradient>
<linearGradient id="paint1_linear_1147_11148" x1="0.833374" y1="0.833374" x2="0.833374" y2="19.1667" gradientUnits="userSpaceOnUse">
<stop stop-color="#F9D423"/>
<stop offset="1" stop-color="#E14FAD"/>
</linearGradient>
<linearGradient id="paint2_linear_1147_11148" x1="0.833374" y1="0.833374" x2="0.833374" y2="19.1667" gradientUnits="userSpaceOnUse">
<stop stop-color="#F9D423"/>
<stop offset="1" stop-color="#E14FAD"/>
</linearGradient>
<linearGradient id="paint3_linear_1147_11148" x1="0.833374" y1="0.833374" x2="0.833374" y2="19.1667" gradientUnits="userSpaceOnUse">
<stop stop-color="#F9D423"/>
<stop offset="1" stop-color="#E14FAD"/>
</linearGradient>
<linearGradient id="paint4_linear_1147_11148" x1="0.833374" y1="0.833374" x2="0.833374" y2="19.1667" gradientUnits="userSpaceOnUse">
<stop stop-color="#F9D423"/>
<stop offset="1" stop-color="#E14FAD"/>
</linearGradient>
<linearGradient id="paint5_linear_1147_11148" x1="0.833374" y1="0.833374" x2="0.833374" y2="19.1667" gradientUnits="userSpaceOnUse">
<stop stop-color="#F9D423"/>
<stop offset="1" stop-color="#E14FAD"/>
</linearGradient>
<linearGradient id="paint6_linear_1147_11148" x1="0.833374" y1="0.833374" x2="0.833374" y2="19.1667" gradientUnits="userSpaceOnUse">
<stop stop-color="#F9D423"/>
<stop offset="1" stop-color="#E14FAD"/>
</linearGradient>
<linearGradient id="paint7_linear_1147_11148" x1="0.833374" y1="0.833374" x2="0.833374" y2="19.1667" gradientUnits="userSpaceOnUse">
<stop stop-color="#F9D423"/>
<stop offset="1" stop-color="#E14FAD"/>
</linearGradient>
</defs>
</svg>
