<svg width="24" height="24" viewBox="0 0 24 24" fill="none" xmlns="http://www.w3.org/2000/svg">
	<path d="M3.53033 2.46967C3.23744 2.17678 2.76256 2.17678 2.46967 2.46967C2.17678 2.76256 2.17678 3.23744 2.46967 3.53033L3.53033 2.46967ZM8.96967 10.0303C9.26256 10.3232 9.73744 10.3232 10.0303 10.0303C10.3232 9.73744 10.3232 9.26256 10.0303 8.96967L8.96967 10.0303ZM9.76337 9.76337L9.23304 9.23304L9.76337 9.76337ZM6.01066 9.01345C5.59648 9.00756 5.25596 9.33854 5.25008 9.75271C5.24419 10.1669 5.57517 10.5074 5.98934 10.5133L6.01066 9.01345ZM10.5133 5.98934C10.5074 5.57517 10.1669 5.24419 9.75272 5.25008C9.33854 5.25596 9.00756 5.59648 9.01345 6.01066L10.5133 5.98934ZM2.46967 3.53033L8.96967 10.0303L10.0303 8.96967L3.53033 2.46967L2.46967 3.53033ZM9.23304 9.23304C9.2879 9.17818 9.32102 9.17998 9.26377 9.19731C9.21298 9.21269 9.12715 9.22932 8.99867 9.23961C8.74091 9.26025 8.40523 9.24879 8.02728 9.21756C7.65361 9.18668 7.27152 9.13958 6.92004 9.09734C6.59007 9.05769 6.24734 9.01681 6.01066 9.01345L5.98934 10.5133C6.12796 10.5153 6.37741 10.5429 6.74109 10.5866C7.08326 10.6277 7.49628 10.6788 7.90375 10.7125C8.30694 10.7458 8.73843 10.7653 9.11842 10.7348C9.30883 10.7196 9.50953 10.6902 9.69849 10.6329C9.88099 10.5777 10.1071 10.4803 10.2937 10.2937L9.23304 9.23304ZM9.01345 6.01066C9.01681 6.24734 9.05769 6.59007 9.09734 6.92004C9.13958 7.27152 9.18668 7.65361 9.21756 8.02728C9.24879 8.40523 9.26025 8.74091 9.23961 8.99868C9.22932 9.12715 9.21269 9.21298 9.19731 9.26377C9.17998 9.32102 9.17818 9.2879 9.23304 9.23304L10.2937 10.2937C10.4803 10.1071 10.5777 9.88099 10.6329 9.69849C10.6902 9.50953 10.7196 9.30883 10.7348 9.11842C10.7653 8.73843 10.7458 8.30694 10.7125 7.90375C10.6788 7.49628 10.6277 7.08326 10.5866 6.74109C10.5429 6.37741 10.5153 6.12796 10.5133 5.98934L9.01345 6.01066Z" fill="currentcolor" />
	<path d="M2.46967 20.4697C2.17678 20.7626 2.17678 21.2374 2.46967 21.5303C2.76256 21.8232 3.23744 21.8232 3.53033 21.5303L2.46967 20.4697ZM10.0303 15.0303C10.3232 14.7374 10.3232 14.2626 10.0303 13.9697C9.73744 13.6768 9.26256 13.6768 8.96967 13.9697L10.0303 15.0303ZM9.76337 14.2366L9.23304 14.767V14.767L9.76337 14.2366ZM5.98934 13.4867C5.57517 13.4926 5.24419 13.8331 5.25008 14.2473C5.25596 14.6615 5.59648 14.9924 6.01066 14.9866L5.98934 13.4867ZM9.01345 17.9893C9.00756 18.4035 9.33854 18.744 9.75272 18.7499C10.1669 18.7558 10.5074 18.4248 10.5133 18.0107L9.01345 17.9893ZM3.53033 21.5303L10.0303 15.0303L8.96967 13.9697L2.46967 20.4697L3.53033 21.5303ZM10.2937 13.7063C10.1071 13.5197 9.88099 13.4223 9.69849 13.3671C9.50953 13.3098 9.30883 13.2804 9.11842 13.2652C8.73843 13.2347 8.30694 13.2542 7.90375 13.2875C7.49628 13.3212 7.08326 13.3723 6.74109 13.4134C6.37741 13.4571 6.12796 13.4847 5.98934 13.4867L6.01066 14.9866C6.24734 14.9832 6.59007 14.9423 6.92004 14.9027C7.27152 14.8604 7.65361 14.8133 8.02728 14.7824C8.40523 14.7512 8.74091 14.7397 8.99867 14.7604C9.12715 14.7707 9.21298 14.7873 9.26377 14.8027C9.32102 14.82 9.2879 14.8218 9.23304 14.767L10.2937 13.7063ZM10.5133 18.0107C10.5153 17.872 10.5429 17.6226 10.5866 17.2589C10.6277 16.9167 10.6788 16.5037 10.7125 16.0962C10.7458 15.6931 10.7653 15.2616 10.7348 14.8816C10.7196 14.6912 10.6902 14.4905 10.6329 14.3015C10.5777 14.119 10.4803 13.8929 10.2937 13.7063L9.23304 14.767C9.17818 14.7121 9.17998 14.679 9.19731 14.7362C9.21269 14.787 9.22932 14.8728 9.23961 15.0013C9.26025 15.2591 9.24879 15.5948 9.21756 15.9727C9.18668 16.3464 9.13958 16.7285 9.09734 17.08C9.05769 17.4099 9.01681 17.7527 9.01345 17.9893L10.5133 18.0107Z" fill="currentcolor" />
	<path d="M21.5303 3.53033C21.8232 3.23744 21.8232 2.76256 21.5303 2.46967C21.2374 2.17678 20.7626 2.17678 20.4697 2.46967L21.5303 3.53033ZM13.9697 8.96967C13.6768 9.26256 13.6768 9.73744 13.9697 10.0303C14.2626 10.3232 14.7374 10.3232 15.0303 10.0303L13.9697 8.96967ZM14.2366 9.76337L14.767 9.23304H14.767L14.2366 9.76337ZM18.0107 10.5133C18.4248 10.5074 18.7558 10.1669 18.7499 9.75271C18.744 9.33854 18.4035 9.00756 17.9893 9.01345L18.0107 10.5133ZM14.9866 6.01066C14.9924 5.59648 14.6615 5.25596 14.2473 5.25008C13.8331 5.24419 13.4926 5.57517 13.4867 5.98934L14.9866 6.01066ZM20.4697 2.46967L13.9697 8.96967L15.0303 10.0303L21.5303 3.53033L20.4697 2.46967ZM13.7063 10.2937C13.8929 10.4803 14.119 10.5777 14.3015 10.6329C14.4905 10.6902 14.6912 10.7196 14.8816 10.7348C15.2616 10.7653 15.6931 10.7458 16.0962 10.7125C16.5037 10.6788 16.9167 10.6277 17.2589 10.5866C17.6226 10.5429 17.872 10.5153 18.0107 10.5133L17.9893 9.01345C17.7527 9.01681 17.4099 9.05769 17.08 9.09734C16.7285 9.13958 16.3464 9.18668 15.9727 9.21756C15.5948 9.24879 15.2591 9.26025 15.0013 9.23961C14.8728 9.22932 14.787 9.21269 14.7362 9.19731C14.679 9.17998 14.7121 9.17818 14.767 9.23304L13.7063 10.2937ZM13.4867 5.98934C13.4847 6.12796 13.4571 6.37741 13.4134 6.74109C13.3723 7.08326 13.3212 7.49628 13.2875 7.90375C13.2542 8.30694 13.2347 8.73843 13.2652 9.11842C13.2804 9.30883 13.3098 9.50953 13.3671 9.69849C13.4223 9.88099 13.5197 10.1071 13.7063 10.2937L14.767 9.23304C14.8218 9.2879 14.82 9.32102 14.8027 9.26377C14.7873 9.21298 14.7707 9.12715 14.7604 8.99868C14.7397 8.74091 14.7512 8.40523 14.7824 8.02728C14.8133 7.65361 14.8604 7.27152 14.9027 6.92004C14.9423 6.59007 14.9832 6.24734 14.9866 6.01066L13.4867 5.98934Z" fill="currentcolor" />
	<path d="M20.4697 21.5303C20.7626 21.8232 21.2374 21.8232 21.5303 21.5303C21.8232 21.2374 21.8232 20.7626 21.5303 20.4697L20.4697 21.5303ZM15.0303 13.9697C14.7374 13.6768 14.2626 13.6768 13.9697 13.9697C13.6768 14.2626 13.6768 14.7374 13.9697 15.0303L15.0303 13.9697ZM14.2366 14.2366L14.767 14.767L14.767 14.767L14.2366 14.2366ZM17.9893 14.9866C18.4035 14.9924 18.744 14.6615 18.7499 14.2473C18.7558 13.8331 18.4248 13.4926 18.0107 13.4867L17.9893 14.9866ZM13.4867 18.0107C13.4926 18.4248 13.8331 18.7558 14.2473 18.7499C14.6615 18.744 14.9924 18.4035 14.9866 17.9893L13.4867 18.0107ZM21.5303 20.4697L15.0303 13.9697L13.9697 15.0303L20.4697 21.5303L21.5303 20.4697ZM14.767 14.767C14.7121 14.8218 14.679 14.82 14.7362 14.8027C14.787 14.7873 14.8728 14.7707 15.0013 14.7604C15.2591 14.7397 15.5948 14.7512 15.9727 14.7824C16.3464 14.8133 16.7285 14.8604 17.08 14.9027C17.4099 14.9423 17.7527 14.9832 17.9893 14.9866L18.0107 13.4867C17.872 13.4847 17.6226 13.4571 17.2589 13.4134C16.9167 13.3723 16.5037 13.3212 16.0962 13.2875C15.6931 13.2542 15.2616 13.2347 14.8816 13.2652C14.6912 13.2804 14.4905 13.3098 14.3015 13.3671C14.119 13.4223 13.8929 13.5197 13.7063 13.7063L14.767 14.767ZM14.9866 17.9893C14.9832 17.7527 14.9423 17.4099 14.9027 17.08C14.8604 16.7285 14.8133 16.3464 14.7824 15.9727C14.7512 15.5948 14.7397 15.2591 14.7604 15.0013C14.7707 14.8728 14.7873 14.787 14.8027 14.7362C14.82 14.679 14.8218 14.7121 14.767 14.767L13.7063 13.7063C13.5197 13.8929 13.4223 14.119 13.3671 14.3015C13.3098 14.4905 13.2804 14.6912 13.2652 14.8816C13.2347 15.2616 13.2542 15.6931 13.2875 16.0962C13.3212 16.5037 13.3723 16.9167 13.4134 17.2589C13.4571 17.6226 13.4847 17.872 13.4867 18.0107L14.9866 17.9893Z" fill="currentcolor" />
</svg>
