<svg width="24" height="24" viewBox="0 0 24 24" fill="none" xmlns="http://www.w3.org/2000/svg">
	<path d="M9.46967 10.5303C9.76256 10.8232 10.2374 10.8232 10.5303 10.5303C10.8232 10.2374 10.8232 9.76256 10.5303 9.46967L9.46967 10.5303ZM4.03033 2.96967C3.73744 2.67678 3.26256 2.67678 2.96967 2.96967C2.67678 3.26256 2.67678 3.73744 2.96967 4.03033L4.03033 2.96967ZM3.38783 3.38785L3.91815 3.91818L3.91815 3.91818L3.38783 3.38785ZM7.93298 3.84479C8.34554 3.88181 8.70999 3.57737 8.747 3.16482C8.78401 2.75226 8.47958 2.38781 8.06702 2.3508L7.93298 3.84479ZM2.35083 8.06703C2.38785 8.47959 2.7523 8.78402 3.16486 8.747C3.57742 8.70998 3.88185 8.34552 3.84483 7.93297L2.35083 8.06703ZM10.5303 9.46967L4.03033 2.96967L2.96967 4.03033L9.46967 10.5303L10.5303 9.46967ZM3.91815 3.91818C3.86831 3.96802 3.85939 3.94735 3.99084 3.90714C4.10408 3.8725 4.26517 3.84018 4.47342 3.81432C4.88844 3.76277 5.4072 3.74657 5.93038 3.75059C6.44896 3.75456 6.95083 3.77813 7.32457 3.8009C7.51095 3.81225 7.66433 3.82334 7.77059 3.83154C7.8237 3.83564 7.86497 3.83901 7.89264 3.84133C7.90647 3.84249 7.9169 3.84339 7.9237 3.84398C7.9271 3.84428 7.92959 3.84449 7.93115 3.84463C7.93192 3.8447 7.93247 3.84475 7.93277 3.84478C7.93293 3.84479 7.93302 3.8448 7.93306 3.8448C7.93307 3.8448 7.93305 3.8448 7.93306 3.8448C7.93303 3.8448 7.93298 3.84479 8 3.09779C8.06702 2.3508 8.06694 2.35079 8.06685 2.35078C8.06679 2.35077 8.06668 2.35077 8.06658 2.35076C8.06637 2.35074 8.06611 2.35071 8.06578 2.35068C8.06513 2.35063 8.06423 2.35055 8.0631 2.35045C8.06084 2.35025 8.05763 2.34997 8.05351 2.34961C8.04526 2.34889 8.03333 2.34787 8.01796 2.34658C7.98721 2.344 7.94264 2.34036 7.88603 2.33599C7.77287 2.32726 7.61134 2.31559 7.41579 2.30367C7.02567 2.27991 6.4956 2.25488 5.94188 2.25063C5.39276 2.24642 4.79884 2.26237 4.28853 2.32576C4.03411 2.35736 3.77937 2.40322 3.55207 2.47275C3.34298 2.5367 3.06882 2.6462 2.8575 2.85752L3.91815 3.91818ZM3.09783 8C3.84483 7.93297 3.84483 7.93302 3.84483 7.93305C3.84483 7.93304 3.84483 7.93306 3.84483 7.93304C3.84483 7.93301 3.84482 7.93292 3.84481 7.93276C3.84478 7.93246 3.84473 7.93191 3.84466 7.93113C3.84453 7.92958 3.84431 7.92708 3.84401 7.92369C3.84342 7.91689 3.84253 7.90646 3.84137 7.89263C3.83905 7.86496 3.83567 7.82369 3.83157 7.77058C3.82337 7.66432 3.81228 7.51094 3.80092 7.32456C3.77814 6.95082 3.75457 6.44896 3.75059 5.93038C3.74657 5.4072 3.76275 4.88845 3.8143 4.47343C3.84017 4.26518 3.87248 4.10409 3.90711 3.99086C3.94732 3.85941 3.968 3.86834 3.91815 3.91818L2.8575 2.85752C2.64618 3.06884 2.53668 3.343 2.47272 3.55209C2.40319 3.77939 2.35734 4.03413 2.32574 4.28855C2.26236 4.79886 2.24641 5.39278 2.25063 5.9419C2.25489 6.49562 2.27992 7.02569 2.3037 7.4158C2.31561 7.61135 2.32728 7.77288 2.33602 7.88605C2.34039 7.94265 2.34403 7.98722 2.34661 8.01797C2.3479 8.03334 2.34892 8.04527 2.34964 8.05352C2.35 8.05764 2.35028 8.06085 2.35048 8.06311C2.35058 8.06424 2.35066 8.06514 2.35072 8.06579C2.35075 8.06612 2.35077 8.06639 2.35079 8.06659C2.3508 8.0667 2.35081 8.06681 2.35081 8.06686C2.35082 8.06695 2.35083 8.06703 3.09783 8Z" fill="currentcolor" />
	<path d="M10.5303 14.5303C10.8232 14.2374 10.8232 13.7626 10.5303 13.4697C10.2374 13.1768 9.76256 13.1768 9.46967 13.4697L10.5303 14.5303ZM2.96967 19.9697C2.67678 20.2626 2.67678 20.7374 2.96967 21.0303C3.26256 21.3232 3.73744 21.3232 4.03033 21.0303L2.96967 19.9697ZM3.38783 20.6121L3.91815 20.0818H3.91815L3.38783 20.6121ZM8.06702 21.6492C8.47958 21.6122 8.78401 21.2477 8.747 20.8352C8.70999 20.4226 8.34554 20.1182 7.93298 20.1552L8.06702 21.6492ZM3.84483 16.067C3.88185 15.6545 3.57742 15.29 3.16486 15.253C2.7523 15.216 2.38785 15.5204 2.35083 15.933L3.84483 16.067ZM9.46967 13.4697L2.96967 19.9697L4.03033 21.0303L10.5303 14.5303L9.46967 13.4697ZM2.8575 21.1425C3.06882 21.3538 3.34298 21.4633 3.55207 21.5273C3.77937 21.5968 4.03411 21.6426 4.28853 21.6742C4.79884 21.7376 5.39276 21.7536 5.94188 21.7494C6.4956 21.7451 7.02567 21.7201 7.41579 21.6963C7.61134 21.6844 7.77287 21.6727 7.88603 21.664C7.94264 21.6596 7.98721 21.656 8.01796 21.6534C8.03333 21.6521 8.04526 21.6511 8.05351 21.6504C8.05763 21.65 8.06084 21.6498 8.0631 21.6496C8.06423 21.6495 8.06513 21.6494 8.06578 21.6493C8.06611 21.6493 8.06637 21.6493 8.06658 21.6492C8.06668 21.6492 8.06679 21.6492 8.06685 21.6492C8.06694 21.6492 8.06702 21.6492 8 20.9022C7.93298 20.1552 7.93303 20.1552 7.93306 20.1552C7.93305 20.1552 7.93307 20.1552 7.93306 20.1552C7.93302 20.1552 7.93293 20.1552 7.93277 20.1552C7.93247 20.1552 7.93192 20.1553 7.93115 20.1554C7.92959 20.1555 7.9271 20.1557 7.9237 20.156C7.9169 20.1566 7.90647 20.1575 7.89264 20.1587C7.86497 20.161 7.8237 20.1644 7.77059 20.1685C7.66433 20.1767 7.51095 20.1877 7.32457 20.1991C6.95083 20.2219 6.44897 20.2454 5.93038 20.2494C5.4072 20.2534 4.88844 20.2372 4.47342 20.1857C4.26517 20.1598 4.10408 20.1275 3.99084 20.0929C3.85939 20.0527 3.86831 20.032 3.91815 20.0818L2.8575 21.1425ZM3.09783 16C2.35083 15.933 2.35082 15.933 2.35081 15.9331C2.35081 15.9332 2.3508 15.9333 2.35079 15.9334C2.35077 15.9336 2.35075 15.9339 2.35072 15.9342C2.35066 15.9349 2.35058 15.9358 2.35048 15.9369C2.35028 15.9391 2.35 15.9424 2.34964 15.9465C2.34892 15.9547 2.3479 15.9667 2.34661 15.982C2.34403 16.0128 2.34039 16.0573 2.33602 16.114C2.32728 16.2271 2.31561 16.3886 2.3037 16.5842C2.27992 16.9743 2.25489 17.5044 2.25063 18.0581C2.24641 18.6072 2.26236 19.2011 2.32574 19.7115C2.35734 19.9659 2.40319 20.2206 2.47272 20.4479C2.53668 20.657 2.64618 20.9312 2.8575 21.1425L3.91815 20.0818C3.968 20.1317 3.94732 20.1406 3.90711 20.0091C3.87248 19.8959 3.84017 19.7348 3.8143 19.5266C3.76275 19.1116 3.74657 18.5928 3.75059 18.0696C3.75457 17.551 3.77814 17.0492 3.80092 16.6754C3.81228 16.4891 3.82337 16.3357 3.83157 16.2294C3.83567 16.1763 3.83905 16.135 3.84137 16.1074C3.84253 16.0935 3.84342 16.0831 3.84401 16.0763C3.84431 16.0729 3.84453 16.0704 3.84466 16.0689C3.84473 16.0681 3.84478 16.0675 3.84481 16.0672C3.84482 16.0671 3.84483 16.067 3.84483 16.067C3.84483 16.0669 3.84483 16.067 3.84483 16.0669C3.84483 16.067 3.84483 16.067 3.09783 16Z" fill="currentcolor" />
	<path d="M13.4697 9.46967C13.1768 9.76256 13.1768 10.2374 13.4697 10.5303C13.7626 10.8232 14.2374 10.8232 14.5303 10.5303L13.4697 9.46967ZM21.0303 4.03033C21.3232 3.73744 21.3232 3.26256 21.0303 2.96967C20.7374 2.67678 20.2626 2.67678 19.9697 2.96967L21.0303 4.03033ZM20.6122 3.38785L20.0818 3.91818L20.0818 3.91818L20.6122 3.38785ZM15.933 2.3508C15.5204 2.38781 15.216 2.75226 15.253 3.16482C15.29 3.57737 15.6545 3.88181 16.067 3.84479L15.933 2.3508ZM20.1552 7.93297C20.1182 8.34552 20.4226 8.70998 20.8351 8.747C21.2477 8.78402 21.6122 8.47959 21.6492 8.06703L20.1552 7.93297ZM14.5303 10.5303L21.0303 4.03033L19.9697 2.96967L13.4697 9.46967L14.5303 10.5303ZM21.1425 2.85752C20.9312 2.6462 20.657 2.5367 20.4479 2.47275C20.2206 2.40322 19.9659 2.35736 19.7115 2.32576C19.2012 2.26237 18.6072 2.24642 18.0581 2.25063C17.5044 2.25488 16.9743 2.27991 16.5842 2.30367C16.3887 2.31559 16.2271 2.32726 16.114 2.33599C16.0574 2.34036 16.0128 2.344 15.982 2.34658C15.9667 2.34787 15.9547 2.34889 15.9465 2.34961C15.9424 2.34997 15.9392 2.35025 15.9369 2.35045C15.9358 2.35055 15.9349 2.35063 15.9342 2.35068C15.9339 2.35071 15.9336 2.35074 15.9334 2.35076C15.9333 2.35077 15.9332 2.35077 15.9332 2.35078C15.9331 2.35079 15.933 2.3508 16 3.09779C16.067 3.84479 16.067 3.8448 16.0669 3.8448C16.0669 3.8448 16.0669 3.8448 16.0669 3.8448C16.067 3.8448 16.0671 3.84479 16.0672 3.84478C16.0675 3.84475 16.0681 3.8447 16.0689 3.84463C16.0704 3.84449 16.0729 3.84428 16.0763 3.84398C16.0831 3.84339 16.0935 3.84249 16.1074 3.84133C16.135 3.83901 16.1763 3.83564 16.2294 3.83154C16.3357 3.82334 16.489 3.81225 16.6754 3.8009C17.0492 3.77813 17.551 3.75456 18.0696 3.75059C18.5928 3.74657 19.1116 3.76277 19.5266 3.81432C19.7348 3.84018 19.8959 3.8725 20.0092 3.90714C20.1406 3.94735 20.1317 3.96802 20.0818 3.91818L21.1425 2.85752ZM20.9022 8C21.6492 8.06703 21.6492 8.06695 21.6492 8.06686C21.6492 8.06681 21.6492 8.0667 21.6492 8.06659C21.6492 8.06639 21.6493 8.06612 21.6493 8.06579C21.6493 8.06514 21.6494 8.06424 21.6495 8.06311C21.6497 8.06085 21.65 8.05764 21.6504 8.05352C21.6511 8.04527 21.6521 8.03334 21.6534 8.01797C21.656 7.98722 21.6596 7.94265 21.664 7.88605C21.6727 7.77288 21.6844 7.61135 21.6963 7.4158C21.7201 7.02569 21.7451 6.49562 21.7494 5.9419C21.7536 5.39278 21.7376 4.79886 21.6743 4.28855C21.6427 4.03413 21.5968 3.77939 21.5273 3.55209C21.4633 3.343 21.3538 3.06884 21.1425 2.85752L20.0818 3.91818C20.032 3.86834 20.0527 3.85941 20.0929 3.99086C20.1275 4.10409 20.1598 4.26518 20.1857 4.47343C20.2372 4.88845 20.2534 5.4072 20.2494 5.93038C20.2454 6.44896 20.2219 6.95082 20.1991 7.32456C20.1877 7.51094 20.1766 7.66432 20.1684 7.77058C20.1643 7.82369 20.161 7.86496 20.1586 7.89263C20.1575 7.90646 20.1566 7.91689 20.156 7.92369C20.1557 7.92708 20.1555 7.92958 20.1553 7.93113C20.1553 7.93191 20.1552 7.93246 20.1552 7.93276C20.1552 7.93292 20.1552 7.93301 20.1552 7.93304C20.1552 7.93306 20.1552 7.93304 20.1552 7.93305C20.1552 7.93302 20.1552 7.93297 20.9022 8Z" fill="currentcolor" />
	<path d="M14.5303 13.4697C14.2374 13.1768 13.7626 13.1768 13.4697 13.4697C13.1768 13.7626 13.1768 14.2374 13.4697 14.5303L14.5303 13.4697ZM19.9697 21.0303C20.2626 21.3232 20.7374 21.3232 21.0303 21.0303C21.3232 20.7374 21.3232 20.2626 21.0303 19.9697L19.9697 21.0303ZM20.6122 20.6121L20.0818 20.0818H20.0818L20.6122 20.6121ZM16.067 20.1552C15.6545 20.1182 15.29 20.4226 15.253 20.8352C15.216 21.2477 15.5204 21.6122 15.933 21.6492L16.067 20.1552ZM21.6492 15.933C21.6122 15.5204 21.2477 15.216 20.8351 15.253C20.4226 15.29 20.1182 15.6545 20.1552 16.067L21.6492 15.933ZM13.4697 14.5303L19.9697 21.0303L21.0303 19.9697L14.5303 13.4697L13.4697 14.5303ZM20.0818 20.0818C20.1317 20.032 20.1406 20.0527 20.0092 20.0929C19.8959 20.1275 19.7348 20.1598 19.5266 20.1857C19.1116 20.2372 18.5928 20.2534 18.0696 20.2494C17.551 20.2454 17.0492 20.2219 16.6754 20.1991C16.489 20.1877 16.3357 20.1767 16.2294 20.1685C16.1763 20.1644 16.135 20.161 16.1074 20.1587C16.0935 20.1575 16.0831 20.1566 16.0763 20.156C16.0729 20.1557 16.0704 20.1555 16.0689 20.1554C16.0681 20.1553 16.0675 20.1552 16.0672 20.1552C16.0671 20.1552 16.067 20.1552 16.0669 20.1552C16.0669 20.1552 16.0669 20.1552 16.0669 20.1552C16.067 20.1552 16.067 20.1552 16 20.9022C15.933 21.6492 15.9331 21.6492 15.9332 21.6492C15.9332 21.6492 15.9333 21.6492 15.9334 21.6492C15.9336 21.6493 15.9339 21.6493 15.9342 21.6493C15.9349 21.6494 15.9358 21.6495 15.9369 21.6496C15.9392 21.6498 15.9424 21.65 15.9465 21.6504C15.9547 21.6511 15.9667 21.6521 15.982 21.6534C16.0128 21.656 16.0574 21.6596 16.114 21.664C16.2271 21.6727 16.3887 21.6844 16.5842 21.6963C16.9743 21.7201 17.5044 21.7451 18.0581 21.7494C18.6072 21.7536 19.2012 21.7376 19.7115 21.6742C19.9659 21.6426 20.2206 21.5968 20.4479 21.5273C20.657 21.4633 20.9312 21.3538 21.1425 21.1425L20.0818 20.0818ZM20.9022 16C20.1552 16.067 20.1552 16.067 20.1552 16.0669C20.1552 16.067 20.1552 16.0669 20.1552 16.067C20.1552 16.067 20.1552 16.0671 20.1552 16.0672C20.1552 16.0675 20.1553 16.0681 20.1553 16.0689C20.1555 16.0704 20.1557 16.0729 20.156 16.0763C20.1566 16.0831 20.1575 16.0935 20.1586 16.1074C20.161 16.135 20.1643 16.1763 20.1684 16.2294C20.1766 16.3357 20.1877 16.4891 20.1991 16.6754C20.2219 17.0492 20.2454 17.551 20.2494 18.0696C20.2534 18.5928 20.2372 19.1116 20.1857 19.5266C20.1598 19.7348 20.1275 19.8959 20.0929 20.0091C20.0527 20.1406 20.032 20.1317 20.0818 20.0818L21.1425 21.1425C21.3538 20.9312 21.4633 20.657 21.5273 20.4479C21.5968 20.2206 21.6427 19.9659 21.6743 19.7115C21.7376 19.2011 21.7536 18.6072 21.7494 18.0581C21.7451 17.5044 21.7201 16.9743 21.6963 16.5842C21.6844 16.3886 21.6727 16.2271 21.664 16.114C21.6596 16.0573 21.656 16.0128 21.6534 15.982C21.6521 15.9667 21.6511 15.9547 21.6504 15.9465C21.65 15.9424 21.6497 15.9391 21.6495 15.9369C21.6494 15.9358 21.6493 15.9349 21.6493 15.9342C21.6493 15.9339 21.6492 15.9336 21.6492 15.9334C21.6492 15.9333 21.6492 15.9332 21.6492 15.9331C21.6492 15.933 21.6492 15.933 20.9022 16Z" fill="currentcolor" />
</svg>
