<svg width="31" height="30" viewBox="0 0 31 30" fill="none" xmlns="http://www.w3.org/2000/svg">
<path d="M13.0625 3.16261L5.53752 8.07511C3.12502 9.65011 3.12502 13.1751 5.53752 14.7501L13.0625 19.6626C14.4125 20.5501 16.6375 20.5501 17.9875 19.6626L25.475 14.7501C27.875 13.1751 27.875 9.66261 25.475 8.08761L17.9875 3.17511C16.6375 2.27511 14.4125 2.27511 13.0625 3.16261Z" stroke="#292D32" stroke-width="1.5" stroke-linecap="round" stroke-linejoin="round"/>
<path d="M7.53752 16.3501L7.52502 22.2126C7.52502 23.8001 8.75002 25.5001 10.25 26.0001L14.2375 27.3251C14.925 27.5501 16.0625 27.5501 16.7625 27.3251L20.75 26.0001C22.25 25.5001 23.475 23.8001 23.475 22.2126V16.4126" stroke="#292D32" stroke-width="1.5" stroke-linecap="round" stroke-linejoin="round"/>
<path d="M27.25 18.75V11.25" stroke="#292D32" stroke-width="1.5" stroke-linecap="round" stroke-linejoin="round"/>
</svg>
