<svg width="154" height="21" viewBox="0 0 154 21" fill="none" xmlns="http://www.w3.org/2000/svg">
<path d="M7.99432 20.5H0.71875V1.59091H7.92046C9.86553 1.59091 11.5459 1.96946 12.9616 2.72656C14.3835 3.47751 15.4792 4.56084 16.2486 5.97656C17.0241 7.38613 17.4119 9.07576 17.4119 11.0455C17.4119 13.0152 17.0272 14.7079 16.2578 16.1236C15.4884 17.5331 14.3989 18.6165 12.9893 19.3736C11.5798 20.1245 9.91477 20.5 7.99432 20.5ZM5.85227 16.142H7.80966C8.74527 16.142 9.54238 15.9912 10.201 15.6896C10.8658 15.388 11.3705 14.8679 11.7152 14.1293C12.0661 13.3906 12.2415 12.3627 12.2415 11.0455C12.2415 9.72822 12.063 8.70028 11.706 7.96165C11.3551 7.22301 10.8381 6.70289 10.1548 6.40128C9.47775 6.09967 8.64678 5.94886 7.66193 5.94886H5.85227V16.142ZM19.861 20.5V6.31818H24.9576V20.5H19.861ZM22.4093 4.84091C21.7199 4.84091 21.129 4.61316 20.6365 4.15767C20.1441 3.70218 19.8979 3.15436 19.8979 2.5142C19.8979 1.87405 20.1441 1.32623 20.6365 0.870738C21.129 0.415246 21.7199 0.1875 22.4093 0.1875C23.1048 0.1875 23.6957 0.415246 24.182 0.870738C24.6744 1.32623 24.9206 1.87405 24.9206 2.5142C24.9206 3.15436 24.6744 3.70218 24.182 4.15767C23.6957 4.61316 23.1048 4.84091 22.4093 4.84091ZM40.5174 10.9347H35.8271C35.8024 10.6454 35.7009 10.3961 35.5224 10.1868C35.3439 9.97751 35.113 9.81747 34.8299 9.70668C34.5529 9.58973 34.2451 9.53125 33.9066 9.53125C33.4696 9.53125 33.0941 9.61127 32.7802 9.77131C32.4663 9.93134 32.3124 10.1591 32.3185 10.4545C32.3124 10.6638 32.4016 10.8577 32.5863 11.0362C32.7771 11.2147 33.1433 11.3532 33.685 11.4517L36.5657 11.9688C38.0183 12.2334 39.0986 12.6797 39.8065 13.3075C40.5205 13.9292 40.8806 14.7633 40.8867 15.8097C40.8806 16.8191 40.579 17.6963 39.9819 18.4411C39.391 19.1797 38.5816 19.7521 37.5536 20.1584C36.5318 20.5585 35.3654 20.7585 34.0543 20.7585C31.8877 20.7585 30.1919 20.3153 28.967 19.429C27.7482 18.5426 27.0681 17.3731 26.9265 15.9205H31.9862C32.0539 16.3698 32.2755 16.7176 32.6509 16.9638C33.0326 17.2038 33.5127 17.3239 34.0913 17.3239C34.5591 17.3239 34.9438 17.2438 35.2454 17.0838C35.5531 16.9238 35.7101 16.696 35.7163 16.4006C35.7101 16.1297 35.5747 15.9143 35.31 15.7543C35.0515 15.5942 34.6452 15.465 34.0913 15.3665L31.5799 14.9233C30.1334 14.6709 29.0501 14.1908 28.3299 13.483C27.6097 12.7751 27.2527 11.8641 27.2589 10.75C27.2527 9.76515 27.5112 8.93111 28.0344 8.24787C28.5638 7.55847 29.3178 7.03527 30.2965 6.67827C31.2814 6.3151 32.4478 6.13352 33.7958 6.13352C35.8455 6.13352 37.4613 6.55824 38.6431 7.40767C39.8311 8.2571 40.4558 9.43276 40.5174 10.9347ZM51.2969 6.31818V10.0114H41.9531V6.31818H51.2969ZM43.7628 2.92045H48.8594V15.9389C48.8594 16.1359 48.8932 16.3021 48.9609 16.4375C49.0286 16.5668 49.1333 16.6652 49.2749 16.733C49.4164 16.7945 49.598 16.8253 49.8196 16.8253C49.9735 16.8253 50.152 16.8068 50.3551 16.7699C50.5644 16.733 50.7183 16.7022 50.8168 16.6776L51.5554 20.2599C51.3277 20.3277 51.0014 20.4107 50.5767 20.5092C50.1581 20.6077 49.6596 20.6723 49.081 20.7031C47.9115 20.7647 46.9297 20.6446 46.1357 20.343C45.3416 20.0353 44.7446 19.5521 44.3445 18.8935C43.9444 18.2348 43.7505 17.41 43.7628 16.419V2.92045ZM53.3766 20.5V6.31818H58.4732V20.5H53.3766ZM55.9249 4.84091C55.2355 4.84091 54.6446 4.61316 54.1522 4.15767C53.6597 3.70218 53.4135 3.15436 53.4135 2.5142C53.4135 1.87405 53.6597 1.32623 54.1522 0.870738C54.6446 0.415246 55.2355 0.1875 55.9249 0.1875C56.6204 0.1875 57.2114 0.415246 57.6976 0.870738C58.19 1.32623 58.4363 1.87405 58.4363 2.5142C58.4363 3.15436 58.19 3.70218 57.6976 4.15767C57.2114 4.61316 56.6204 4.84091 55.9249 4.84091ZM66.1665 12.5227V20.5H61.07V6.31818H65.908V9.0142H66.0558C66.3635 8.11553 66.9052 7.41075 67.6808 6.89986C68.4625 6.38897 69.3735 6.13352 70.4137 6.13352C71.417 6.13352 72.288 6.36435 73.0266 6.82599C73.7714 7.28149 74.3469 7.90933 74.7532 8.70952C75.1656 9.50971 75.3687 10.4238 75.3626 11.4517V20.5H70.266V12.5227C70.2721 11.821 70.0936 11.2701 69.7305 10.87C69.3735 10.4699 68.8749 10.2699 68.2347 10.2699C67.8162 10.2699 67.4499 10.3622 67.136 10.5469C66.8282 10.7254 66.5913 10.9839 66.4251 11.3224C66.2589 11.6548 66.1727 12.0549 66.1665 12.5227ZM84.7109 20.7585C83.1721 20.7585 81.8549 20.4538 80.7592 19.8445C79.6636 19.2289 78.8234 18.3733 78.2386 17.2777C77.6539 16.1759 77.3615 14.8987 77.3615 13.446C77.3615 11.9934 77.6539 10.7192 78.2386 9.62358C78.8234 8.52178 79.6636 7.66619 80.7592 7.05682C81.8549 6.44129 83.1721 6.13352 84.7109 6.13352C86.102 6.13352 87.3054 6.38589 88.321 6.89062C89.3428 7.3892 90.1338 8.09706 90.6939 9.0142C91.254 9.92519 91.5372 10.9962 91.5433 12.2273H86.8161C86.7483 11.4825 86.5329 10.9162 86.1697 10.5284C85.8127 10.1345 85.3511 9.9375 84.7848 9.9375C84.3416 9.9375 83.9538 10.0668 83.6214 10.3253C83.2891 10.5777 83.0305 10.9624 82.8459 11.4794C82.6612 11.9903 82.5689 12.6335 82.5689 13.4091C82.5689 14.1847 82.6612 14.831 82.8459 15.348C83.0305 15.8589 83.2891 16.2436 83.6214 16.5021C83.9538 16.7545 84.3416 16.8807 84.7848 16.8807C85.1603 16.8807 85.4927 16.7945 85.782 16.6222C86.0713 16.4437 86.3052 16.1851 86.4837 15.8466C86.6683 15.5019 86.7791 15.0833 86.8161 14.5909H91.5433C91.5249 15.8404 91.2386 16.9299 90.6847 17.8594C90.1307 18.7827 89.3459 19.4967 88.3303 20.0014C87.3208 20.5062 86.1143 20.7585 84.7109 20.7585ZM102.104 6.31818V10.0114H92.7598V6.31818H102.104ZM94.5694 2.92045H99.666V15.9389C99.666 16.1359 99.6999 16.3021 99.7676 16.4375C99.8353 16.5668 99.9399 16.6652 100.081 16.733C100.223 16.7945 100.405 16.8253 100.626 16.8253C100.78 16.8253 100.959 16.8068 101.162 16.7699C101.371 16.733 101.525 16.7022 101.623 16.6776L102.362 20.2599C102.134 20.3277 101.808 20.4107 101.383 20.5092C100.965 20.6077 100.466 20.6723 99.8876 20.7031C98.7181 20.7647 97.7363 20.6446 96.9423 20.343C96.1483 20.0353 95.5512 19.5521 95.1511 18.8935C94.751 18.2348 94.5571 17.41 94.5694 16.419V2.92045ZM104.183 20.5V6.31818H109.28V20.5H104.183ZM106.732 4.84091C106.042 4.84091 105.451 4.61316 104.959 4.15767C104.466 3.70218 104.22 3.15436 104.22 2.5142C104.22 1.87405 104.466 1.32623 104.959 0.870738C105.451 0.415246 106.042 0.1875 106.732 0.1875C107.427 0.1875 108.018 0.415246 108.504 0.870738C108.997 1.32623 109.243 1.87405 109.243 2.5142C109.243 3.15436 108.997 3.70218 108.504 4.15767C108.018 4.61316 107.427 4.84091 106.732 4.84091ZM118.709 20.7585C117.17 20.7585 115.853 20.4538 114.757 19.8445C113.662 19.2289 112.821 18.3733 112.237 17.2777C111.652 16.1759 111.36 14.8987 111.36 13.446C111.36 11.9934 111.652 10.7192 112.237 9.62358C112.821 8.52178 113.662 7.66619 114.757 7.05682C115.853 6.44129 117.17 6.13352 118.709 6.13352C120.248 6.13352 121.565 6.44129 122.661 7.05682C123.756 7.66619 124.597 8.52178 125.181 9.62358C125.766 10.7192 126.058 11.9934 126.058 13.446C126.058 14.8987 125.766 16.1759 125.181 17.2777C124.597 18.3733 123.756 19.2289 122.661 19.8445C121.565 20.4538 120.248 20.7585 118.709 20.7585ZM118.746 16.9915C119.177 16.9915 119.549 16.8468 119.863 16.5575C120.177 16.2682 120.42 15.8558 120.593 15.3203C120.765 14.7848 120.851 14.1477 120.851 13.4091C120.851 12.6643 120.765 12.0272 120.593 11.4979C120.42 10.9624 120.177 10.55 119.863 10.2607C119.549 9.97135 119.177 9.8267 118.746 9.8267C118.29 9.8267 117.9 9.97135 117.573 10.2607C117.247 10.55 116.998 10.9624 116.825 11.4979C116.653 12.0272 116.567 12.6643 116.567 13.4091C116.567 14.1477 116.653 14.7848 116.825 15.3203C116.998 15.8558 117.247 16.2682 117.573 16.5575C117.9 16.8468 118.29 16.9915 118.746 16.9915ZM133.223 12.5227V20.5H128.127V6.31818H132.965V9.0142H133.112C133.42 8.11553 133.962 7.41075 134.737 6.89986C135.519 6.38897 136.43 6.13352 137.47 6.13352C138.474 6.13352 139.345 6.36435 140.083 6.82599C140.828 7.28149 141.404 7.90933 141.81 8.70952C142.222 9.50971 142.425 10.4238 142.419 11.4517V20.5H137.323V12.5227C137.329 11.821 137.15 11.2701 136.787 10.87C136.43 10.4699 135.932 10.2699 135.291 10.2699C134.873 10.2699 134.507 10.3622 134.193 10.5469C133.885 10.7254 133.648 10.9839 133.482 11.3224C133.316 11.6548 133.229 12.0549 133.223 12.5227Z" fill="#000500"/>
<path d="M149.893 20.9545C148.794 20.9545 147.852 20.571 147.066 19.804C146.289 19.0275 145.906 18.0852 145.915 16.9773C145.906 15.8977 146.289 14.9744 147.066 14.2074C147.852 13.4403 148.794 13.0568 149.893 13.0568C150.934 13.0568 151.853 13.4403 152.648 14.2074C153.453 14.9744 153.86 15.8977 153.87 16.9773C153.86 17.7159 153.666 18.3883 153.287 18.9943C152.918 19.5909 152.435 20.0691 151.839 20.429C151.242 20.7794 150.593 20.9545 149.893 20.9545Z" fill="#1D4ED8"/>
</svg>
