<svg width="160" height="24" viewBox="0 0 160 24" fill="none" xmlns="http://www.w3.org/2000/svg">
<g clip-path="url(#clip0_7955_106931)">
<path d="M27.3945 22.2126V2.59912H34.3563C40.236 2.59912 43.8366 6.26583 43.8366 12.3674C43.8366 18.4689 40.2456 22.2126 34.3085 22.2126H27.3945ZM34.0978 18.671C37.7558 18.671 39.6902 16.7463 39.6902 12.4059C39.6902 8.0655 37.7749 6.17921 34.1074 6.17921H31.5218V18.6903L34.0978 18.671Z" fill="#151515"/>
<path d="M46.051 3.53392C46.0241 3.09329 46.1296 2.65472 46.3536 2.27502C46.5776 1.89531 46.91 1.59199 47.3076 1.40434C47.7052 1.21669 48.1497 1.15336 48.5835 1.22257C49.0174 1.29177 49.4205 1.49032 49.7407 1.79248C50.061 2.09464 50.2835 2.48649 50.3796 2.91725C50.4757 3.34802 50.4408 3.79785 50.2795 4.20847C50.1182 4.61908 49.8379 4.97154 49.475 5.2202C49.112 5.46885 48.6831 5.60223 48.2439 5.60306C47.9647 5.61205 47.6864 5.56564 47.4251 5.4665C47.1637 5.36735 46.9244 5.21741 46.7207 5.02525C46.517 4.83308 46.3531 4.60246 46.2381 4.34657C46.1232 4.09068 46.0596 3.81453 46.051 3.53392ZM46.2042 7.48935H50.2549V22.2139H46.2042V7.48935Z" fill="#151515"/>
<path d="M61.2488 11.9078C61.112 11.3738 60.7897 10.9067 60.34 10.5907C59.8905 10.2748 59.3432 10.1309 58.7974 10.1851C57.5428 10.1851 56.5278 10.7625 56.5278 11.6287C56.5278 12.3408 57.0257 12.8124 58.3855 13.1011L61.0285 13.6401C63.9013 14.2271 65.2419 15.4975 65.2516 17.6147C65.2516 20.5019 62.532 22.4267 58.7398 22.4267C54.9477 22.4267 52.4963 20.6944 52.1133 17.8842L56.0969 17.6725C56.3458 18.8658 57.3034 19.4914 58.7494 19.4914C60.1954 19.4914 61.1147 18.8658 61.1339 17.9997C61.153 17.1335 60.5306 16.7967 59.2187 16.5369L56.6906 16.0268C53.8178 15.459 52.458 14.0346 52.4676 11.8308C52.4676 9.00135 54.9191 7.26904 58.6537 7.26904C62.3883 7.26904 64.5142 8.93398 64.8781 11.6383L61.2488 11.9078Z" fill="#151515"/>
<path d="M74.8541 10.5526H72.1057V17.6647C72.1057 18.7907 72.6612 19.0986 73.4751 19.0986C73.7977 19.0823 74.1181 19.0373 74.4327 18.9639L75.0743 21.9954C74.362 22.2278 73.6204 22.3574 72.8718 22.3804C69.932 22.5055 67.988 21.0812 68.0072 18.2036V10.5526H66.1016V7.49222H68.0168V3.97949H72.0674V7.49222H74.8158L74.8541 10.5526Z" fill="#151515"/>
<path d="M76.633 3.53392C76.6061 3.09288 76.7118 2.65391 76.9363 2.27398C77.1608 1.89405 77.4937 1.5907 77.8918 1.40331C78.29 1.21593 78.735 1.15315 79.1691 1.22313C79.6032 1.29312 80.0064 1.49263 80.3262 1.79577C80.6461 2.09892 80.8679 2.4917 80.963 2.92313C81.0579 3.35456 81.0217 3.80472 80.8589 4.21518C80.6961 4.62564 80.4143 4.97744 80.05 5.22493C79.6858 5.47242 79.256 5.60416 78.8163 5.60306C78.2541 5.61861 77.7086 5.40958 77.2994 5.02176C76.8901 4.63394 76.6505 4.09893 76.633 3.53392ZM76.7862 7.48934H80.8369V22.2139H76.7575L76.7862 7.48934Z" fill="#151515"/>
<path d="M87.5506 22.2108H83.5V7.48622H87.3303V10.0847H87.4931C87.844 9.20293 88.4664 8.45721 89.2694 7.95673C90.0724 7.45624 91.0137 7.22728 91.9556 7.30336C95.0008 7.30336 97.0022 9.40137 97.0022 12.8275V22.2108H92.9131V13.5493C92.9131 11.7496 91.9556 10.6621 90.3085 10.6621C89.9228 10.6503 89.539 10.7216 89.183 10.8714C88.8271 11.0212 88.5072 11.246 88.2449 11.5305C87.9826 11.8151 87.7841 12.1528 87.6627 12.5209C87.5413 12.8891 87.4998 13.2791 87.541 13.6648L87.5506 22.2108Z" fill="#151515"/>
<path d="M98.8438 14.8883C98.8438 10.3843 101.583 7.30469 106.006 7.30469C109.837 7.30469 112.385 9.52781 112.557 12.925H108.726C108.682 12.2503 108.381 11.6187 107.885 11.1616C107.389 10.7045 106.737 10.4571 106.064 10.471C104.149 10.471 102.952 12.0589 102.952 14.8306C102.952 17.6023 104.178 19.2383 106.064 19.2383C106.736 19.2547 107.388 19.0095 107.884 18.5539C108.381 18.0984 108.682 17.4678 108.726 16.7939H112.557C112.365 20.1718 109.923 22.4623 106.025 22.4623C101.535 22.4623 98.8438 19.3249 98.8438 14.8883Z" fill="#151515"/>
<path d="M122.17 10.5526H119.422V17.6647C119.422 18.7907 119.986 19.0986 120.791 19.0986C121.132 19.0851 121.472 19.04 121.806 18.9639L122.438 21.9954C121.729 22.228 120.99 22.3576 120.245 22.3804C117.305 22.5055 115.351 21.0812 115.371 18.2036V10.5526H113.379V7.49222H115.371V3.97949H119.422V7.49222H122.17V10.5526Z" fill="#151515"/>
<path d="M123.922 3.53392C123.895 3.09329 124.001 2.65472 124.226 2.27502C124.449 1.89531 124.782 1.59199 125.179 1.40434C125.577 1.21669 126.022 1.15336 126.455 1.22257C126.889 1.29177 127.292 1.49032 127.613 1.79248C127.933 2.09464 128.155 2.48649 128.251 2.91725C128.347 3.34802 128.312 3.79785 128.151 4.20847C127.99 4.61908 127.709 4.97154 127.347 5.2202C126.984 5.46885 126.555 5.60223 126.115 5.60306C125.552 5.61865 125.006 5.40993 124.595 5.02236C124.184 4.63479 123.943 4.09979 123.922 3.53392ZM124.075 7.48935H128.126V22.2139H124.075V7.48935Z" fill="#151515"/>
<path d="M130.109 14.8883C130.109 10.3362 132.867 7.30469 137.3 7.30469C141.734 7.30469 144.492 10.3362 144.492 14.8883C144.492 19.4404 141.734 22.4623 137.3 22.4623C132.867 22.4623 130.109 19.4116 130.109 14.8883ZM140.374 14.8883C140.374 12.3284 139.321 10.4325 137.319 10.4325C135.318 10.4325 134.227 12.3572 134.227 14.8883C134.227 17.4194 135.271 19.3249 137.319 19.3249C139.369 19.3249 140.374 17.4002 140.374 14.8595V14.8883Z" fill="#151515"/>
<path d="M150.523 22.2108H146.473V7.48624H150.304V10.0847H150.476C150.821 9.21282 151.432 8.4736 152.222 7.9737C153.012 7.4738 153.94 7.23907 154.872 7.30339C157.916 7.30339 159.908 9.4014 159.908 12.8275V22.2108H155.858V13.5493C155.858 11.7496 154.901 10.6621 153.263 10.6621C152.877 10.6487 152.492 10.719 152.135 10.8682C151.778 11.0175 151.458 11.2422 151.195 11.5271C150.932 11.812 150.734 12.1504 150.613 12.5193C150.493 12.8881 150.452 13.2788 150.496 13.6648L150.523 22.2108Z" fill="#151515"/>
<path d="M1.55859 23.9339C1.5586 21.7056 2.43937 19.5686 4.00715 17.993C5.57492 16.4174 7.70129 15.5322 9.91846 15.5322C12.1357 15.5322 14.262 16.4174 15.8298 17.993C17.3976 19.5686 18.2784 21.7056 18.2784 23.9339H1.55859Z" fill="#FFCB66"/>
<path d="M19.8018 0V9.94149C19.8071 12.2104 19.0362 14.4121 17.6185 16.1778C15.5064 14.2599 12.7611 13.198 9.91459 13.198C7.06802 13.198 4.32278 14.2599 2.21068 16.1778C0.797008 14.4098 0.0266974 12.2096 0.0273442 9.94149V0H19.8018Z" fill="#2E4898"/>
</g>
<defs>
<clipPath id="clip0_7955_106931">
<rect width="160" height="24" fill="white"/>
</clipPath>
</defs>
</svg>
