<svg width="171" height="114" viewBox="0 0 171 114" fill="none" xmlns="http://www.w3.org/2000/svg">
<g clip-path="url(#clip0_336_731)">
<path d="M125.672 0.570496H0.553421V80.2263H125.672V0.570496Z" fill="#E6E6E6"/>
<path d="M122.095 10.5613H4.13117V40.9268H122.095V10.5613Z" fill="white"/>
<path d="M58.4201 14.9474H33.4735V16.371H58.4201V14.9474Z" fill="#E6E6E6"/>
<path d="M71.9965 20.1401H33.4735V21.5636H71.9965V20.1401Z" fill="#26499D"/>
<path d="M64.8689 25.0323H33.4735V26.4558H64.8689V25.0323Z" fill="#E6E6E6"/>
<path d="M51.8016 29.906H33.4735V31.3296H51.8016V29.906Z" fill="#E6E6E6"/>
<path d="M61.1354 34.7798H33.4735V36.2033H61.1354V34.7798Z" fill="#E6E6E6"/>
<path d="M25.1579 14.4414H22.1032V17.4779H25.1579V14.4414Z" fill="#E6E6E6"/>
<path d="M25.1579 19.3336H22.1032V22.3701H25.1579V19.3336Z" fill="#26499D"/>
<path d="M25.1579 24.2258H22.1032V27.2623H25.1579V24.2258Z" fill="#E6E6E6"/>
<path d="M25.1579 29.118H22.1032V32.1546H25.1579V29.118Z" fill="#E6E6E6"/>
<path d="M25.1579 34.0102H22.1032V37.0467H25.1579V34.0102Z" fill="#E6E6E6"/>
<path d="M105.598 21.3579H95.4158V31.4798H105.598V21.3579Z" fill="#E6E6E6"/>
<path d="M122.095 45.1442H4.13117V75.5097H122.095V45.1442Z" fill="white"/>
<path d="M30.4188 47.843H27.3641V50.8795H30.4188V47.843Z" fill="#E6E6E6"/>
<path d="M25.1579 47.843H22.1032V50.8795H25.1579V47.843Z" fill="#26499D"/>
<path d="M73.896 54.4833C72.9649 52.9164 71.6731 51.5916 70.1266 50.6177C68.5802 49.6438 66.8233 49.0487 65.0004 48.8813C63.1775 48.714 61.3406 48.979 59.6409 49.6548C57.9411 50.3306 56.427 51.3978 55.223 52.7686L54.4785 52.1219C55.7852 50.6337 57.4286 49.4751 59.2736 48.7413C61.1186 48.0076 63.1124 47.7197 65.0912 47.9014C67.0699 48.0831 68.977 48.7291 70.6556 49.7863C72.3342 50.8435 73.7363 52.2818 74.7467 53.9827L73.896 54.4833Z" fill="#E6E6E6"/>
<path d="M74.3618 67.2852L73.5414 66.7368C74.7565 64.9353 75.4346 62.829 75.4973 60.6609C75.56 58.4928 75.0049 56.3513 73.896 54.4833L74.7467 53.9827C75.9508 56.0105 76.5536 58.3354 76.4855 60.6892C76.4174 63.0429 75.6812 65.3295 74.3618 67.2852Z" fill="#26499D"/>
<path d="M54.5815 68.6542C52.5381 66.3856 51.3996 63.4525 51.3807 60.4075C51.3617 57.3624 52.4635 54.4155 54.4785 52.1219L55.223 52.7685C53.3667 54.8815 52.3518 57.5962 52.3692 60.4014C52.3867 63.2066 53.4354 65.9086 55.3179 67.9986L54.5815 68.6542Z" fill="#26499D"/>
<path d="M63.9356 72.811C62.1702 72.8097 60.425 72.4388 58.8133 71.7227C57.2017 71.0065 55.7598 69.961 54.5815 68.6543L55.3179 67.9986C56.4933 69.304 57.9532 70.3251 59.5862 70.984C61.2192 71.6429 62.9821 71.9222 64.7402 71.8005C66.4984 71.6787 68.2053 71.1592 69.7306 70.2816C71.256 69.4041 72.5594 68.1916 73.5414 66.7368L74.3618 67.2852C73.2141 68.9866 71.6625 70.3807 69.844 71.3445C68.0256 72.3082 65.9963 72.8119 63.9356 72.811Z" fill="#26499D"/>
<path d="M105.598 54.4225H95.4158V64.5444H105.598V54.4225Z" fill="#E6E6E6"/>
<path d="M31.8613 61.0017H21.679V71.1235H31.8613V61.0017Z" fill="#E6E6E6"/>
<path d="M125.619 0.5H0.5V5.78394H125.619V0.5Z" fill="#26499D"/>
<path d="M4.45006 4.18078C4.99417 4.18078 5.43525 3.74232 5.43525 3.20144C5.43525 2.66057 4.99417 2.22211 4.45006 2.22211C3.90596 2.22211 3.46487 2.66057 3.46487 3.20144C3.46487 3.74232 3.90596 4.18078 4.45006 4.18078Z" fill="white"/>
<path d="M8.1896 4.18078C8.7337 4.18078 9.17479 3.74232 9.17479 3.20144C9.17479 2.66057 8.7337 2.22211 8.1896 2.22211C7.64549 2.22211 7.20441 2.66057 7.20441 3.20144C7.20441 3.74232 7.64549 4.18078 8.1896 4.18078Z" fill="white"/>
<path d="M11.9291 4.18078C12.4732 4.18078 12.9143 3.74232 12.9143 3.20144C12.9143 2.66057 12.4732 2.22211 11.9291 2.22211C11.385 2.22211 10.9439 2.66057 10.9439 3.20144C10.9439 3.74232 11.385 4.18078 11.9291 4.18078Z" fill="white"/>
<path d="M145.819 110.756H148.352L149.558 101.044L145.819 101.044L145.819 110.756Z" fill="#FFB8B8"/>
<path d="M145.173 109.934L150.162 109.934H150.162C151.005 109.934 151.814 110.267 152.41 110.86C153.006 111.452 153.341 112.256 153.341 113.094V113.197L145.174 113.197L145.173 109.934Z" fill="#2F2E41"/>
<path d="M139.511 101.221L141.38 102.921L148.863 96.5624L146.105 94.0545L139.511 101.221Z" fill="#FFB8B8"/>
<path d="M139.592 100.181L143.274 103.528L143.274 103.528C143.896 104.094 144.266 104.882 144.304 105.719C144.342 106.556 144.043 107.374 143.474 107.993L143.404 108.068L137.377 102.589L139.592 100.181Z" fill="#2F2E41"/>
<path d="M149.801 76.6505L149.083 90.9233L150.878 106.445L145.493 107.159L142.083 87.5336L141.006 74.1526L149.801 76.6505Z" fill="#2F2E41"/>
<path d="M158.236 71.4765C158.236 71.4765 160.39 85.571 155.903 90.2097C151.416 94.8484 145.314 103.055 145.314 103.055L141.006 97.7029L151.954 86.1062L149.801 78.2561L141.006 74.1527L142.442 64.3401L155.364 64.1617L158.236 71.4765Z" fill="#2F2E41"/>
<path d="M148.353 38.8273C150.781 38.8273 152.749 36.871 152.749 34.4578C152.749 32.0447 150.781 30.0884 148.353 30.0884C145.926 30.0884 143.958 32.0447 143.958 34.4578C143.958 36.871 145.926 38.8273 148.353 38.8273Z" fill="#FFB8B8"/>
<path d="M151.999 40.6679L152.672 41.6819L154.467 46.6774L153.031 66.1241L144.596 66.3027L143.519 44.0012L145.775 41.1982L151.999 40.6679Z" fill="#CCCCCC"/>
<path d="M140.109 44.5364L138.673 44.358C138.673 44.358 138.314 44.5364 138.135 45.7853C137.955 47.0342 135.801 58.0957 135.801 58.0957L138.673 71.6549L141.904 67.373L139.929 59.8798L141.904 52.3865L140.109 44.5364Z" fill="#2F2E41"/>
<path d="M158.416 44.3582H159.492L162.185 58.8093L159.672 70.0493L157.159 65.9458L157.877 61.4855L157.518 57.5605L156.262 55.2411L158.416 44.3582Z" fill="#2F2E41"/>
<path d="M150.951 34.4579L150.151 34.2592C150.151 34.2592 149.552 30.8828 148.153 31.2801C146.755 31.6773 143.158 32.0745 143.158 30.4856C143.158 28.8967 146.555 27.5064 148.553 27.705C150.551 27.9037 153.103 28.5625 153.748 31.4787C154.782 36.1534 151.614 37.3341 151.614 37.3341L151.667 37.1639C151.813 36.6913 151.824 36.1875 151.697 35.7093C151.571 35.2311 151.312 34.7976 150.951 34.4579Z" fill="#2F2E41"/>
<path d="M138.853 44.3581L144.596 42.0387L145.942 41.0575L149.98 58.8093L152.672 50.7808L151.865 40.5222L159.313 44.3581L156.8 56.49L156.441 61.1287L157.518 64.8753C157.518 64.8753 161.287 67.5515 160.031 70.406C158.775 73.2606 157.339 73.439 157.339 73.439C157.339 73.439 151.237 67.7299 150.878 66.3026C150.519 64.8753 149.98 62.3776 149.98 62.3776C149.98 62.3776 146.929 73.7959 143.34 73.6174C139.75 73.439 139.75 69.6924 139.75 69.6924L140.647 65.7674L142.083 61.6639L141.365 54.8843L138.853 44.3581Z" fill="#2F2E41"/>
<path d="M170.322 113.5H122.663C122.616 113.5 122.571 113.481 122.537 113.448C122.504 113.415 122.485 113.37 122.485 113.323C122.485 113.276 122.504 113.231 122.537 113.198C122.571 113.165 122.616 113.146 122.663 113.146H170.322C170.369 113.146 170.415 113.165 170.448 113.198C170.481 113.231 170.5 113.276 170.5 113.323C170.5 113.37 170.481 113.415 170.448 113.448C170.415 113.481 170.369 113.5 170.322 113.5Z" fill="#CCCCCC"/>
</g>
<defs>
<clipPath id="clip0_336_731">
<rect width="170" height="113" fill="white" transform="translate(0.5 0.5)"/>
</clipPath>
</defs>
</svg>
