<svg width="143" height="108" viewBox="0 0 143 108" fill="none" xmlns="http://www.w3.org/2000/svg">
<g clip-path="url(#clip0_336_657)">
<path d="M134.079 81.9668H27.3419C25.3617 81.9652 23.757 80.8418 23.7547 79.4554V18.6082C23.757 17.2219 25.3617 16.0984 27.3419 16.0968H134.079C136.059 16.0984 137.664 17.2219 137.666 18.6082V79.4554C137.664 80.8418 136.059 81.9652 134.079 81.9668Z" fill="#E6E6E6"/>
<path d="M123.708 80.2729H29.7621C27.7819 80.2712 26.1772 79.1478 26.1749 77.7614V20.3036C26.1772 18.9172 27.7819 17.7937 29.7621 17.7921H131.659C133.639 17.7938 135.244 18.9172 135.246 20.3036V72.1948C135.239 76.6541 130.077 80.2678 123.708 80.2729Z" fill="white"/>
<path d="M97.8918 30.7843H54.9918C54.4808 30.7843 54.0666 30.4944 54.0666 30.1367C54.0666 29.7789 54.4808 29.489 54.9918 29.489H97.8918C98.4028 29.489 98.817 29.7789 98.817 30.1367C98.817 30.4944 98.4028 30.7843 97.8918 30.7843Z" fill="#26499D"/>
<path d="M119.609 37.6948H54.9918C54.4808 37.6948 54.0666 37.4048 54.0666 37.0471C54.0666 36.6894 54.4808 36.3994 54.9918 36.3994H119.609C120.12 36.3994 120.534 36.6894 120.534 37.0471C120.534 37.4048 120.12 37.6948 119.609 37.6948Z" fill="#E6E6E6"/>
<path d="M119.609 44.6053H54.9918C54.4808 44.6053 54.0666 44.3153 54.0666 43.9576C54.0666 43.5999 54.4808 43.3099 54.9918 43.3099H119.609C120.12 43.3099 120.534 43.5999 120.534 43.9576C120.534 44.3154 120.12 44.6053 119.609 44.6053Z" fill="#E6E6E6"/>
<path d="M119.609 51.5159H54.9918C54.4808 51.5159 54.0666 51.2259 54.0666 50.8682C54.0666 50.5104 54.4808 50.2205 54.9918 50.2205H119.609C120.12 50.2205 120.534 50.5104 120.534 50.8682C120.534 51.2259 120.12 51.5159 119.609 51.5159Z" fill="#E6E6E6"/>
<path d="M119.609 58.4263H54.9918C54.4808 58.4263 54.0666 58.1363 54.0666 57.7786C54.0666 57.4209 54.4808 57.1309 54.9918 57.1309H119.609C120.12 57.1309 120.534 57.4209 120.534 57.7786C120.534 58.1363 120.12 58.4263 119.609 58.4263Z" fill="#E6E6E6"/>
<path d="M116.703 69.4386C114.116 69.4386 112.018 67.9703 112.018 66.159C112.018 64.3477 114.116 62.8793 116.703 62.8793C119.29 62.8793 121.387 64.3477 121.387 66.159C121.387 67.9703 119.29 69.4386 116.703 69.4386Z" fill="#26499D"/>
<path d="M119.338 66.0032L118.01 64.6461C117.888 64.5202 117.643 64.4877 117.463 64.5735C117.283 64.6592 117.237 64.8307 117.359 64.9566L117.36 64.9578L118.219 65.8355H114.854C114.599 65.8349 114.392 65.9793 114.391 66.158C114.39 66.3367 114.596 66.482 114.852 66.4825H118.262L117.36 67.4033C117.238 67.5293 117.285 67.7008 117.465 67.7864C117.644 67.8714 117.887 67.8395 118.01 67.715L119.338 66.358C119.426 66.2477 119.426 66.1134 119.338 66.0032H119.338Z" fill="white"/>
<path d="M142.034 7.12362H19.3874C19.1244 7.11969 18.9157 6.96723 18.9213 6.78311C18.9268 6.60453 19.1323 6.46067 19.3874 6.45685H142.034C142.297 6.46078 142.506 6.61324 142.5 6.79736C142.494 6.97595 142.289 7.11981 142.034 7.12362Z" fill="#CACACA"/>
<path d="M34.7359 72.8464C35.4451 72.431 35.539 71.6918 34.9457 71.1953C34.8825 71.1424 34.8126 71.0934 34.7371 71.0491L33.7214 64.9049L30.4966 65.4277L32.2887 71.2519C31.74 71.7773 31.9036 72.5146 32.654 72.8987C33.2819 73.2202 34.1426 73.1985 34.7359 72.8464Z" fill="#FFB6B6"/>
<path d="M34.4027 65.9068L30.6692 67.5374C30.6692 67.5374 30.442 68.4931 30.1853 66.0913C30.1585 65.8406 30.4083 65.4039 30.3808 65.1465C30.3499 64.8563 29.1622 64.7242 29.1309 64.4305C29.1086 64.2214 29.452 64.0354 29.4298 63.8269C29.3962 63.511 29.3629 63.1969 29.3301 62.8879C29.3027 62.6294 28.8937 62.4655 28.8673 62.216C28.8407 61.9644 29.1968 61.6272 29.1717 61.3888C28.9835 59.6009 29.6343 55.1027 29.6343 55.0112C29.584 54.7816 29.447 54.5655 29.2375 54.3853L29.4368 53.968L29.3051 53.1851C29.1319 52.1564 29.4408 51.1161 30.1853 50.2209L31.1334 49.7862L35.5084 54.938C33.6674 59.3961 32.4656 61.1472 34.4027 65.9068H34.4027Z" fill="#26499D"/>
<path d="M31.4895 104.32H33.7479L34.8228 98.2209H31.4895V104.32Z" fill="#FFB6B6"/>
<path d="M30.7525 103.237L34.3607 103.086V104.168L37.7911 105.827C38.2299 106.039 38.34 106.46 38.037 106.767C37.8568 106.95 37.5597 107.059 37.2424 107.059H32.9467L32.2063 105.989L31.9172 107.059H30.2975L30.7525 103.237H30.7525Z" fill="#2F2E41"/>
<path d="M44.1758 104.32H46.4342L47.5089 98.2209H44.1758V104.32Z" fill="#FFB6B6"/>
<path d="M43.4386 103.237L47.0468 103.086V104.168L50.4772 105.827C50.916 106.039 51.0262 106.46 50.7232 106.767C50.5429 106.95 50.2458 107.059 49.9285 107.059H45.6328L44.8924 105.989L44.6033 107.059H42.9837L43.4386 103.237H43.4386Z" fill="#2F2E41"/>
<path d="M30.5309 99.0604H30.5397L30.974 84.5362C30.4031 83.7653 30.4214 82.8454 31.0226 82.0859L31.0848 82.0071L30.9236 81.4838C30.7165 80.8115 30.8115 80.1109 31.1956 79.4779L31.6008 70.2278C30.1532 63.6595 37.0522 59.3759 37.0522 59.3759H47.3869L49.6057 64.7129C51.0724 74.7177 50.8063 89.0749 48.4787 98.5204L48.5422 98.5428C48.7922 98.6404 48.8885 98.8583 48.7611 99.0378C48.6536 99.2559 48.3812 99.388 48.1527 99.3328L42.6947 99.1999C42.4447 99.1023 42.3483 98.8844 42.4758 98.7049C42.5833 98.4868 42.8558 98.3547 43.0842 98.4099L43.4554 98.5413L43.0724 97.9956C42.6028 97.3262 42.6936 96.5307 43.3091 95.922L43.2421 94.7207C42.6618 94.245 42.4689 93.5947 42.7307 92.9966L43.0988 92.1553L42.6639 84.3645L42.7518 82.6167L42.5708 80.6339L41.7342 71.7149L38.5676 82.6827L35.3329 99.1708C35.4913 99.2708 35.5607 99.4226 35.5149 99.5684C35.4462 99.764 35.1931 99.9001 34.9054 99.8962H30.5151C30.1848 99.896 29.9173 99.7083 29.9176 99.4771C29.9177 99.4395 29.9249 99.4022 29.9392 99.3661C30.0153 99.1824 30.2577 99.0572 30.5309 99.0604Z" fill="#2F2E41"/>
<path d="M55.6456 70.4589C56.2291 69.9568 56.1207 69.2185 55.4034 68.81C55.327 68.7664 55.2452 68.7277 55.1589 68.6942L52.4942 62.7971L49.47 63.7393L52.8102 69.219C52.4141 69.8078 52.7748 70.5099 53.6158 70.7873C54.3195 71.0193 55.1586 70.8836 55.6456 70.4589H55.6456H55.6456Z" fill="#FFB6B6"/>
<path d="M44.6807 51.7113C44.6807 51.7113 47.7198 59.2409 47.5822 60.0015C47.2983 61.57 33.3326 66.3916 32.294 64.2459L32.4242 63.5407C31.8995 62.806 35.1007 59.8902 35.2561 59.5088C35.4536 59.0211 34.5596 57.4199 34.5596 57.4199C34.5596 57.4199 35.1775 55.9582 35.0788 55.0532C34.9782 54.1483 34.6802 54.2878 33.5869 53.7298C32.4937 53.173 30.7038 50.5977 30.7038 50.5977C30.7038 50.5977 31.4991 48.0915 31.4991 47.6039C31.4991 47.1162 34.7661 46.2855 35.1629 46.0078C35.3356 45.8464 35.481 45.6716 35.5962 45.4868C35.6766 45.3742 35.6254 45.1131 35.7114 44.9838C35.7662 44.8993 35.9582 44.9518 36.0149 44.8648C36.0697 44.7803 36.0222 44.683 36.077 44.5998C36.1483 44.4897 36.3202 44.3937 36.3878 44.2901C36.6986 43.8139 36.9637 43.4261 37.046 43.4261C37.2434 43.4261 43.6094 44.0533 43.6094 44.0533C43.9558 44.4284 44.3552 44.7783 44.8014 45.0977C45.4979 45.5841 48.7577 46.7681 48.7577 46.7681L44.6807 51.7113H44.6807Z" fill="#26499D"/>
<path d="M53.2767 64.3787C52.7794 64.7268 50.3187 66.3253 50.2181 65.9068C50.1194 65.4895 50.0656 65.4396 49.6671 65.3014C49.2685 65.1619 49.2685 65.0927 49.1698 64.6051C49.0711 64.1174 48.1752 63.6297 48.2758 63.4211C48.3745 63.2125 48.2823 63.4779 48.2823 63.268C48.2823 63.0593 47.9843 62.2939 47.5858 62.1544C47.1891 62.0149 46.5912 61.8767 46.8911 61.5285C47.1891 61.1804 44.0847 50.7359 44.0847 50.7359L46.8691 46.9075L48.7577 46.768C48.7577 46.768 49.3315 46.9979 49.5113 49.0704C49.5204 49.1754 49.6839 49.368 49.6909 49.4827C49.6967 49.5779 49.5463 49.5937 49.5504 49.6959C49.5513 49.7177 49.5522 49.7397 49.553 49.7618C49.5567 49.8634 49.9486 49.9382 49.9545 50.0363C49.965 50.2115 50.1189 51.3289 50.1355 51.4932C50.1542 51.6783 50.1763 51.8566 50.2018 52.0282C50.4766 53.8959 50.575 54.0536 50.7453 54.6498C51.0089 55.5725 52.1015 60.9615 52.1015 60.9615C52.1015 60.9615 52.8968 61.0997 52.8968 61.5874C52.8968 62.0751 53.7739 63.0552 53.3772 63.612C52.9786 64.17 53.774 64.0305 53.2766 64.3787H53.2767Z" fill="#26499D"/>
<path d="M39.7418 43.2831C42.3467 43.2831 44.4584 41.8047 44.4584 39.981C44.4584 38.1573 42.3467 36.679 39.7418 36.679C37.1369 36.679 35.0252 38.1573 35.0252 39.981C35.0252 41.8047 37.1369 43.2831 39.7418 43.2831Z" fill="#FFB8B8"/>
<path d="M29.5779 46.9207C28.5798 46.6731 27.5817 46.425 26.5836 46.1764C26.7557 45.9743 26.9748 45.7938 27.2318 45.6423C28.1821 45.0868 29.4938 44.9864 30.7003 44.7989C31.9087 44.6115 33.2204 44.2273 33.6621 43.4188C34.121 42.5781 33.4556 41.6705 33.0694 40.8138C32.4989 39.6121 32.5682 38.3066 33.2644 37.1379C33.9853 35.9679 35.4436 35.0998 37.209 34.7899C38.9566 34.5181 40.9318 34.9612 42.0064 35.9625C43.4391 35.6616 44.9673 36.1569 45.5666 37.1165C45.8431 37.5573 45.8004 38.0642 45.4519 38.4792C45.0791 38.8741 44.2817 39.0762 43.6813 38.8567L44.0293 38.2383C42.9528 38.4939 42.253 39.8567 42.3983 40.6465C42.5417 41.4349 43.1995 42.1257 43.8668 42.7696C44.5341 43.4135 45.2454 44.064 45.5322 44.8338C45.9452 45.9408 45.3869 47.1509 44.3544 48.0385C43.3219 48.926 41.8668 49.5284 40.3601 49.9715C39.2322 50.3035 38.0601 50.5564 36.861 50.7265C37.0751 50.4347 37.2874 50.1428 37.5015 49.851L34.9604 50.9273C34.469 50.9607 33.9738 50.9808 33.4786 50.9875C32.0369 51.0049 30.5665 50.8992 29.2471 50.4962C27.9259 50.092 26.7653 49.3597 26.2873 48.4079C26.134 48.1001 26.0615 47.7754 26.0731 47.4495C27.2414 47.2728 28.4096 47.0965 29.5779 46.9207H29.5779Z" fill="#2F2E41"/>
<path d="M75.1572 107.311H66.4096L66.372 107.263C66.2602 107.121 66.1522 106.971 66.0513 106.816C65.1502 105.465 64.7694 103.921 64.4333 102.558L64.1803 101.531C64.0953 101.186 64.426 100.858 64.9191 100.798C65.1604 100.769 65.4084 100.809 65.6063 100.91C66.9358 101.588 68.2657 102.264 69.5961 102.94C70.0999 103.197 70.6752 103.494 71.2262 103.815C71.2793 103.634 71.3349 103.453 71.3905 103.274C71.4969 102.931 71.9798 102.714 72.469 102.789C72.7084 102.825 72.9166 102.928 73.0461 103.073L74.0695 104.225C74.816 105.065 75.4749 105.894 75.3406 106.787C75.3413 106.798 75.3401 106.809 75.3372 106.82C75.3103 106.967 75.2605 107.111 75.1886 107.25L75.1573 107.311H75.1572Z" fill="#F0F0F0"/>
<path d="M83.9373 107.443L0.812221 107.5C0.638887 107.499 0.499103 107.4 0.500004 107.279C0.500906 107.159 0.640166 107.061 0.812221 107.061L83.9373 107.004C84.1106 107.004 84.2504 107.103 84.2495 107.225C84.2486 107.345 84.1093 107.443 83.9373 107.443Z" fill="#CACACA"/>
<path d="M24.1929 3.69073C25.424 3.69073 26.422 2.97646 26.422 2.09536C26.422 1.21427 25.424 0.5 24.1929 0.5C22.9618 0.5 21.9638 1.21427 21.9638 2.09536C21.9638 2.97646 22.9618 3.69073 24.1929 3.69073Z" fill="#3F3D56"/>
<path d="M31.8933 3.69073C33.1244 3.69073 34.1224 2.97646 34.1224 2.09536C34.1224 1.21427 33.1244 0.5 31.8933 0.5C30.6623 0.5 29.6643 1.21427 29.6643 2.09536C29.6643 2.97646 30.6623 3.69073 31.8933 3.69073Z" fill="#3F3D56"/>
<path d="M39.5938 3.69073C40.8249 3.69073 41.8229 2.97646 41.8229 2.09536C41.8229 1.21427 40.8249 0.5 39.5938 0.5C38.3627 0.5 37.3647 1.21427 37.3647 2.09536C37.3647 2.97646 38.3627 3.69073 39.5938 3.69073Z" fill="#3F3D56"/>
<path d="M48.3743 3.35629C48.3059 3.35629 48.2375 3.33772 48.1859 3.30078L46.6819 2.22435C46.5816 2.15263 46.5816 2.03801 46.6819 1.96629L48.1859 0.889949C48.288 0.817142 48.455 0.815971 48.5586 0.887067C48.6628 0.958342 48.6646 1.07521 48.5628 1.14802L47.239 2.09532L48.5628 3.04271C48.6646 3.11552 48.6628 3.23239 48.5586 3.30366C48.5074 3.3388 48.4409 3.35629 48.3743 3.35629Z" fill="#3F3D56"/>
<path d="M50.9017 3.3563C50.8352 3.3563 50.7687 3.33882 50.7174 3.30368C50.6133 3.2324 50.6115 3.11562 50.7133 3.04272L52.0369 2.09533L50.7133 1.14803C50.6115 1.07522 50.6133 0.958355 50.7174 0.88708C50.8213 0.815714 50.9884 0.817067 51.0902 0.889962L52.5941 1.9663C52.6944 2.03802 52.6944 2.15264 52.5941 2.22437L51.0902 3.30079C51.0386 3.33774 50.9702 3.3563 50.9017 3.3563Z" fill="#3F3D56"/>
<path d="M129.586 0.684692H126.789C126.47 0.684692 126.212 0.865538 126.212 1.08884V3.04866C126.212 3.27195 126.47 3.4528 126.789 3.4528H129.586C129.905 3.4528 130.166 3.27195 130.166 3.04866V1.08884C130.166 0.865538 129.905 0.684692 129.586 0.684692Z" fill="#3F3D56"/>
<path d="M122.733 0.684692H119.936C119.617 0.684692 119.359 0.865538 119.359 1.08884V3.04866C119.359 3.27195 119.617 3.4528 119.936 3.4528H122.733C123.052 3.4528 123.312 3.27195 123.312 3.04866V1.08884C123.312 0.865538 123.052 0.684692 122.733 0.684692Z" fill="#3F3D56"/>
<path d="M136.044 0.776978H133.247C132.928 0.776978 132.67 0.957824 132.67 1.18112V3.14094C132.67 3.36424 132.928 3.54508 133.247 3.54508H136.044C136.363 3.54508 136.624 3.36424 136.624 3.14094V1.18112C136.624 0.957824 136.363 0.776978 136.044 0.776978Z" fill="#3F3D56"/>
<path d="M93.8901 1.52252H71.5351C71.1449 1.52252 70.8313 1.74397 70.8313 2.01525C70.8313 2.28653 71.1449 2.50797 71.5351 2.50797H93.8901C94.2776 2.50797 94.5939 2.28652 94.5939 2.01525C94.5939 1.74398 94.2776 1.52252 93.8901 1.52252Z" fill="#3F3D56"/>
</g>
<defs>
<clipPath id="clip0_336_657">
<rect width="142" height="107" fill="white" transform="translate(0.5 0.5)"/>
</clipPath>
</defs>
</svg>
