<svg width="232" height="104" viewBox="0 0 232 104" fill="none" xmlns="http://www.w3.org/2000/svg">
<g clip-path="url(#clip0_336_379)">
<path d="M110.068 103.507H159.385C161.332 103.507 161.335 100.478 159.385 100.478H110.068C108.121 100.478 108.117 103.507 110.068 103.507Z" fill="#E6E6E6"/>
<path d="M96.7527 37.6743H47.6013C47.0821 37.675 46.5843 37.8818 46.2172 38.2494C45.85 38.617 45.6435 39.1153 45.6429 39.6352V49.4117C48.0947 49.4694 49.6861 51.4951 50.0717 53.9541V62.817H50.2579C50.2875 62.8171 50.3158 62.8289 50.3368 62.8499C50.3577 62.8708 50.3695 62.8992 50.3696 62.9289V67.6449C50.3695 67.6745 50.3577 67.703 50.3368 67.7239C50.3158 67.7449 50.2875 67.7567 50.2579 67.7567H50.0717V96.2615C50.0717 96.8878 50.0654 98.0304 50.0654 98.0304H96.7527C97.2719 98.0298 97.7697 97.823 98.1368 97.4554C98.504 97.0878 98.7105 96.5894 98.7111 96.0695V39.6352C98.7105 39.1153 98.504 38.6169 98.1368 38.2493C97.7697 37.8817 97.2719 37.675 96.7527 37.6743Z" fill="#26499D"/>
<path d="M188.074 5.50613V59.0018H102.11V35.4488C102.109 34.3793 101.685 33.3539 100.929 32.5977C100.174 31.8415 99.15 31.4162 98.0819 31.4152H81.96V5.50613H188.074Z" fill="#26499D"/>
<path d="M193.382 66.5433H102.206V66.1705H193.009V3.16873C193.009 2.42746 192.714 1.71679 192.191 1.19263C191.667 0.668473 190.957 0.373631 190.217 0.372791H78.7039C77.9636 0.373632 77.2538 0.668473 76.7303 1.19263C76.2068 1.71679 75.9123 2.42746 75.9115 3.16873V31.1736H75.5391V3.16873C75.5401 2.32863 75.8738 1.52319 76.4671 0.929146C77.0604 0.335099 77.8649 0.000945497 78.7039 0H190.217C191.056 0.000944162 191.86 0.335094 192.454 0.929142C193.047 1.52319 193.381 2.32862 193.382 3.16873V66.5433Z" fill="#3F3D56"/>
<path d="M184.743 77.9135H102.207V77.5407H184.743C186.934 77.5382 189.036 76.6654 190.585 75.1137C192.135 73.562 193.007 71.4582 193.009 69.2637V66.5433H102.207V66.1705H193.382V69.2637C193.379 71.557 192.468 73.7556 190.849 75.3772C189.229 76.9988 187.033 77.9109 184.743 77.9135Z" fill="#3F3D56"/>
<path d="M160.247 96.1803C155.646 91.7568 152.62 85.985 151.647 77.9135H117.736C117.391 85.4649 114.383 91.1283 108.958 96.1604L108.385 96.1804C113.982 91.1014 117.065 85.3965 117.372 77.7197L117.379 77.5407H151.978L151.997 77.7055C152.952 85.9138 156.043 91.7228 160.757 96.1505L160.247 96.1803Z" fill="#3F3D56"/>
<path d="M97.9919 103.892H45.7543V103.519H97.9919C99.0599 103.518 100.084 103.093 100.839 102.336C101.594 101.58 102.019 100.555 102.02 99.4857V35.5344C102.019 34.465 101.594 33.4398 100.839 32.6836C100.084 31.9274 99.0599 31.5021 97.9919 31.5009H45.7543C44.6863 31.5021 43.6623 31.9274 42.9071 32.6836C42.1519 33.4398 41.7271 34.465 41.7259 35.5344V49.3355H41.3536V35.5344C41.3549 34.3662 41.819 33.2462 42.644 32.4201C43.469 31.5941 44.5876 31.1294 45.7543 31.1281H97.9919C99.1586 31.1294 100.277 31.5941 101.102 32.4201C101.927 33.2462 102.391 34.3662 102.393 35.5344V99.4857C102.391 100.654 101.927 101.774 101.102 102.6C100.277 103.426 99.1586 103.891 97.9919 103.892Z" fill="#3F3D56"/>
<path d="M71.8731 35.8445C71.6234 35.8445 71.3794 35.7703 71.1718 35.6314C70.9642 35.4925 70.8024 35.2951 70.7068 35.0642C70.6113 34.8332 70.5863 34.5791 70.635 34.3339C70.6837 34.0887 70.8039 33.8635 70.9805 33.6867C71.157 33.51 71.3819 33.3896 71.6268 33.3408C71.8717 33.292 72.1255 33.3171 72.3562 33.4127C72.5869 33.5084 72.784 33.6704 72.9227 33.8782C73.0615 34.0861 73.1355 34.3305 73.1355 34.5805C73.1351 34.9156 73.002 35.2368 72.7653 35.4738C72.5287 35.7108 72.2078 35.8441 71.8731 35.8445ZM71.8731 33.6087C71.6811 33.6087 71.4935 33.6657 71.3339 33.7725C71.1743 33.8793 71.0499 34.031 70.9764 34.2086C70.9029 34.3862 70.8837 34.5816 70.9212 34.7701C70.9586 34.9586 71.0511 35.1318 71.1868 35.2677C71.3226 35.4036 71.4955 35.4961 71.6838 35.5336C71.8721 35.5711 72.0672 35.5519 72.2446 35.4783C72.4219 35.4048 72.5735 35.2802 72.6802 35.1204C72.7868 34.9606 72.8437 34.7727 72.8437 34.5805C72.8434 34.3228 72.7411 34.0758 72.5591 33.8936C72.3771 33.7115 72.1304 33.609 71.8731 33.6087Z" fill="#3F3D56"/>
<path d="M71.8731 102.463C71.5545 102.463 71.2431 102.369 70.9782 102.191C70.7133 102.014 70.5069 101.762 70.3849 101.468C70.263 101.173 70.2311 100.849 70.2933 100.536C70.3554 100.223 70.5088 99.9355 70.7341 99.7099C70.9594 99.4844 71.2464 99.3308 71.5589 99.2685C71.8713 99.2063 72.1952 99.2382 72.4895 99.3603C72.7839 99.4824 73.0355 99.6891 73.2125 99.9543C73.3895 100.22 73.4839 100.531 73.4839 100.85C73.4835 101.278 73.3136 101.688 73.0116 101.99C72.7096 102.293 72.3002 102.463 71.8731 102.463ZM71.8731 99.6103C71.6282 99.6103 71.3887 99.6831 71.1851 99.8193C70.9814 99.9556 70.8227 100.149 70.7289 100.376C70.6352 100.602 70.6107 100.852 70.6585 101.092C70.7063 101.333 70.8242 101.554 70.9974 101.727C71.1706 101.901 71.3913 102.019 71.6315 102.067C71.8718 102.114 72.1208 102.09 72.3471 101.996C72.5734 101.902 72.7668 101.743 72.9029 101.539C73.039 101.335 73.1116 101.096 73.1116 100.85C73.1112 100.522 72.9806 100.206 72.7485 99.9739C72.5163 99.7415 72.2015 99.6107 71.8731 99.6103Z" fill="#3F3D56"/>
<path d="M45.2298 104H27.9377C26.6359 103.999 25.3879 103.48 24.4674 102.558C23.5469 101.637 23.0291 100.387 23.0276 99.0838V54.2516C23.0291 52.9482 23.5469 51.6987 24.4674 50.777C25.3879 49.8554 26.6359 49.337 27.9377 49.3355H45.2298C46.5316 49.337 47.7796 49.8554 48.7001 50.777C49.6206 51.6987 50.1384 52.9482 50.1398 54.2516V62.2746C50.228 62.3114 50.3033 62.3736 50.3563 62.4532C50.4093 62.5328 50.4377 62.6263 50.4378 62.722L50.4378 67.9423C50.4377 68.038 50.4093 68.1315 50.3563 68.2111C50.3033 68.2907 50.228 68.3529 50.1398 68.3898V99.0839C50.1383 100.387 49.6206 101.637 48.7001 102.559C47.7796 103.48 46.5315 103.999 45.2298 104ZM27.9377 49.7083C26.7346 49.7097 25.5812 50.1888 24.7306 51.0405C23.8799 51.8923 23.4013 53.0471 23.4 54.2516V99.0838C23.4013 100.288 23.8798 101.443 24.7305 102.295C25.5812 103.147 26.7346 103.626 27.9377 103.627H45.2298C46.4328 103.626 47.5862 103.147 48.4369 102.295C49.2876 101.443 49.7661 100.288 49.7675 99.0839V68.0542H49.9537C49.9833 68.0542 50.0117 68.0424 50.0326 68.0214C50.0536 68.0004 50.0654 67.972 50.0654 67.9423L50.0654 62.722C50.0654 62.6923 50.0536 62.6639 50.0327 62.6429C50.0117 62.6219 49.9833 62.6101 49.9537 62.61H49.7675V54.2516C49.7661 53.0471 49.2876 51.8923 48.4369 51.0405C47.5862 50.1888 46.4328 49.7097 45.2298 49.7083H27.9377Z" fill="#3F3D56"/>
<path d="M45.4204 50.7524H43.1632C43.267 51.0072 43.3066 51.2836 43.2786 51.5574C43.2505 51.8311 43.1557 52.0938 43.0024 52.3222C42.849 52.5506 42.642 52.7377 42.3994 52.8671C42.1569 52.9965 41.8863 53.0642 41.6114 53.0643H31.705C31.4302 53.0642 31.1595 52.9965 30.917 52.8671C30.6744 52.7377 30.4674 52.5506 30.3141 52.3222C30.1608 52.0938 30.0659 51.8311 30.0379 51.5574C30.0098 51.2836 30.0494 51.0072 30.1532 50.7524H28.045C27.1094 50.7524 26.2121 51.1245 25.5505 51.7869C24.889 52.4493 24.5173 53.3477 24.5173 54.2845V99.051C24.5173 99.9877 24.8889 100.886 25.5505 101.549C26.2121 102.211 27.1094 102.583 28.045 102.583H45.4204C46.356 102.583 47.2533 102.211 47.9149 101.549C48.5765 100.886 48.9481 99.9877 48.9481 99.051V54.2845C48.9481 53.3477 48.5764 52.4493 47.9149 51.7869C47.2533 51.1245 46.356 50.7524 45.4204 50.7524Z" fill="#26499D"/>
<path d="M231.778 103.927H0.221679C0.192507 103.927 0.163604 103.921 0.136624 103.91C0.109644 103.899 0.085117 103.883 0.0644543 103.862C0.0437916 103.842 0.0273981 103.817 0.0162116 103.79C0.00502509 103.763 -0.000732422 103.734 -0.000732422 103.705C-0.000732422 103.676 0.00502509 103.647 0.0162116 103.62C0.0273981 103.593 0.0437916 103.569 0.0644543 103.548C0.085117 103.527 0.109644 103.511 0.136624 103.5C0.163604 103.489 0.192507 103.483 0.221679 103.483H231.778C231.808 103.483 231.836 103.489 231.863 103.5C231.89 103.511 231.915 103.527 231.936 103.548C231.956 103.569 231.973 103.593 231.984 103.62C231.995 103.647 232.001 103.676 232.001 103.705C232.001 103.734 231.995 103.763 231.984 103.79C231.973 103.817 231.956 103.842 231.936 103.862C231.915 103.883 231.89 103.899 231.863 103.91C231.836 103.921 231.808 103.927 231.778 103.927Z" fill="#3F3D56"/>
<path d="M160.362 103.823H108.795C108.281 103.823 107.772 103.722 107.298 103.525C106.823 103.329 106.392 103.041 106.028 102.677C105.665 102.314 105.377 101.882 105.18 101.407C104.983 100.932 104.882 100.423 104.882 99.9082C104.882 99.3939 104.983 98.8847 105.18 98.4096C105.377 97.9344 105.665 97.5028 106.028 97.1393C106.392 96.7758 106.823 96.4875 107.298 96.291C107.772 96.0944 108.281 95.9935 108.795 95.9939H160.362C161.399 95.9947 162.392 96.4075 163.125 97.1415C163.857 97.8755 164.269 98.8706 164.269 99.9082C164.269 100.946 163.857 101.941 163.125 102.675C162.392 103.409 161.399 103.822 160.362 103.823ZM108.795 96.3667C107.857 96.3667 106.957 96.7398 106.293 97.404C105.63 98.0681 105.257 98.969 105.257 99.9082C105.257 100.847 105.63 101.748 106.293 102.412C106.957 103.077 107.857 103.45 108.795 103.45H160.362C161.301 103.45 162.2 103.077 162.864 102.412C163.527 101.748 163.9 100.847 163.9 99.9082C163.9 98.969 163.527 98.0681 162.864 97.404C162.2 96.7398 161.301 96.3667 160.362 96.3667H108.795Z" fill="#3F3D56"/>
<path d="M197.806 74.0192L199.25 77.0427L211.584 72.9039L209.453 68.4417L197.806 74.0192Z" fill="#FFB8B8"/>
<path d="M199.232 84.216L194.692 74.7142L198.359 72.9583L201.279 79.0697C201.708 79.9689 201.763 81.0021 201.432 81.942C201.101 82.882 200.41 83.6516 199.512 84.0817L199.232 84.216Z" fill="#2F2E41"/>
<path d="M194.898 101.018L198.244 100.905L198.384 87.8672L194.463 88.099L194.898 101.018Z" fill="#FFB8B8"/>
<path d="M204.734 103.976H194.215V99.9066H200.981C201.976 99.9066 202.931 100.303 203.635 101.007C204.339 101.712 204.734 102.668 204.734 103.665V103.976Z" fill="#2F2E41"/>
<path d="M195.173 99.0596C194.893 99.0596 194.621 98.9655 194.4 98.7922C194.179 98.6189 194.023 98.3765 193.956 98.1038C192.123 90.7317 185.304 53.5874 191.334 46.2921L191.387 46.2285L191.466 46.2083C191.89 46.101 199.869 43.6275 204.551 47.4884L204.606 47.5336L207.212 55.0858L214.236 65.526C214.621 66.0978 214.887 66.741 215.019 67.4176C215.15 68.0942 215.145 68.7905 215.003 69.4651C214.862 70.1396 214.586 70.7788 214.193 71.3448C213.8 71.9107 213.297 72.3919 212.715 72.7599L203.491 78.5879C203.268 78.7226 203.009 78.7851 202.749 78.7668C202.49 78.7484 202.242 78.6503 202.04 78.4856C201.871 78.3452 201.74 78.1632 201.662 77.9575L199.723 73.1054C199.608 72.8112 199.606 72.4844 199.718 72.1889C199.83 71.8934 200.049 71.6505 200.33 71.5076L204.652 69.344C204.77 69.2787 204.873 69.1883 204.952 69.0791C205.032 68.9699 205.087 68.8446 205.113 68.7119C205.125 68.5919 205.108 68.4708 205.062 68.359C205.017 68.2472 204.946 68.148 204.854 68.0699L199.837 63.7399C199.726 63.6436 199.588 63.5821 199.442 63.5627C199.296 63.5434 199.148 63.5671 199.015 63.6311C198.883 63.695 198.771 63.7964 198.695 63.9227C198.619 64.049 198.582 64.1948 198.587 64.3421L199.831 97.2126C199.843 97.5212 199.741 97.8234 199.545 98.062C199.349 98.3005 199.072 98.4589 198.768 98.5072L195.375 99.0436C195.308 99.0543 195.241 99.0596 195.173 99.0596Z" fill="#2F2E41"/>
<path d="M203.827 48.8283C203.799 48.8283 203.77 48.8272 203.742 48.8251L191.231 47.8972C191.058 47.8846 190.889 47.8321 190.739 47.7437C190.589 47.6554 190.461 47.5336 190.366 47.3878C190.27 47.242 190.21 47.0761 190.189 46.9031C190.168 46.7301 190.187 46.5545 190.244 46.39C191.014 44.1685 191.108 41.7685 190.516 39.4933C189.701 36.2766 189.682 30.2955 189.743 27.0167C189.757 26.4608 189.979 25.9306 190.366 25.5319C190.753 25.1331 191.276 24.8951 191.831 24.8652L191.831 24.8608L192.083 24.8639C194.121 24.8925 197.861 25.0381 200.921 25.6756C201.953 25.8894 202.881 26.4483 203.553 27.2605C204.224 28.0727 204.6 29.0896 204.618 30.144C204.687 33.1882 204.697 37.3086 204.352 39.6508C204.061 41.6269 204.599 45.4216 204.945 47.5077C204.972 47.6702 204.963 47.8365 204.919 47.9953C204.875 48.154 204.798 48.3013 204.691 48.4269C204.585 48.5525 204.453 48.6535 204.303 48.7228C204.154 48.7921 203.992 48.8281 203.827 48.8283H203.827Z" fill="#3F3D56"/>
<path d="M208.293 60.7688C207.96 60.609 207.666 60.378 207.431 60.092C207.197 59.806 207.028 59.4721 206.936 59.1136C206.845 58.7552 206.833 58.381 206.901 58.0174C206.97 57.6538 207.117 57.3097 207.333 57.0093L201.555 32.062H205.923L211.022 56.5175C211.502 56.9137 211.821 57.4725 211.917 58.088C212.013 58.7034 211.88 59.3328 211.544 59.8568C211.208 60.3808 210.691 60.7631 210.092 60.9312C209.493 61.0993 208.853 61.0415 208.293 60.7688H208.293Z" fill="#FFB8B8"/>
<path d="M180.928 34.7645L187.846 28.2126L190.452 31.8657L183.937 37.6063L192.481 44.3999C192.543 44.3958 192.604 44.3905 192.667 44.3905C193.193 44.39 193.708 44.5412 194.15 44.826C194.592 45.1107 194.943 45.517 195.161 45.9962C195.378 46.4755 195.454 47.0073 195.377 47.5282C195.301 48.049 195.076 48.5368 194.73 48.9332C194.384 49.3296 193.932 49.6178 193.426 49.7634C192.921 49.9089 192.385 49.9056 191.881 49.7538C191.378 49.6021 190.928 49.3083 190.587 48.9077C190.246 48.5071 190.028 48.0165 189.958 47.4947L189.931 47.5218L181.038 39.805C180.679 39.4939 180.39 39.1111 180.188 38.6812C179.986 38.2513 179.877 37.7839 179.867 37.3091C179.856 36.8342 179.945 36.3625 180.128 35.9242C180.311 35.4859 180.584 35.0909 180.928 34.7645Z" fill="#FFB8B8"/>
<path d="M202.015 33.6605C201.801 33.6612 201.591 33.6009 201.41 33.4868C201.229 33.3726 201.085 33.2093 200.993 33.0158C200.442 31.8507 200.062 30.6117 199.867 29.3375C199.566 27.2562 201.012 26.0181 202.482 25.7483C203.912 25.4859 205.653 26.1153 206.098 28.1171C206.136 28.2865 206.165 28.4578 206.185 28.6301C206.363 30.1476 206.531 31.3278 206.683 32.1382C206.713 32.2975 206.709 32.4614 206.67 32.6188C206.631 32.7763 206.559 32.9236 206.459 33.0509C206.359 33.1781 206.232 33.2824 206.088 33.3566C205.944 33.4309 205.786 33.4734 205.625 33.4813L202.073 33.6591C202.053 33.66 202.034 33.6605 202.015 33.6605Z" fill="#3F3D56"/>
<path d="M197.062 22.7164C201.239 22.7164 204.626 19.3256 204.626 15.1427C204.626 10.9599 201.239 7.56903 197.062 7.56903C192.884 7.56903 189.497 10.9599 189.497 15.1427C189.497 19.3256 192.884 22.7164 197.062 22.7164Z" fill="#2F2E41"/>
<path d="M197.107 23.3093C200.528 23.3093 203.3 20.5332 203.3 17.1087C203.3 13.6842 200.528 10.9081 197.107 10.9081C193.687 10.9081 190.914 13.6842 190.914 17.1087C190.914 20.5332 193.687 23.3093 197.107 23.3093Z" fill="#FFB8B8"/>
<path d="M186.116 30.6429C185.958 30.4987 185.844 30.3125 185.787 30.1059C185.731 29.8994 185.734 29.681 185.797 29.4764C186.177 28.2445 186.734 27.0744 187.449 26.0025C188.632 24.2651 190.533 24.3301 191.799 25.1256C193.03 25.8994 193.889 27.5416 192.867 29.3185C192.78 29.4687 192.686 29.6144 192.584 29.7551C191.692 30.9944 191.019 31.9779 190.585 32.6786C190.499 32.8163 190.385 32.9341 190.25 33.024C190.116 33.1139 189.963 33.1739 189.803 33.1998C189.644 33.2258 189.48 33.2172 189.324 33.1746C189.168 33.1319 189.022 33.0563 188.898 32.9527L186.159 30.681C186.144 30.6686 186.13 30.6559 186.116 30.6429Z" fill="#3F3D56"/>
<path d="M195.592 8.37878C194.07 7.46943 193.741 5.20493 194.648 3.68009C195.554 2.15524 197.387 1.35982 199.159 1.30739C201.69 1.23251 204.134 2.49417 205.905 4.30531C207.677 6.11645 208.846 8.43483 209.736 10.8078C210.627 13.1807 211.266 15.6418 212.144 18.0196C212.595 19.2397 213.149 20.4926 214.18 21.2849C215.21 22.0773 216.848 22.2202 217.729 21.264C217.726 22.7941 216.554 24.1851 215.101 24.6589C213.648 25.1326 212.004 24.7749 210.73 23.9296C208.52 22.4632 207.453 19.7864 206.843 17.2031C206.233 14.6198 205.932 11.9128 204.706 9.55931C204.198 8.58418 203.502 7.65787 202.522 7.16031C201.543 6.66275 200.238 6.69542 199.449 7.46167C199.084 7.81657 198.848 8.30051 198.434 8.59636C198.172 8.76049 197.876 8.86247 197.568 8.89453C197.261 8.92659 196.95 8.88787 196.66 8.78132C196.082 8.56367 195.541 8.25796 195.056 7.875" fill="#2F2E41"/>
<path d="M190.64 12.9191C191.237 13.7226 191.99 14.3968 192.854 14.901C193.718 15.4053 194.675 15.7292 195.667 15.8532C196.659 15.9772 197.667 15.8988 198.628 15.6227C199.589 15.3465 200.485 14.8784 201.26 14.2465C201.862 13.7566 202.42 13.0816 202.382 12.3063C202.344 11.5123 201.696 10.8886 201.034 10.4495C199.293 9.30364 197.199 8.82187 195.133 9.09185C193.954 9.25045 192.772 9.68061 191.937 10.5289C191.102 11.3771 190.686 12.6964 191.117 13.8065" fill="#2F2E41"/>
</g>
<defs>
<clipPath id="clip0_336_379">
<rect width="232" height="104" fill="white"/>
</clipPath>
</defs>
</svg>
