<svg width="133" height="112" viewBox="0 0 133 112" fill="none" xmlns="http://www.w3.org/2000/svg">
<g clip-path="url(#clip0_338_855)">
<path d="M127.749 91.6461H5.25118C2.63142 91.6461 0.5 89.511 0.5 86.8865V72.1169H132.5V86.8865C132.5 89.511 130.369 91.6461 127.749 91.6461Z" fill="#E6E6E6"/>
<path d="M82.354 89.1755H51.1156V111.528H82.354V89.1755Z" fill="#E6E6E6"/>
<path d="M84.233 108.705H49.2366V111.528H84.233V108.705Z" fill="#E6E6E6"/>
<path d="M132.383 78.3521H0.5V3.26628C0.5 1.46529 1.9627 0 3.7605 0H129.122C130.92 0 132.383 1.46529 132.383 3.26628V78.3521Z" fill="#3F3D56"/>
<path d="M129.212 3.41171H3.55341V74.2345H129.212V3.41171Z" fill="white"/>
<path d="M27.8886 45.624C28.8504 44.8279 30.04 44.6797 30.5457 45.2929C31.0513 45.9062 30.6815 47.0484 29.7193 47.8447C29.3393 48.168 28.8875 48.3955 28.4017 48.5081L24.2842 51.8297L22.7694 49.8608L26.9894 46.7953C27.1915 46.3385 27.4998 45.9369 27.8886 45.624H27.8886Z" fill="#FFB6B6"/>
<path d="M4.08965 53.1184C4.08757 52.9715 4.08894 51.6901 5.03587 50.8803C6.12363 49.9499 7.65852 50.3265 8.19687 50.4586C9.44047 50.7636 9.54246 51.2981 10.7103 51.8472C12.8953 52.8745 10.1576 52.3487 11.4577 52.0193C11.9078 51.9052 18.382 51.4554 19.9936 50.4618C23.1279 48.5292 25.2635 47.3574 25.2635 47.3574L26.6596 50.1545C26.6596 50.1545 24.6409 52.9665 21.7997 55.0497C18.8852 57.1865 17.428 58.255 15.2134 58.6678C15.0227 58.7033 10.3324 59.5056 6.55471 56.6783C5.69303 56.0334 4.11425 54.8518 4.08965 53.1184L4.08965 53.1184Z" fill="#26499D"/>
<path d="M8.42039 46.0046C11.1064 46.0046 13.2838 43.8233 13.2838 41.1326C13.2838 38.4418 11.1064 36.2606 8.42039 36.2606C5.7344 36.2606 3.55698 38.4418 3.55698 41.1326C3.55698 43.8233 5.7344 46.0046 8.42039 46.0046Z" fill="#FFB6B6"/>
<path d="M46.5088 73.8648L41.5002 68.7288L38.9147 71.4305L42.6463 76.3551L46.3477 76.7791L46.5088 73.8648Z" fill="#FFB6B6"/>
<path d="M17.9092 64.2336C18.2022 64.258 19.1332 64.4448 20.023 63.9544C20.6303 63.6197 20.9417 63.122 21.0469 62.9638C22.3519 61.0003 27.3609 57.9385 31.8563 57.75C32.8743 57.7074 33.5444 57.8255 34.1535 58.1436C35.0171 58.5946 35.3619 59.2406 36.4578 60.7539C37.0573 61.5816 37.7206 62.3615 38.3273 63.184C41.8792 67.9992 43.2257 68.3772 43.0881 69.9209C42.9354 71.6337 41.0915 73.2587 39.8659 73.0711C39.364 72.9943 39.1696 72.6447 38.499 71.9369C36.5329 69.8617 35.7194 70.2451 34.3196 68.6556C32.6852 66.7998 32.8992 65.2611 32.0465 65.2016C31.2558 65.1465 30.9198 66.4592 29.2316 68.203C28.4592 69.0009 27.9091 69.3669 26.2333 70.5316C19.7074 75.0669 19.6033 75.3857 18.2862 75.7474C17.71 75.9056 13.6203 77.0289 12.1635 75.2414C9.88364 72.4442 15.2695 64.0139 17.9092 64.2336V64.2336Z" fill="#2F2E41"/>
<path d="M44.9776 75.0255C45.3459 74.8598 45.7766 74.666 45.9152 74.2205C46.009 73.919 45.955 73.5473 45.7612 73.2904C45.5375 72.994 45.2065 72.9549 45.2199 72.9025C45.2403 72.8227 46.023 72.8539 46.8823 73.1581C47.0444 73.2156 47.779 73.4844 48.7133 74.2152C49.462 74.8007 49.3612 74.918 49.8307 75.2556C51.2717 76.2919 52.6232 75.4752 53.403 76.447C53.7039 76.8221 53.8322 77.3546 53.7056 77.7852C53.4513 78.6499 52.2145 78.9474 51.5386 79.101C49.9106 79.471 48.6785 79.169 47.3919 78.9518C43.0163 78.2132 40.5578 78.8859 40.2288 77.8704C40.1665 77.6782 40.2677 77.6946 40.6051 76.2842C40.938 74.8921 40.9271 74.5098 41.2107 74.3984C41.6376 74.2306 41.9242 74.9938 42.9996 75.2551C43.9525 75.4865 44.7389 75.1328 44.9776 75.0255H44.9776Z" fill="#2F2E41"/>
<path d="M37.6043 90.6667L36.3388 83.5994L32.685 84.3805L33.0123 90.5545L35.8373 92.9876L37.6043 90.6667Z" fill="#FFB6B6"/>
<path d="M19.3382 66.6091C19.567 66.7941 20.2326 67.4724 21.2438 67.5671C21.9339 67.6318 22.4706 67.3952 22.6463 67.3234C24.8268 66.4329 30.6877 66.7171 34.5131 69.09C35.3794 69.6273 35.8676 70.1021 36.1933 70.7078C36.6551 71.5668 36.5783 72.2953 36.6368 74.164C36.6689 75.1861 36.7806 76.2046 36.8216 77.2264C37.0615 83.2088 37.9637 84.2791 36.9845 85.479C35.8981 86.8104 33.4614 87.1177 32.5525 86.2731C32.1802 85.9272 32.2154 85.5285 32.0573 84.5657C31.5936 81.7425 30.7056 81.6021 30.4383 79.4994C30.1262 77.0445 31.1658 75.8916 30.4935 75.3628C29.8701 74.8724 28.8563 75.7695 26.482 76.2628C25.3955 76.4885 24.7352 76.482 22.6957 76.503C14.7536 76.5847 14.4887 76.7898 13.1962 76.3483C12.6307 76.1551 8.61708 74.7839 8.41354 72.4853C8.09505 68.8883 17.2772 64.9424 19.3382 66.6091H19.3382Z" fill="#2F2E41"/>
<path d="M35.6867 90.7656C36.0843 90.8357 36.5494 90.9177 36.9138 90.627C37.1604 90.4303 37.324 90.0923 37.3077 89.7708C37.2887 89.3997 37.0368 89.1812 37.0772 89.1453C37.1389 89.0907 37.769 89.5569 38.3094 90.292C38.4114 90.4307 38.8685 91.0664 39.232 92.1967C39.5233 93.1022 39.3741 93.1427 39.5733 93.6861C40.1848 95.3542 41.761 95.4387 41.8614 96.6815C41.9002 97.1611 41.7079 97.6739 41.3618 97.959C40.6666 98.5314 39.4765 98.0819 38.831 97.8288C37.2766 97.2192 36.4264 96.2761 35.4835 95.3726C32.277 92.3 29.8656 91.4737 30.1626 90.4483C30.2188 90.2543 30.2933 90.3247 31.3631 89.3475C32.4189 88.3829 32.6241 88.0605 32.9213 88.1278C33.3686 88.2291 33.1779 89.0219 33.9213 89.8429C34.5801 90.5705 35.429 90.7202 35.6867 90.7656Z" fill="#2F2E41"/>
<path d="M9.08346 42.064C9.2728 41.3855 9.03499 41.1382 9.27738 40.8337C9.27738 40.8337 9.37492 40.7111 10.2469 40.3804C9.98965 38.885 10.1823 38.6321 10.1823 38.6321C10.4043 38.3407 10.8491 38.2703 11.1518 38.3084C11.7922 38.389 11.9056 38.9689 12.3153 38.9559C12.8813 38.9379 13.5602 37.8029 13.3495 36.8191C13.1776 36.0166 12.4365 35.4206 12.2507 35.5241C12.0665 35.6266 11.4033 35.1745 11.1519 35.2651C10.9801 35.3269 10.1717 35.2446 9.98839 35.3298C9.78821 35.4228 9.21493 36.0021 9.16012 35.9291C8.77924 35.4219 8.78734 35.2449 8.56637 35.1356C8.17481 34.9419 7.74911 35.2999 7.01508 35.6536C5.5048 36.3813 5.06257 35.9472 4.36496 36.5601C4.01257 36.8697 3.8236 37.4614 3.46004 38.6321C2.95162 40.2694 2.6974 41.0881 2.94295 41.8697C3.19336 42.6669 3.56212 42.4934 4.10642 43.618C4.7123 44.8699 4.50347 45.5976 5.07597 45.8843C5.51844 46.1059 6.22951 45.9649 6.49799 45.5606C6.95765 44.8683 5.76957 43.9319 6.1748 42.841C6.42355 42.1713 7.19088 41.6636 7.66145 41.805C8.19353 41.9648 8.23271 42.9205 8.56637 42.9057C8.8521 42.8931 9.05048 42.1822 9.08347 42.064H9.08346Z" fill="#2F2E41"/>
<path d="M5.39913 46.7261C6.39436 45.6082 10.4482 46.7653 10.8286 48.5391C10.9851 49.2688 10.4074 49.5768 10.5701 50.4169C10.8081 51.6457 12.1555 51.5619 13.1556 52.8127C14.5754 54.5885 13.1127 56.3244 14.7069 59.2879C15.0475 59.9212 15.3346 60.4549 15.935 60.9714C17.3126 62.1568 18.5946 61.7503 19.2961 62.8492C19.8207 63.6711 19.6051 64.684 19.5546 64.9213C19.3476 65.8943 18.7865 66.1313 18.3912 66.9286C17.7334 68.255 18.4782 69.2289 18.5205 70.8137C18.5734 72.7966 17.5215 75.5452 15.4179 76.4471C13.0546 77.4603 10.2042 75.7822 8.82489 74.116C8.00186 73.1218 7.76294 72.2047 7.40288 71.0727C5.79367 66.0136 4.88454 66.4711 3.65393 62.4607C2.24712 57.8761 1.97055 52.5051 3.65393 50.8055C3.87705 50.5802 4.4911 50.0595 4.88203 49.1219C5.40809 47.8603 4.95363 47.2265 5.39913 46.7261L5.39913 46.7261Z" fill="#26499D"/>
<path d="M20.1046 72.7485C20.8762 73.7306 20.9958 74.9256 20.3718 75.4174C19.7478 75.9092 18.6167 75.5117 17.845 74.5291C17.5313 74.1409 17.315 73.683 17.2142 73.1938L13.9973 68.9912L15.6595 67.7211L18.957 71.8201C19.4081 72.0333 19.8016 72.3517 20.1046 72.7485H20.1046Z" fill="#FFB6B6"/>
<path d="M8.32331 50.9864C8.46643 50.9543 9.71887 50.6942 10.7035 51.4576C11.8346 52.3346 11.7798 53.9167 11.7606 54.4716C11.7162 55.7534 11.2148 55.9625 10.9165 57.2199C10.3584 59.5723 11.4212 61.7584 12.0084 62.9662C12.2117 63.3843 12.8647 64.6635 14.1645 66.0413C16.6926 68.7207 18.9483 70.1307 18.9483 70.1307L16.5251 72.2885C16.5251 72.2885 12.6651 71.1099 10.0496 68.7486C7.36674 66.3264 3.24093 57.7565 2.38564 55.6689C2.31198 55.4891 3.35532 58.4119 5.34745 54.1302C5.80184 53.1536 6.6344 51.3642 8.32331 50.9864H8.32331Z" fill="#26499D"/>
<path d="M70.3437 48.9762L67.4504 47.6032C68.6371 49.2622 69.6597 51.8533 70.2071 53.9151C71.134 51.9946 72.6282 49.6446 74.1072 48.2408L71.0493 49.0289C72.9336 39.7778 80.0208 33.1365 88.1366 33.1365L88.2515 32.8023C79.7743 32.8023 72.2676 39.3516 70.3437 48.9762Z" fill="#3F3D56"/>
<path d="M83.6604 63.0718H65.3794C64.6041 63.0718 63.9732 62.4399 63.9732 61.6631C63.9732 60.8864 64.6041 60.2544 65.3794 60.2544H83.6604C84.4358 60.2544 85.0667 60.8864 85.0667 61.6631C85.0667 62.4399 84.4358 63.0718 83.6604 63.0718Z" fill="#26499D"/>
<path d="M107.986 63.0718H89.7046C88.9292 63.0718 88.2984 62.4399 88.2984 61.6631C88.2984 60.8864 88.9292 60.2544 89.7046 60.2544H107.986C108.761 60.2544 109.392 60.8864 109.392 61.6631C109.392 62.4399 108.761 63.0718 107.986 63.0718Z" fill="#E6E6E6"/>
<path d="M97.1635 24.7488H79.3935C78.9455 24.7488 78.5809 24.3836 78.5809 23.9348C78.5809 23.486 78.9455 23.121 79.3935 23.121H97.1635C97.6115 23.121 97.9758 23.486 97.9758 23.9348C97.9758 24.3836 97.6115 24.7488 97.1635 24.7488V24.7488Z" fill="#3F3D56"/>
<path d="M106.699 33.4323H69.8579C69.4099 33.4323 69.0453 33.0671 69.0453 32.6183C69.0453 32.1695 69.4099 31.8045 69.8579 31.8045H106.699C107.147 31.8045 107.511 32.1695 107.511 32.6183C107.511 33.0671 107.147 33.4323 106.699 33.4323Z" fill="#3F3D56"/>
<path d="M8.48773 111.736C8.48773 111.883 8.60494 112 8.7509 112H124.249C124.395 112 124.512 111.883 124.512 111.736C124.512 111.59 124.395 111.473 124.249 111.473H8.7509C8.60494 111.473 8.48773 111.59 8.48773 111.736Z" fill="#3F3D56"/>
<path d="M36.8482 49.2454C36.8169 49.2454 36.7857 49.2442 36.7542 49.2423C34.9035 49.1232 28.571 48.2256 24.7906 41.6775C24.479 41.1383 24.5404 40.4529 24.9432 39.972L31.9445 31.6155C32.2308 31.2738 32.673 31.0769 33.121 31.0823C33.4306 31.0897 34.1636 31.168 34.3059 31.7341C35.147 35.0784 38.6984 39.0107 42.9695 39.5319C43.4025 39.5846 43.75 39.9715 43.8992 40.5668C44.0156 41.0303 43.908 41.508 43.604 41.8775L37.9954 48.7002C37.7105 49.0467 37.2924 49.2454 36.8482 49.2454V49.2454ZM33.0941 31.4185C32.752 31.4185 32.4192 31.572 32.2017 31.8317L25.2005 40.1882C24.888 40.5611 24.8402 41.0919 25.0811 41.509C28.7782 47.9127 34.9671 48.7902 36.7759 48.9066C37.1452 48.9314 37.4999 48.7737 37.7362 48.4864L43.3449 41.6637C43.5804 41.3774 43.6637 41.0076 43.5736 40.6488C43.4856 40.2975 43.2699 39.9073 42.9289 39.8656C38.5166 39.3273 34.8485 35.2683 33.9804 31.8162C33.91 31.5367 33.4867 31.4275 33.114 31.4186C33.1074 31.4185 33.1007 31.4185 33.0941 31.4185H33.0941Z" fill="#3F3D56"/>
<path d="M29.0334 41.9525L34.081 36.7968C34.426 36.4443 33.8854 35.9019 33.54 36.2548L28.4924 41.4105C28.1473 41.763 28.6879 42.3054 29.0334 41.9525Z" fill="#E6E6E6"/>
<path d="M32.0799 43.405C33.4729 42.1542 34.6835 40.7059 35.6748 39.1167C35.9365 38.6972 35.2748 38.3121 35.0142 38.7299C34.0558 40.2663 32.8855 41.654 31.5389 42.8631C31.1715 43.193 31.714 43.7336 32.0799 43.405H32.0799Z" fill="#E6E6E6"/>
<path d="M34.8256 45.1443C36.094 43.7368 37.1736 42.166 38.0236 40.4715C38.2441 40.0319 37.5843 39.6434 37.363 40.0847C36.5417 41.7218 35.5103 43.2421 34.2846 44.6023C33.9554 44.9676 34.4948 45.5113 34.8256 45.1443H34.8256Z" fill="#E6E6E6"/>
<path d="M32.6631 35.8624C35.4736 35.8624 37.7521 33.628 37.7521 30.8718C37.7521 28.1156 35.4736 25.8812 32.6631 25.8812C29.8525 25.8812 27.5741 28.1156 27.5741 30.8718C27.5741 33.628 29.8525 35.8624 32.6631 35.8624Z" fill="#26499D"/>
<path d="M35.311 33.2391C34.5283 31.3114 33.7457 29.3838 32.963 27.4561C32.8549 27.1898 32.5163 27.1804 32.4108 27.4561C31.6375 29.4771 31.1321 31.586 30.8892 33.7362C30.8478 34.1024 31.4208 34.0994 31.4619 33.7362C31.5569 32.8947 31.6981 32.0596 31.8793 31.2334C32.5242 31.2673 33.1744 31.1948 33.7968 31.0222C34.1175 31.812 34.4381 32.6018 34.7588 33.3916C34.8958 33.7291 35.45 33.5815 35.311 33.2391ZM32.0091 30.6663C32.202 29.8753 32.4332 29.0938 32.7016 28.3248L33.5793 30.4865C33.0652 30.6217 32.5394 30.6818 32.0091 30.6663Z" fill="white"/>
</g>
<defs>
<clipPath id="clip0_338_855">
<rect width="132" height="112" fill="white" transform="translate(0.5)"/>
</clipPath>
</defs>
</svg>
