<svg width="24" height="24" viewBox="0 0 24 24" fill="none" xmlns="http://www.w3.org/2000/svg">
<path d="M7.50304 4.00098C7.48421 3.62949 7.55185 3.34254 7.73579 3.10098C8.19267 2.50098 9.12335 2.50098 10.9847 2.50098H13.0153C14.8766 2.50098 15.8073 2.50098 16.2642 3.10098C16.4481 3.34254 16.5158 3.62949 16.497 4.00098" stroke="white" stroke-width="1.5" stroke-linecap="round" stroke-linejoin="round"/>
<path d="M5 8.00098C5.03784 7.74135 5.12478 7.51691 5.26968 7.31528C5.85493 6.50098 7.0681 6.50098 9.49444 6.50098H14.5056C16.9319 6.50098 18.1451 6.50098 18.7303 7.31528C18.8752 7.51691 18.9622 7.74135 19 8.00098" stroke="white" stroke-width="1.5" stroke-linecap="round" stroke-linejoin="round"/>
<path d="M3.81753 15.7138L4.53641 18.017C5.43193 20.8862 6.19729 21.501 9.21027 21.501H14.7897C17.8027 21.501 18.5681 20.8862 19.4636 18.017L20.1825 15.7138C20.9261 13.3313 21.2979 12.14 20.7101 11.3205C20.1223 10.501 18.896 10.501 16.4434 10.501H7.55662C5.104 10.501 3.8777 10.501 3.28988 11.3205C2.70207 12.14 3.07389 13.3312 3.81753 15.7138Z" stroke="white" stroke-width="1.5" stroke-linecap="round" stroke-linejoin="round"/>
</svg> 