<svg width="80" height="71" viewBox="0 0 80 71" fill="none" xmlns="http://www.w3.org/2000/svg">
<g clip-path="url(#clip0_536_922)">
<path d="M79.3626 69.2976C79.2228 69.493 79.0816 69.6869 78.9419 69.8794C78.5401 70.1562 78.0636 70.3039 77.5757 70.3029H2.42424C1.95816 70.3033 1.50196 70.1686 1.11087 69.9151C0.981084 69.7439 0.852756 69.5714 0.722965 69.3988L0.852756 69.3275L38.8977 48.2395C39.2353 48.0528 39.6146 47.9546 40.0004 47.9541C40.3861 47.9536 40.7657 48.0508 41.1038 48.2366L79.2342 69.2263L79.3626 69.2976Z" fill="#26499D"/>
<path d="M77.5758 24.9554L44.6034 5.91365C43.2166 5.11275 41.6436 4.69073 40.0421 4.68994C38.4406 4.68915 36.8671 5.10962 35.4795 5.90915L2.42424 24.9554C1.78157 24.9563 1.16549 25.212 0.71105 25.6665C0.256613 26.1209 0.000909147 26.737 0 27.3797V67.8788C0.000748781 68.5215 0.2564 69.1377 0.710871 69.5921C1.16534 70.0466 1.78152 70.3023 2.42424 70.303H77.5758C78.2184 70.3019 78.8344 70.0462 79.2887 69.5918C79.7431 69.1374 79.9989 68.5214 80 67.8788V27.3797C79.9991 26.737 79.7434 26.1209 79.2889 25.6665C78.8345 25.212 78.2184 24.9563 77.5758 24.9554ZM79.7148 67.8788C79.7134 68.4457 79.4876 68.9889 79.0868 69.3898C78.6859 69.7906 78.1426 70.0164 77.5758 70.0178H2.42424C1.85725 70.0168 1.31377 69.7911 0.912842 69.3902C0.511916 68.9892 0.286225 68.4458 0.285205 67.8788V27.3797C0.285895 26.8126 0.511479 26.2689 0.912477 25.8679C1.31347 25.4669 1.85715 25.2413 2.42424 25.2406L35.4795 6.19436C36.8671 5.39483 38.4406 4.97436 40.0421 4.97515C41.6436 4.97594 43.2166 5.39796 44.6034 6.19885L77.5758 25.2406C78.1429 25.2413 78.6865 25.4669 79.0875 25.8679C79.4885 26.2689 79.7141 26.8126 79.7148 27.3797V67.8788Z" fill="#3F3D56"/>
<path d="M40.0428 47.8688C39.7944 47.8697 39.5477 47.8283 39.3132 47.7464L39.2701 47.7312L39.2613 47.6353C39.2344 47.6485 39.2073 47.6612 39.1802 47.6732L39.1515 47.6858L39.1228 47.6731C39.0627 47.6467 39.003 47.6168 38.9454 47.5844L12.6916 32.8317V2.70943C12.6924 2.01 12.9706 1.33943 13.4652 0.844851C13.9598 0.350273 14.6303 0.0720741 15.3298 0.0712891H64.6702C65.3697 0.0720741 66.0402 0.350273 66.5348 0.844851C67.0294 1.33943 67.3076 2.01 67.3084 2.70943V32.8702L67.272 32.8907L41.1401 47.5844C40.8046 47.7715 40.4268 47.8694 40.0428 47.8688Z" fill="white"/>
<path d="M40.0428 47.9401C39.7863 47.941 39.5316 47.8982 39.2895 47.8137L39.2032 47.7833L39.1995 47.7425L39.1515 47.7636L39.0941 47.7384C39.0318 47.7111 38.9701 47.6801 38.9104 47.6465L12.6203 32.8735V2.70945C12.6211 1.99111 12.9069 1.30242 13.4148 0.794478C13.9227 0.286534 14.6114 0.00081299 15.3298 0H64.6702C65.3886 0.000816003 66.0773 0.286537 66.5852 0.79448C67.0931 1.30242 67.3789 1.99111 67.3797 2.70945V32.9119L41.175 47.6466C40.8289 47.8396 40.4391 47.9407 40.0428 47.9401ZM39.4704 47.5727C39.9947 47.7232 40.5572 47.6604 41.0354 47.3979L67.0945 32.7451V2.70945C67.0938 2.06672 66.8381 1.45053 66.3836 0.996048C65.9292 0.541571 65.313 0.285929 64.6702 0.285205H15.3298C14.687 0.285926 14.0708 0.541568 13.6164 0.996046C13.1619 1.45052 12.9062 2.06672 12.9055 2.70945V32.7065L14.6153 33.6667L39.0503 47.398C39.0835 47.4167 39.1173 47.4343 39.1515 47.4508C39.1858 47.4343 39.2195 47.4167 39.2527 47.3981L39.4447 47.2899L39.4704 47.5727Z" fill="#3F3D56"/>
<path d="M79.3682 26.0079L69.0196 31.8261L67.2371 32.8286L41.1052 47.5224C40.7804 47.7035 40.4146 47.7982 40.0428 47.7976C39.8025 47.7983 39.5638 47.7583 39.3369 47.6792C39.2738 47.6591 39.2119 47.6352 39.1515 47.6079C39.0931 47.5823 39.036 47.5537 38.9804 47.5224L14.5455 33.7912L12.7629 32.7901L0.653128 25.9851C0.6202 25.9662 0.596046 25.9351 0.585905 25.8986C0.575763 25.862 0.580451 25.8229 0.598956 25.7897C0.617511 25.7569 0.648353 25.7327 0.68471 25.7225C0.721066 25.7124 0.759967 25.7171 0.792876 25.7356L12.7629 32.4621L14.5455 33.4632L39.1202 47.2728C39.2017 47.3186 39.2865 47.3581 39.374 47.3912C39.4111 47.4054 39.4496 47.4183 39.4881 47.4297C39.7322 47.5046 39.9889 47.5293 40.2428 47.5024C40.4967 47.4754 40.7425 47.3973 40.9654 47.2728L67.2371 32.502L69.0196 31.4996L79.2285 25.7598C79.2448 25.7506 79.2627 25.7447 79.2813 25.7425C79.2999 25.7403 79.3187 25.7417 79.3367 25.7467C79.3547 25.7518 79.3715 25.7603 79.3862 25.7718C79.401 25.7834 79.4133 25.7977 79.4224 25.814C79.4316 25.8303 79.4375 25.8482 79.4397 25.8668C79.442 25.8853 79.4405 25.9042 79.4355 25.9222C79.4305 25.9402 79.4219 25.957 79.4104 25.9717C79.3989 25.9865 79.3845 25.9988 79.3682 26.0079Z" fill="#3F3D56"/>
<path d="M23.3975 9.41177H19.4046C19.102 9.41177 18.8119 9.29157 18.5979 9.07763C18.384 8.86368 18.2638 8.57351 18.2638 8.27095C18.2638 7.96838 18.384 7.67821 18.5979 7.46426C18.8119 7.25032 19.102 7.13013 19.4046 7.13013H23.3975C23.7 7.13013 23.9902 7.25032 24.2042 7.46426C24.4181 7.67821 24.5383 7.96838 24.5383 8.27095C24.5383 8.57351 24.4181 8.86368 24.2042 9.07763C23.9902 9.29157 23.7 9.41177 23.3975 9.41177Z" fill="#26499D"/>
<path d="M28.1034 13.2621H19.4046C19.102 13.2621 18.8119 13.1419 18.5979 12.928C18.384 12.714 18.2638 12.4239 18.2638 12.1213C18.2638 11.8187 18.384 11.5286 18.5979 11.3146C18.8119 11.1007 19.102 10.9805 19.4046 10.9805H28.1034C28.4059 10.9805 28.6961 11.1007 28.91 11.3146C29.124 11.5286 29.2442 11.8187 29.2442 12.1213C29.2442 12.4239 29.124 12.714 28.91 12.928C28.6961 13.1419 28.4059 13.2621 28.1034 13.2621Z" fill="#E6E6E6"/>
<path d="M52.4064 23.5294H27.7362C27.4336 23.5294 27.1434 23.4093 26.9295 23.1953C26.7156 22.9814 26.5954 22.6912 26.5954 22.3886C26.5954 22.0861 26.7156 21.7959 26.9295 21.5819C27.1434 21.368 27.4336 21.2478 27.7362 21.2478H52.4064C52.709 21.2478 52.9992 21.368 53.2131 21.5819C53.427 21.7959 53.5472 22.0861 53.5472 22.3886C53.5472 22.6912 53.427 22.9814 53.2131 23.1953C52.9992 23.4093 52.709 23.5294 52.4064 23.5294Z" fill="#26499D"/>
<path d="M54.6881 27.9501H25.3119C25.0094 27.9501 24.7192 27.8299 24.5053 27.616C24.2913 27.402 24.1711 27.1118 24.1711 26.8093C24.1711 26.5067 24.2913 26.2165 24.5053 26.0026C24.7192 25.7886 25.0094 25.6685 25.3119 25.6685H54.6881C54.9906 25.6685 55.2808 25.7886 55.4947 26.0026C55.7087 26.2165 55.8289 26.5067 55.8289 26.8093C55.8289 27.1118 55.7087 27.402 55.4947 27.616C55.2808 27.8299 54.9906 27.9501 54.6881 27.9501Z" fill="#E6E6E6"/>
<path d="M54.6881 32.2282H25.3119C25.0094 32.2282 24.7192 32.108 24.5053 31.894C24.2913 31.6801 24.1711 31.3899 24.1711 31.0874C24.1711 30.7848 24.2913 30.4946 24.5053 30.2807C24.7192 30.0667 25.0094 29.9465 25.3119 29.9465H54.6881C54.9906 29.9465 55.2808 30.0667 55.4947 30.2807C55.7087 30.4946 55.8289 30.7848 55.8289 31.0874C55.8289 31.3899 55.7087 31.6801 55.4947 31.894C55.2808 32.108 54.9906 32.2282 54.6881 32.2282Z" fill="#E6E6E6"/>
</g>
<defs>
<clipPath id="clip0_536_922">
<rect width="80" height="70.303" fill="white"/>
</clipPath>
</defs>
</svg>
