<svg width="24" height="24" viewBox="0 0 24 24" fill="none" xmlns="http://www.w3.org/2000/svg">
<path d="M10.5502 3.00293C6.69782 3.00987 4.6805 3.10445 3.39128 4.39366C2 5.78495 2 8.02418 2 12.5027C2 16.9811 2 19.2204 3.39128 20.6116C4.78257 22.0029 7.0218 22.0029 11.5003 22.0029C15.9787 22.0029 18.218 22.0029 19.6093 20.6116C20.8985 19.3224 20.9931 17.3051 21 13.4527" stroke="white" stroke-width="1.5" stroke-linecap="round" stroke-linejoin="round"/>
<path d="M11.0556 12.999C10.3322 3.86537 16.8023 1.27456 21.9805 2.16341C22.1896 5.19038 20.7085 6.32384 17.8879 6.84727C18.4326 7.41638 19.395 8.13257 19.2912 9.02781C19.2173 9.66488 18.7846 9.97746 17.9194 10.6026C16.0231 11.9726 13.8264 12.8366 11.0556 12.999Z" stroke="white" stroke-width="1.5" stroke-linecap="round" stroke-linejoin="round"/>
<path d="M9 17.0029C11 11.5029 12.9604 9.63929 15 8.00293" stroke="white" stroke-width="1.5" stroke-linecap="round" stroke-linejoin="round"/>
</svg> 