<svg width="163" height="102" viewBox="0 0 163 102" fill="none" xmlns="http://www.w3.org/2000/svg">
<g clip-path="url(#clip0_795_1768)">
<path d="M141.645 79.2073C141.609 79.1613 141.573 79.1151 141.537 79.069C141.502 79.0228 141.466 78.9765 141.431 78.93C141.395 78.8836 141.36 78.837 141.325 78.7903C141.29 78.7436 141.255 78.6966 141.22 78.6494C141.162 77.2958 141.161 75.9542 141.218 74.6245C141.273 73.3042 141.385 71.9998 141.553 70.7113C141.719 69.4324 141.939 68.1732 142.213 66.9338C142.485 65.7039 142.809 64.4972 143.185 63.3137C143.228 63.1773 143.272 63.0414 143.316 62.9061C143.361 62.7707 143.406 62.6362 143.452 62.5026C143.498 62.3684 143.545 62.2348 143.592 62.1017C143.639 61.9687 143.688 61.8362 143.736 61.7041C144.099 60.7159 144.498 59.7519 144.933 58.812C145.365 57.8787 145.832 56.9713 146.334 56.0896C146.831 55.2141 147.362 54.3656 147.926 53.5441C148.485 52.7287 149.076 51.9418 149.698 51.1834L149.796 51.0644L149.894 50.9461L149.992 50.8284L150.091 50.7113L150.163 50.6273L150.235 50.5436C150.259 50.5158 150.283 50.4881 150.307 50.4606C150.332 50.433 150.356 50.4057 150.382 50.3787L150.441 50.3464L150.499 50.3143L150.558 50.2824L150.616 50.2505L150.62 50.2493L150.623 50.2476L150.627 50.2458L150.631 50.2445L150.654 50.2316L150.677 50.2186L150.7 50.2056L150.722 50.1926L150.824 50.1381L150.925 50.0845L151.026 50.031L151.127 49.977L151.05 49.9387L150.858 49.843L150.859 49.8421C150.875 49.8492 150.892 49.8567 150.908 49.8645C150.924 49.8724 150.941 49.8799 150.957 49.8872C150.974 49.8949 150.99 49.9026 151.006 49.9103C151.022 49.9179 151.038 49.9257 151.055 49.9338L151.073 49.9417L151.092 49.9498L151.111 49.9579C151.117 49.9604 151.124 49.9635 151.13 49.967C151.135 49.9698 151.14 49.9722 151.146 49.974L151.163 49.9811L151.179 49.9882L151.196 49.9952C151.897 50.3164 152.599 50.6424 153.293 50.9844C153.986 51.3263 154.669 51.6826 155.333 52.0661C155.996 52.4467 156.638 52.8618 157.257 53.3098C157.874 53.7555 158.458 54.2453 159.005 54.7753C159.582 55.3388 160.098 55.9615 160.544 56.633C160.986 57.2927 161.349 58.0017 161.626 58.7455C161.893 59.4536 162.052 60.1977 162.098 60.953C162.142 61.6795 162.04 62.4074 161.797 63.0936C161.764 63.1831 161.729 63.2713 161.691 63.3583C161.653 63.4453 161.613 63.531 161.57 63.6153C161.527 63.6996 161.481 63.7825 161.433 63.8638C161.385 63.9452 161.335 64.0251 161.282 64.1035C161.26 64.1362 161.237 64.1686 161.214 64.2007C161.191 64.2328 161.168 64.2646 161.145 64.2961C161.121 64.3276 161.097 64.359 161.073 64.3903C161.049 64.4216 161.024 64.4526 160.999 64.4834C160.54 65.0604 159.957 65.5262 159.293 65.8463C158.625 66.1654 157.9 66.3453 157.16 66.3752C156.383 66.4077 155.607 66.295 154.871 66.043C154.082 65.7736 153.349 65.3622 152.708 64.8292C152.486 64.646 152.276 64.4492 152.079 64.2401C151.883 64.0328 151.701 63.8136 151.533 63.5837C151.366 63.3557 151.213 63.1175 151.077 62.8704C150.941 62.6251 150.821 62.3713 150.718 62.1106C150.67 62.9206 150.796 63.7315 151.087 64.4888C151.394 65.2849 151.812 66.0339 152.328 66.7136C152.873 67.4374 153.478 68.1141 154.136 68.7368C154.799 69.3722 155.502 69.9677 156.198 70.5162C156.893 71.0646 157.612 71.6256 158.309 72.2106C159.005 72.7858 159.668 73.4002 160.294 74.051C160.901 74.6797 161.438 75.3725 161.895 76.1172C162.345 76.8523 162.67 77.6566 162.857 78.4976C163.057 79.4137 163.047 80.3634 162.827 81.275C162.72 81.7185 162.568 82.1498 162.373 82.5621C162.176 82.9778 161.94 83.3738 161.668 83.745L161.643 83.7789L161.617 83.8127L161.591 83.8464L161.565 83.8799C160.902 84.7465 160.07 85.4692 159.118 86.0041C158.64 86.2731 158.135 86.4935 157.612 86.6618C157.077 86.834 156.526 86.9526 155.967 87.0158C154.905 87.1137 153.833 87.0524 152.788 86.8338C151.712 86.6085 150.667 86.2585 149.672 85.7911C148.643 85.3097 147.66 84.7368 146.734 84.0793C145.8 83.4183 144.916 82.6897 144.089 81.8993C143.869 81.6897 143.653 81.4764 143.441 81.2591C143.229 81.0419 143.021 80.821 142.817 80.5965C142.613 80.3719 142.414 80.1439 142.218 79.9125C142.023 79.681 141.832 79.446 141.645 79.2073Z" fill="#F2F2F2"/>
<path d="M158.734 63.5238C158.077 63.1829 157.445 62.7953 156.844 62.3641C155.642 61.5029 154.569 60.4758 153.656 59.3133C153.203 58.7366 152.793 58.1275 152.428 57.4911C152.125 56.9534 151.855 56.3971 151.621 55.8255C151.392 55.2679 151.2 54.6961 151.046 54.1136C150.895 53.5447 150.782 52.9662 150.709 52.3822C150.637 51.8101 150.606 51.2337 150.615 50.6572C150.616 50.6247 150.616 50.5924 150.617 50.5604C150.618 50.5283 150.618 50.496 150.619 50.4635C150.62 50.431 150.621 50.3989 150.623 50.3672L150.628 50.2714C150.6 50.2931 150.573 50.3151 150.545 50.3373L150.463 50.4041L150.381 50.4715L150.3 50.5391L150.247 50.5824L150.195 50.6261L150.143 50.6701L150.091 50.7142L150.162 50.6304L150.235 50.5438C150.259 50.516 150.284 50.4883 150.308 50.4608C150.332 50.4332 150.357 50.4059 150.382 50.3789L150.441 50.3466L150.5 50.3145L150.557 50.2826L150.615 50.2508L150.619 50.2496L150.623 50.2478L150.626 50.2461L150.63 50.2447L150.653 50.2319L150.677 50.2189L150.7 50.206L150.722 50.1929L150.823 50.1385L150.925 50.0849L151.026 50.0314L151.127 49.9778L151.048 49.9385L150.855 49.8426L150.857 49.8418C150.873 49.8489 150.89 49.8563 150.906 49.8642C150.922 49.872 150.938 49.8796 150.955 49.8869C150.971 49.8946 150.988 49.9023 151.004 49.9099C151.02 49.9175 151.036 49.9254 151.052 49.9334L151.071 49.9414L151.09 49.9494L151.109 49.9575C151.115 49.9601 151.121 49.9631 151.127 49.9665L151.125 49.9971L151.123 50.0257L151.122 50.0542L151.12 50.0831C151.049 51.0541 151.1 52.0302 151.271 52.9887C151.446 53.9753 151.735 54.9385 152.131 55.8593C152.54 56.8123 153.051 57.7182 153.655 58.561C154.279 59.4327 154.995 60.2356 155.789 60.9559C156.589 61.671 157.461 62.3004 158.392 62.8339C158.851 63.0972 159.324 63.336 159.809 63.5492C160.29 63.7603 160.782 63.9451 161.283 64.1029C161.261 64.1356 161.238 64.168 161.215 64.2001C161.192 64.2321 161.169 64.264 161.145 64.2955C161.122 64.327 161.098 64.3584 161.074 64.3897C161.05 64.421 161.025 64.452 161 64.4828C160.807 64.4188 160.615 64.3507 160.424 64.2786C160.233 64.2065 160.043 64.1304 159.853 64.0503C159.664 63.9703 159.476 63.8863 159.29 63.7984C159.103 63.7104 158.918 63.6189 158.734 63.5238Z" fill="white"/>
<path d="M145.731 70.7811C145.516 70.4599 145.313 70.1329 145.122 69.7999C144.931 69.4669 144.752 69.1292 144.587 68.7868C144.421 68.4444 144.267 68.0976 144.127 67.7466C143.986 67.3956 143.859 67.0415 143.745 66.6843C143.687 66.4949 143.633 66.3048 143.584 66.114C143.534 65.9233 143.49 65.7322 143.45 65.5408C143.41 65.3494 143.374 65.1576 143.343 64.9654C143.312 64.7731 143.286 64.581 143.265 64.3891C143.254 64.2997 143.244 64.2101 143.236 64.1203C143.227 64.0305 143.22 63.9408 143.213 63.8512C143.206 63.7614 143.2 63.6718 143.196 63.5823C143.191 63.4927 143.187 63.4033 143.185 63.314C143.227 63.1776 143.271 63.0417 143.316 62.9063C143.36 62.771 143.405 62.6362 143.451 62.5019C143.497 62.3677 143.543 62.2341 143.591 62.1011C143.638 61.968 143.687 61.8355 143.736 61.7034C143.725 61.8141 143.716 61.925 143.708 62.0361C143.701 62.1473 143.695 62.2588 143.69 62.3707C143.686 62.4826 143.683 62.5947 143.681 62.7071C143.68 62.8195 143.68 62.9322 143.682 63.045C143.682 63.1065 143.682 63.168 143.684 63.2295C143.685 63.2909 143.687 63.3524 143.689 63.414C143.691 63.4754 143.694 63.5369 143.697 63.5984C143.7 63.66 143.704 63.7215 143.708 63.783C143.755 64.473 143.863 65.1576 144.031 65.8286C144.201 66.5077 144.423 67.1728 144.695 67.818C144.972 68.4756 145.291 69.1145 145.651 69.7307C146.017 70.3577 146.417 70.964 146.849 71.5471C147.315 72.1765 147.807 72.7894 148.325 73.3857C148.844 73.9819 149.382 74.5619 149.94 75.1255C150.498 75.6886 151.073 76.2343 151.664 76.7626C152.256 77.2909 152.857 77.8009 153.468 78.2926C154.093 78.7975 154.731 79.2831 155.382 79.7497C156.033 80.2162 156.695 80.6623 157.367 81.0879C158.039 81.5134 158.721 81.9182 159.413 82.3022C160.105 82.6862 160.805 83.0483 161.512 83.3884C161.545 83.4043 161.574 83.426 161.599 83.4524C161.623 83.4782 161.643 83.508 161.657 83.5405C161.671 83.5726 161.679 83.6068 161.681 83.6418C161.684 83.6769 161.679 83.7121 161.668 83.7455C161.664 83.76 161.659 83.774 161.653 83.7874C161.646 83.8004 161.639 83.8128 161.63 83.8243C161.621 83.8357 161.611 83.8462 161.601 83.8556C161.59 83.8648 161.578 83.8729 161.565 83.8796C161.552 83.8857 161.538 83.89 161.524 83.8926C161.509 83.8951 161.495 83.8959 161.48 83.8949C161.465 83.8939 161.45 83.8912 161.436 83.8867C161.421 83.8823 161.407 83.8762 161.394 83.8686C161.306 83.8267 161.219 83.7846 161.132 83.7423C161.044 83.7 160.957 83.6574 160.87 83.6147C160.783 83.5718 160.696 83.5286 160.609 83.485C160.522 83.4414 160.436 83.3972 160.349 83.3523C159.628 82.9818 158.916 82.589 158.214 82.1741C157.512 81.7591 156.82 81.3226 156.139 80.8643C155.459 80.4062 154.79 79.9275 154.134 79.4282C153.478 78.9289 152.836 78.4098 152.207 77.8708C151.6 77.3519 151.001 76.8154 150.416 76.2607C149.831 75.7061 149.26 75.1336 148.711 74.5429C148.162 73.9521 147.635 73.3434 147.136 72.7163C146.636 72.0892 146.166 71.4444 145.731 70.7811Z" fill="white"/>
<path d="M159.32 19.2356L158.803 19.3028L162.267 6.3003C162.523 5.43208 162.564 4.515 162.388 3.62725C162.236 2.90187 161.859 2.24292 161.311 1.74389C160.737 1.24492 160.033 0.918444 159.282 0.802119C158.366 0.660345 157.432 0.702189 156.533 0.925215L132.988 6.28717C132.166 6.48655 131.379 6.81013 130.655 7.24675C129.868 7.71511 129.135 8.2705 128.472 8.90245C127.789 9.54687 127.176 10.2615 126.643 11.0345C126.123 11.7827 125.699 12.5934 125.381 13.4475L100.746 81.2051C100.336 82.3192 100.07 83.481 99.9539 84.6623C99.8461 85.711 99.897 86.77 100.105 87.8036C100.278 88.7016 100.641 89.5526 101.168 90.2999C101.652 90.9795 102.333 91.4934 103.119 91.7717L127.996 100.336C129.101 100.712 130.287 100.783 131.429 100.54C132.65 100.274 133.798 99.7455 134.794 98.9907C135.912 98.1507 136.873 97.1204 137.634 95.9469C138.476 94.6577 139.106 93.2412 139.499 91.7519L156.176 29.1578L156.7 29.1159L159.32 19.2356Z" fill="#2F2E41"/>
<path d="M157.52 18.5158L157.003 18.5829L160.467 5.58042C160.723 4.7122 160.764 3.79512 160.589 2.90737C160.436 2.18199 160.059 1.52304 159.511 1.02401C158.937 0.525044 158.234 0.198565 157.482 0.0822396C156.567 -0.0595338 155.632 -0.0176901 154.733 0.205336L131.188 5.56729C130.366 5.76667 129.58 6.09025 128.855 6.52687C128.068 6.99523 127.335 7.55062 126.672 8.18257C125.989 8.82699 125.376 9.54164 124.843 10.3146C124.323 11.0629 123.899 11.8736 123.581 12.7277L98.946 80.4852C98.5364 81.5993 98.2703 82.7611 98.1541 83.9424C98.0463 84.9911 98.0972 86.0501 98.3051 87.0837C98.4786 87.9818 98.841 88.8327 99.3683 89.58C99.852 90.2596 100.533 90.7735 101.32 91.0518L126.196 99.6158C127.301 99.9921 128.487 100.063 129.629 99.8202C130.85 99.5543 131.998 99.0256 132.994 98.2709C134.112 97.4308 135.073 96.4005 135.834 95.2271C136.677 93.9378 137.306 92.5214 137.699 91.032L154.377 28.4379L154.9 28.396L157.52 18.5158Z" fill="#3F3D56"/>
<path d="M154.525 1.90189L151.064 2.66009C151.101 2.95953 151.072 3.26364 150.976 3.55003C150.869 3.88502 150.712 4.20238 150.512 4.49198C150.062 5.14945 149.462 5.6899 148.76 6.06832C148.676 6.11295 148.593 6.15416 148.509 6.19195C148.426 6.22975 148.343 6.26406 148.259 6.2949C148.176 6.32573 148.094 6.35297 148.012 6.3766C147.93 6.40024 147.849 6.42015 147.769 6.43635L134.237 9.17636C133.986 9.23469 133.725 9.23173 133.475 9.16772C133.274 9.11377 133.097 8.99433 132.971 8.8283C132.844 8.65002 132.773 8.43852 132.765 8.22001C132.755 7.94128 132.799 7.66319 132.895 7.40134C132.919 7.33067 132.947 7.25952 132.977 7.18789C133.008 7.11627 133.041 7.04464 133.078 6.97301C133.114 6.90103 133.153 6.8294 133.196 6.75813C133.238 6.68686 133.283 6.61566 133.33 6.54451L130.768 7.10583C130.151 7.25054 129.56 7.48972 129.016 7.8149C128.422 8.16511 127.869 8.5817 127.368 9.05668C126.852 9.54194 126.39 10.0808 125.988 10.6641C125.596 11.2278 125.278 11.839 125.04 12.4831L100.452 80.8295C100.146 81.6693 99.9496 82.5451 99.8676 83.4351C99.7918 84.2207 99.8365 85.0133 100 85.7854C100.137 86.4528 100.415 87.0829 100.817 87.633C101.185 88.132 101.698 88.505 102.287 88.7011L127.346 96.8425C128.173 97.1076 129.056 97.1471 129.903 96.9571C130.805 96.7505 131.652 96.3529 132.388 95.7911C133.211 95.168 133.919 94.4069 134.481 93.5415C135.104 92.5909 135.571 91.5474 135.865 90.45L158.761 5.95854C158.954 5.31357 158.989 4.63209 158.865 3.97062C158.758 3.42854 158.484 2.93358 158.081 2.55481C157.659 2.17612 157.139 1.92515 156.58 1.83116C155.897 1.7165 155.198 1.74056 154.525 1.90189Z" fill="white"/>
<path d="M141.086 34.2716H91.2354V17.3788H141.086V34.2716Z" fill="white"/>
<path d="M126.512 40.2337H77.655V63.9167H126.512V40.2337Z" fill="white"/>
<path d="M85.5921 51.6063C87.5438 51.6063 89.1261 50.0241 89.1261 48.0723C89.1261 46.1206 87.5438 44.5384 85.5921 44.5384C83.6403 44.5384 82.0581 46.1206 82.0581 48.0723C82.0581 50.0241 83.6403 51.6063 85.5921 51.6063Z" fill="#26499D"/>
<path d="M93.7538 45.7164C93.5976 45.7164 93.4478 45.7784 93.3373 45.8889C93.2268 45.9993 93.1648 46.1491 93.1648 46.3054C93.1648 46.4616 93.2268 46.6114 93.3373 46.7218C93.4478 46.8323 93.5976 46.8943 93.7538 46.8943H121.521C121.677 46.894 121.826 46.8317 121.936 46.7213C122.046 46.6109 122.108 46.4613 122.108 46.3054C122.108 46.1494 122.046 45.9998 121.936 45.8894C121.826 45.779 121.677 45.7167 121.521 45.7164H93.7538Z" fill="#E6E6E6"/>
<path d="M93.7538 49.2503C93.6764 49.2501 93.5997 49.2651 93.5281 49.2945C93.4565 49.3239 93.3914 49.3671 93.3365 49.4217C93.2816 49.4763 93.238 49.5411 93.2082 49.6126C93.1784 49.684 93.163 49.7607 93.1628 49.8381C93.1627 49.9155 93.1778 49.9922 93.2073 50.0637C93.2368 50.1353 93.2801 50.2004 93.3347 50.2552C93.3894 50.31 93.4543 50.3535 93.5258 50.3832C93.5973 50.4129 93.6739 50.4282 93.7514 50.4283H105.702C105.779 50.4283 105.856 50.4131 105.927 50.3835C105.999 50.3539 106.064 50.3105 106.119 50.2558C106.173 50.2011 106.217 50.1362 106.246 50.0647C106.276 49.9933 106.291 49.9167 106.291 49.8393C106.291 49.762 106.276 49.6854 106.246 49.6139C106.217 49.5425 106.173 49.4775 106.119 49.4228C106.064 49.3681 105.999 49.3248 105.927 49.2952C105.856 49.2656 105.779 49.2503 105.702 49.2503H93.7538Z" fill="#E6E6E6"/>
<path d="M82.8815 54.9001C82.4334 54.9001 82.0688 55.1644 82.0688 55.4891C82.0688 55.8139 82.4334 56.0781 82.8815 56.0781H121.191C121.639 56.0781 122.004 55.8139 122.004 55.4891C122.004 55.1644 121.639 54.9001 121.191 54.9001H82.8815Z" fill="#E6E6E6"/>
<path d="M82.8815 58.4341C82.4334 58.4341 82.0688 58.6984 82.0688 59.0231C82.0688 59.3478 82.4334 59.6121 82.8815 59.6121H112.373C112.821 59.6121 113.186 59.3478 113.186 59.0231C113.186 58.6984 112.821 58.4341 112.373 58.4341H82.8815Z" fill="#E6E6E6"/>
<path d="M127.008 64.4136H77.1582V39.7369H127.008V64.4136ZM78.1519 63.4199H126.015V40.7306H78.1519V63.4199Z" fill="#E6E6E6"/>
<path d="M99.6692 29.2483C101.621 29.2483 103.203 27.666 103.203 25.7143C103.203 23.7625 101.621 22.1803 99.6692 22.1803C97.7175 22.1803 96.1353 23.7625 96.1353 25.7143C96.1353 27.666 97.7175 29.2483 99.6692 29.2483Z" fill="#26499D"/>
<path d="M107.831 23.3583C107.675 23.3583 107.525 23.4203 107.415 23.5308C107.304 23.6413 107.242 23.7911 107.242 23.9473C107.242 24.1035 107.304 24.2533 107.415 24.3638C107.525 24.4742 107.675 24.5363 107.831 24.5363H135.598C135.754 24.5359 135.904 24.4737 136.014 24.3633C136.124 24.2528 136.186 24.1032 136.186 23.9473C136.186 23.7913 136.124 23.6417 136.014 23.5313C135.904 23.4209 135.754 23.3587 135.598 23.3583H107.831Z" fill="#E6E6E6"/>
<path d="M107.831 26.8922C107.754 26.892 107.677 26.907 107.606 26.9364C107.534 26.9658 107.469 27.009 107.414 27.0636C107.359 27.1182 107.315 27.1831 107.286 27.2545C107.256 27.326 107.24 27.4026 107.24 27.48C107.24 27.5574 107.255 27.6341 107.285 27.7057C107.314 27.7772 107.357 27.8423 107.412 27.8971C107.467 27.9519 107.532 27.9954 107.603 28.0251C107.675 28.0548 107.751 28.0702 107.829 28.0702H129.678C129.834 28.0702 129.984 28.0082 130.094 27.8977C130.205 27.7873 130.267 27.6375 130.267 27.4812C130.267 27.325 130.205 27.1752 130.094 27.0648C129.984 26.9543 129.834 26.8922 129.678 26.8922H107.831Z" fill="#E6E6E6"/>
<path d="M141.086 34.2716H91.2354V17.3788H141.086V34.2716ZM92.229 33.2779H140.092V18.3725H92.229V33.2779Z" fill="#E6E6E6"/>
<path d="M43.1355 98.62H45.6484L46.844 88.9271L43.135 88.9273L43.1355 98.62Z" fill="#FFB6B6"/>
<path d="M50.4949 100.953L42.5971 100.954L42.597 97.9021L47.8156 97.9019C48.5261 97.9018 49.2076 98.1841 49.7101 98.6865C50.2125 99.1889 50.4948 99.8703 50.4949 100.581L50.4949 100.953Z" fill="#2F2E41"/>
<path d="M18.0076 95.3633L20.2097 96.574L25.9272 88.6563L22.6772 86.8696L18.0076 95.3633Z" fill="#FFB6B6"/>
<path d="M23.3323 100.953L16.4115 97.1486L17.8815 94.4746L22.4546 96.9888C23.0773 97.3311 23.5384 97.9068 23.7367 98.5891C23.9349 99.2715 23.8539 100.005 23.5116 100.627L23.3323 100.953Z" fill="#2F2E41"/>
<path d="M43.018 93.2401C42.794 93.2399 42.5778 93.1582 42.4097 93.0103C42.2415 92.8625 42.1329 92.6585 42.1041 92.4364L38.9614 68.2191C38.9475 68.112 38.9002 68.012 38.826 67.9334C38.7519 67.8549 38.6549 67.8017 38.5488 67.7816C38.4427 67.7614 38.3329 67.7754 38.2351 67.8213C38.1374 67.8673 38.0567 67.943 38.0045 68.0376L24.907 91.8002C24.7989 91.9943 24.6248 92.1431 24.4163 92.2196C24.2078 92.2961 23.9788 92.2953 23.7709 92.2172L20.916 91.1295C20.8012 91.0857 20.6963 91.0195 20.6074 90.9346C20.5185 90.8498 20.4475 90.748 20.3985 90.6353C20.3495 90.5227 20.3235 90.4013 20.3221 90.2784C20.3206 90.1556 20.3438 90.0337 20.3901 89.9199L29.4631 67.6316C29.486 67.575 29.5016 67.5157 29.5094 67.4551C30.7383 57.9436 33.865 53.1067 34.794 51.8509C34.8618 51.7586 34.9065 51.6513 34.9242 51.5381C34.9418 51.4249 34.932 51.3091 34.8956 51.2005L34.7679 50.8174C34.7169 50.6653 34.7064 50.5026 34.7375 50.3453C34.7687 50.1879 34.8403 50.0414 34.9454 49.9202C38.2929 46.1074 44.1274 48.188 44.1859 48.2094L44.2152 48.2202L44.2335 48.2452C50.7757 57.2174 48.3568 86.3588 47.8055 92.1095C47.7849 92.3256 47.6886 92.5275 47.5335 92.6794C47.3784 92.8313 47.1746 92.9235 46.9581 92.9396L43.0896 93.2374C43.0656 93.2393 43.0417 93.2401 43.018 93.2401Z" fill="#2F2E41"/>
<path d="M41.2443 25.9491C44.333 25.9491 46.8368 23.4453 46.8368 20.3567C46.8368 17.268 44.333 14.7642 41.2443 14.7642C38.1557 14.7642 35.6519 17.268 35.6519 20.3567C35.6519 23.4453 38.1557 25.9491 41.2443 25.9491Z" fill="#FFB8B8"/>
<path d="M32.5981 55.9427L49.0543 57.4405C47.6196 52.4517 46.3051 47.4805 47.3766 42.5272C48.7372 38.1052 48.8637 35.6554 45.2744 33.5728L42.851 28.1668L38.4651 28.0073L36.3265 27.4211C34.5986 30.1992 33.8919 33.492 34.3275 36.7344C35.2571 43.7853 35.0061 50.328 32.5981 55.9427Z" fill="#26499D"/>
<path d="M35.0962 30.987L33.4409 23.3897C33.0956 21.5914 33.1822 19.7367 33.6938 17.9783C33.7495 17.7981 33.8166 17.6217 33.8948 17.45C34.353 16.4515 35.0734 15.5958 35.9793 14.9742C36.8852 14.3526 37.9427 13.9883 39.0393 13.9201C42.8011 13.6602 43.3534 14.0568 43.4894 14.2524C45.6151 14.1666 47.2635 14.9879 48.0155 16.5076C48.0892 16.6585 48.1289 16.8237 48.1318 16.9915C48.1347 17.1594 48.1008 17.3258 48.0325 17.4791C47.9641 17.6325 47.863 17.7689 47.7361 17.8789C47.6093 17.9889 47.4599 18.0698 47.2985 18.1158C46.2479 18.4187 44.7713 18.7552 43.6638 18.6563C41.444 21.3189 42.3515 26.1972 44.6036 29.1039L44.6921 29.2181L42.4607 29.6754L39.8677 26.0644C39.8164 25.9929 39.7421 25.9412 39.6573 25.918C39.5724 25.8947 39.4822 25.9013 39.4016 25.9366C39.321 25.9719 39.255 26.0338 39.2146 26.1119C39.1742 26.1901 39.1618 26.2797 39.1795 26.3659L39.9668 30.1904L35.0962 30.987Z" fill="#2F2E41"/>
<path d="M156.046 101.012H0V100.62H156.117L156.046 101.012Z" fill="#CACACA"/>
<path d="M67.0615 51.4443L26.36 80.2267L16.6064 66.4341L57.308 37.6517L67.0615 51.4443Z" fill="white"/>
<path d="M30.3457 71.2557C31.9393 70.1288 32.3176 67.9235 31.1907 66.3299C30.0638 64.7363 27.8584 64.358 26.2648 65.4849C24.6712 66.6118 24.2929 68.8172 25.4198 70.4108C26.5467 72.0043 28.7521 72.3826 30.3457 71.2557Z" fill="#26499D"/>
<path d="M33.6088 61.7343C33.4812 61.8245 33.3948 61.9616 33.3683 62.1156C33.3419 62.2696 33.3778 62.4277 33.468 62.5553C33.5582 62.6828 33.6953 62.7693 33.8493 62.7957C34.0032 62.8221 34.1614 62.7863 34.2889 62.6961L56.96 46.664C57.0871 46.5737 57.1732 46.4366 57.1994 46.2829C57.2256 46.1291 57.1897 45.9713 57.0996 45.8439C57.0096 45.7166 56.8727 45.6302 56.719 45.6036C56.5654 45.577 56.4074 45.6125 56.2799 45.7022L33.6088 61.7343Z" fill="#E6E6E6"/>
<path d="M35.6493 64.6197C35.5218 64.7097 35.4352 64.8466 35.4085 65.0004C35.3819 65.1543 35.4174 65.3124 35.5073 65.44C35.5971 65.5677 35.734 65.6544 35.8878 65.6812C36.0416 65.708 36.1997 65.6727 36.3275 65.5829L36.3295 65.5815L54.1666 52.9679C54.2941 52.8777 54.3806 52.7405 54.407 52.5865C54.4334 52.4326 54.3976 52.2744 54.3074 52.1469C54.2627 52.0837 54.2061 52.03 54.1407 51.9887C54.0752 51.9475 54.0023 51.9195 53.9261 51.9064C53.7721 51.88 53.614 51.9159 53.4864 52.006L35.6493 64.6197Z" fill="#E6E6E6"/>
<path d="M67.0615 51.4443L26.36 80.2267L16.6064 66.4341L57.308 37.6517L67.0615 51.4443ZM26.5976 78.8416L65.6765 51.2067L57.0704 39.0368L17.9915 66.6717L26.5976 78.8416Z" fill="#E6E6E6"/>
<path d="M159.999 46.3341C160.144 46.3286 160.288 46.3531 160.422 46.4061C160.549 46.4572 160.665 46.5341 160.762 46.632C160.858 46.7305 160.934 46.8478 160.984 46.9766C161.036 47.1132 161.06 47.2591 161.054 47.4053C161.048 47.5553 161.013 47.7027 160.951 47.8394C160.89 47.9734 160.806 48.0954 160.702 48.1993C160.599 48.3027 160.477 48.3864 160.344 48.4462C160.208 48.507 160.062 48.5404 159.914 48.5445C159.769 48.5489 159.626 48.523 159.492 48.4687C159.365 48.4169 159.25 48.3394 159.154 48.2411C159.058 48.1423 158.984 48.025 158.935 47.8962C158.883 47.7601 158.86 47.6149 158.866 47.4695C158.872 47.3203 158.907 47.1737 158.969 47.0376C159.029 46.9049 159.113 46.7841 159.216 46.6809C159.318 46.5777 159.439 46.494 159.571 46.4338C159.706 46.3728 159.851 46.3389 159.999 46.3341Z" fill="#F2F2F2"/>
<path d="M45.5687 60.3646L42.922 45.8956L43.1084 36.9477L37.1431 36.7612L38.2616 46.8277L42.1186 60.7866C41.7985 61.1757 41.6023 61.6519 41.5554 62.1536C41.5085 62.6553 41.6131 63.1595 41.8555 63.6012C42.098 64.0429 42.4673 64.4019 42.9158 64.6316C43.3642 64.8614 43.8712 64.9516 44.3714 64.8904C44.8716 64.8292 45.3419 64.6196 45.7218 64.2885C46.1016 63.9574 46.3735 63.52 46.5024 63.0329C46.6313 62.5458 46.6112 62.0312 46.4448 61.5556C46.2783 61.0799 45.9732 60.6651 45.5687 60.3646Z" fill="#FFB8B8"/>
<path d="M36.7703 37.6933C38.9315 36.8701 41.32 36.8701 43.4812 37.6933L43.1084 30.2367C43.1084 29.845 43.0312 29.4571 42.8814 29.0953C42.7315 28.7334 42.5118 28.4046 42.2348 28.1276C41.9578 27.8507 41.629 27.631 41.2672 27.4811C40.9053 27.3312 40.5174 27.254 40.1257 27.254C39.7341 27.254 39.3462 27.3312 38.9843 27.4811C38.6225 27.631 38.2937 27.8507 38.0167 28.1276C37.7397 28.4046 37.52 28.7334 37.3701 29.0953C37.2202 29.4571 37.1431 29.845 37.1431 30.2367L36.7703 37.6933Z" fill="#26499D"/>
</g>
<defs>
<clipPath id="clip0_795_1768">
<rect width="163" height="101.012" fill="white"/>
</clipPath>
</defs>
</svg>
