<svg width="163" height="140" viewBox="0 0 163 140" fill="none" xmlns="http://www.w3.org/2000/svg">
<g clip-path="url(#clip0_493_1578)">
<path d="M67.803 121.626L69.5833 115.843C67.4412 113.492 64.7561 111.698 61.761 110.617C64.6872 115.452 61.8517 121.759 63.0333 127.282C63.4151 129.001 64.18 130.613 65.2713 131.998C66.3627 133.383 67.7526 134.505 69.3379 135.282L72.0395 138.62C73.4558 136.152 74.3189 133.407 74.5691 130.575C74.8194 127.743 74.451 124.89 73.4893 122.213C72.9348 120.717 72.1936 119.296 71.2832 117.984C69.6778 119.866 67.803 121.626 67.803 121.626Z" fill="#F2F2F2"/>
<path d="M58.014 122.365L57.0216 116.397C54.053 115.246 50.8474 114.834 47.6831 115.198C52.4642 118.224 52.7468 125.131 56.2741 129.548C57.3849 130.918 58.7904 132.02 60.3865 132.774C61.9826 133.528 63.7284 133.915 65.4945 133.904L69.4055 135.691C69.5695 132.852 69.1146 130.012 68.072 127.365C67.0293 124.719 65.4238 122.329 63.366 120.361C62.2006 119.268 60.9019 118.326 59.5005 117.557C58.9053 119.956 58.014 122.365 58.014 122.365Z" fill="#F2F2F2"/>
<path d="M116.281 137.136L113.539 137.136L112.234 126.587L116.282 126.587L116.281 137.136Z" fill="#FFB6B6"/>
<path d="M116.981 139.787L108.138 139.787V139.675C108.138 138.765 108.501 137.892 109.147 137.248C109.792 136.605 110.667 136.243 111.58 136.243H111.58L113.195 135.021L116.209 136.243L116.981 136.243L116.981 139.787Z" fill="#2F2E41"/>
<path d="M160.579 127.161L158.709 129.161L150.082 122.921L152.841 119.968L160.579 127.161Z" fill="#FFB6B6"/>
<path d="M163 128.458L156.971 134.909L156.889 134.832C156.222 134.212 155.829 133.352 155.797 132.442C155.764 131.533 156.096 130.647 156.718 129.981L156.923 127.97L159.874 126.605L160.401 126.041L163 128.458Z" fill="#2F2E41"/>
<path d="M156.521 121.232L153.623 127.278L135.824 115.525L133.235 112.007L124.745 100.47L121.294 105.932L118.892 111.641C118.11 112.15 117.45 112.826 116.962 113.62C116.473 114.414 116.167 115.307 116.066 116.233L115.957 117.244L117.474 130.848L111.706 132.615L108.394 114.339L109.477 110.379L110.592 104.82L116.204 87.2534H131.224L139.838 105.541L140.468 109.267L142.911 112.063L156.521 121.232Z" fill="#2F2E41"/>
<path d="M125.308 58.5132L127.836 60.4333L130.885 61.3677C130.885 61.3677 132.146 79.0515 133.282 80.1843C134.417 81.3171 133.393 81.3475 133.621 82.8191C133.849 84.2906 134.404 87.3071 134.404 87.3071C126.737 91.3546 120.128 91.4632 114.818 86.7269C114.75 86.4339 114.785 86.1266 114.916 85.8559C115.047 85.5851 115.268 85.3672 115.54 85.2383C116.528 84.7154 114.629 82.2748 115.437 81.8667C116.244 81.4587 115.108 77.9188 115.108 77.9188L115.853 70.533L115.265 69.3524L116.701 62.1283L119.194 61.2204L120.19 58.8277L125.308 58.5132Z" fill="#3F3D56"/>
<path d="M126.892 89.9433C126.88 89.6239 126.939 89.306 127.064 89.0118C127.19 88.7176 127.378 88.4545 127.616 88.2408C127.854 88.0271 128.137 87.8681 128.443 87.7749C128.75 87.6818 129.073 87.6569 129.39 87.7018L132.954 80.7946L134.939 84.3122L131.251 90.3322C131.14 90.8587 130.839 91.3263 130.405 91.6463C129.971 91.9664 129.435 92.1167 128.898 92.0687C128.361 92.0208 127.86 91.7779 127.49 91.3862C127.12 90.9945 126.907 90.4811 126.892 89.9433Z" fill="#FFB6B6"/>
<path d="M132.892 88.2536L140.535 76.4402L140.51 76.3859C140.481 76.3236 138.75 72.5959 137.073 69.1815C136.815 68.6557 136.558 68.1373 136.309 67.6409C136.201 67.4267 136.095 67.2169 135.991 67.0116C135.287 65.6268 134.671 64.4822 134.304 63.9385C133.491 62.7093 132.282 61.7941 130.876 61.345L130.84 61.336L130.807 61.35C130.119 61.6394 129.551 62.1539 129.196 62.8086C128.84 63.4634 128.72 64.2192 128.853 64.9517C129.516 68.4844 130.993 71.8151 133.168 74.681L134.407 76.3097L130.101 85.6454L132.892 88.2536Z" fill="#3F3D56"/>
<path d="M106.612 42.9712C106.822 43.2122 106.977 43.4963 107.065 43.8034C107.154 44.1105 107.174 44.4333 107.124 44.7489C107.073 45.0645 106.954 45.3653 106.775 45.6302C106.596 45.895 106.36 46.1174 106.086 46.2817L107.679 53.8853L103.916 52.3993L102.98 45.4066C102.733 44.9279 102.672 44.3757 102.807 43.8548C102.941 43.3338 103.263 42.8803 103.711 42.5801C104.159 42.2799 104.701 42.1539 105.236 42.226C105.77 42.2981 106.26 42.5632 106.612 42.9712Z" fill="#FFB6B6"/>
<path d="M103.017 48.0524L104.538 62.029L104.592 62.0554C104.637 62.0772 106.565 63.0203 108.931 64.1435C109.331 64.333 109.273 65.1538 109.691 65.3499C109.978 65.4851 110.737 64.9947 111.028 65.1302C113.614 66.3367 116.23 67.5098 117.273 67.8277C118.68 68.2724 120.197 68.2236 121.573 67.6896L121.606 67.6744L121.624 67.6423C121.975 66.9856 122.092 66.2291 121.954 65.4974C121.817 64.7657 121.433 64.1026 120.867 63.6174C118.122 61.2894 114.871 59.6296 111.372 58.7691L109.381 58.282L106.832 48.3256L103.017 48.0524Z" fill="#3F3D56"/>
<path d="M122.612 57.7213C125.374 57.7213 127.613 55.4882 127.613 52.7336C127.613 49.979 125.374 47.7459 122.612 47.7459C119.85 47.7459 117.611 49.979 117.611 52.7336C117.611 55.4882 119.85 57.7213 122.612 57.7213Z" fill="#FFB6B6"/>
<path d="M117.647 49.3914C118.058 48.1981 120.105 47.3705 123.424 47.2554C126.743 47.1403 127.585 51.0412 127.585 51.0412C129.801 52.8338 125.219 57.633 124.998 57.4602L125.097 56.5585C125.262 55.065 125.964 53.8996 125.072 52.3431L124.215 52.3529C123.109 52.565 122.003 52.7771 120.897 52.9892L122.207 51.8394L122.17 51.7825C121.613 52.0718 121.007 52.2553 120.382 52.3237C119.679 52.365 118.909 52.0856 118.572 51.4681C118.482 51.2984 118.427 51.1124 118.41 50.9211C117.461 51.2992 117.027 52.4661 117.027 52.4661C117.027 52.4661 117.235 50.5847 117.647 49.3914Z" fill="#2F2E41"/>
<path d="M20.1495 49.6906C20.0816 49.6048 20.0085 49.5232 19.9307 49.4464C19.9497 49.4203 19.9687 49.3918 19.9878 49.3657L20.1495 49.6906Z" fill="#2F2E41"/>
<path d="M21.1221 69.7509C20.304 71.2 18.6702 72.0088 17.0507 72.4049C15.2316 72.88 13.3161 72.8431 11.5168 72.2981C11.2885 72.2246 11.0602 72.1392 10.839 72.0444C10.9453 71.7627 11.0296 71.4733 11.0911 71.1787C11.1739 70.78 11.2153 70.3739 11.2147 69.9667C11.0345 70.3174 10.8011 70.6382 10.5227 70.9178C10.3079 71.1428 10.064 71.3382 9.79736 71.4988C8.97033 70.9983 8.25422 70.3349 7.6927 69.5493C7.72836 69.4615 7.76405 69.3738 7.79734 69.286C7.97003 68.8277 8.10678 68.3567 8.20637 67.8772C8.3415 67.2289 8.40924 66.5684 8.40853 65.9063C8.1153 66.4768 7.73501 66.9985 7.28127 67.4526C7.14523 67.5978 7.00071 67.7348 6.84846 67.863C6.61268 67.1488 6.52153 66.3951 6.58032 65.6455C6.6391 64.8959 6.84665 64.1655 7.1909 63.4966C8.13265 61.7605 9.95907 60.7288 11.5857 59.6069C13.2148 58.4851 14.8438 56.9672 14.9817 54.9962C15.0745 53.6657 14.4562 52.3328 14.7035 51.0236C14.8075 50.4715 15.0614 49.9585 15.4376 49.5404C15.8138 49.1223 16.2979 48.8152 16.837 48.6525C17.3761 48.4898 17.9497 48.4778 18.4952 48.6178C19.0407 48.7578 19.5372 49.0444 19.9306 49.4464C19.0079 50.7508 18.09 52.1003 17.7166 53.6515C17.3361 55.231 17.6476 57.0834 18.8962 58.1293C19.3242 58.4898 19.8498 58.746 20.1804 59.1966C20.6203 59.7943 20.6227 60.5912 20.694 61.3264C20.8367 62.7566 21.3052 64.1322 21.5573 65.5481C21.8118 66.9617 21.826 68.4962 21.1221 69.7509Z" fill="#2F2E41"/>
<path d="M4.35205 128.567L6.52255 130.239L14.0238 122.686L10.8203 120.217L4.35205 128.567Z" fill="#A0616A"/>
<path d="M4.44426 126.932L8.03345 129.372L6.89762 130.838L8.41879 135.599C8.49396 135.834 8.4918 136.087 8.41262 136.32C8.33345 136.554 8.18142 136.757 7.97872 136.898C7.77601 137.04 7.53326 137.113 7.2859 137.107C7.03853 137.101 6.7995 137.017 6.60372 136.866L2.51904 133.718L2.9385 131.725L1.54008 132.964L0 131.777L4.44426 126.932Z" fill="#2F2E41"/>
<path d="M15.3635 53.9044C15.3632 54.7501 15.5711 55.583 15.9689 56.3299C16.3666 57.0768 16.9422 57.7149 17.645 58.1882C18.3478 58.6615 19.1563 58.9555 19.9996 59.0444C20.843 59.1333 21.6953 59.0144 22.4818 58.6981C23.2682 58.3818 23.9648 57.8778 24.5104 57.2303C25.056 56.5828 25.4338 55.8117 25.6108 54.9846C25.7878 54.1575 25.7585 53.2997 25.5255 52.4865C25.2924 51.6733 24.8628 50.9296 24.2743 50.3207L24.2494 50.2959C24.208 50.2525 24.1665 50.2091 24.123 50.1678L24.1222 50.1676L24.1216 50.1672L24.1211 50.1665L24.121 50.1657C24.0671 50.1161 24.0132 50.0665 23.9572 50.019C23.0454 49.2212 21.7639 48.3553 20.4563 48.3553C17.5945 48.3553 15.3635 51.0503 15.3635 53.9044Z" fill="#2F2E41"/>
<path d="M44.8926 51.251C44.9174 51.5266 44.8814 51.8043 44.7869 52.0644C44.6925 52.3246 44.542 52.5609 44.3461 52.7568C44.1502 52.9527 43.9136 53.1034 43.6529 53.1982C43.3923 53.293 43.114 53.3297 42.8376 53.3056L30.0089 64.8574L27.8013 61.3801L41.1056 51.1185C41.1769 50.6581 41.4151 50.2398 41.7749 49.9429C42.1348 49.6459 42.5914 49.4909 43.0582 49.5072C43.525 49.5236 43.9695 49.7101 44.3077 50.0315C44.6458 50.3529 44.8539 50.7868 44.8926 51.251Z" fill="#A0616A"/>
<path d="M24.5261 68.3442C24.5261 68.3442 25.0034 69.2234 26.6339 67.8658C27.9392 66.779 34.1928 62.0606 35.5401 60.1272C35.8477 60.2487 36.1871 60.2648 36.5049 60.1727C36.8227 60.0807 37.1007 59.8859 37.2952 59.6189L33.6039 56.3948C32.4994 56.5216 32.5231 57.2615 32.6381 57.6816L29.8537 58.9398L22.6633 63.5225L24.1697 67.7148L24.5261 68.3442Z" fill="#26499D"/>
<path d="M17.5604 76.4444L17.2915 77.7214L17.0632 82.4318L27.1151 82.9829L26.803 75.738L25.8286 74.1414L17.5604 76.4444Z" fill="#A0616A"/>
<path d="M21.8205 59.4323C24.2198 59.4323 26.1648 57.4926 26.1648 55.0998C26.1648 52.707 24.2198 50.7673 21.8205 50.7673C19.4213 50.7673 17.4763 52.707 17.4763 55.0998C17.4763 57.4926 19.4213 59.4323 21.8205 59.4323Z" fill="#A0616A"/>
<path d="M14.108 71.0802L14.0813 67.4788C14.0807 66.183 14.5204 64.9252 15.3287 63.9106C16.1369 62.896 17.2661 62.1846 18.5319 61.8923L18.5483 61.8884L19.4074 60.7341L22.8974 61.0823L23.5371 62.3861L26.066 63.8879L27.0397 67.0095C27.462 67.2902 27.8219 67.6546 28.0971 68.0799C28.3723 68.5052 28.5568 68.9824 28.6392 69.4819C28.9698 71.5877 27.4914 73.6948 27.3155 73.9364L26.8624 76.4814L17.0054 78.2159L16.9253 78.226L14.108 71.0802Z" fill="#26499D"/>
<path d="M27.1365 54.3274C26.6298 54.6475 26.1041 54.9366 25.5622 55.1931C25.0122 55.4566 24.4369 55.664 23.8452 55.8121C23.6758 55.4416 23.4686 55.0895 23.2269 54.7614C23.2891 55.1502 23.2907 55.5462 23.2316 55.9354C22.2507 56.0933 21.2461 56.0111 20.3041 55.6959L19.486 54.3274L19.4242 55.8548C18.7464 55.9782 18.071 56.0944 17.3932 56.2153C17.3528 56.2201 17.3124 56.2296 17.2743 56.2367C16.8534 54.344 17.4503 52.2592 18.7773 50.9975C19.4362 50.3776 20.2581 49.9571 21.1473 49.7849C22.0365 49.6127 22.9564 49.696 23.8 50.0251C23.907 50.0678 24.0164 50.1152 24.121 50.165L24.1212 50.1659L24.1217 50.1667L24.1225 50.1672L24.1234 50.1674C24.1852 50.1982 24.2376 50.2717 24.3065 50.2646C27.2745 49.9349 27.3696 52.2308 27.1365 54.3274Z" fill="#2F2E41"/>
<path d="M19.9094 122.98L22.0833 124.648L29.5693 117.08L26.361 114.618L19.9094 122.98Z" fill="#A0616A"/>
<path d="M20.1957 121.497L23.7898 123.929L22.6569 125.398L24.1877 130.155C24.2634 130.39 24.2617 130.643 24.183 130.877C24.1043 131.111 23.9527 131.313 23.7503 131.455C23.5479 131.597 23.3053 131.671 23.0579 131.666C22.8105 131.66 22.5713 131.576 22.3752 131.426L18.2842 128.286L18.6996 126.293L17.3037 127.534L15.7612 126.35L20.1957 121.497Z" fill="#2F2E41"/>
<path d="M12.8554 113.743L12.8553 113.715L13.8856 111.944L12.8336 109.639L12.802 103.718L12.9725 102.829C13.2019 101.633 13.1352 100.4 12.7781 99.2357L12.7589 95.6312C12.7219 94.7283 14.1245 93.9341 13.7974 93.1814C10.7058 86.0661 16.9544 80.6382 16.9967 80.5946L17.1243 80.4622L17.8172 80.9855L18.4766 80.9863L27.3753 82.6035L27.4395 82.7229C27.7895 83.3777 28.465 85.6344 28.5051 86.6556C28.9486 87.1677 34.0003 92.9976 34.4494 93.4027C37.484 96.1411 39.2215 100.673 39.9871 103.131C40.1772 103.739 40.2155 104.384 40.0987 105.009C39.9819 105.635 39.7135 106.222 39.3168 106.721L27.8285 119.271L24.7369 116.424L30.9531 105.128L30.5049 103.981C29.7006 103.833 28.9727 103.412 28.4454 102.788L27.1867 101.298C26.8382 100.887 26.6167 100.383 26.5491 99.849L25.7858 99.7574L23.0515 96.8943L21.1544 114.027L20.6387 115.381L11.6571 125.911L7.85205 123.54L12.8554 113.743Z" fill="#2F2E41"/>
<path d="M11.4839 40.175C11.3114 40.3916 11.1886 40.6434 11.1241 40.9125C11.0597 41.1816 11.0552 41.4615 11.1109 41.7325C11.1667 42.0036 11.2814 42.2591 11.4469 42.4812C11.6124 42.7032 11.8247 42.8864 12.0689 43.0178L9.21289 51.45L11.5449 60.386L15.3054 58.6906L12.9849 51.9504L14.721 42.1396C14.9151 41.7159 14.9466 41.2359 14.8096 40.7905C14.6725 40.3452 14.3764 39.9655 13.9774 39.7233C13.5784 39.4812 13.1042 39.3934 12.6446 39.4766C12.1851 39.5599 11.7721 39.8083 11.4839 40.175Z" fill="#A0616A"/>
<path d="M14.926 67.7488C14.926 67.7488 14.0428 68.2218 13.4286 66.194C12.9368 64.5706 9.59021 55.7564 9.5299 53.4027C9.2059 53.3357 8.91347 53.1631 8.69867 52.912C8.48387 52.661 8.35892 52.3458 8.34351 52.0162L13.2041 51.3454C14.057 52.0566 13.6295 52.6618 13.3019 52.9498L14.9574 55.7464L18.4176 63.2962L15.5705 67.4182L14.926 67.7488Z" fill="#26499D"/>
<path d="M17.3923 56.2149C17.8915 54.7137 18.7865 53.3741 19.9835 52.3367C21.1806 51.2993 22.6355 50.6022 24.1956 50.3186C24.2018 50.3166 24.2226 50.3083 24.2495 50.2959C24.2661 50.2856 24.2868 50.2753 24.3075 50.2649C24.2454 50.2298 24.1853 50.1988 24.1231 50.1678L24.1223 50.1676L24.1216 50.1672L24.1212 50.1665L24.121 50.1657C24.0671 50.1161 24.0133 50.0665 23.9573 50.019L23.7998 50.0252C23.7998 50.0252 18.2648 49.151 17.3923 56.2149Z" fill="#FD6584"/>
<path d="M88.8145 104.494C89.4186 103.589 89.061 102.293 88.0158 101.599C86.9707 100.906 85.6337 101.078 85.0296 101.983C84.4255 102.889 84.7831 104.185 85.8282 104.878C86.8734 105.572 88.2104 105.4 88.8145 104.494Z" fill="#F2F2F2"/>
<path d="M76.5518 70.6959C77.1559 69.7904 76.7983 68.4941 75.7531 67.8006C74.708 67.1071 73.371 67.2791 72.7669 68.1846C72.1628 69.0901 72.5204 70.3864 73.5655 71.0799C74.6107 71.7734 75.9477 71.6015 76.5518 70.6959Z" fill="#F2F2F2"/>
<path d="M127.832 122.728C128.436 121.822 128.079 120.526 127.034 119.832C125.988 119.139 124.652 119.311 124.047 120.216C123.443 121.122 123.801 122.418 124.846 123.112C125.891 123.805 127.228 123.633 127.832 122.728Z" fill="#F2F2F2"/>
<path d="M24.1565 13.9945C24.7606 13.089 24.403 11.7927 23.3579 11.0992C22.3127 10.4057 20.9757 10.5776 20.3716 11.4832C19.7675 12.3887 20.1251 13.685 21.1703 14.3785C22.2154 15.072 23.5524 14.9001 24.1565 13.9945Z" fill="#F2F2F2"/>
<path d="M72.5383 3.32127C73.1424 2.41573 72.7849 1.11946 71.7397 0.425986C70.6946 -0.267492 69.3576 -0.0955792 68.7535 0.809968C68.1494 1.71552 68.5069 3.01179 69.5521 3.70527C70.5973 4.39875 71.9342 4.22682 72.5383 3.32127Z" fill="#F2F2F2"/>
<path d="M49.6406 92.8683C50.2447 91.9627 49.8872 90.6665 48.842 89.973C47.7968 89.2795 46.4599 89.4514 45.8558 90.357C45.2517 91.2625 45.6092 92.5588 46.6544 93.2523C47.6996 93.9457 49.0365 93.7738 49.6406 92.8683Z" fill="#E6E6E6"/>
<path d="M149.442 140H4.45318C4.3829 140 4.31558 139.972 4.26596 139.922C4.21634 139.873 4.18848 139.805 4.18848 139.735C4.18848 139.665 4.21634 139.598 4.26596 139.548C4.31558 139.499 4.3829 139.471 4.45318 139.471H149.442C149.512 139.471 149.58 139.498 149.63 139.548C149.679 139.598 149.707 139.665 149.707 139.735C149.707 139.805 149.679 139.873 149.63 139.922C149.58 139.972 149.512 140 149.442 140Z" fill="#CCCCCC"/>
<path d="M31.4391 52.0679C30.2195 52.0644 29.0439 51.6127 28.1372 50.7992C27.2304 49.9858 26.6561 48.8676 26.524 47.6584L23.6934 21.4408C23.5544 20.1391 23.9387 18.8355 24.7622 17.8161C25.5856 16.7967 26.781 16.1446 28.0859 16.003L112.131 6.97797C113.436 6.83921 114.743 7.22249 115.766 8.04372C116.788 8.86494 117.442 10.057 117.584 11.3585L120.414 37.5759C120.553 38.8777 120.169 40.1813 119.346 41.2008C118.522 42.2203 117.327 42.8723 116.022 43.0139L31.9765 52.039C31.798 52.0582 31.6186 52.0679 31.4391 52.0679Z" fill="#E6E6E6"/>
<path d="M111.205 8.19508C111.047 8.19513 110.89 8.20361 110.733 8.22048L29.7176 16.9201C29.1512 16.981 28.6022 17.1525 28.1022 17.4249C27.6022 17.6973 27.1609 18.0652 26.8034 18.5077C26.446 18.9502 26.1795 19.4586 26.019 20.0038C25.8586 20.5491 25.8074 21.1205 25.8684 21.6854L27.2996 34.9413C27.5309 37.0843 28.1832 39.1608 29.2193 41.0524C30.2553 42.9439 31.6548 44.6134 33.3378 45.9656C35.0207 47.3178 36.9543 48.3261 39.028 48.933C41.1018 49.5399 43.2751 49.7335 45.4238 49.5027L102.391 43.3854C104.533 43.1553 106.609 42.5068 108.5 41.4767C110.391 40.4465 112.06 39.0551 113.411 37.3817C114.763 35.7084 115.771 33.7859 116.378 31.724C116.984 29.6622 117.178 27.5013 116.947 25.3649L115.511 12.0593C115.396 10.9995 114.894 10.0191 114.099 9.30599C113.305 8.59291 112.274 8.19734 111.205 8.19508Z" fill="white"/>
<path d="M94.1447 21.9906L48.8644 26.853C48.7349 26.8671 48.604 26.8555 48.479 26.8191C48.3539 26.7826 48.2374 26.722 48.1359 26.6406C48.0344 26.5591 47.95 26.4586 47.8876 26.3446C47.8251 26.2306 47.7858 26.1055 47.7718 25.9764C47.7579 25.8472 47.7696 25.7166 47.8063 25.592C47.843 25.4674 47.904 25.3512 47.9858 25.2501C48.0675 25.149 48.1685 25.065 48.2829 25.0028C48.3972 24.9407 48.5227 24.9016 48.6522 24.8879L93.9326 20.0255C94.0621 20.0114 94.193 20.0229 94.3181 20.0594C94.4431 20.0958 94.5596 20.1565 94.6611 20.2379C94.7626 20.3193 94.847 20.4199 94.9094 20.5339C94.9719 20.6478 95.0112 20.773 95.0252 20.9021C95.0391 21.0313 95.0274 21.1619 94.9907 21.2865C94.954 21.4111 94.893 21.5273 94.8112 21.6284C94.7295 21.7295 94.6285 21.8135 94.5141 21.8757C94.3998 21.9378 94.2743 21.9769 94.1447 21.9906Z" fill="#26499D"/>
<path d="M94.796 28.0216L49.5157 32.884C49.2544 32.9121 48.9926 32.8355 48.788 32.671C48.5833 32.5066 48.4525 32.2678 48.4244 32.0073C48.3963 31.7467 48.4731 31.4856 48.6379 31.2815C48.8028 31.0774 49.0422 30.947 49.3035 30.9189L94.5839 26.0565C94.8452 26.0285 95.1069 26.1051 95.3116 26.2695C95.5162 26.4339 95.647 26.6727 95.6751 26.9333C95.7033 27.1939 95.6265 27.4549 95.4616 27.659C95.2967 27.8631 95.0573 27.9936 94.796 28.0216Z" fill="#26499D"/>
<path d="M55.4436 38.3482L50.1668 38.9148C49.9055 38.9429 49.6437 38.8663 49.4391 38.7019C49.2344 38.5375 49.1037 38.2987 49.0755 38.0381C49.0474 37.7775 49.1242 37.5164 49.2891 37.3123C49.4539 37.1082 49.6933 36.9778 49.9546 36.9497L55.2314 36.3831C55.3609 36.369 55.4919 36.3805 55.6169 36.417C55.7419 36.4534 55.8584 36.5141 55.9599 36.5955C56.0614 36.6769 56.1458 36.7775 56.2083 36.8915C56.2707 37.0054 56.3101 37.1306 56.324 37.2597C56.338 37.3889 56.3262 37.5195 56.2895 37.6441C56.2528 37.7687 56.1918 37.8849 56.11 37.986C56.0283 38.0871 55.9273 38.1711 55.813 38.2333C55.6986 38.2954 55.5731 38.3345 55.4436 38.3482Z" fill="#26499D"/>
<path d="M29.6574 22.5471C30.6425 22.5471 31.4411 21.7507 31.4411 20.7682C31.4411 19.7858 30.6425 18.9893 29.6574 18.9893C28.6724 18.9893 27.8738 19.7858 27.8738 20.7682C27.8738 21.7507 28.6724 22.5471 29.6574 22.5471Z" fill="#3F3D56"/>
<path d="M109.477 13.6527C110.462 13.6527 111.26 12.8563 111.26 11.8739C111.26 10.8914 110.462 10.095 109.477 10.095C108.492 10.095 107.693 10.8914 107.693 11.8739C107.693 12.8563 108.492 13.6527 109.477 13.6527Z" fill="#3F3D56"/>
<path d="M85.3622 50.1722C85.1982 50.0286 85.0684 49.8505 84.9822 49.6506C84.896 49.4508 84.8554 49.2343 84.8636 49.0169C84.9532 46.4331 84.5265 43.8574 83.6084 41.4396C83.5305 41.2364 83.4991 41.0184 83.5163 40.8015C83.5335 40.5846 83.5989 40.3743 83.7079 40.1858C83.8123 40.0046 83.9551 39.8485 84.1265 39.7282C84.2978 39.608 84.4935 39.5266 84.6997 39.4899C86.7729 38.2422 88.8983 37.8919 91.018 38.4489C91.3598 38.3988 91.7083 38.4717 92.001 38.6548C92.2937 38.8378 92.5115 39.1189 92.6151 39.4476C93.4733 42.2261 93.9506 45.1077 94.0342 48.014C94.0422 48.3626 93.9238 48.7024 93.7007 48.971C93.4777 49.2396 93.1649 49.4189 92.82 49.476L86.5474 50.5095C86.3371 50.5446 86.1216 50.5325 85.9166 50.4742C85.7116 50.4158 85.5222 50.3127 85.3622 50.1722Z" fill="#26499D"/>
<path d="M85.9194 42.6441L91.1989 41.7742C91.2423 41.7672 91.2839 41.7517 91.3213 41.7286C91.3587 41.7054 91.3911 41.6752 91.4168 41.6396C91.4424 41.604 91.4608 41.5636 91.4708 41.5209C91.4808 41.4782 91.4823 41.4339 91.4751 41.3906C91.4679 41.3474 91.4523 41.3059 91.429 41.2687C91.4058 41.2315 91.3754 41.1992 91.3396 41.1737C91.3038 41.1482 91.2633 41.1299 91.2205 41.1201C91.1776 41.1102 91.1332 41.1088 91.0899 41.1161L85.8104 41.9859C85.7231 42.0005 85.6451 42.0491 85.5936 42.1209C85.5421 42.1928 85.5213 42.2821 85.5357 42.3692C85.5502 42.4564 85.5987 42.5343 85.6706 42.5858C85.7425 42.6373 85.832 42.6583 85.9194 42.6441Z" fill="white"/>
<path d="M86.3555 45.2767L91.635 44.4068C91.7225 44.3924 91.8007 44.3439 91.8523 44.272C91.904 44.2001 91.9249 44.1107 91.9104 44.0234C91.896 43.9361 91.8473 43.8581 91.7752 43.8066C91.7031 43.7551 91.6135 43.7343 91.5259 43.7487L86.2465 44.6185C86.2031 44.6256 86.1615 44.6411 86.1241 44.6642C86.0867 44.6873 86.0543 44.7176 86.0286 44.7532C86.0029 44.7888 85.9846 44.8291 85.9746 44.8719C85.9646 44.9146 85.9631 44.9588 85.9703 45.0021C85.9775 45.0454 85.9931 45.0868 86.0164 45.1241C86.0396 45.1613 86.07 45.1936 86.1058 45.2191C86.1416 45.2446 86.1821 45.2628 86.2249 45.2727C86.2678 45.2826 86.3122 45.284 86.3555 45.2767Z" fill="white"/>
<path d="M86.7915 47.9093L92.071 47.0394C92.1585 47.025 92.2367 46.9765 92.2883 46.9046C92.34 46.8327 92.3609 46.7433 92.3464 46.656C92.332 46.5687 92.2833 46.4907 92.2112 46.4392C92.1391 46.3877 92.0495 46.3669 91.9619 46.3813L86.6825 47.2512C86.6392 47.2583 86.5977 47.2739 86.5604 47.297C86.5231 47.3201 86.4907 47.3504 86.4652 47.386C86.4396 47.4216 86.4213 47.4619 86.4113 47.5045C86.4014 47.5472 86.3999 47.5914 86.4071 47.6346C86.4142 47.6778 86.4298 47.7192 86.453 47.7564C86.4762 47.7936 86.5066 47.8259 86.5423 47.8514C86.578 47.8769 86.6183 47.8951 86.6611 47.9051C86.7039 47.915 86.7482 47.9164 86.7915 47.9093Z" fill="white"/>
</g>
<defs>
<clipPath id="clip0_493_1578">
<rect width="163" height="140" fill="white"/>
</clipPath>
</defs>
</svg>
