<svg width="76" height="76" viewBox="0 0 76 76" fill="none" xmlns="http://www.w3.org/2000/svg">
<path d="M53.8346 38.0023C53.8346 46.7468 46.7458 53.8356 38.0013 53.8356C29.2568 53.8356 22.168 46.7468 22.168 38.0023C22.168 29.2578 29.2568 22.1689 38.0013 22.1689" stroke="white" stroke-width="5.34375" stroke-linecap="round"/>
<path d="M44.332 6.96548C42.2857 6.55009 40.1676 6.33203 37.9987 6.33203C20.5097 6.33203 6.33203 20.5097 6.33203 37.9987C6.33203 55.4877 20.5097 69.6654 37.9987 69.6654C55.4877 69.6654 69.6654 55.4877 69.6654 37.9987C69.6654 35.8297 69.4473 33.7117 69.0319 31.6654" stroke="white" stroke-width="5.34375" stroke-linecap="round"/>
<path d="M36.1087 36.1094C35.0653 37.1528 35.0653 38.8446 36.1087 39.888C37.1522 40.9314 38.8439 40.9314 39.8873 39.888L36.1087 36.1094ZM62.3525 13.6442L59.7672 14.3188C60.0114 15.2546 60.7422 15.9854 61.678 16.2296L62.3525 13.6442ZM60.7174 7.37725L58.132 8.0518V8.0518L60.7174 7.37725ZM57.9418 6.93389L59.8311 8.82319L57.9418 6.93389ZM54.3021 10.5736L52.4128 8.6843V8.6843L54.3021 10.5736ZM51.5455 19.4778L48.9602 20.1523V20.1523L51.5455 19.4778ZM68.6195 15.2794L67.9449 17.8647L68.6195 15.2794ZM69.0629 18.0549L67.1736 16.1656V16.1656L69.0629 18.0549ZM65.4231 21.6946L67.3124 23.5839L65.4231 21.6946ZM56.519 24.4513L55.8444 27.0366L56.519 24.4513ZM50.6853 21.5328L36.1087 36.1094L39.8873 39.888L54.4639 25.3114L50.6853 21.5328ZM64.9378 12.9697L63.3027 6.70271L58.132 8.0518L59.7672 14.3188L64.9378 12.9697ZM56.0525 5.04459L52.4128 8.6843L56.1914 12.4629L59.8311 8.82319L56.0525 5.04459ZM48.9602 20.1523L49.9893 24.0967L55.1599 22.7476L54.1308 18.8032L48.9602 20.1523ZM61.678 16.2296L67.9449 17.8647L69.294 12.6941L63.0271 11.0589L61.678 16.2296ZM67.1736 16.1656L63.5338 19.8053L67.3124 23.5839L70.9522 19.9442L67.1736 16.1656ZM57.1935 21.8659L53.2492 20.8368L51.9001 26.0074L55.8444 27.0366L57.1935 21.8659ZM63.5338 19.8053C61.6302 21.709 59.1286 22.3708 57.1935 21.8659L55.8444 27.0366C59.8853 28.0909 64.278 26.6184 67.3124 23.5839L63.5338 19.8053ZM67.9449 17.8647C67.7258 17.8075 67.4885 17.6724 67.3004 17.4554C67.1204 17.2475 67.0353 17.0232 67.006 16.8399C66.948 16.4768 67.0906 16.2486 67.1736 16.1656L70.9522 19.9442C72.0043 18.8921 72.5116 17.4291 72.2829 15.997C72.046 14.5141 70.9998 13.1391 69.294 12.6941L67.9449 17.8647ZM52.4128 8.6843C49.3783 11.7188 47.9058 16.1114 48.9602 20.1523L54.1308 18.8032C53.6259 16.8681 54.2878 14.3666 56.1914 12.4629L52.4128 8.6843ZM63.3027 6.70271C62.8576 4.99693 61.4826 3.95076 59.9997 3.71389C58.5676 3.48511 57.1047 3.99247 56.0525 5.04459L59.8311 8.82319C59.7482 8.90615 59.52 9.04875 59.1568 8.99074C58.9735 8.96146 58.7492 8.87639 58.5414 8.69632C58.3243 8.50828 58.1892 8.27097 58.132 8.0518L63.3027 6.70271Z" fill="white"/>
</svg>
