<svg width="81" height="77" viewBox="0 0 81 77" fill="none" xmlns="http://www.w3.org/2000/svg">
<path d="M23.7603 62.7959L23.2081 61.8395L28.2332 58.9382L28.7854 59.8946L26.8387 61.0186L29.9229 66.3605L28.7912 67.0139L25.707 61.672L23.7603 62.7959ZM32.2986 64.9889L29.5713 60.2651L30.6508 59.6419L31.1053 60.4292L31.1546 60.4007C31.0832 60.0783 31.1095 59.783 31.2334 59.5146C31.3582 59.243 31.5559 59.0291 31.8265 58.8728C31.888 58.8373 31.9585 58.8008 32.0379 58.7631C32.1182 58.7222 32.1869 58.6921 32.2441 58.6728L32.8353 59.6969C32.7787 59.7077 32.6956 59.7366 32.586 59.7834C32.4772 59.8271 32.3757 59.8761 32.2814 59.9306C32.0784 60.0478 31.9214 60.1972 31.8103 60.3789C31.7001 60.5573 31.6433 60.7501 31.6398 60.9571C31.6363 61.1641 31.6926 61.3681 31.8086 61.569L33.4119 64.3461L32.2986 64.9889ZM37.5907 64.2953C37.439 64.3829 37.2915 64.4517 37.1481 64.5017C37.008 64.5525 36.8911 64.5845 36.7975 64.5975L36.5551 63.5811C36.7443 63.5347 36.9019 63.4738 37.0278 63.3984C37.1537 63.323 37.2424 63.2185 37.2938 63.0849C37.3484 62.9523 37.358 62.7772 37.3227 62.5598L37.2707 62.2495L32.7736 58.4163L33.9545 57.7345L37.1029 60.6733L37.1521 60.6449L36.1842 56.4472L37.3682 55.7636L38.5344 62.1513C38.5906 62.4524 38.5974 62.7341 38.5549 62.9965C38.5135 63.261 38.4144 63.5013 38.2577 63.7176C38.1042 63.9347 37.8819 64.1273 37.5907 64.2953ZM42.6794 52.6972L43.1765 53.5583L40.3841 55.1705L39.8869 54.3094L42.6794 52.6972ZM43.3123 58.6301L40.3276 53.4604C40.1441 53.1426 40.057 52.8402 40.0663 52.5533C40.0776 52.2652 40.1649 52.0043 40.328 51.7708C40.4911 51.5372 40.709 51.3417 40.9817 51.1842C41.1744 51.073 41.3545 50.9895 41.5219 50.9338C41.6893 50.8782 41.816 50.8419 41.902 50.8251L42.1777 51.8141C42.1223 51.8269 42.0545 51.8469 41.9745 51.874C41.8932 51.899 41.8085 51.937 41.7204 51.9879C41.5133 52.1074 41.3957 52.2423 41.3676 52.3925C41.3404 52.5394 41.38 52.7052 41.4865 52.8897L44.4287 57.9856L43.3123 58.6301ZM48.2147 55.9227C47.7534 56.1891 47.295 56.3184 46.8395 56.3107C46.384 56.3031 45.9576 56.1706 45.5604 55.9134C45.1651 55.655 44.8267 55.2818 44.5449 54.7939C44.2632 54.3059 44.1087 53.8252 44.0813 53.3516C44.056 52.8769 44.1539 52.4404 44.375 52.0421C44.5961 51.6438 44.9373 51.3115 45.3986 51.0452C45.8599 50.7789 46.3183 50.6495 46.7738 50.6572C47.2293 50.6648 47.6552 50.7989 48.0516 51.0594C48.4501 51.3186 48.7902 51.6923 49.0719 52.1802C49.3536 52.6682 49.5065 53.1485 49.5307 53.6212C49.5568 54.0926 49.4594 54.5275 49.2383 54.9258C49.0172 55.3241 48.676 55.6564 48.2147 55.9227ZM47.7059 55.0273C47.956 54.8829 48.1255 54.6935 48.2143 54.4591C48.3019 54.2226 48.3193 53.9638 48.2664 53.6827C48.2155 53.4005 48.1072 53.1158 47.9415 52.8288C47.7745 52.5397 47.5816 52.3026 47.3626 52.1174C47.1445 51.9289 46.9111 51.8135 46.6625 51.7712C46.4139 51.7288 46.1645 51.7799 45.9144 51.9243C45.6581 52.0722 45.4851 52.2651 45.3954 52.5027C45.3078 52.7392 45.29 52.9996 45.3421 53.2839C45.395 53.565 45.5049 53.8501 45.6718 54.1391C45.8375 54.4262 46.0289 54.6629 46.2458 54.8493C46.4648 55.0345 46.6986 55.1482 46.9473 55.1906C47.1967 55.2297 47.4496 55.1753 47.7059 55.0273ZM51.3698 53.9781L48.6425 49.2543L49.722 48.6311L50.1765 49.4184L50.2257 49.39C50.1544 49.0676 50.1807 48.7722 50.3046 48.5039C50.4293 48.2323 50.627 48.0184 50.8977 47.8621C50.9592 47.8266 51.0296 47.79 51.1091 47.7524C51.1893 47.7115 51.2581 47.6814 51.3152 47.662L51.9065 48.6861C51.8499 48.697 51.7667 48.7258 51.6571 48.7727C51.5484 48.8163 51.4469 48.8654 51.3525 48.9198C51.1496 49.037 50.9925 49.1865 50.8815 49.3681C50.7713 49.5466 50.7144 49.7393 50.7109 49.9464C50.7075 50.1534 50.7637 50.3574 50.8797 50.5583L52.4831 53.3354L51.3698 53.9781ZM56.617 44.6503L57.1141 45.5114L54.3217 47.1236L53.8245 46.2625L56.617 44.6503ZM57.2499 50.5832L54.2652 45.4135C54.0817 45.0957 53.9946 44.7934 54.0039 44.5064C54.0152 44.2183 54.1025 43.9575 54.2656 43.7239C54.4287 43.4903 54.6466 43.2948 54.9193 43.1374C55.112 43.0261 55.2921 42.9426 55.4595 42.887C55.6269 42.8313 55.7536 42.7951 55.8396 42.7782L56.1153 43.7672C56.0599 43.7801 55.9921 43.8 55.9121 43.8271C55.8308 43.8521 55.7461 43.8901 55.658 43.941C55.4509 44.0606 55.3333 44.1954 55.3052 44.3456C55.278 44.4925 55.3176 44.6583 55.4241 44.8428L58.3663 49.9387L57.2499 50.5832ZM60.2161 48.8707L57.4888 44.1469L58.5683 43.5237L59.0228 44.311L59.072 44.2826C59.0007 43.9602 59.027 43.6648 59.1509 43.3964C59.2757 43.1249 59.4734 42.9109 59.744 42.7547C59.8055 42.7192 59.876 42.6826 59.9554 42.6449C60.0356 42.6041 60.1044 42.574 60.1615 42.5546L60.7528 43.5787C60.6962 43.5895 60.6131 43.6184 60.5034 43.6653C60.3947 43.7089 60.2932 43.758 60.1989 43.8124C59.9959 43.9296 59.8389 44.079 59.7278 44.2607C59.6176 44.4392 59.5607 44.6319 59.5573 44.8389C59.5538 45.046 59.61 45.2499 59.726 45.4509L61.3294 48.2279L60.2161 48.8707ZM65.5998 45.8854C65.1261 46.1589 64.6603 46.2966 64.2022 46.2987C63.745 46.2975 63.3194 46.1687 62.9254 45.9123C62.5301 45.6539 62.1899 45.2777 61.9046 44.7836C61.6241 44.2976 61.4701 43.8179 61.4428 43.3444C61.4163 42.8676 61.5109 42.4303 61.7267 42.0323C61.9414 41.6323 62.2742 41.3021 62.7253 41.0416C63.0164 40.8736 63.3184 40.7621 63.6311 40.7073C63.9448 40.6492 64.2573 40.6601 64.5686 40.7401C64.882 40.8189 65.1831 40.9758 65.4719 41.2109C65.7595 41.4439 66.0229 41.7675 66.262 42.1817L66.4591 42.523L62.5872 44.7585L62.154 44.0081L64.9587 42.3888C64.8336 42.1767 64.6779 42.0137 64.4918 41.8997C64.3046 41.7837 64.1021 41.7243 63.8845 41.7214C63.669 41.7174 63.4546 41.7769 63.2414 41.9C63.0138 42.0314 62.8458 42.2022 62.7375 42.4123C62.6281 42.6204 62.5766 42.8415 62.5832 43.0755C62.5907 43.3062 62.6544 43.5278 62.7743 43.7402L63.1525 44.3952C63.3111 44.67 63.4975 44.8767 63.7116 45.0156C63.9245 45.1523 64.1513 45.2209 64.3921 45.2213C64.6317 45.2197 64.8725 45.149 65.1144 45.0093C65.2764 44.9158 65.41 44.8086 65.5151 44.6878C65.6191 44.5648 65.6933 44.4305 65.7375 44.2846C65.7818 44.1388 65.7901 43.985 65.7624 43.8233L66.8693 43.3401C66.9623 43.6527 66.9757 43.9648 66.9096 44.2763C66.8443 44.5846 66.7017 44.8774 66.4818 45.1547C66.2608 45.43 65.9668 45.6736 65.5998 45.8854ZM70.7333 42.9216C70.2597 43.195 69.7939 43.3328 69.3358 43.3348C68.8786 43.3336 68.453 43.2048 68.0589 42.9485C67.6637 42.6901 67.3234 42.3138 67.0382 41.8197C66.7576 41.3338 66.6037 40.8541 66.5763 40.3805C66.5498 39.9038 66.6445 39.4664 66.8603 39.0684C67.0749 38.6684 67.4078 38.3382 67.8588 38.0778C68.15 37.9097 68.4519 37.7982 68.7647 37.7434C69.0784 37.6853 69.3909 37.6963 69.7022 37.7762C70.0156 37.855 70.3167 38.0119 70.6055 38.247C70.8931 38.4801 71.1565 38.8037 71.3956 39.2178L71.5927 39.5592L67.7208 41.7946L67.2875 41.0442L70.0923 39.4249C69.9671 39.2129 69.8115 39.0499 69.6254 38.9359C69.4381 38.8198 69.2357 38.7604 69.0181 38.7575C68.8025 38.7535 68.5882 38.813 68.3749 38.9362C68.1474 39.0675 67.9794 39.2383 67.8711 39.4485C67.7616 39.6566 67.7102 39.8776 67.7168 40.1116C67.7243 40.3424 67.788 40.5639 67.9079 40.7763L68.2861 41.4314C68.4447 41.7061 68.631 41.9129 68.8451 42.0517C69.058 42.1885 69.2849 42.2571 69.5257 42.2574C69.7653 42.2558 70.0061 42.1851 70.248 42.0454C70.41 41.9519 70.5435 41.8447 70.6487 41.7239C70.7527 41.601 70.8268 41.4666 70.8711 41.3207C70.9154 41.1749 70.9237 41.0211 70.8959 40.8595L72.0029 40.3762C72.0959 40.6888 72.1093 41.0009 72.0432 41.3124C71.9779 41.6208 71.8353 41.9136 71.6154 42.1909C71.3943 42.4661 71.1003 42.7097 70.7333 42.9216ZM71.4484 33.9879L73.9144 38.4935L72.9241 39.0652L70.2582 34.675L71.4484 33.9879ZM74.5272 40.6984C74.3406 40.8061 74.1428 40.8328 73.9338 40.7785C73.7268 40.7231 73.5689 40.601 73.46 40.4124C73.3535 40.2279 73.3279 40.0322 73.3834 39.8252C73.4409 39.617 73.5629 39.4591 73.7495 39.3514C73.932 39.246 74.1277 39.2205 74.3367 39.2748C74.5478 39.3278 74.7066 39.4467 74.8132 39.6312C74.8854 39.7562 74.9193 39.8884 74.9149 40.0276C74.9126 40.1656 74.8779 40.295 74.8109 40.4157C74.7448 40.5331 74.6502 40.6274 74.5272 40.6984Z" fill="#52525B"/>
<path d="M38.2625 30.2199C31.2334 17.1593 21.9055 8.23267 1.7625 8.71986" stroke="#18181B" stroke-width="2" stroke-linecap="round"/>
</svg>
