<svg width="80" height="72" viewBox="0 0 80 72" fill="none" xmlns="http://www.w3.org/2000/svg">
<g clip-path="url(#clip0_536_937)">
<path d="M79.2981 27.4631C79.2695 27.4631 79.2415 27.4544 79.218 27.438L40.4027 0.405907C40.2846 0.324026 40.1443 0.280267 40.0005 0.280512C39.8568 0.280758 39.7166 0.324994 39.5987 0.407277L1.06306 27.4377C1.03258 27.4591 0.994856 27.4675 0.958186 27.461C0.921516 27.4546 0.888903 27.4339 0.867524 27.4034C0.846145 27.3729 0.83775 27.3352 0.844185 27.2985C0.850621 27.2618 0.871361 27.2292 0.901841 27.2079L39.4376 0.177425C39.6026 0.0622462 39.7989 0.000332017 40.0001 1.33159e-06C40.2013 -0.000329354 40.3978 0.0609388 40.5632 0.175575L79.3784 27.2076C79.403 27.2247 79.4214 27.2491 79.4311 27.2774C79.4407 27.3057 79.4411 27.3363 79.4321 27.3648C79.4231 27.3934 79.4053 27.4183 79.3812 27.4359C79.3571 27.4536 79.328 27.4631 79.2981 27.4631Z" fill="#3F3D56"/>
<path d="M3.26514 28.4212L40.0387 1.16748L77.0914 30.3605L41.9335 51.2026L22.8458 46.8517L3.26514 28.4212Z" fill="#E6E6E6"/>
<path d="M24.4569 64.0759H6.28985C6.1783 64.0761 6.06781 64.0542 5.96471 64.0116C5.86161 63.969 5.76791 63.9065 5.68898 63.8277C5.61005 63.7489 5.54744 63.6553 5.50472 63.5522C5.46199 63.4492 5.44 63.3387 5.44 63.2272C5.44 63.1156 5.46199 63.0052 5.50472 62.9021C5.54744 62.7991 5.61005 62.7055 5.68898 62.6266C5.76791 62.5478 5.86161 62.4853 5.96471 62.4427C6.06781 62.4001 6.1783 62.3783 6.28985 62.3784H24.4569C24.5685 62.3783 24.6789 62.4001 24.782 62.4427C24.8851 62.4853 24.9788 62.5478 25.0578 62.6266C25.1367 62.7055 25.1993 62.7991 25.242 62.9021C25.2848 63.0052 25.3068 63.1156 25.3068 63.2272C25.3068 63.3387 25.2848 63.4492 25.242 63.5522C25.1993 63.6553 25.1367 63.7489 25.0578 63.8277C24.9788 63.9065 24.8851 63.969 24.782 64.0116C24.6789 64.0542 24.5685 64.0761 24.4569 64.0759Z" fill="#26499D"/>
<path d="M12.8078 60.4268H6.28985C6.1783 60.4269 6.06781 60.4051 5.96471 60.3625C5.86161 60.3199 5.76791 60.2574 5.68898 60.1785C5.61005 60.0997 5.54744 60.0061 5.50472 59.9031C5.46199 59.8 5.44 59.6896 5.44 59.578C5.44 59.4664 5.46199 59.356 5.50472 59.2529C5.54744 59.1499 5.61005 59.0563 5.68898 58.9775C5.76791 58.8986 5.86161 58.8361 5.96471 58.7935C6.06781 58.7509 6.1783 58.7291 6.28985 58.7292H12.8078C12.9193 58.7291 13.0298 58.7509 13.1329 58.7935C13.236 58.8361 13.3297 58.8986 13.4086 58.9775C13.4876 59.0563 13.5502 59.1499 13.5929 59.2529C13.6356 59.356 13.6576 59.4664 13.6576 59.578C13.6576 59.6896 13.6356 59.8 13.5929 59.9031C13.5502 60.0061 13.4876 60.0997 13.4086 60.1785C13.3297 60.2574 13.236 60.3199 13.1329 60.3625C13.0298 60.4051 12.9193 60.4269 12.8078 60.4268Z" fill="#26499D"/>
<path d="M40.5558 43.6013C40.4177 43.6014 40.281 43.5746 40.1531 43.5224L17.4737 34.112V4.65604C17.474 4.39557 17.5776 4.14585 17.7618 3.96167C17.946 3.77749 18.1957 3.67389 18.4562 3.67358H61.9649C62.2254 3.67389 62.4751 3.77749 62.6593 3.96167C62.8435 4.14585 62.9471 4.39557 62.9474 4.65604V34.1326L62.9048 34.1508L40.9707 43.5178C40.8394 43.573 40.6983 43.6014 40.5558 43.6013Z" fill="white"/>
<path d="M40.5558 43.6715C40.4086 43.6717 40.2627 43.6431 40.1264 43.5875L17.4035 34.159V4.65615C17.4039 4.37707 17.5149 4.10951 17.7122 3.91217C17.9095 3.71484 18.1771 3.60383 18.4562 3.60352H61.9649C62.244 3.60383 62.5116 3.71484 62.7089 3.91217C62.9063 4.10951 63.0173 4.37707 63.0176 4.65615V34.179L40.9982 43.5824C40.8582 43.6413 40.7078 43.6716 40.5558 43.6715ZM17.6842 33.9715L40.2334 43.328C40.4438 43.4133 40.6793 43.4119 40.8886 43.324L62.7369 33.9937V4.65615C62.7366 4.45149 62.6552 4.25529 62.5105 4.11058C62.3658 3.96587 62.1696 3.88446 61.9649 3.88422H18.4562C18.2515 3.88446 18.0553 3.96587 17.9106 4.11058C17.7659 4.25529 17.6845 4.45149 17.6842 4.65615L17.6842 33.9715Z" fill="#3F3D56"/>
<path d="M79.0175 27.1824H78.9894L62.8772 34.0624L40.8323 43.4757C40.7462 43.5119 40.6537 43.5308 40.5603 43.5313C40.4668 43.5318 40.3742 43.5139 40.2877 43.4785L17.5439 34.0427L1.03577 27.1936L1.01055 27.1824H0.982456C0.721981 27.1827 0.472257 27.2863 0.288073 27.4704C0.103889 27.6546 0.000289018 27.9044 0 28.1648V70.8315C0.000289388 71.092 0.10389 71.3417 0.288073 71.5259C0.472257 71.7101 0.721981 71.8137 0.982456 71.8139H79.0175C79.278 71.8137 79.5277 71.7101 79.7119 71.5259C79.8961 71.3417 79.9997 71.092 80 70.8315V28.1648C79.9997 27.9044 79.8961 27.6546 79.7119 27.4704C79.5277 27.2863 79.278 27.1827 79.0175 27.1824ZM79.7193 70.8315C79.7192 71.0176 79.6453 71.196 79.5137 71.3276C79.3821 71.4592 79.2036 71.5332 79.0175 71.5332H0.982456C0.796362 71.5332 0.617912 71.4592 0.486324 71.3276C0.354735 71.196 0.280776 71.0176 0.280702 70.8315V28.1648C0.280956 27.9834 0.351349 27.809 0.477162 27.6782C0.602975 27.5474 0.77447 27.4704 0.955798 27.4631L17.5439 34.3459L40.1797 43.7382C40.4247 43.8379 40.6993 43.8363 40.9432 43.7339L62.8772 34.3669L79.0456 27.4631C79.2267 27.4709 79.3977 27.5482 79.5232 27.6789C79.6486 27.8096 79.7189 27.9836 79.7193 28.1648V70.8315Z" fill="#3F3D56"/>
<path d="M40.3291 35.2487C39.4919 35.2502 38.6768 34.9795 38.0069 34.4773L37.9654 34.4461L29.22 27.7503C28.8149 27.44 28.475 27.0529 28.2196 26.6112C27.9641 26.1695 27.7982 25.6818 27.7313 25.176C27.6643 24.6702 27.6976 24.1561 27.8293 23.6632C27.9611 23.1702 28.1886 22.7081 28.4989 22.3031C28.8092 21.898 29.1963 21.5581 29.638 21.3027C30.0797 21.0472 30.5674 20.8813 31.0732 20.8144C31.579 20.7474 32.0931 20.7807 32.586 20.9124C33.0789 21.0442 33.5411 21.2717 33.9461 21.582L39.6107 25.9255L52.9971 8.46775C53.3076 8.06283 53.6948 7.72304 54.1365 7.46776C54.5783 7.21248 55.0661 7.04672 55.5719 6.97995C56.0778 6.91317 56.5918 6.94669 57.0847 7.07859C57.5776 7.21048 58.0397 7.43817 58.4446 7.74866L58.3614 7.86166L58.4468 7.7503C59.2635 8.37803 59.7979 9.30411 59.9327 10.3254C60.0675 11.3466 59.7917 12.3796 59.1658 13.1978L43.4203 33.7323C43.0561 34.2055 42.5878 34.5885 42.0517 34.8514C41.5157 35.1144 40.9262 35.2503 40.3291 35.2487Z" fill="#26499D"/>
</g>
<defs>
<clipPath id="clip0_536_937">
<rect width="80" height="71.814" fill="white"/>
</clipPath>
</defs>
</svg>
