<svg width="462" height="295" viewBox="0 0 462 295" fill="none" xmlns="http://www.w3.org/2000/svg">
<g clip-path="url(#clip0_4910_33346)">
<rect x="0.5" width="461" height="295" rx="6" fill="#0C1327"/>
<g filter="url(#filter0_f_4910_33346)">
<circle cx="365" cy="325.5" r="77.5" fill="#FFCB66" fill-opacity="0.71"/>
</g>
<path opacity="0.2" d="M251.67 292.858C252.298 269.102 263.349 246.372 282.69 229.436C302.621 211.986 329.707 202.142 358 202.142C386.293 202.142 413.379 211.986 433.311 229.436C452.651 246.372 463.702 269.102 464.33 292.858H251.67Z" stroke="#FFCB66" stroke-width="4.28366"/>
<path opacity="0.3" d="M232.288 151.712V70.1697H483.667L483.667 151.712L483.667 151.719C483.731 169.627 474.593 187.214 457.373 201.604C429.866 185.716 394.524 176.982 357.977 176.982C321.432 176.982 286.091 185.715 258.586 201.603C241.416 187.195 232.28 169.618 232.288 151.713V151.712Z" stroke="#2E4898" stroke-width="4.28366"/>
<g opacity="0.7">
<g opacity="0.1">
<mask id="path-5-inside-1_4910_33346" fill="white">
<path fill-rule="evenodd" clip-rule="evenodd" d="M153.547 -41.5909L205.939 30.354C186.072 44.8214 158.238 40.4443 143.771 20.5774C129.303 0.710423 133.68 -27.1232 153.547 -41.5909Z"/>
</mask>
<path d="M205.939 30.354L208.294 33.5875L211.527 31.2328L209.172 27.9993L205.939 30.354ZM153.547 -41.5909L156.78 -43.9456L154.426 -47.1791L151.192 -44.8244L153.547 -41.5909ZM209.172 27.9993L156.78 -43.9456L150.313 -39.2362L202.705 32.7087L209.172 27.9993ZM203.584 27.1205C185.503 40.2875 160.171 36.3038 147.004 18.2227L140.537 22.9321C156.305 44.5848 186.641 49.3553 208.294 33.5875L203.584 27.1205ZM147.004 18.2227C133.837 0.141515 137.821 -25.1902 155.902 -38.3575L151.192 -44.8244C129.54 -29.0562 124.769 1.27933 140.537 22.9321L147.004 18.2227Z" fill="#F63A72" mask="url(#path-5-inside-1_4910_33346)"/>
</g>
<mask id="path-7-inside-2_4910_33346" fill="white">
<path d="M18.1436 222.707L-88.614 307.472L-124.758 261.95L-18.0009 177.185L18.1436 222.707Z"/>
</mask>
<path d="M18.1436 222.707L20.6309 225.84L23.7636 223.352L21.2763 220.22L18.1436 222.707ZM-88.614 307.472L-91.7466 309.96L-89.2593 313.092L-86.1266 310.605L-88.614 307.472ZM-124.758 261.95L-127.246 258.818L-130.378 261.305L-127.891 264.438L-124.758 261.95ZM-18.0009 177.185L-14.8682 174.698L-17.3555 171.565L-20.4882 174.052L-18.0009 177.185ZM15.6563 219.575L-91.1012 304.34L-86.1266 310.605L20.6309 225.84L15.6563 219.575ZM-85.4813 304.985L-121.626 259.463L-127.891 264.438L-91.7466 309.96L-85.4813 304.985ZM-122.271 265.083L-15.5136 180.318L-20.4882 174.052L-127.246 258.818L-122.271 265.083ZM-21.1335 179.672L15.011 225.194L21.2763 220.22L-14.8682 174.698L-21.1335 179.672Z" fill="#FFCB66" mask="url(#path-7-inside-2_4910_33346)"/>
</g>
</g>
<defs>
<filter id="filter0_f_4910_33346" x="95.2" y="55.7" width="539.6" height="539.6" filterUnits="userSpaceOnUse" color-interpolation-filters="sRGB">
<feFlood flood-opacity="0" result="BackgroundImageFix"/>
<feBlend mode="normal" in="SourceGraphic" in2="BackgroundImageFix" result="shape"/>
<feGaussianBlur stdDeviation="96.15" result="effect1_foregroundBlur_4910_33346"/>
</filter>
<clipPath id="clip0_4910_33346">
<rect x="0.5" width="461" height="295" rx="6" fill="white"/>
</clipPath>
</defs>
</svg>
