<svg width="115" height="127" viewBox="0 0 115 127" fill="none" xmlns="http://www.w3.org/2000/svg">
<path d="M97.5387 20.8456C99.8115 20.8456 101.654 19.006 101.654 16.7367C101.654 14.4674 99.8115 12.6278 97.5387 12.6278C95.2658 12.6278 93.4233 14.4674 93.4233 16.7367C93.4233 19.006 95.2658 20.8456 97.5387 20.8456Z" fill="#E2EBFF"/>
<path d="M21.6215 23.7652C23.1168 23.7652 24.329 22.5549 24.329 21.0619C24.329 19.569 23.1168 18.3587 21.6215 18.3587C20.1262 18.3587 18.9141 19.569 18.9141 21.0619C18.9141 22.5549 20.1262 23.7652 21.6215 23.7652Z" fill="#E2EBFF"/>
<path d="M14.1482 28.7391C15.165 28.7391 15.9893 27.9161 15.9893 26.9009C15.9893 25.8857 15.165 25.0627 14.1482 25.0627C13.1314 25.0627 12.3071 25.8857 12.3071 26.9009C12.3071 27.9161 13.1314 28.7391 14.1482 28.7391Z" fill="#E2EBFF"/>
<path d="M107.719 23.2244C108.676 23.2244 109.451 22.4498 109.451 21.4943C109.451 20.5389 108.676 19.7643 107.719 19.7643C106.762 19.7643 105.986 20.5389 105.986 21.4943C105.986 22.4498 106.762 23.2244 107.719 23.2244Z" fill="#E2EBFF"/>
<path d="M57.8245 120C87.5509 120 111.649 95.9397 111.649 66.2599C111.649 36.58 87.5509 12.5197 57.8245 12.5197C28.0981 12.5197 4 36.58 4 66.2599C4 95.9397 28.0981 120 57.8245 120Z" fill="#E2EBFF"/>
<path d="M48.3709 40.5252L46.963 36.6326C46.6381 35.6594 45.6634 35.0106 44.6887 35.0106H19.9966C17.9389 35.0106 16.3145 36.6326 16.3145 38.687V93.8328V84.75H100.246V45.8235C100.246 43.7691 98.6215 42.1471 96.5639 42.1471H50.6452C49.6705 42.1471 48.6958 41.4984 48.3709 40.5252Z" fill="#C0D6FF"/>
<path d="M37.866 31.8747L54.6523 61.0696C55.1938 62.0427 54.8689 63.3403 53.8942 63.8809L25.3033 79.884C24.3286 80.4247 23.029 80.1003 22.4875 79.019L1.36925 41.1738C0.82776 40.2007 1.15266 38.9031 2.12735 38.3625L22.9207 26.7927L37.866 31.8747Z" fill="white"/>
<path d="M9.81646 56.5281L1.26086 41.2819C0.719362 40.3088 1.04426 39.0112 2.01895 38.4706L22.8123 26.9008L37.8658 31.8747L40.8982 37.173" fill="white"/>
<path d="M9.81646 56.5281L1.26086 41.2819C0.719362 40.3088 1.04426 39.0112 2.01895 38.4706L22.8123 26.9008L37.8658 31.8747L40.8982 37.173" stroke="#D81E5B" stroke-miterlimit="10" stroke-linecap="round" stroke-linejoin="round"/>
<path d="M22.7042 35.0105L8.95027 42.6877C8.62537 42.9039 8.19218 42.7958 8.08388 42.4714C7.86728 42.147 7.97558 41.7145 8.30048 41.6064L22.0544 33.9292C22.3793 33.713 22.8125 33.8211 22.9208 34.1455C23.1374 34.4699 23.0291 34.9024 22.7042 35.0105Z" fill="#C0D6FF"/>
<path d="M16.0978 43.1202L10.8995 46.0397C10.5746 46.2559 10.1414 46.1478 10.0331 45.8234C9.8165 45.499 9.9248 45.0665 10.2497 44.9584L15.448 42.0389C15.7729 41.8226 16.2061 41.9308 16.3144 42.2552C16.531 42.4714 16.4227 42.9039 16.0978 43.1202Z" fill="#E2EBFF"/>
<path d="M24.978 30.6853L27.4689 35.0105C28.1187 36.0918 29.6349 36.5243 30.7179 35.8755L37.9739 31.8747" stroke="#D81E5B" stroke-miterlimit="10" stroke-linecap="round" stroke-linejoin="round"/>
<path d="M39.4898 49.7161C38.6234 47.8779 37.4321 45.8234 35.9159 44.3096C35.1578 43.5527 34.0749 43.0121 32.8836 43.0121C31.6923 43.0121 30.6093 43.4446 29.418 43.9852C27.3603 44.8503 25.411 45.8234 23.5699 47.0129C21.8371 47.986 19.8877 49.0673 18.5881 50.6892C16.8553 52.96 17.83 55.3388 19.0213 57.7176C19.8877 59.5558 21.079 61.6103 22.5952 63.1241C23.7865 64.3135 25.411 64.746 27.0354 64.2054C29.0931 63.6647 32.9919 61.5022 34.8329 60.4209C36.4574 59.4477 38.2985 58.4745 39.4898 57.0689C41.7641 54.69 40.8977 52.3112 39.4898 49.7161ZM25.5193 52.2031C25.1944 51.5543 25.411 51.1218 26.169 51.2299C28.2267 51.338 30.2844 51.338 32.2338 51.4462C32.9919 51.4462 33.2085 51.8787 32.8836 52.5274C31.9089 54.2575 30.9342 55.9876 29.8512 57.8258C29.418 58.4745 28.9848 58.4745 28.6599 57.9339C28.5516 57.6095 25.8441 52.7437 25.5193 52.2031Z" fill="#E2EBFF"/>
<path d="M113.892 50.473L94.831 75.1264C94.1812 75.9914 92.9899 76.0996 92.1235 75.4508L68.2978 56.7445C67.4314 56.0957 67.3231 54.9063 67.9729 54.0412L92.7733 22.5757C93.4231 21.7107 94.6144 21.6025 95.4808 22.2513L112.809 35.8756L113.892 50.473Z" fill="white"/>
<path d="M86.9253 30.0366L92.8817 22.5757C93.5315 21.7107 94.7228 21.6025 95.5892 22.2513L112.917 35.8756L114 50.473L109.56 56.2038" fill="white"/>
<path d="M86.9253 30.0366L92.8817 22.5757C93.5315 21.7107 94.7228 21.6025 95.5892 22.2513L112.917 35.8756L114 50.473L109.56 56.2038" stroke="#D81E5B" stroke-miterlimit="10" stroke-linecap="round" stroke-linejoin="round"/>
<path d="M82.2685 59.7721L81.4021 59.1233C81.1855 59.0152 81.1855 58.6908 81.2938 58.4746C81.4021 58.2583 81.727 58.2583 81.9436 58.3664L82.81 59.0152C83.0266 59.1233 83.0266 59.4477 82.9183 59.664C82.81 59.8802 82.4851 59.8802 82.2685 59.7721Z" fill="#E2EBFF"/>
<path d="M79.8857 57.8257L74.7956 53.8249C74.579 53.7168 74.579 53.3924 74.6873 53.1762C74.7956 52.9599 75.1205 52.9599 75.3371 53.068L80.4272 57.0688C80.6438 57.1769 80.6438 57.5013 80.5355 57.7176C80.4272 57.9338 80.1023 58.042 79.8857 57.8257Z" fill="#E2EBFF"/>
<path d="M105.769 38.5788L94.2894 29.6041C94.0728 29.3878 93.9645 29.0635 94.1811 28.7391C94.3977 28.5228 94.7226 28.4147 95.0474 28.6309L106.527 37.6057C106.744 37.8219 106.852 38.1463 106.635 38.4707C106.419 38.7951 106.094 38.7951 105.769 38.5788Z" fill="#C0D6FF"/>
<path d="M96.5637 35.7674L92.2317 32.3073C92.0151 32.091 91.9068 31.7666 92.1234 31.4423C92.34 31.1179 92.6649 31.1179 92.9898 31.3341L97.3218 34.7943C97.5384 35.0105 97.6467 35.3349 97.4301 35.6593C97.2135 35.9837 96.7803 35.9837 96.5637 35.7674Z" fill="#C0D6FF"/>
<path d="M110.209 39.2275L107.502 42.5795C106.744 43.5527 106.96 44.9584 107.935 45.7153L114 50.473" stroke="#D81E5B" stroke-miterlimit="10" stroke-linecap="round" stroke-linejoin="round"/>
<path d="M106.527 51.9868L100.57 47.3373L94.3974 42.4715L88.6576 37.9301C88.0078 37.3894 87.0331 37.4975 86.5999 38.2545L78.3692 48.6348C77.8277 49.2836 77.936 50.2568 78.5858 50.6893L96.5634 64.8542C97.2132 65.3948 98.1878 65.2867 98.621 64.5298L106.852 54.1494C107.285 53.3925 107.177 52.5275 106.527 51.9868ZM87.4663 51.8787L89.3073 49.4999L94.8306 53.825L92.9895 56.2039L87.4663 51.8787ZM92.448 56.8527L90.7152 59.0152L85.192 54.6901L86.9248 52.5275L92.448 56.8527ZM97.2132 50.7974L95.3721 53.1763L89.8488 48.8511L91.6899 46.4723L97.2132 50.7974ZM92.2314 45.7154L94.0725 43.3365L99.5957 47.6617L97.7547 50.0405L92.2314 45.7154ZM102.195 58.4746L96.1302 53.7169L97.9713 51.3381L104.036 56.0957L102.195 58.4746ZM89.199 48.2023L83.3509 43.5528L85.192 41.1739L91.0401 45.8235L89.199 48.2023ZM82.7011 44.3097L88.5493 48.9592L86.7082 51.3381L80.86 46.6885L82.7011 44.3097ZM95.5887 54.3657L101.653 59.1234L99.8123 61.5022L93.7476 56.7445L95.5887 54.3657ZM106.094 53.5007L104.577 55.447L98.5127 50.6893L100.354 48.3105L105.985 52.7437C106.31 52.8519 106.31 53.2844 106.094 53.5007ZM88.0078 38.4707L93.4227 42.7959L91.5816 45.1747L85.7335 40.5252L87.2497 38.5788C87.358 38.3626 87.7912 38.3626 88.0078 38.4707ZM79.019 49.0674L80.3185 47.4454L86.1667 52.095L84.4339 54.2576L79.019 49.9324C78.8024 49.7161 78.8024 49.2836 79.019 49.0674ZM97.1049 63.9892L91.4733 59.5559L93.2061 57.3933L99.2708 62.151L97.863 63.881C97.6464 64.2054 97.3215 64.2054 97.1049 63.9892Z" fill="#E2EBFF"/>
<path d="M82.5932 26.252L79.4526 60.9615C79.3443 62.1509 78.2613 63.0159 77.07 62.9078L43.2808 59.4477C42.0895 59.3395 41.2231 58.2583 41.3314 57.0688L45.9883 12.5197C46.0966 11.3302 47.1795 10.4652 48.3708 10.5733L72.8464 13.0603L82.5932 26.252Z" fill="white"/>
<path d="M41.9814 51.4461L45.9885 12.5197C46.0968 11.3302 47.1798 10.4652 48.3711 10.5733L72.8466 13.0603L82.5935 26.252L79.7777 57.7176" fill="white"/>
<path d="M41.9814 51.4461L45.9885 12.5197C46.0968 11.3302 47.1798 10.4652 48.3711 10.5733L72.8466 13.0603L82.5935 26.252L79.7777 57.7176" stroke="#D81E5B" stroke-miterlimit="10" stroke-linecap="round" stroke-linejoin="round"/>
<path d="M72.3047 18.2505L71.8715 22.6838C71.7632 23.9814 72.7379 25.2789 74.1458 25.3871L82.7014 26.2521" stroke="#D81E5B" stroke-miterlimit="10" stroke-linecap="round" stroke-linejoin="round"/>
<path d="M74.9033 51.6624L47.0705 48.4185C46.4207 48.3104 45.8792 47.7697 45.9875 47.121L48.0452 29.3878C48.1535 28.739 48.695 28.1984 49.3448 28.3065L77.1776 31.4423C77.8273 31.5504 78.3688 32.091 78.2605 32.7398L76.2029 50.473C76.0946 51.2299 75.5531 51.6624 74.9033 51.6624Z" fill="#E2EBFF"/>
<path d="M62.4487 47.4453L49.6694 45.9315L56.8172 39.4438L62.4487 47.4453Z" fill="#C0D6FF"/>
<path d="M73.0621 48.6348L54.543 46.4722L65.0479 37.1731L73.0621 48.6348Z" fill="white"/>
<path d="M55.8429 36.6324C57.2186 36.6324 58.3338 35.519 58.3338 34.1455C58.3338 32.772 57.2186 31.6585 55.8429 31.6585C54.4673 31.6585 53.3521 32.772 53.3521 34.1455C53.3521 35.519 54.4673 36.6324 55.8429 36.6324Z" fill="#EA67A4"/>
<path d="M66.5648 19.1155L49.7785 17.1692C49.5619 17.1692 49.3453 16.953 49.4536 16.7367V16.5204C49.4536 16.3042 49.6702 16.0879 49.8868 16.1961L66.6731 18.1424C66.8897 18.1424 67.1063 18.3586 66.998 18.5749V18.7912C66.998 19.0074 66.7814 19.2237 66.5648 19.1155Z" fill="#C0D6FF"/>
<path d="M66.4562 22.2513L49.4533 20.305C49.2367 20.305 49.0201 20.0887 49.1284 19.8724V19.6562C49.1284 19.4399 49.345 19.2237 49.5616 19.3318L66.5645 21.17C66.7811 21.17 66.9977 21.3863 66.8894 21.6025V21.8188C66.8894 22.1432 66.6728 22.2513 66.4562 22.2513Z" fill="#E2EBFF"/>
<path d="M66.9971 55.0144L45.8788 52.6355C45.554 52.6355 45.3374 52.3112 45.4457 51.9868C45.4457 51.6624 45.7705 51.4461 46.0954 51.5543L67.2137 53.9331C67.5386 53.9331 67.7552 54.2575 67.6469 54.5819C67.5386 54.9063 67.322 55.1225 66.9971 55.0144Z" fill="#E2EBFF"/>
<path d="M63.9654 25.2789L49.2368 23.5489C48.9119 23.5489 48.6953 23.2245 48.8036 22.9001C48.8036 22.5757 49.1285 22.3595 49.4534 22.4676L64.2903 24.1976C64.6152 24.1976 64.8318 24.522 64.7235 24.8464C64.5069 25.0627 64.2903 25.2789 63.9654 25.2789Z" fill="#E2EBFF"/>
<path d="M74.7952 59.1233L45.4462 55.7713C45.1213 55.7713 44.9047 55.4469 45.013 55.1225C45.013 54.7981 45.3379 54.5819 45.6628 54.69L75.0118 58.042C75.3367 58.042 75.5533 58.3664 75.445 58.6908C75.445 58.907 75.1201 59.1233 74.7952 59.1233Z" fill="#E2EBFF"/>
<path d="M75.2285 55.9875L69.4887 55.3387C69.1638 55.3387 68.9472 55.0143 69.0555 54.69C69.0555 54.3656 69.3804 54.1493 69.7053 54.2574L75.4451 54.9062C75.77 54.9062 75.9866 55.2306 75.8783 55.555C75.77 55.8794 75.5534 56.0956 75.2285 55.9875Z" fill="#84A2FF"/>
<path d="M21.6208 60.2047H55.5183C56.8179 60.2047 57.9009 59.3396 58.3341 58.1502L59.5254 54.4738C59.9586 53.2844 61.0416 52.4194 62.3412 52.4194H102.628C105.336 52.4194 107.393 54.7982 106.96 57.5014L100.029 99.9962C99.596 102.483 97.43 104.429 94.8308 104.429H19.7797C17.1806 104.429 15.0146 102.591 14.5814 99.9962L8.94987 65.2867C8.51667 62.6916 10.5743 60.2047 13.2818 60.2047H14.2565" fill="white"/>
<path d="M21.6208 60.2047H55.5183C56.8179 60.2047 57.9009 59.3396 58.3341 58.1502L59.5254 54.4738C59.9586 53.2844 61.0416 52.4194 62.3412 52.4194H102.628C105.336 52.4194 107.393 54.7982 106.96 57.5014L100.029 99.9962C99.596 102.483 97.43 104.429 94.8308 104.429H19.7797C17.1806 104.429 15.0146 102.591 14.5814 99.9962L8.94987 65.2867C8.51667 62.6916 10.5743 60.2047 13.2818 60.2047H14.2565" stroke="#D81E5B" stroke-miterlimit="10" stroke-linecap="round" stroke-linejoin="round"/>
<path d="M44.3645 6.14007C43.9313 6.35632 43.4981 6.14007 43.2815 5.70755L41.4404 1.16613C41.2238 0.733613 41.4404 0.301097 41.8736 0.0848391C42.3068 -0.131419 42.74 0.0848391 42.9566 0.517355L44.7977 5.05878C45.0143 5.59942 44.7977 6.03194 44.3645 6.14007Z" fill="#D81E5B"/>
<path d="M41.0071 10.4653C40.7905 10.6815 40.5739 10.7896 40.249 10.6815L35.5922 9.81648C35.159 9.70835 34.8341 9.27583 34.9424 8.84332C35.0507 8.4108 35.4839 8.08641 35.9171 8.19454L40.5739 9.1677C41.0071 9.27583 41.332 9.70835 41.2237 10.1409C41.1154 10.249 41.1154 10.3571 41.0071 10.4653Z" fill="#D81E5B"/>
<path d="M50.5375 5.5995C50.4292 5.5995 50.3209 5.49137 50.1043 5.49137C49.7794 5.16698 49.6711 4.73447 49.996 4.30195L52.92 0.517433C53.2449 0.193046 53.6781 0.0849165 54.1113 0.409304C54.4362 0.733691 54.5445 1.16621 54.2196 1.59872L51.2956 5.38324C51.079 5.49137 50.7541 5.5995 50.5375 5.5995Z" fill="#D81E5B"/>
<path d="M42.3068 76.6402H18.9142C18.481 76.6402 18.0479 76.3158 18.0479 75.7752C18.0479 75.2345 18.3727 74.9102 18.9142 74.9102H42.4151C42.8483 74.9102 43.2815 75.2345 43.2815 75.7752C43.2815 76.3158 42.8483 76.6402 42.3068 76.6402Z" fill="#E2EBFF"/>
<path d="M34.5092 81.7223H20.4304C19.9972 81.7223 19.564 81.3979 19.564 80.8572C19.564 80.3166 19.9972 80.1003 20.4304 80.1003H34.5092C34.9424 80.1003 35.3756 80.4247 35.3756 80.9654C35.3756 81.506 34.9424 81.7223 34.5092 81.7223Z" fill="#E2EBFF"/>
<path d="M74.8163 87.5096C75.7567 89.0268 76.5529 90.6883 77.1324 92.2773C78.3645 96.2494 78.3697 100.437 77.0749 104.334C75.7804 108.375 73.1137 112.054 69.2183 114.648C60.1291 120.557 47.9974 118.087 42.0664 108.983C36.1353 99.8798 38.5751 87.7541 47.6644 81.8453C50.9106 79.7556 54.5912 78.6772 58.4174 78.6097C65.0593 78.6178 71.1999 82.0184 74.8163 87.5096Z" fill="#D81E5B"/>
<path d="M39.4434 89.0545C41.0276 85.7355 43.4787 82.8508 46.6526 80.6888C49.9709 78.527 53.868 77.3767 57.7665 77.3815C64.6249 77.3176 71.0545 80.863 74.8156 86.6431C75.8283 88.2327 76.6245 89.8941 77.2041 91.6275C78.5808 95.7442 78.514 100.148 77.2195 104.189C75.853 108.447 73.0421 112.27 69.0024 114.864C59.6247 121.061 46.9874 118.375 40.7672 108.982C38.5251 105.586 37.4375 101.758 37.3606 97.9319" stroke="#383A3F" stroke-miterlimit="10" stroke-linecap="round" stroke-linejoin="round"/>
<path d="M37.7896 94.756C37.8615 94.5395 37.8614 94.3951 37.9333 94.1787" stroke="#383A3F" stroke-miterlimit="10" stroke-linecap="round" stroke-linejoin="round"/>
<path d="M61.5938 92.6216L58.421 95.7944L55.2407 92.614C54.5901 91.9635 53.507 91.8898 52.7859 92.6109C52.137 93.2598 52.0663 94.3427 52.7891 95.0656L55.9695 98.2459L52.7967 101.419C52.1477 102.068 52.077 103.151 52.7999 103.873C53.5227 104.596 54.5332 104.597 55.2542 103.876L58.427 100.703L61.6077 103.884C62.2583 104.535 63.341 104.608 64.0621 103.887C64.711 103.238 64.7821 102.155 64.0593 101.433L60.8785 98.2519L64.0513 95.0791C64.7003 94.4302 64.7713 93.3476 64.0485 92.6248C63.3257 91.902 62.2427 91.9727 61.5938 92.6216Z" fill="white"/>
</svg>
