<svg width="119" height="79" viewBox="0 0 119 79" fill="none" xmlns="http://www.w3.org/2000/svg">
<g opacity="0.9">
<g clip-path="url(#clip0_4117_2122)">
<path d="M108.005 64.1885H4.99531C2.79233 64.1885 1 62.7397 1 60.9588V50.9365H112V60.9588C112 62.7397 110.208 64.1885 108.005 64.1885Z" fill="#E6E6E6"/>
<path d="M69.8321 62.5117H43.5635V77.6796H69.8321V62.5117Z" fill="#E6E6E6"/>
<path d="M71.4122 75.7637H41.9834V77.6796H71.4122V75.7637Z" fill="#E6E6E6"/>
<path d="M111.901 55.1675H1V4.2164C1 2.9943 2.22999 2 3.74178 2H109.159C110.671 2 111.901 2.9943 111.901 4.2164V55.1675Z" fill="#3F3D56"/>
<path d="M110.238 3.43359H2.76172V53.6223H110.238V3.43359Z" fill="white"/>
<path d="M7.7168 77.8215C7.7168 77.9207 7.81536 78.0003 7.9381 78.0003H105.062C105.184 78.0003 105.283 77.9207 105.283 77.8215C105.283 77.7223 105.184 77.6426 105.062 77.6426H7.9381C7.81536 77.6426 7.7168 77.7223 7.7168 77.8215Z" fill="#3F3D56"/>
<path d="M24.9943 30.4675L29.2389 26.969C29.529 26.7298 29.0745 26.3618 28.784 26.6012L24.5394 30.0997C24.2492 30.3389 24.7038 30.7069 24.9943 30.4675Z" fill="#E6E6E6"/>
<path d="M27.5559 31.4538C28.7273 30.605 29.7453 29.6222 30.5789 28.5438C30.7989 28.2592 30.2425 27.9978 30.0233 28.2813C29.2175 29.3239 28.2333 30.2655 27.101 31.086C26.792 31.3099 27.2482 31.6767 27.5559 31.4538Z" fill="#E6E6E6"/>
<path d="M29.8645 32.6335C30.931 31.6785 31.8389 30.6125 32.5537 29.4627C32.7391 29.1645 32.1843 28.9008 31.9981 29.2002C31.3076 30.3112 30.4403 31.3428 29.4095 32.2658C29.1327 32.5137 29.5863 32.8826 29.8645 32.6335Z" fill="#E6E6E6"/>
<path d="M104 9.37378V17.7488C104 18.9988 103.053 19.9988 101.869 19.9988H14.2495C13.0654 19.9988 12.1182 18.9988 12.1182 17.7488V9.37378C12.1182 8.12378 13.0654 7.12378 14.2495 7.12378H101.869C103.053 6.99878 104 8.12378 104 9.37378Z" fill="#E2EBFF"/>
<path d="M24.4325 7V20H14.1313C12.9472 20 12 19 12 17.75V9.375C12 8.125 12.9472 7.125 14.1313 7.125H24.4325V7Z" fill="#84A2FF"/>
<path d="M17.1657 16.209C16.9726 16.209 16.7795 16.1012 16.683 15.9935L15.1381 14.2698C14.8485 13.9466 14.8485 13.4079 15.1381 13.0847C15.4278 12.7615 15.9105 12.7615 16.2002 13.0847L17.1657 14.162L19.4829 11.5764C19.7726 11.2532 20.2553 11.2532 20.545 11.5764C20.8346 11.8996 20.8346 12.4383 20.545 12.7615L17.745 15.8858C17.5519 16.209 17.3588 16.209 17.1657 16.209Z" fill="white"/>
<path d="M104 24.3755V32.7496C104 33.9995 103.053 34.9994 101.869 34.9994H14.2466C13.0625 34.9994 12.1152 33.9995 12.1152 32.7496V24.3755C12.1152 23.1256 13.0625 22.1257 14.2466 22.1257H101.869C103.053 22.0007 104 23.1256 104 24.3755Z" fill="#E2EBFF"/>
<path d="M24.4327 22V34.9987H14.1313C12.9473 34.9987 12 33.9988 12 32.7489V24.3748C12 23.1249 12.9473 22.125 14.1313 22.125H24.4327V22Z" fill="#C0D6FF"/>
<path d="M104 39.3755V47.7496C104 48.9995 103.053 49.9994 101.869 49.9994H14.2466C13.0625 49.9994 12.1152 48.9995 12.1152 47.7496V39.3755C12.1152 38.1256 13.0625 37.1257 14.2466 37.1257H101.869C103.053 37.0007 104 38.1256 104 39.3755Z" fill="#E2EBFF"/>
<path d="M24.4327 37V49.9987H14.1313C12.9473 49.9987 12 48.9988 12 47.7489V39.3748C12 38.1249 12.9473 37.125 14.1313 37.125H24.4327V37Z" fill="#C0D6FF"/>
</g>
</g>
<path d="M117.257 64.7921C117.191 64.9879 117.191 65.2489 117.126 65.4446C116.93 66.1624 116.734 66.815 116.407 67.4023C114.903 70.7302 112.027 73.2098 108.562 74.1887C108.365 74.2539 108.169 74.3193 108.039 74.3193C106.273 74.7761 104.377 74.8411 102.482 74.4496C95.7478 73.0793 91.3675 66.4233 92.8058 59.7021C94.1787 52.9809 100.847 48.609 107.581 50.0446C110 50.5666 112.157 51.7413 113.857 53.4379C116.864 56.4396 118.172 60.6811 117.257 64.7921Z" fill="#EA67A4"/>
<path d="M102.285 49.2614C102.547 49.196 102.874 49.1309 103.135 49.1309" stroke="#182052" stroke-miterlimit="10" stroke-linecap="round" stroke-linejoin="round"/>
<path d="M95.0283 70.1428C92.544 67.2064 91.4326 63.226 92.2825 59.2455C93.067 55.4608 95.4859 52.3937 98.624 50.6318" stroke="#182052" stroke-miterlimit="10" stroke-linecap="round" stroke-linejoin="round"/>
<path d="M105.031 49C105.881 49 106.796 49.0652 107.646 49.261C110.13 49.783 112.419 51.0231 114.184 52.7849C117.322 55.8519 118.629 60.2892 117.714 64.5307C117.649 64.7917 117.649 64.9875 117.518 65.1833C117.322 65.9011 117.06 66.5533 116.799 67.2059C115.23 70.6644 112.222 73.2095 108.627 74.2535C108.431 74.3188 108.234 74.3839 108.038 74.3839C106.208 74.8406 104.246 74.906 102.22 74.5145C100.455 74.123 98.8201 73.4051 97.3818 72.4916" stroke="#182052" stroke-miterlimit="10" stroke-linecap="round" stroke-linejoin="round"/>
<path d="M104.229 64.5263C104.229 63.7447 104.296 63.1828 104.429 62.8404C104.562 62.4981 104.844 62.1241 105.275 61.7184C105.651 61.371 105.938 61.0696 106.136 60.8141C106.333 60.5586 106.432 60.2666 106.431 59.9382C106.431 59.5425 106.305 59.2145 106.053 58.9539C105.801 58.6934 105.45 58.5632 105 58.5632C104.532 58.5632 104.177 58.7127 103.934 59.0118C103.691 59.311 103.519 59.6149 103.417 59.9237L102 59.2868C102.193 58.6693 102.546 58.1338 103.06 57.6803C103.573 57.2268 104.22 57 105 57C105.963 57 106.704 57.2823 107.223 57.847C107.741 58.4117 108 59.0894 108 59.8803C108 60.3627 107.901 60.7753 107.704 61.118C107.507 61.4608 107.198 61.8491 106.775 62.2829C106.326 62.7364 106.053 63.0814 105.957 63.318C105.861 63.5546 105.812 63.9574 105.812 64.5263H104.229ZM105 68C104.697 68 104.438 67.8867 104.223 67.6601C104.007 67.4336 103.899 67.1609 103.899 66.8421C103.899 66.5233 104.007 66.2508 104.223 66.0246C104.439 65.7984 104.698 65.685 105 65.6842C105.302 65.6834 105.561 65.7969 105.778 66.0246C105.994 66.2523 106.102 66.5248 106.101 66.8421C106.1 67.1594 105.992 67.432 105.778 67.6601C105.563 67.8882 105.304 68.0015 105 68Z" fill="white"/>
<path d="M2.58691 78.5988C2.58691 78.6546 2.63058 78.6995 2.68496 78.6995H20.6689C20.7233 78.6995 20.767 78.6546 20.767 78.5988C20.767 78.5429 20.7233 78.498 20.6689 78.498H2.68496C2.63058 78.498 2.58691 78.5429 2.58691 78.5988Z" fill="#CCCCCC"/>
<path d="M18.9531 78.7H4.41824C2.64597 78.7 1.2041 77.2185 1.2041 75.3975V43.3025C1.2041 41.4815 2.64597 40 4.41824 40H18.9531C20.7254 40 22.1672 41.4815 22.1672 43.3025V75.3975C22.1672 77.2185 20.7254 78.7 18.9531 78.7Z" fill="#3F3D56"/>
<path d="M22.1672 51.8057C22.0922 51.8057 22.0312 51.8683 22.0312 51.9454V56.4161C22.0312 56.4932 22.0922 56.5558 22.1672 56.5558C22.2422 56.5558 22.3032 56.4932 22.3032 56.4161V51.9454C22.3032 51.8683 22.2422 51.8057 22.1672 51.8057Z" fill="#3F3D56"/>
<path d="M21.861 43.3029V75.3973C21.861 76.9823 20.6604 78.2788 19.1422 78.3794H19.1415C19.1191 78.3808 19.0967 78.3822 19.0735 78.3829C19.0334 78.385 18.9933 78.3857 18.9525 78.3857C18.9525 78.3857 18.803 78.3745 18.5296 78.3536C18.2536 78.3326 17.8518 78.3012 17.3508 78.26C17.2005 78.2481 17.0421 78.2348 16.8748 78.2209C16.5417 78.1929 16.1759 78.1622 15.7837 78.1273C15.6273 78.114 15.4655 78.0993 15.3003 78.0846C14.4559 78.0099 13.5102 77.9226 12.5128 77.8234C12.3442 77.8073 12.1742 77.7906 12.0029 77.7731C11.958 77.7682 11.9125 77.764 11.8669 77.7591C11.1558 77.6872 1.50977 75.7717 1.50977 75.3973V43.3029C1.50976 41.6522 2.81172 40.3145 4.41825 40.3145H6.15463C6.43202 40.3145 6.65501 40.5366 6.67881 40.8209C6.68085 40.8398 6.68289 40.8586 6.68629 40.8775C6.7366 41.1632 6.99155 41.3623 7.27437 41.3623H16.0964C16.3792 41.3623 16.6342 41.1632 16.6845 40.8775C16.6879 40.8586 16.6899 40.8398 16.692 40.8209C16.7158 40.5366 16.9388 40.3145 17.2161 40.3145H18.9525C20.5591 40.3145 21.861 41.6522 21.861 43.3029Z" fill="white"/>
<path d="M1.13597 48.4521C1.06098 48.4521 1 48.5148 1 48.5919V49.7095C1 49.7866 1.06098 49.8493 1.13597 49.8493C1.21096 49.8493 1.27195 49.7866 1.27195 49.7095V48.5919C1.27195 48.5148 1.21096 48.4521 1.13597 48.4521Z" fill="#3F3D56"/>
<path d="M1.13597 51.8057C1.06098 51.8057 1 51.8683 1 51.9454V54.1109C1 54.1879 1.06098 54.2506 1.13597 54.2506C1.21096 54.2506 1.27195 54.1879 1.27195 54.1109V51.9454C1.27195 51.8683 1.21096 51.8057 1.13597 51.8057Z" fill="#3F3D56"/>
<path d="M1.13597 54.8789C1.06098 54.8789 1 54.9416 1 55.0186V57.1841C1 57.2612 1.06098 57.3239 1.13597 57.3239C1.21096 57.3239 1.27195 57.2612 1.27195 57.1841V55.0186C1.27195 54.9416 1.21096 54.8789 1.13597 54.8789Z" fill="#3F3D56"/>
<path d="M20 44.7537V51.2537C20 52.2239 19.8351 53 19.6289 53H4.37113C4.16495 53 4 52.2239 4 51.2537V44.7537C4 43.7835 4.16495 43.0074 4.37113 43.0074H19.6289C19.8351 42.9104 20 43.7835 20 44.7537Z" fill="#84A2FF"/>
<path d="M20 55.7537V62.2537C20 63.2239 19.8351 64 19.6289 64H4.37113C4.16495 64 4 63.2239 4 62.2537V55.7537C4 54.7835 4.16495 54.0074 4.37113 54.0074H19.6289C19.8351 53.9104 20 54.7835 20 55.7537Z" fill="#E2EBFF"/>
<path d="M20 66.7537V73.2537C20 74.2239 19.8351 75 19.6289 75H4.37113C4.16495 75 4 74.2239 4 73.2537V66.7537C4 65.7835 4.16495 65.0074 4.37113 65.0074H19.6289C19.8351 64.9104 20 65.7835 20 66.7537Z" fill="#E2EBFF"/>
<path d="M11.3058 50C11.1074 50 10.9091 49.9116 10.8099 49.8232L9.22314 48.4088C8.92562 48.1436 8.92562 47.7017 9.22314 47.4365C9.52066 47.1713 10.0165 47.1713 10.3141 47.4365L11.3058 48.3204L13.6859 46.1989C13.9835 45.9337 14.4793 45.9337 14.7769 46.1989C15.0744 46.4641 15.0744 46.9061 14.7769 47.1713L11.9008 49.7348C11.7025 50 11.5041 50 11.3058 50Z" fill="white"/>
<defs>
<clipPath id="clip0_4117_2122">
<rect width="111" height="76" fill="white" transform="translate(1 2)"/>
</clipPath>
</defs>
</svg>
